<svg width="209" height="33" viewBox="0 0 209 33" fill="none" xmlns="http://www.w3.org/2000/svg">
<g id="ACI_Worldwide_Universal_Payments_Corporate_Logo 1" clip-path="url(#clip0_68_66)">
<path id="Vector" d="M114.018 13.1628C111.118 13.1628 109.138 11.3995 109.138 8.10811V1.33586H110.464V8.02321C110.464 10.5375 111.824 11.9481 114.051 11.9481C116.218 11.9481 117.584 10.6485 117.584 8.10158V1.33586H118.911V8.00362C118.918 11.3995 116.951 13.1628 114.018 13.1628ZM131.984 1.33586H130.691V10.6681L123.291 1.33586H122.051V12.9799H123.338V3.43219L130.924 12.9799H131.984V1.33586ZM135.424 12.9799H136.751V1.33586H135.424V12.9799ZM150.458 1.33586H149.031L144.844 11.3604L140.664 1.33586H139.191L144.238 13.0583H145.411L150.458 1.33586ZM161.344 11.7783H154.098V7.70321H160.504V6.50811H154.098V2.53096H161.264V1.33586H152.778V12.9799H161.351V11.7783H161.344ZM168.964 2.55056C170.864 2.55056 171.964 3.41913 171.964 4.88199C171.964 6.3775 170.704 7.27872 168.944 7.27872H165.338V2.55056H168.964ZM170.118 8.21913C171.964 7.88607 173.304 6.75627 173.304 4.79056C173.304 3.87627 172.971 3.06647 172.398 2.49831C171.664 1.76688 170.504 1.33586 169.064 1.33586H164.011V12.9799H165.338V8.45423H168.691L172.098 12.9799H173.724L170.118 8.21913ZM184.178 9.81913C184.178 8.0428 182.971 7.08933 180.358 6.5277C177.771 5.97913 177.164 5.36525 177.164 4.22892C177.164 3.18403 178.138 2.35464 179.664 2.35464C180.871 2.35464 181.964 2.73341 183.058 3.61505L183.831 2.6028C182.638 1.65586 181.418 1.1726 179.704 1.1726C177.478 1.1726 175.844 2.52443 175.844 4.38566C175.844 6.29913 177.091 7.16117 179.791 7.74239C182.251 8.25831 182.844 8.87219 182.844 9.98239C182.844 11.1318 181.804 11.9612 180.224 11.9612C178.598 11.9612 177.424 11.4126 176.198 10.3155L175.378 11.282C176.784 12.5293 178.318 13.1432 180.178 13.1432C182.498 13.1432 184.178 11.8436 184.178 9.81913ZM194.244 8.70239H188.891L191.578 2.77913L194.244 8.70239ZM192.218 1.2575H190.978L185.618 12.9734H186.978L188.371 9.8975H194.758L196.138 12.9734H197.564L192.218 1.2575ZM207.818 11.7653H201.211V1.33586H199.884V12.9799H207.818V11.7653ZM113.631 22.2012C115.171 22.2012 116.164 22.913 116.164 24.3171C116.164 25.5318 115.191 26.3938 113.631 26.3938H111.231V22.2012H113.631ZM111.231 28.2355H113.564C116.144 28.2355 118.264 26.8706 118.264 24.2322C118.264 21.8877 116.558 20.3399 113.804 20.3399H109.178V31.9775H111.238V28.2355H111.231ZM124.284 22.704L126.318 27.3604H122.271L124.284 22.704ZM130.444 31.9775L125.278 20.255H123.364L118.198 31.9775H120.311L121.524 29.1628H127.078L128.271 31.9775H130.444ZM136.144 27.3408L140.804 20.3399H138.444L135.118 25.4795L131.851 20.3399H129.404L134.064 27.393V31.9775H136.144V27.3408ZM151.964 20.3399L148.391 25.8453L144.818 20.3399H142.624V31.984H144.651V23.664L148.324 29.1171H148.391L152.098 23.6314V31.9775H154.158V20.3399H151.964ZM165.978 30.1489H159.251V27.0208H165.144V25.1922H159.251V22.1685H165.891V20.3399H157.184V31.984H165.978V30.1489ZM178.658 20.3399H176.624V28.3922L170.338 20.3399H168.424V31.984H170.451V23.6967L176.931 31.9775H178.658V20.3399ZM186.644 22.2338H190.371V20.3399H180.844V22.2338H184.571V31.9775H186.651V22.2338H186.644ZM200.604 28.6404C200.604 26.7073 199.331 25.8322 196.844 25.2314C194.578 24.6959 194.044 24.2975 194.044 23.3636C194.044 22.5995 194.744 21.9857 195.951 21.9857C197.024 21.9857 198.078 22.4036 199.138 23.1808L200.251 21.633C199.058 20.6861 197.704 20.1701 195.991 20.1701C193.658 20.1701 191.978 21.5546 191.978 23.5791C191.978 25.7212 193.391 26.4591 195.891 27.0534C198.071 27.5497 198.538 28.0004 198.538 28.8624C198.538 29.731 197.731 30.3252 196.458 30.3252C195.018 30.3252 193.871 29.7767 192.751 28.8167L191.511 30.2795C192.918 31.5269 194.618 32.1408 196.411 32.1408C198.871 32.1473 200.604 30.8477 200.604 28.6404ZM86.0245 31.4028V1.59709C86.0245 1.11382 85.6311 0.728516 85.1444 0.728516H76.2911C75.8045 0.728516 75.4178 1.12035 75.4178 1.59709V31.4028C75.4178 31.8861 75.8111 32.2714 76.2978 32.2714H85.1511C85.6311 32.2714 86.0245 31.8861 86.0245 31.4028ZM68.4711 32.2714C68.8311 32.2714 69.1578 32.0559 69.3045 31.7489L71.9578 26.0608L72.0245 25.7212C72.0245 25.2379 71.6311 24.8526 71.1444 24.8526H61.5045C55.7511 24.8526 52.4378 22.9587 52.4378 17.0746V15.9644C52.4378 10.0804 55.7511 8.193 61.5045 8.193H71.1511C71.6378 8.193 72.0311 7.80117 72.0311 7.32443L71.9645 6.99137L69.3111 1.29668C69.1645 0.98974 68.8445 0.767699 68.4778 0.767699H59.8178C46.3911 0.767699 40.3311 6.22729 40.3311 15.4746V17.571C40.3311 26.8183 46.3978 32.2779 59.8178 32.2779L68.4711 32.2714ZM12.2511 31.775L26.2978 1.93015L26.3578 1.60362C26.3578 1.12688 25.9711 0.735046 25.4845 0.735046H16.0511C15.7045 0.735046 15.4045 0.937495 15.2578 1.23137L1.25112 30.9979C1.15779 31.1873 1.15112 31.3375 1.15112 31.4028C1.15112 31.8861 1.55112 32.2714 2.03112 32.2714H11.4578C11.8111 32.2714 12.1111 32.0689 12.2511 31.775ZM41.2045 31.4028C41.2045 31.2852 41.1845 31.1612 41.1245 31.0306L30.2245 7.873C30.0845 7.57913 29.7778 7.37668 29.4311 7.37668C29.0778 7.37668 28.7778 7.57913 28.6445 7.86647L23.9111 17.9301C23.8178 18.0999 23.8178 18.2632 23.8178 18.322C23.8178 18.4591 23.8511 18.5832 23.9045 18.7008L30.0645 31.7685C30.2111 32.095 30.5445 32.2714 30.8645 32.2714H40.3245C40.8111 32.2714 41.2045 31.8861 41.2045 31.4028ZM204.371 31.873C204.571 31.7555 204.671 31.553 204.671 31.2722C204.671 31.0501 204.591 30.8804 204.438 30.7628C204.351 30.6975 204.224 30.6387 204.058 30.6061L203.711 30.5277C203.478 30.4689 203.331 30.4297 203.264 30.3906L203.111 30.1228L203.238 29.8289C203.324 29.744 203.464 29.7048 203.658 29.7048C203.898 29.7048 204.071 29.7701 204.171 29.9008C204.224 29.9726 204.258 30.0771 204.278 30.2142H204.598C204.598 29.9334 204.504 29.731 204.324 29.6004C204.144 29.4697 203.924 29.411 203.664 29.411C203.384 29.411 203.164 29.4828 203.011 29.633C202.858 29.7767 202.778 29.9595 202.778 30.1881C202.778 30.3971 202.858 30.5538 203.011 30.6583C203.098 30.7171 203.258 30.7759 203.471 30.8216L203.804 30.8999C203.984 30.9391 204.118 30.9914 204.204 31.0501C204.291 31.1089 204.331 31.2069 204.331 31.344C204.331 31.5269 204.231 31.6575 204.031 31.7293L203.691 31.7816C203.411 31.7816 203.218 31.6967 203.111 31.5334C203.051 31.442 203.018 31.331 203.011 31.1873H202.691C202.691 31.4616 202.771 31.6771 202.944 31.8338C203.118 31.9906 203.358 32.0755 203.664 32.0755C203.938 32.0559 204.164 31.9971 204.371 31.873ZM207.578 29.4697H207.091L206.364 31.5922L205.638 29.4697H205.144V31.984H205.471V30.5016C205.471 30.4428 205.471 30.3514 205.464 30.2208L205.458 29.9399V29.8616L206.191 31.984H206.531L207.258 29.8616C207.258 29.9987 207.258 30.1228 207.258 30.2469L207.251 30.5016V31.984H207.578V29.4697Z" fill="#A6A6A6"/>
</g>
<defs>
<clipPath id="clip0_68_66">
<rect width="208" height="32" fill="white" transform="translate(0.484497 0.5)"/>
</clipPath>
</defs>
</svg>
