<svg width="167" height="31" viewBox="0 0 167 31" fill="none" xmlns="http://www.w3.org/2000/svg">
<g id="Afterpay_logo 1" clip-path="url(#clip0_68_57)">
<path id="Vector" d="M14.1467 15.1699C14.1467 12.3837 12.0511 10.4255 9.47695 10.4255C6.90279 10.4255 4.80718 12.4167 4.80718 15.1699C4.80718 17.8901 6.90279 19.9144 9.47695 19.9144C12.0537 19.9118 14.1467 17.9561 14.1467 15.1699ZM14.1835 23.4626V21.3062C12.9135 22.7997 11.023 23.7267 8.75913 23.7267C4.05518 23.7267 0.484497 20.0769 0.484497 15.1699C0.484497 10.2934 4.19191 6.58008 8.8643 6.58008C11.0625 6.58008 12.9162 7.50967 14.1861 8.96755V6.87724H18.4089V23.4626H14.1835Z" fill="#A6A6A6"/>
<path id="Vector_2" d="M38.9206 19.7796C37.4429 19.7796 37.0327 19.2487 37.0327 17.8569V10.4938H39.7462V6.87712H37.0327V2.83113H32.7048V6.87712H27.1305V5.8688C27.1305 4.47442 27.6801 3.94358 29.192 3.94358H30.1412V0.725586H28.0587C24.488 0.725586 22.8052 1.85328 22.8052 5.30241V6.87458H20.402V10.4913H22.8052V23.4598H27.1332V10.4913H32.7074V18.6188C32.7074 22.0019 34.0458 23.4624 37.5481 23.4624H39.7804V19.7796H38.9206Z" fill="#A6A6A6"/>
<path id="Vector_3" d="M54.4418 13.6766C54.1341 11.5202 52.312 10.2274 50.1848 10.2274C48.055 10.2274 46.3039 11.4872 45.8595 13.6766H54.4418ZM45.8227 16.2647C46.133 18.7182 47.9525 20.1126 50.2532 20.1126C52.0727 20.1126 53.4821 19.282 54.305 17.9562H58.7355C57.7048 21.4714 54.4418 23.7268 50.1507 23.7268C44.9655 23.7268 41.3265 20.2116 41.3265 15.203C41.3265 10.1944 45.1733 6.57764 50.2558 6.57764C55.3726 6.57764 59.08 10.2275 59.08 15.203C59.08 15.5688 59.0458 15.932 58.9774 16.2647H45.8227Z" fill="#A6A6A6"/>
<path id="Vector_4" d="M86.5964 15.1699C86.5964 12.4827 84.5008 10.4255 81.9266 10.4255C79.3525 10.4255 77.2568 12.4167 77.2568 15.1699C77.2568 17.8901 79.3525 19.9144 81.9266 19.9144C84.5008 19.9118 86.5964 17.8571 86.5964 15.1699ZM72.9973 6.87724H77.22V9.03358C78.49 7.50712 80.3779 6.58008 82.6444 6.58008C87.28 6.58008 90.9191 10.2629 90.9191 15.1369C90.9191 20.0134 87.2116 23.7292 82.5419 23.7292C80.3779 23.7292 78.5926 22.8987 77.3568 21.5069V30.2872H72.9973V6.87724Z" fill="#A6A6A6"/>
<path id="Vector_5" d="M106.14 15.1699C106.14 12.3837 104.047 10.4255 101.47 10.4255C98.8965 10.4255 96.8009 12.4167 96.8009 15.1699C96.8009 17.8901 98.8965 19.9144 101.47 19.9144C104.047 19.9118 106.14 17.9561 106.14 15.1699ZM106.177 23.4626V21.3062C104.907 22.7997 103.016 23.7267 100.752 23.7267C96.0489 23.7267 92.4783 20.0769 92.4783 15.1699C92.4783 10.2934 96.1857 6.58008 100.855 6.58008C103.053 6.58008 104.907 7.50967 106.177 8.96755V6.87724H110.4V23.4626H106.177Z" fill="#A6A6A6"/>
<path id="Vector_6" d="M65.3852 8.50275C65.3852 8.50275 66.4607 6.58008 69.0926 6.58008C70.218 6.58008 70.9464 6.95343 70.9464 6.95343V11.1849C70.9464 11.1849 69.3582 10.2375 67.8989 10.428C66.4396 10.6185 65.5167 11.9138 65.522 13.646V23.4651H61.1625V6.87978H65.3852V8.50275Z" fill="#A6A6A6"/>
<path id="Vector_7" d="M130.123 6.87695L119.461 30.2335H114.965L119.151 21.2043L112.073 6.87695H117.169L121.31 16.4497L125.559 6.87695H130.123Z" fill="#A6A6A6"/>
<path id="Vector_8" d="M164.157 6.50128L153.587 0.608807C150.484 -1.12083 146.606 1.04059 146.606 4.50241V5.1069C146.606 5.65297 146.908 6.1584 147.397 6.43016L149.393 7.54262C149.979 7.87027 150.71 7.46135 150.71 6.80861V5.30501C150.71 4.55321 151.552 4.08334 152.225 4.45924L161.38 9.56435C162.054 9.94025 162.054 10.88 161.38 11.2534L152.225 16.3585C151.552 16.7344 150.71 16.2645 150.71 15.5127V14.7126C150.71 11.2508 146.832 9.08686 143.727 10.819L133.157 16.7115C130.054 18.4412 130.054 22.7691 133.157 24.4987L143.727 30.3912C146.829 32.1208 150.71 29.9594 150.71 26.4976V25.8931C150.71 25.347 150.408 24.8441 149.919 24.5698L147.923 23.4548C147.337 23.1272 146.606 23.5361 146.606 24.1889V25.6925C146.606 26.4443 145.765 26.9141 145.091 26.5382L135.936 21.4331C135.263 21.0572 135.263 20.1175 135.936 19.7416L145.091 14.6364C145.765 14.2605 146.606 14.7304 146.606 15.4822V16.2823C146.606 19.7441 150.484 21.9081 153.587 20.1759L164.157 14.2834C167.26 12.5588 167.26 8.23092 164.157 6.50128Z" fill="#A6A6A6"/>
</g>
<defs>
<clipPath id="clip0_68_57">
<rect width="166" height="31" fill="white" transform="translate(0.484497)"/>
</clipPath>
</defs>
</svg>
