<svg width="92" height="37" viewBox="0 0 92 37" fill="none" xmlns="http://www.w3.org/2000/svg">
<g id="apple-pay 1" clip-path="url(#clip0_68_55)">
<path id="Vector" d="M17.0878 4.73712C16.023 5.98447 14.3194 6.96553 12.6158 6.82538C12.4029 5.14356 13.2405 3.34962 14.22 2.25644C15.2848 0.981061 17.1445 0.0700758 18.6636 0C18.8339 1.73788 18.1383 3.46174 17.0878 4.73712ZM18.6352 7.14773C16.165 7.00758 14.0497 8.53523 12.8856 8.53523C11.6931 8.53523 9.90429 7.2178 7.94517 7.25985C5.40398 7.30189 3.04735 8.71742 1.75546 10.9739C-0.913491 15.5008 1.05983 22.186 3.64361 25.872C4.9071 27.6939 6.41194 29.6981 8.39946 29.628C10.2876 29.558 11.0258 28.4227 13.2973 28.4227C15.5829 28.4227 16.2502 29.628 18.2377 29.6C20.2962 29.558 21.5881 27.778 22.8516 25.9561C24.2854 23.8818 24.8817 21.8776 24.9101 21.7655C24.8675 21.7235 20.935 20.2379 20.8924 15.753C20.8498 11.997 24.0015 10.217 24.1434 10.1049C22.3689 7.49811 19.6005 7.2178 18.6352 7.14773ZM32.8885 2.07424V29.3898H37.1901V20.0557H43.1385C48.5757 20.0557 52.3804 16.3697 52.3804 11.0439C52.3804 5.71818 48.6325 2.07424 43.2804 2.07424H32.8885ZM37.1901 5.64811H42.1447C45.8784 5.64811 48.0079 7.61023 48.0079 11.058C48.0079 14.5057 45.8784 16.4958 42.1305 16.4958H37.1901V5.64811ZM60.2169 29.6C62.9143 29.6 65.4129 28.2545 66.5486 26.1102H66.6338V29.3898H70.6088V15.7951C70.6088 11.8568 67.4146 9.30606 62.5026 9.30606C57.9455 9.30606 54.5667 11.8848 54.4389 15.4167H58.3146C58.6411 13.7348 60.2169 12.6277 62.3748 12.6277C65.0012 12.6277 66.4776 13.833 66.4776 16.0614V17.575L61.1113 17.8973C56.1283 18.1917 53.431 20.2098 53.431 23.7136C53.4452 27.2455 56.2277 29.6 60.2169 29.6ZM61.381 26.3625C59.0954 26.3625 57.6332 25.2693 57.6332 23.6155C57.6332 21.8917 59.0386 20.8966 61.7218 20.7424L66.4918 20.4481V21.9898C66.4918 24.5405 64.2913 26.3625 61.381 26.3625ZM75.9325 36.8178C80.1205 36.8178 82.0938 35.2341 83.8116 30.4549L91.35 9.57235H86.9775L81.9235 25.7038H81.8383L76.7843 9.57235H72.2982L79.5668 29.4598L79.1693 30.6651C78.5163 32.7114 77.4516 33.5102 75.5492 33.5102C75.2085 33.5102 74.5555 33.4682 74.2857 33.4401V36.7197C74.5413 36.7758 75.606 36.8178 75.9325 36.8178Z" fill="#A6A6A6"/>
</g>
<defs>
<clipPath id="clip0_68_55">
<rect width="91" height="37" fill="white" transform="translate(0.484497)"/>
</clipPath>
</defs>
</svg>
