<svg width="24" height="24" viewBox="0 0 24 24" fill="none" xmlns="http://www.w3.org/2000/svg">
<g id="markunread_mailbox">
<mask id="mask0_75_721" style="mask-type:alpha" maskUnits="userSpaceOnUse" x="0" y="0" width="24" height="24">
<rect id="Bounding box" width="24" height="24" fill="#D9D9D9"/>
</mask>
<g mask="url(#mask0_75_721)">
<path id="markunread_mailbox_2" d="M4 22C3.45 22 2.97933 21.8043 2.588 21.413C2.196 21.021 2 20.55 2 20V10C2 9.45 2.196 8.979 2.588 8.587C2.97933 8.19567 3.45 8 4 8H6V2H14V6H8V14H10V8H20C20.55 8 21.021 8.19567 21.413 8.587C21.8043 8.979 22 9.45 22 10V20C22 20.55 21.8043 21.021 21.413 21.413C21.021 21.8043 20.55 22 20 22H4Z" fill="#595959"/>
</g>
</g>
</svg>
