<svg width="102" height="81" viewBox="0 0 102 81" fill="none" xmlns="http://www.w3.org/2000/svg">
<g id="salesforce 1">
<path id="Vector" d="M39.6668 38.8772H35.4673C35.5773 38.0689 35.9964 36.6653 37.6412 36.6653C38.717 36.6653 39.5489 37.2637 39.6668 38.8772ZM61.447 36.7029C61.3721 36.7029 59.1982 36.4256 59.1982 39.8359C59.1982 43.2461 61.3705 42.9688 61.447 42.9688C63.5189 42.9688 63.6958 40.8478 63.6958 39.8359C63.6958 36.4272 61.5187 36.7029 61.447 36.7029ZM22.6838 40.4249C22.5092 40.5595 22.3702 40.7337 22.2789 40.9325C22.1876 41.1314 22.1466 41.349 22.1595 41.5668C22.1595 42.3156 22.491 42.5146 22.6838 42.6712C23.4329 43.2508 25.0856 43.0033 26.0195 42.82V40.1664C25.1717 39.9988 23.3532 39.8594 22.6838 40.4249ZM102 36.7405C102 50.4598 89.25 60.9255 75.6457 58.1121C72.718 63.2815 64.3731 69.195 54.5764 64.6334C48.0165 79.6796 26.2251 79.0733 20.5004 63.8236C1.42002 67.5659 -7.99905 42.148 8.50424 32.6065C2.96596 20.1639 12.1125 5.41064 26.7224 5.41064C29.7606 5.4125 32.7577 6.10154 35.4816 7.42443C38.2055 8.74732 40.5831 10.6686 42.4304 13.0395C45.7295 9.68717 50.3035 7.5865 55.3637 7.5865C62.1116 7.5865 67.9543 11.2709 71.1099 16.7614C85.9031 10.389 102 21.1836 102 36.7405ZM19.1967 41.7219C19.1967 39.8797 17.3336 39.3456 16.3487 39.0323C15.5088 38.7017 14.2115 38.4824 14.2115 37.6318C14.2115 36.1499 16.9208 36.5885 18.2229 37.2997C18.2229 37.2997 18.4094 37.4109 18.4843 37.2261C18.5225 37.1164 18.8604 36.1953 18.8971 36.0841C18.9114 36.0403 18.9077 35.9927 18.8869 35.9514C18.866 35.9102 18.8297 35.8786 18.7855 35.8632C16.8204 34.668 12.299 34.5302 12.299 37.8527C12.299 39.8045 14.1302 40.2713 15.1486 40.5424C15.9008 40.7899 17.2475 41.0123 17.2475 41.9052C17.2475 42.5318 16.685 43.0111 15.7861 43.0111C14.694 43.0093 13.6317 42.6604 12.758 42.0164C12.683 41.9804 12.5316 41.9052 12.495 42.1276L12.1125 43.2978C12.0376 43.4451 12.1491 43.4827 12.1491 43.5187C12.428 43.738 13.7907 44.551 15.7861 44.551C17.885 44.551 19.1967 43.4451 19.1967 41.7141V41.7219ZM24.2967 35.0518C22.6822 35.0518 21.3228 35.5484 20.8861 35.8632C20.8686 35.8751 20.8537 35.8903 20.8423 35.9079C20.8309 35.9255 20.8232 35.9452 20.8197 35.9658C20.8161 35.9863 20.8168 36.0074 20.8216 36.0277C20.8264 36.0481 20.8353 36.0672 20.8478 36.0841L21.2606 37.1901C21.2718 37.2285 21.2975 37.2612 21.3325 37.2816C21.3674 37.302 21.409 37.3085 21.4487 37.2997C21.5523 37.2997 22.5324 36.6731 24.1469 36.6731C24.7844 36.6731 25.2721 36.7843 25.61 37.0428C26.1837 37.4814 26.0976 38.3414 26.0976 38.7002C25.3342 38.6532 23.052 38.1613 21.4104 39.2892C21.0362 39.5414 20.7328 39.8824 20.5283 40.2805C20.3238 40.6787 20.2249 41.1211 20.2406 41.5668C20.2406 42.4911 20.4813 43.196 21.2909 43.8148C23.2416 45.093 27.073 44.1281 27.3631 44.0356C27.6149 43.9855 27.9257 43.9322 27.9257 43.7411V38.4339C27.932 37.7117 27.9767 35.044 24.2951 35.044L24.2967 35.0518ZM31.7156 31.7653C31.7173 31.7406 31.7135 31.7159 31.7046 31.6927C31.6958 31.6695 31.682 31.6485 31.6642 31.631C31.6464 31.6135 31.625 31.6 31.6014 31.5912C31.5779 31.5825 31.5527 31.5788 31.5275 31.5805H29.9625C29.9375 31.5791 29.9125 31.5829 29.8891 31.5917C29.8658 31.6006 29.8446 31.6142 29.8269 31.6316C29.8093 31.6491 29.7957 31.6701 29.7869 31.6931C29.7781 31.7161 29.7744 31.7407 29.776 31.7653V44.1406C29.7744 44.1651 29.7781 44.1897 29.7869 44.2128C29.7957 44.2358 29.8093 44.2568 29.8269 44.2743C29.8446 44.2917 29.8658 44.3053 29.8891 44.3141C29.9125 44.323 29.9375 44.3268 29.9625 44.3254H31.5371C31.5622 44.327 31.5874 44.3234 31.611 44.3146C31.6345 44.3059 31.6559 44.2924 31.6737 44.2749C31.6915 44.2574 31.7053 44.2363 31.7142 44.2132C31.7231 44.19 31.7268 44.1653 31.7252 44.1406L31.7156 31.7653ZM40.6008 36.2972C40.2661 35.9353 39.5186 35.1176 37.7878 35.1176C37.2284 35.1176 35.531 35.1536 34.4887 36.518C33.4767 37.7133 33.44 39.3549 33.44 39.8719C33.44 40.3606 33.464 42.1057 34.5652 43.1882C34.986 43.644 36.0092 44.4774 38.2006 44.4774C39.925 44.4774 40.8255 44.1093 41.1618 43.8884C41.2367 43.8508 41.2749 43.7772 41.2 43.5939L40.8255 42.524C40.8063 42.4833 40.7735 42.4503 40.7327 42.4304C40.6919 42.4105 40.6453 42.4048 40.6008 42.4143C40.188 42.5616 39.5887 42.8561 38.1639 42.8561C35.3876 42.8561 35.4785 40.5471 35.4641 40.24H41.3881C41.4313 40.2391 41.4731 40.2242 41.5068 40.1976C41.5405 40.171 41.5644 40.1341 41.5745 40.0928C41.5283 40.0928 41.9045 37.79 40.604 36.2972H40.6008ZM46.4482 44.551C48.5472 44.551 49.8605 43.4451 49.8605 41.7141C49.8605 39.8719 47.9958 39.3377 47.0108 39.0244C46.351 38.7644 44.8736 38.4949 44.8736 37.624C44.8736 37.035 45.398 36.6293 46.2235 36.6293C47.1505 36.6476 48.061 36.8742 48.8851 37.2919C48.8851 37.2919 49.0731 37.4031 49.1481 37.2183C49.1847 37.1086 49.5226 36.1875 49.5592 36.0763C49.5735 36.0324 49.5699 35.9848 49.549 35.9436C49.5282 35.9024 49.4918 35.8707 49.4477 35.8554C48.187 35.0878 46.7797 35.0816 46.2235 35.0816C44.311 35.0816 42.9627 36.2235 42.9627 37.8449C42.9627 39.7967 44.7923 40.2635 45.8107 40.5345C46.7845 40.8478 47.9097 41.0452 47.9097 41.8974C47.9097 42.524 47.3487 43.0033 46.4482 43.0033C45.3562 43.0011 44.2941 42.6522 43.4201 42.0086C43.3975 41.9895 43.3699 41.977 43.3404 41.9726C43.3109 41.9682 43.2807 41.972 43.2533 41.9836C43.2259 41.9952 43.2024 42.0141 43.1854 42.0382C43.1684 42.0622 43.1586 42.0905 43.1571 42.1198L42.7826 43.2978C42.7077 43.4451 42.8193 43.4827 42.8193 43.5187C43.0934 43.738 44.4656 44.551 46.4514 44.551H46.4482ZM56.9112 35.4873C56.9112 35.3761 56.873 35.3024 56.7231 35.3024H54.8489C54.8489 35.2805 54.9987 33.902 55.5613 33.349C56.2243 32.6989 57.4356 33.0921 57.4738 33.0921C57.6603 33.1657 57.6985 33.0921 57.7352 33.0185L58.1862 31.8013C58.2978 31.6541 58.1862 31.618 58.148 31.5805C57.3367 31.2672 55.3828 31.1309 54.2496 32.2446C53.3763 33.1031 53.134 34.4252 52.9746 35.3024H51.6247C51.5764 35.3064 51.531 35.3272 51.4968 35.3611C51.4627 35.395 51.4419 35.4397 51.4383 35.4873L51.212 36.7029C51.212 36.8125 51.2502 36.8862 51.4 36.8862H52.7117C51.3554 44.3897 51.3171 44.7515 51.0621 45.5833C50.89 46.1504 50.5378 46.6642 50.125 46.7989C50.1107 46.7989 49.5066 47.0621 48.5886 46.7613C48.5886 46.7613 48.4388 46.6877 48.3639 46.8725C48.3257 46.9838 47.9511 47.9409 47.9129 48.0521C47.8746 48.1633 47.9129 48.273 47.9878 48.273C48.8022 48.5863 50.0597 48.5503 50.8374 48.273C51.8383 47.9158 52.3866 47.037 52.675 46.2459C53.1133 45.0382 53.1229 44.7124 54.5493 36.8877H56.4984C56.547 36.8838 56.5925 36.8631 56.627 36.8292C56.6614 36.7954 56.6825 36.7506 56.6865 36.7029L56.9112 35.4873ZM65.4202 37.9937C65.331 37.7305 64.6074 35.1568 61.4088 35.1568C58.9783 35.1568 57.7431 36.7232 57.3989 37.9937C57.2395 38.4636 56.8921 40.1868 57.3989 41.6781C57.4132 41.7251 58.1017 44.5165 61.4088 44.5165C63.7914 44.5165 65.0585 43.0111 65.4202 41.6781C65.9318 40.1727 65.5812 38.4636 65.4202 37.9937ZM72.6559 35.3776C71.859 35.1192 70.007 35.08 69.1321 36.2251V35.5249C69.1335 35.5003 69.1296 35.4757 69.1206 35.4528C69.1116 35.4298 69.0978 35.409 69.08 35.3916C69.0622 35.3743 69.0409 35.3609 69.0175 35.3523C68.994 35.3436 68.969 35.34 68.944 35.3416H67.4459C67.4209 35.34 67.3959 35.3436 67.3724 35.3523C67.349 35.3609 67.3277 35.3743 67.3099 35.3916C67.2921 35.409 67.2783 35.4298 67.2693 35.4528C67.2603 35.4757 67.2564 35.5003 67.2578 35.5249V44.1844C67.2564 44.2091 67.2604 44.2337 67.2693 44.2568C67.2783 44.2798 67.2921 44.3007 67.3098 44.3182C67.3276 44.3356 67.3489 44.3492 67.3723 44.358C67.3958 44.3668 67.4208 44.3707 67.4459 44.3693H68.9823C69.0073 44.3707 69.0324 44.3668 69.0558 44.358C69.0793 44.3492 69.1006 44.3356 69.1183 44.3182C69.1361 44.3007 69.1499 44.2798 69.1588 44.2568C69.1678 44.2337 69.1717 44.2091 69.1703 44.1844V39.8343C69.1703 39.3784 69.1783 38.0532 69.8811 37.4767C70.6621 36.7091 71.7936 36.9504 72.0184 36.9974C72.0662 36.9965 72.1128 36.9822 72.1527 36.9561C72.1925 36.93 72.2239 36.8932 72.2431 36.8501C72.4301 36.442 72.593 36.0236 72.7308 35.5969C72.7466 35.5573 72.7477 35.5135 72.734 35.4732C72.7203 35.4328 72.6927 35.3984 72.6559 35.3761V35.3776ZM80.1162 43.8523L79.7783 42.7104C79.7034 42.5255 79.5536 42.5992 79.5536 42.5992C78.8795 42.8843 77.936 42.8952 77.7543 42.8952C77.0148 42.8952 75.0178 42.7182 75.0178 39.7998C75.0178 38.8239 75.3126 36.7044 77.6427 36.7044C78.2651 36.6889 78.8858 36.7762 79.4787 36.9629C79.4787 36.9629 79.6285 37.0365 79.6668 36.8517C79.8166 36.446 79.9281 36.1515 80.0796 35.6721C80.1162 35.5249 80.0046 35.4888 79.9664 35.4888C78.1192 34.8826 76.406 35.0925 75.5421 35.4888C75.2887 35.6048 72.9555 36.5055 72.9555 39.7998C72.9555 40.2541 72.8631 44.5165 77.5678 44.5165C78.4126 44.5149 79.2503 44.3648 80.0413 44.0732C80.0756 44.0482 80.1012 44.0135 80.1146 43.9737C80.128 43.9338 80.1285 43.8909 80.1162 43.8508V43.8523ZM88.7017 37.6616C88.5742 37.1916 87.8459 35.1192 85.1397 35.1192C82.5897 35.1192 81.3912 36.7029 81.0533 38.0313C80.8695 38.6283 80.7808 39.2497 80.7904 39.8735C80.7904 43.926 83.793 44.4789 85.5525 44.4789C87.2769 44.4789 88.1758 44.1108 88.5137 43.8899C88.5886 43.8523 88.6268 43.7787 88.5519 43.5954L88.1758 42.5255C88.1566 42.4849 88.1238 42.4519 88.083 42.432C88.0422 42.412 87.9956 42.4064 87.9511 42.4159C87.5383 42.5631 86.939 42.8576 85.5142 42.8576C82.7379 42.8576 82.8288 40.5486 82.816 40.2416H88.7384C88.7818 40.2405 88.8236 40.2256 88.8576 40.199C88.8915 40.1724 88.9157 40.1357 88.9264 40.0943C88.8882 40.0928 89.0763 38.9868 88.7017 37.66V37.6616ZM84.9899 36.6669C83.3436 36.6669 82.918 38.0767 82.816 38.8787H87.0187C86.8785 37.0115 85.8043 36.6653 84.9899 36.6653V36.6669Z" fill="#A6A6A6"/>
</g>
</svg>
