<svg width="113" height="51" viewBox="0 0 113 51" fill="none" xmlns="http://www.w3.org/2000/svg">
<g id="SAP_2011_logo 1" clip-path="url(#clip0_68_35)">
<path id="Subtract" fill-rule="evenodd" clip-rule="evenodd" d="M51.3046 50.5H0.484497V0.5H101.039L51.3046 50.5ZM50.2284 10.4998H60.1594L60.1594 10.4987C69.6173 10.4987 74.0608 13.7165 74.0633 21.1043C74.0633 27.7376 69.4924 31.6932 61.7601 31.6932H58.561L58.5245 40.5132L43.4909 40.4987L42.443 36.6765C40.8921 37.1876 39.1434 37.472 37.2841 37.472C35.3761 37.472 33.5787 37.172 31.998 36.6298L30.4946 40.4987L22.1156 40.5254L22.4915 38.5787C22.4701 38.5976 22.4488 38.6165 22.4276 38.6353C22.3305 38.7216 22.2341 38.8072 22.1289 38.892C19.8893 40.7031 17.0705 41.5398 13.5973 41.6031L12.6997 41.6098C8.7092 41.6098 5.19731 40.6609 1.88882 38.7698L4.94749 32.6698C8.25929 34.6376 10.3375 35.0809 13.1419 35.0209C14.5955 34.992 15.6456 34.7254 16.331 34.0143C16.7444 33.5787 16.9611 33.0387 16.9832 32.4609C17.0108 30.8765 14.7668 30.132 12.0199 29.2765C9.7925 28.5832 7.26443 27.6387 5.28795 26.1832C2.9489 24.4531 1.83576 22.2887 1.89103 19.2354C1.92419 17.0165 2.74219 15.0098 4.25882 13.432C6.43426 11.1709 9.94394 9.79871 14.1589 9.79871H14.181C17.7957 9.80204 22.204 10.832 25.392 12.4632L21.9542 18.4854C18.4578 16.7876 16.7002 16.6265 14.7105 16.5187C11.7447 16.3598 10.2523 17.4254 10.2302 18.5743C10.2015 19.9743 13.0325 21.2409 15.6998 22.102C19.739 23.392 24.8725 25.1143 25.6573 30.1054L33.0393 10.4909H41.6139L50.2616 33.9776L50.2284 10.4998ZM34.1137 30.0109C35.0456 30.3665 36.1289 30.5687 37.284 30.5687H37.2829C38.4071 30.5687 39.465 30.372 40.3935 30.0387L37.3095 20.0609H37.2487L34.1137 30.0109ZM58.5588 24.852H60.7408H60.7419C63.6492 24.852 65.968 23.8798 65.9705 20.7909C65.9705 17.8065 63.6492 16.8332 60.7419 16.8332H58.5588V24.852Z" fill="#A6A6A6"/>
<path id="Union" fill-rule="evenodd" clip-rule="evenodd" d="M109.629 5.13986C109.629 7.86954 107.445 10.0524 104.989 10.0524C102.396 10.0524 100.077 7.86954 100.077 5.13986C100.077 2.54651 102.396 0.5 104.989 0.5C107.445 0.5 109.629 2.54726 109.629 5.13986ZM100.759 5.14061C100.759 7.59687 102.534 9.37071 104.989 9.37071C107.173 9.37071 108.946 7.59687 108.946 5.14061C108.945 4.09121 108.528 3.08497 107.786 2.34294C107.044 1.6009 106.038 1.18377 104.989 1.18317C102.534 1.18317 100.759 2.95701 100.759 5.14061ZM105.398 5.68617H103.761V7.87051H103.079V2.68457H105.398C106.218 2.68457 107.037 3.09432 107.037 4.04941C107.037 4.86742 106.764 5.14083 106.354 5.4135C106.628 5.54984 106.9 5.68617 106.9 6.36859V7.18734C106.9 7.38655 106.974 7.44022 107.066 7.50814C107.1 7.53318 107.137 7.56016 107.174 7.5971V7.86976H106.354C106.218 7.46001 106.218 6.64201 106.218 6.50492C106.218 6.09517 106.082 5.68617 105.398 5.68617ZM105.398 3.36699H103.761V5.0045H105.262C105.807 5.0045 106.353 4.86817 106.353 4.18575C106.353 3.36699 105.808 3.36699 105.398 3.36699Z" fill="#A6A6A6"/>
</g>
<defs>
<clipPath id="clip0_68_35">
<rect width="112" height="50" fill="white" transform="translate(0.484497 0.5)"/>
</clipPath>
</defs>
</svg>
