<svg width="34" height="34" viewBox="0 0 34 34" fill="none" xmlns="http://www.w3.org/2000/svg">
<rect width="34" height="34" fill="#1E1E1E"/>
<g id="Visual-Experience-Engine" clip-path="url(#clip0_0_1)">
<rect width="1920" height="10899" transform="translate(-783 -3533)" fill="#FAFAFA"/>
<g id="Frame 19457">
<g id="Frame 19555">
<g id="Frame 19554">
<g id="Frame 2052">
<rect x="-39.5" y="-107.5" width="916" height="294" rx="13.5" fill="#F5F7FA"/>
<rect x="-39.5" y="-107.5" width="916" height="294" rx="13.5" stroke="#D3D6DB"/>
<g id="Frame 19442">
<g id="Frame 2043">
<g id="carbon:close-filled">
<path id="Vector" d="M17 2.125C8.7125 2.125 2.125 8.7125 2.125 17C2.125 25.2875 8.7125 31.875 17 31.875C25.2875 31.875 31.875 25.2875 31.875 17C31.875 8.7125 25.2875 2.125 17 2.125ZM22.7375 24.4375L17 18.7L11.2625 24.4375L9.5625 22.7375L15.3 17L9.5625 11.2625L11.2625 9.5625L17 15.3L22.7375 9.5625L24.4375 11.2625L18.7 17L24.4375 22.7375L22.7375 24.4375Z" fill="#595959"/>
</g>
</g>
</g>
</g>
</g>
</g>
</g>
</g>
<defs>
<clipPath id="clip0_0_1">
<rect width="1920" height="10899" fill="white" transform="translate(-783 -3533)"/>
</clipPath>
</defs>
</svg>
