<svg viewBox="0 0 183 21" fill="none" preserveAspectRatio="xMidYMid meet" overflow="visible" style="display: block" xmlns="http://www.w3.org/2000/svg">
<g id="ACI Worldwide 1" clip-path="url(#clip0_0_155)">
<path id="Vector" d="M91.8377 6.24427C94.944 6.24427 96.9968 7.70875 97.9827 9.93309C98.4284 10.9969 98.685 12.268 98.685 13.5943C98.685 14.9206 98.4284 16.1916 97.9827 17.2555C96.9968 19.4798 94.944 20.9443 91.8377 20.9443C88.7314 20.9443 86.6786 19.4798 85.6927 17.2555C85.22 16.1916 84.9904 14.9206 84.9904 13.5943C84.9904 12.268 85.22 11.0245 85.6927 9.93309C86.6786 7.72256 88.7314 6.24427 91.8377 6.24427ZM167.536 0.248222V20.5989H165.308V18.4712C164.268 20.1153 162.512 20.9166 160.405 20.9166C157.731 20.9166 155.786 19.618 154.828 17.4627C154.355 16.3712 154.098 15.0449 154.098 13.5943C154.098 12.1298 154.355 10.8311 154.828 9.72585C155.786 7.52914 157.731 6.23046 160.405 6.23046C162.485 6.23046 164.241 7.03177 165.281 8.64822V0.248222H167.536ZM176.072 6.24427C179.083 6.24427 181.204 7.62585 182.163 9.82256C182.703 11.0936 182.865 12.3923 182.865 14.1193H171.507C171.561 15.0726 171.709 15.9015 172.02 16.6337C172.695 18.1673 174.14 19.0239 176.22 19.0239C177.544 19.0239 178.705 18.6785 179.462 17.9877C180.083 17.4074 180.447 16.5785 180.529 15.6805H182.784C182.676 17.1864 182.109 18.3607 181.15 19.2864C179.961 20.3502 178.273 20.9305 176.247 20.9305C173.141 20.9305 170.926 19.5765 169.94 17.2693C169.468 16.2607 169.238 15.0449 169.238 13.6081C169.238 12.1022 169.468 10.9555 169.94 9.91927C170.913 7.63967 173.06 6.24427 176.072 6.24427ZM126.587 0.248222V20.5989H124.359V18.4712C123.319 20.1153 121.563 20.9166 119.457 20.9166C116.782 20.9166 114.838 19.618 113.879 17.4627C113.406 16.3712 113.149 15.0449 113.149 13.5943C113.149 12.1298 113.406 10.8311 113.879 9.72585C114.838 7.52914 116.782 6.23046 119.457 6.23046C121.536 6.23046 123.292 7.03177 124.332 8.64822V0.248222H126.587ZM14.397 0.137695C14.7886 0.137695 15.0452 0.538353 14.8967 0.897564L14.8832 0.925195L6.4422 19.7285C6.14507 20.4055 5.4833 20.8476 4.76751 20.8614H4.72699H0.675332C0.283672 20.8614 0.0270667 20.4607 0.175628 20.1015L0.189133 20.0739L8.63009 1.27059C8.94072 0.593616 9.58899 0.151511 10.3183 0.137695H10.3588H14.397ZM16.2337 4.36533C16.4093 3.97848 16.9495 3.96467 17.1386 4.3377L17.1521 4.36533L24.2155 20.0739C24.3775 20.4331 24.1344 20.8337 23.7563 20.8614H23.7293H19.6911C18.9618 20.8614 18.3001 20.4331 17.9894 19.7699L17.9759 19.7285L14.3699 11.7015C13.9378 10.7344 13.9243 9.61533 14.3429 8.63441L14.3699 8.57914L16.2337 4.36533ZM50.8484 0.137695C51.2941 0.137695 51.6452 0.496906 51.6587 0.939011V0.966643V20.0324C51.6587 20.4884 51.3076 20.8476 50.8754 20.8614H50.8484H47.1344C46.6887 20.8614 46.3375 20.5022 46.324 20.0601V20.0324V0.966643C46.324 0.510722 46.6752 0.151511 47.1074 0.137695H47.1344H50.8484ZM43.1773 0.137695C43.5824 0.137695 43.8525 0.565985 43.704 0.939011V0.966643L42.2724 4.15809C41.8807 5.02848 41.0434 5.58112 40.1115 5.60875H40.0575H34.2636C31.657 5.60875 29.4556 7.70875 29.3881 10.389C29.3206 13.1107 31.4544 15.3489 34.088 15.4041H34.1691H40.044C40.9758 15.4041 41.8267 15.9568 42.2319 16.8134L42.2589 16.8548L43.6905 20.0462C43.866 20.4193 43.5959 20.8614 43.1908 20.8752H43.1637H34.1556C28.5372 20.8752 23.9724 16.1778 24.0264 10.4166C24.0804 4.76598 28.6183 0.248222 34.115 0.151511H34.2771H43.1773V0.137695ZM152.397 6.60348V20.6127H150.141V6.60348H152.397ZM111.448 0.248222V20.5989H109.192V0.248222H111.448ZM106.343 6.42388C106.856 6.42388 107.302 6.47914 107.72 6.60348V8.67585C107.329 8.59296 106.815 8.53769 106.343 8.53769C103.858 8.53769 102.656 10.1265 102.656 12.8344V20.6127H100.4V6.60348H102.629V8.41335C103.331 7.19756 104.546 6.42388 106.343 6.42388ZM130.301 6.60348L133.88 17.7666L137.203 6.60348H139.458L142.781 17.739L146.387 6.60348H148.804L143.902 20.6127H141.592L138.324 9.71204L135.082 20.6127H132.759L127.884 6.60348H130.301ZM62.7198 0.248222L67.4872 17.3107L72.0251 0.248222H74.6451L79.183 17.2002L83.937 0.248222H86.3004L80.493 20.5989H77.9L73.3081 3.53638L68.7162 20.5989H66.1502L60.3428 0.248222H62.7198ZM160.946 8.2752C159.109 8.2752 157.704 9.07651 157.029 10.6653C156.691 11.4114 156.489 12.4199 156.489 13.6081C156.489 14.7962 156.691 15.7772 157.029 16.5509C157.704 18.112 159.109 18.941 160.946 18.941C163.566 18.941 165.281 17.1587 165.281 13.9535V13.2627C165.281 10.0574 163.566 8.2752 160.946 8.2752ZM119.983 8.2752C118.146 8.2752 116.742 9.07651 116.067 10.6653C115.729 11.4114 115.526 12.4199 115.526 13.6081C115.526 14.7962 115.729 15.7772 116.067 16.5509C116.742 18.112 118.146 18.941 119.983 18.941C122.603 18.941 124.319 17.1587 124.319 13.9535V13.2627C124.332 10.0574 122.617 8.2752 119.983 8.2752ZM91.8377 8.2752C89.8389 8.2752 88.5423 9.17322 87.9076 10.5824L87.8806 10.6377C87.5159 11.439 87.3674 12.489 87.3674 13.6081C87.3674 14.7272 87.5024 15.7357 87.8806 16.5785C88.5288 18.0153 89.7984 18.941 91.8242 18.941C93.823 18.941 95.1195 18.0153 95.7678 16.5785C96.1324 15.7357 96.281 14.7272 96.281 13.6081C96.281 12.489 96.146 11.439 95.7678 10.6377C95.133 9.18704 93.8365 8.2752 91.8377 8.2752ZM176.099 8.17848C174.046 8.17848 172.682 9.02125 172.007 10.5962C171.777 11.1489 171.642 11.6877 171.561 12.3509H180.556C180.475 11.6048 180.326 11.0245 180.11 10.4443C179.462 8.99362 178.098 8.17848 176.099 8.17848ZM151.303 1.20151C152.126 1.20151 152.775 1.80941 152.775 2.63835C152.775 3.50875 152.126 4.0752 151.303 4.0752C150.371 4.0752 149.776 3.49493 149.776 2.63835C149.776 1.80941 150.371 1.20151 151.303 1.20151Z" fill="var(--fill-0, #2726DD)"/>
</g>
<defs>
<clipPath id="clip0_0_155">
<rect width="183" height="21" fill="white"/>
</clipPath>
</defs>
</svg>
