<svg preserveAspectRatio="none" width="100%" height="100%" overflow="visible" style="display: block;" viewBox="0 0 181.5 33.75" fill="none" xmlns="http://www.w3.org/2000/svg">
<g id="Afterpay_logo 2" clip-path="url(#clip0_0_47)">
<path id="Vector" d="M14.9379 16.5149C14.9379 13.4815 12.6466 11.3496 9.83211 11.3496C7.01759 11.3496 4.7263 13.5174 4.7263 16.5149C4.7263 19.4764 7.01759 21.6802 9.83211 21.6802C12.6495 21.6774 14.9379 19.5482 14.9379 16.5149ZM14.9781 25.5432V23.1955C13.5895 24.8215 11.5225 25.8307 9.04726 25.8307C3.90409 25.8307 0 21.8572 0 16.5149C0 11.2058 4.05358 7.16309 9.16225 7.16309C11.5657 7.16309 13.5925 8.17514 14.981 9.76235V7.48661H19.5981V25.5432H14.9781Z" fill="var(--fill-0, black)"/>
<path id="Vector_2" d="M42.025 21.5339C40.4094 21.5339 39.9608 20.9559 39.9608 19.4406V11.4243H42.9277V7.48679H39.9608V3.08188H35.2288V7.48679H29.134V6.38902C29.134 4.87094 29.735 4.29301 31.388 4.29301H32.4259V0.789551H30.1489C26.2448 0.789551 24.4049 2.01728 24.4049 5.77239V7.48402H21.7773V11.4216H24.4049V25.5406H29.137V11.4216H35.2317V20.2701C35.2317 23.9533 36.6951 25.5434 40.5244 25.5434H42.9651V21.5339H42.025Z" fill="var(--fill-0, black)"/>
<path id="Vector_3" d="M58.9955 14.8903C58.6591 12.5426 56.6668 11.1351 54.341 11.1351C52.0123 11.1351 50.0977 12.5067 49.6118 14.8903H58.9955ZM49.5716 17.708C49.9109 20.3791 51.9003 21.8972 54.4158 21.8972C56.4052 21.8972 57.9462 20.9929 58.8459 19.5495H63.6901C62.5632 23.3766 58.9955 25.832 54.3037 25.832C48.6344 25.832 44.6556 22.005 44.6556 16.5521C44.6556 11.0992 48.8616 7.16162 54.4186 7.16162C60.0132 7.16162 64.0668 11.1352 64.0668 16.5521C64.0668 16.9504 64.0294 17.3458 63.9546 17.708H49.5716Z" fill="var(--fill-0, black)"/>
<path id="Vector_4" d="M94.1525 16.5149C94.1525 13.5893 91.8612 11.3496 89.0466 11.3496C86.2322 11.3496 83.9408 13.5174 83.9408 16.5149C83.9408 19.4764 86.2322 21.6802 89.0466 21.6802C91.8612 21.6774 94.1525 19.4404 94.1525 16.5149ZM79.2836 7.48661H83.9006V9.83423C85.2891 8.17236 87.3533 7.16309 89.8314 7.16309C94.8999 7.16309 98.8788 11.1726 98.8788 16.4789C98.8788 21.788 94.8251 25.8335 89.7194 25.8335C87.3533 25.8335 85.4013 24.9293 84.0501 23.414V32.9732H79.2836V7.48661Z" fill="var(--fill-0, black)"/>
<path id="Vector_5" d="M115.521 16.5149C115.521 13.4815 113.233 11.3496 110.415 11.3496C107.601 11.3496 105.31 13.5174 105.31 16.5149C105.31 19.4764 107.601 21.6802 110.415 21.6802C113.233 21.6774 115.521 19.5482 115.521 16.5149ZM115.562 25.5432V23.1955C114.173 24.8215 112.106 25.8307 109.63 25.8307C104.487 25.8307 100.583 21.8572 100.583 16.5149C100.583 11.2058 104.637 7.16309 109.743 7.16309C112.146 7.16309 114.173 8.17514 115.562 9.76235V7.48661H120.179V25.5432H115.562Z" fill="var(--fill-0, black)"/>
<path id="Vector_6" d="M70.9607 9.25632C70.9607 9.25632 72.1366 7.16309 75.0142 7.16309C76.2447 7.16309 77.0411 7.56956 77.0411 7.56956V12.1764C77.0411 12.1764 75.3046 11.1449 73.7091 11.3523C72.1135 11.5597 71.1045 12.9699 71.1102 14.8558V25.5459H66.3437V7.48937H70.9607V9.25632Z" fill="var(--fill-0, black)"/>
<path id="Vector_7" d="M141.743 7.48682L130.085 32.9153H125.169L129.746 23.0851L122.007 7.48682H127.579L132.107 17.9087L136.753 7.48682H141.743Z" fill="var(--fill-0, black)"/>
<path id="Vector_8" d="M178.956 7.078L167.399 0.662814C164.006 -1.22026 159.766 1.1329 159.766 4.90182V5.55993C159.766 6.15444 160.096 6.70471 160.631 7.00058L162.813 8.21172C163.454 8.56844 164.253 8.12324 164.253 7.4126V5.77561C164.253 4.95712 165.174 4.44557 165.91 4.85482L175.919 10.4128C176.656 10.822 176.656 11.8452 175.919 12.2517L165.91 17.8097C165.174 18.2189 164.253 17.7073 164.253 16.8888V16.0177C164.253 12.2489 160.013 9.89295 156.618 11.7787L145.061 18.194C141.668 20.0771 141.668 24.7889 145.061 26.672L156.618 33.0872C160.01 34.9702 164.253 32.6171 164.253 28.8482V28.1901C164.253 27.5955 163.923 27.048 163.388 26.7494L161.206 25.5355C160.565 25.1788 159.766 25.624 159.766 26.3347V27.9717C159.766 28.7902 158.846 29.3016 158.11 28.8924L148.1 23.3344C147.364 22.9252 147.364 21.9021 148.1 21.4929L158.11 15.9348C158.846 15.5255 159.766 16.0371 159.766 16.8556V17.7267C159.766 21.4956 164.006 23.8516 167.399 21.9657L178.956 15.5505C182.349 13.6729 182.349 8.96108 178.956 7.078Z" fill="var(--fill-0, black)"/>
</g>
<defs>
<clipPath id="clip0_0_47">
<rect width="181.5" height="33.75" fill="white"/>
</clipPath>
</defs>
</svg>
