<svg preserveAspectRatio="none" width="100%" height="100%" overflow="visible" style="display: block;" viewBox="0 0 248 33" fill="none" xmlns="http://www.w3.org/2000/svg">
<g id="brand-airship-dark 1" clip-path="url(#clip0_0_13)">
<path id="Vector" d="M70.195 6.93072L62.3332 27.8297H67.2417L68.9046 23.2568L77.1537 23.2452L78.8316 27.8297H83.743L75.8901 6.93072H70.195ZM70.2904 19.4464L73.0171 11.9474L73.0263 11.9706L73.1394 12.2809L75.7651 19.4464H70.2904Z" fill="var(--fill-0, black)"/>
<path id="Vector_2" d="M100.536 6.93072H96.1733V27.8297H100.536V6.93072Z" fill="var(--fill-0, black)"/>
<path id="Vector_3" d="M24.9681 0L0 24.2948L8.87798 32.9334L8.94652 33C12.8416 28.6067 18.6023 25.8229 25.0336 25.8229C28.6514 25.8229 32.0579 26.7044 35.0379 28.2558C35.6997 28.6009 36.3405 28.9779 36.9603 29.3898C37.2702 29.5956 37.5711 29.8072 37.8692 30.0248C39.0583 30.9035 40.1491 31.9009 41.1205 33L49.9985 24.3614L46.8843 21.3312L24.9681 0ZM25.0007 9.95509C26.3925 9.95509 27.5191 11.0512 27.5191 12.4054C27.5191 13.7597 26.3925 14.8558 25.0007 14.8558C23.609 14.8558 22.4826 13.7597 22.4826 12.4054C22.4826 11.0512 23.609 9.95509 25.0007 9.95509ZM41.1593 30.2162C40.5007 29.5985 39.8034 29.0157 39.0761 28.4792C38.7514 28.2385 38.4175 28.0065 38.0807 27.7831C37.4043 27.3366 36.6981 26.9191 35.9797 26.545C32.636 24.8022 28.8511 23.88 25.0336 23.88C22.0474 23.88 19.1298 24.4398 16.4208 25.4923C21.8179 21.6674 28.4547 19.3998 35.6431 19.3998C38.1316 19.3998 40.5544 19.6724 42.8849 20.1828L45.4718 22.6999L47.1764 24.3585L41.1563 30.2162H41.1593Z" fill="var(--fill-0, black)"/>
<path id="Vector_4" d="M244.314 6.92468C242.463 6.92468 240.963 8.38619 240.963 10.187C240.963 11.9878 242.463 13.4493 244.314 13.4493C246.167 13.4493 247.667 11.9878 247.667 10.187C247.667 8.38619 246.167 6.92468 244.314 6.92468ZM244.314 12.9331C242.754 12.9331 241.486 11.7007 241.486 10.1812C241.486 8.66167 242.754 7.42925 244.314 7.42925C245.874 7.43216 247.137 8.66167 247.144 10.1812C247.144 11.7007 245.876 12.9331 244.314 12.9331Z" fill="var(--fill-0, black)"/>
<path id="Vector_5" d="M207.48 6.93072H203.117V27.8297H207.48V6.93072Z" fill="var(--fill-0, black)"/>
<path id="Vector_6" d="M229.57 6.93072H221.362V27.8297H225.725V21.5603H229.57C233.726 21.5603 237.096 18.3328 237.096 14.3485V14.1426C237.096 10.1611 233.726 6.93072 229.57 6.93072ZM232.734 14.3485C232.734 16.0217 231.318 17.3788 229.57 17.3788H225.725V11.1094H229.57C231.316 11.1094 232.734 12.4665 232.734 14.1397V14.3456V14.3485Z" fill="var(--fill-0, black)"/>
<path id="Vector_7" d="M122.951 6.93161H114.981L114.743 27.8306H119.106V21.5612H122.331L125.463 27.9611L130.449 27.9902L126.7 20.5637C127.135 20.3114 127.588 20.0185 127.662 19.9605C129.453 18.5802 130.479 16.5329 130.479 14.3465V14.1406C130.479 10.1591 127.108 6.92872 122.951 6.92872V6.93161ZM126.115 14.3494C126.115 16.0226 124.7 17.3797 122.951 17.3797H119.106V11.1103H122.951C124.697 11.1103 126.115 12.4674 126.115 14.1406V14.3465V14.3494Z" fill="var(--fill-0, black)"/>
<path id="Vector_8" d="M245.386 9.61566C245.386 9.29668 245.259 8.76311 244.397 8.76311H243.294V11.6165H243.778V10.4711H244.269L244.967 11.6165H245.516L244.755 10.4102C245.128 10.3232 245.395 9.99553 245.386 9.61566ZM244.35 10.0564H243.778V9.16618H244.35C244.704 9.16618 244.884 9.31697 244.884 9.61276C244.884 9.90854 244.71 10.0535 244.35 10.0535V10.0564Z" fill="var(--fill-0, black)"/>
<path id="Vector_9" d="M150.195 11.0018C150.484 10.8336 150.809 10.7176 151.167 10.6567C151.518 10.5987 151.87 10.5668 152.213 10.5668C152.88 10.5668 153.58 10.7321 154.299 11.0569C154.987 11.3672 155.556 11.7877 155.995 12.3067L159.142 9.07634C158.227 8.27888 157.154 7.66413 155.95 7.24944C154.713 6.82607 153.488 6.61149 152.305 6.61149C151.316 6.61149 150.326 6.73328 149.361 6.97395C148.395 7.21465 147.516 7.59743 146.75 8.11359C145.984 8.62977 145.355 9.29963 144.887 10.1C144.417 10.9003 144.178 11.8805 144.178 13.0056C144.178 13.9219 144.333 14.7107 144.634 15.3487C144.938 15.9866 145.343 16.5376 145.844 16.9842C146.345 17.4336 146.923 17.8077 147.561 18.0919C148.207 18.3819 148.872 18.6371 149.545 18.8458C150.261 19.0662 150.875 19.2605 151.42 19.4432C151.971 19.6288 152.439 19.8376 152.815 20.0638C153.19 20.2899 153.485 20.548 153.691 20.8294C153.899 21.1134 154.007 21.4615 154.007 21.8646C154.007 22.2676 153.923 22.6475 153.756 22.9519C153.589 23.2537 153.363 23.5001 153.086 23.6798C152.806 23.8596 152.481 23.9931 152.114 24.0712C151.751 24.1496 151.372 24.1902 150.991 24.1902C150.141 24.1902 149.28 23.9755 148.422 23.5552C147.599 23.1491 146.92 22.6417 146.401 22.0444L143.162 25.2516C144.08 26.1651 145.242 26.8812 146.613 27.3801C148.017 27.8875 149.489 28.1455 150.991 28.1455C152.019 28.1455 153.029 28.0094 153.995 27.7396C154.96 27.4729 155.828 27.0553 156.576 26.5015C157.324 25.9475 157.926 25.2341 158.367 24.3845C158.808 23.5348 159.031 22.5112 159.031 21.3425C159.031 20.3334 158.823 19.478 158.414 18.8023C158.003 18.1238 157.473 17.5496 156.847 17.0886C156.215 16.6275 155.509 16.2534 154.74 15.9779C153.962 15.6966 153.208 15.4356 152.496 15.2066C152.013 15.0587 151.56 14.905 151.146 14.7542C150.746 14.6063 150.392 14.4439 150.1 14.267C149.802 14.0872 149.572 13.8726 149.414 13.6291C149.259 13.3826 149.179 13.0752 149.179 12.7127C149.179 12.2893 149.28 11.9356 149.477 11.663C149.674 11.3933 149.915 11.1729 150.204 10.9989L150.195 11.0018Z" fill="var(--fill-0, black)"/>
<path id="Vector_10" d="M185.427 15.4417H177.559V6.93072H173.193V27.8297H177.559V19.6204H185.427V27.8297H189.79V6.93072H185.427V15.4417Z" fill="var(--fill-0, black)"/>
</g>
<defs>
<clipPath id="clip0_0_13">
<rect width="248" height="33" fill="white"/>
</clipPath>
</defs>
</svg>
