<svg viewBox="0 0 127.5 53.25" fill="none" preserveAspectRatio="xMidYMid meet" overflow="visible" style="display: block" xmlns="http://www.w3.org/2000/svg">
<g id="apple-pay 2" clip-path="url(#clip0_0_113)">
<path id="Vector" d="M23.6492 6.80166C22.1602 8.59071 19.7779 9.99782 17.3955 9.7968C17.0977 7.38461 18.2691 4.81161 19.6389 3.24368C21.1279 1.41444 23.7286 0.107832 25.8529 0.00732422C26.0911 2.49992 25.1183 4.97242 23.6492 6.80166ZM25.8132 10.2591C22.3588 10.0581 19.4007 12.2492 17.7727 12.2492C16.1051 12.2492 13.6036 10.3596 10.8639 10.42C7.31023 10.4803 4.01464 12.5105 2.20803 15.7469C-1.52433 22.2397 1.23523 31.8281 4.84847 37.1149C6.61538 39.7281 8.71979 42.6026 11.4992 42.5021C14.1396 42.4016 15.172 40.7734 18.3485 40.7734C21.5448 40.7734 22.4779 42.5021 25.2573 42.4619C28.136 42.4016 29.9426 39.8487 31.7095 37.2355C33.7146 34.2604 34.5485 31.3859 34.5882 31.2251C34.5286 31.1648 29.0293 29.034 28.9698 22.6015C28.9102 17.2143 33.3176 14.6614 33.5161 14.5006C31.0345 10.7617 27.1632 10.3596 25.8132 10.2591ZM45.7455 2.98236V42.1604H51.761V28.7727H60.0793C67.683 28.7727 73.0036 23.486 73.0036 15.8474C73.0036 8.20878 67.7624 2.98236 60.2779 2.98236H45.7455ZM51.761 8.10827H58.6896C63.911 8.10827 66.8889 10.9225 66.8889 15.8675C66.8889 20.8125 63.911 23.6669 58.6698 23.6669H51.761V8.10827ZM83.9624 42.4619C87.7345 42.4619 91.2286 40.5321 92.8168 37.4566H92.936V42.1604H98.4948V22.6618C98.4948 17.0133 94.0279 13.3548 87.1588 13.3548C80.786 13.3548 76.061 17.0535 75.8823 22.1191H81.3021C81.7588 19.7069 83.9624 18.1189 86.9801 18.1189C90.6529 18.1189 92.7176 19.8476 92.7176 23.0438V25.2147L85.2132 25.6771C78.2448 26.0992 74.4727 28.9938 74.4727 34.0192C74.4926 39.0848 78.3838 42.4619 83.9624 42.4619ZM85.5904 37.8184C82.3941 37.8184 80.3492 36.2505 80.3492 33.8785C80.3492 31.406 82.3146 29.9788 86.0668 29.7577L92.7374 29.3356V31.5467C92.7374 35.2052 89.6602 37.8184 85.5904 37.8184ZM105.94 52.8142C111.796 52.8142 114.556 50.5427 116.958 43.6881L127.5 13.7367H121.385L114.318 36.8737H114.198L107.131 13.7367H100.857L111.022 42.2609L110.466 43.9896C109.553 46.9244 108.064 48.0702 105.404 48.0702C104.927 48.0702 104.014 48.0099 103.637 47.9697V52.6735C103.994 52.7539 105.483 52.8142 105.94 52.8142Z" fill="var(--fill-0, black)"/>
</g>
<defs>
<clipPath id="clip0_0_113">
<rect width="127.5" height="53.25" fill="white"/>
</clipPath>
</defs>
</svg>
