<svg viewBox="0 0 177 36.75" fill="none" preserveAspectRatio="xMidYMid meet" overflow="visible" style="display: block" xmlns="http://www.w3.org/2000/svg">
<g id="apple-pay 3" clip-path="url(#clip0_0_82)">
<path id="Vector" d="M15.5502 5.65342C14.553 6.8489 12.9575 7.78916 11.3619 7.65484C11.1625 6.04296 11.947 4.32362 12.8644 3.27589C13.8616 2.05355 15.6034 1.18044 17.0261 1.11328C17.1857 2.77889 16.5342 4.43107 15.5502 5.65342ZM16.9995 7.96378C14.686 7.82946 12.7049 9.29359 11.6146 9.29359C10.4977 9.29359 8.82237 8.03095 6.9875 8.07124C4.60748 8.11154 2.40031 9.46821 1.19036 11.6308C-1.30932 15.9695 0.538846 22.3767 2.95875 25.9094C4.14211 27.6556 5.55151 29.5765 7.41298 29.5093C9.18137 29.4421 9.87277 28.3541 12.0002 28.3541C14.1409 28.3541 14.7658 29.5093 16.6272 29.4824C18.5552 29.4421 19.7651 27.7362 20.9485 25.99C22.2914 24.002 22.8499 22.0812 22.8765 21.9737C22.8366 21.9334 19.1535 20.5096 19.1136 16.2113C19.0737 12.6114 22.0255 10.9055 22.1585 10.798C20.4964 8.29959 17.9037 8.03095 16.9995 7.96378Z" fill="var(--fill-0, black)"/>
<g id="App Clip">
<path d="M27.0011 29.5118H32.0767L34.3325 22.5143H44.3709L46.6456 29.5118H51.7212L42.0963 2.44111H36.6259L27.0011 29.5118ZM39.2013 7.46879H39.5209L43.1678 18.7811H35.5544L39.2013 7.46879Z" fill="var(--fill-0, black)"/>
<path d="M55.8944 36.3217H60.5753V26.2475H60.8948C61.9664 28.4612 64.3162 29.8495 67.136 29.8495C72.3432 29.8495 75.5765 25.8161 75.5765 19.2876V19.2501C75.5765 12.7591 72.2868 8.66943 67.136 8.66943C64.2598 8.66943 62.0228 9.98263 60.8948 12.2151H60.5753V9.00711H55.8944V36.3217ZM65.6697 25.9099C62.4927 25.9099 60.5189 23.3773 60.5189 19.2688V19.2313C60.5189 15.1229 62.4927 12.609 65.6697 12.609C68.8654 12.609 70.8017 15.1229 70.8017 19.2501V19.2876C70.8017 23.396 68.8654 25.9099 65.6697 25.9099Z" fill="var(--fill-0, black)"/>
<path d="M80.2949 36.3217H84.9758V26.2475H85.2953C86.3669 28.4612 88.7167 29.8495 91.5365 29.8495C96.7436 29.8495 99.977 25.8161 99.977 19.2876V19.2501C99.977 12.7591 96.6873 8.66943 91.5365 8.66943C88.6603 8.66943 86.4233 9.98263 85.2953 12.2151H84.9758V9.00711H80.2949V36.3217ZM90.0702 25.9099C86.8932 25.9099 84.9194 23.3773 84.9194 19.2688V19.2313C84.9194 15.1229 86.8932 12.609 90.0702 12.609C93.2659 12.609 95.2022 15.1229 95.2022 19.2501V19.2876C95.2022 23.396 93.2659 25.9099 90.0702 25.9099Z" fill="var(--fill-0, black)"/>
<path d="M119.637 30.1871C125.897 30.1871 130.39 26.5665 131.104 21.1448V21.0135H126.348L126.33 21.1073C125.634 24.0901 123.078 26.0037 119.637 26.0037C115.013 26.0037 112.137 22.1579 112.137 15.9858V15.9483C112.137 9.79503 115.013 5.94923 119.619 5.94923C123.04 5.94923 125.634 8.06911 126.33 11.2771L126.348 11.3521H131.104V11.202C130.465 5.66783 125.785 1.76575 119.619 1.76575C111.93 1.76575 107.174 7.18739 107.174 15.9671V16.0046C107.174 24.7467 111.949 30.1871 119.637 30.1871Z" fill="var(--fill-0, black)"/>
<path d="M136.218 29.5118H140.899V1.07163H136.218V29.5118Z" fill="var(--fill-0, black)"/>
<path d="M149.226 5.57403C150.749 5.57403 152.008 4.35463 152.008 2.81631C152.008 1.29675 150.749 0.0585938 149.226 0.0585938C147.685 0.0585938 146.425 1.29675 146.425 2.81631C146.425 4.35463 147.685 5.57403 149.226 5.57403ZM146.876 29.5118H151.557V9.00711H146.876V29.5118Z" fill="var(--fill-0, black)"/>
<path d="M157.31 36.3217H161.99V26.2475H162.31C163.382 28.4612 165.731 29.8495 168.551 29.8495C173.758 29.8495 176.992 25.8161 176.992 19.2876V19.2501C176.992 12.7591 173.702 8.66943 168.551 8.66943C165.675 8.66943 163.438 9.98263 162.31 12.2151H161.99V9.00711H157.31V36.3217ZM167.085 25.9099C163.908 25.9099 161.934 23.3773 161.934 19.2688V19.2313C161.934 15.1229 163.908 12.609 167.085 12.609C170.281 12.609 172.217 15.1229 172.217 19.2501V19.2876C172.217 23.396 170.281 25.9099 167.085 25.9099Z" fill="var(--fill-0, black)"/>
</g>
</g>
<defs>
<clipPath id="clip0_0_82">
<rect width="177" height="36.75" fill="white"/>
</clipPath>
</defs>
</svg>
