<svg preserveAspectRatio="none" width="100%" height="100%" overflow="visible" style="display: block;" viewBox="0 0 232 57" fill="none" xmlns="http://www.w3.org/2000/svg">
<g id="Astound_Commerce_Logo 1" clip-path="url(#clip0_0_38)">
<path id="Vector" d="M0 56.9421C42.161 17.2447 52.9877 35.5888 52.9877 35.5888L31.8499 0.115736L0 56.9421Z" fill="var(--fill-0, #307FE2)"/>
<path id="Vector_2" d="M76.8178 27.4294C77.2761 26.9086 78.4217 26.2721 80.1975 25.6355C81.9733 24.999 83.2336 24.3624 83.9783 23.7838V29.6863C83.4627 30.4386 82.718 31.0751 81.8588 31.4802C80.9422 31.8853 80.083 32.1168 79.281 32.1168C77.2188 32.1168 76.1304 31.1909 76.1304 29.2812C76.0731 28.5868 76.3022 28.0081 76.8178 27.4294ZM84.4365 33.1584C84.8948 34.1421 85.5822 34.8365 86.4988 35.2995C87.4153 35.7624 88.7328 35.9939 90.3368 35.9939H91.597L91.8262 31.6538C91.0815 31.6538 90.5659 31.4802 90.2795 31.133C89.9931 30.7858 89.8785 30.0914 89.8785 29.0497V19.6751C89.8785 17.1289 89.1338 15.1614 87.6444 13.7726C86.1551 12.3838 83.7491 11.6893 80.4267 11.6893C77.1042 11.6893 74.6983 12.3259 73.0943 13.6569C71.4904 14.9878 70.6884 16.8396 70.6884 19.1543V19.8487H76.3595V18.9228C76.3595 17.9391 76.6459 17.1289 77.1615 16.6081C77.677 16.0873 78.6509 15.798 80.083 15.798C82.6035 15.798 83.8637 16.666 83.8637 18.5178C83.8637 19.3858 83.4627 20.0802 82.6607 20.601C81.8588 21.1218 80.4267 21.6426 78.4217 22.2792C75.0993 23.3208 72.8652 24.3624 71.7195 25.4619C70.5738 26.5614 69.9437 28.066 69.9437 29.9178C69.9437 31.7695 70.5738 33.2741 71.8914 34.4315C73.1516 35.5888 74.7556 36.2254 76.6459 36.2254C78.479 36.2254 80.083 35.936 81.4005 35.3574C82.718 34.7787 83.7491 34.0264 84.4365 33.1584Z" fill="var(--fill-0, black)"/>
<path id="Vector_3" d="M110.673 34.2579C112.162 32.9269 112.907 31.2487 112.907 29.2812C112.907 27.3137 112.506 25.7513 111.704 24.6518C110.902 23.5523 109.47 22.6843 107.522 22.0477L102.596 20.4853C101.507 20.1381 100.934 19.5015 100.934 18.5178C100.934 17.534 101.221 16.8396 101.736 16.4345C102.252 16.0294 103.111 15.8558 104.257 15.8558C105.402 15.8558 105.918 15.8558 110.959 16.203L111.016 12.3838C110.214 12.1523 107.407 11.6893 104.429 11.6893C98.3565 11.6893 95.2632 13.8883 95.2059 18.2863V18.4599C95.2059 20.0802 95.5496 21.4112 96.3516 22.5107C97.0963 23.6102 98.3565 24.4782 100.19 24.999L105.46 26.6193C106.835 27.0244 107.522 27.8345 107.522 29.0497C107.522 29.2234 107.522 29.397 107.465 29.6284C107.236 31.3066 106.147 32.1168 104.257 32.1168C101.794 32.1168 99.1585 31.8274 96.3516 30.6701L95.1486 34.7208C97.6119 35.936 100.705 36.2832 104.486 36.2832C107.064 36.2254 109.183 35.5888 110.673 34.2579Z" fill="var(--fill-0, black)"/>
<path id="Vector_4" d="M128.316 35.9939L128.545 31.5381H127.858C125.853 31.5381 124.478 31.3066 123.791 30.7858C123.103 30.265 122.76 29.2812 122.76 27.8345V15.9716H128.431V12.1523H122.76V2.14112L116.745 4.62944V28.2975C116.745 31.3066 117.375 33.332 118.979 34.4315C120.525 35.531 123.16 36.0518 126.827 36.0518L128.316 35.9939Z" fill="var(--fill-0, black)"/>
<path id="Vector_5" d="M147.392 35.7046C151.058 34.7787 152.891 32.4061 152.891 28.5868V19.3279C152.891 16.9553 151.974 15.0457 150.141 13.7147C148.308 12.3838 145.73 11.6893 142.465 11.6893C139.2 11.6893 136.622 12.3838 134.789 13.7147C132.956 15.0457 132.04 16.9553 132.04 19.3279V28.5868C132.04 33.6792 135.534 36.2254 142.465 36.2254C144.356 36.2254 146.017 36.0518 147.392 35.7046ZM139.2 31.3645C138.455 30.8437 138.112 30.0335 138.112 28.8761V19.0964C138.112 16.9553 139.544 15.8558 142.465 15.8558C143.897 15.8558 144.986 16.0873 145.673 16.6081C146.418 17.1289 146.761 17.9391 146.761 19.0964V28.8761C146.761 31.0173 145.329 32.1168 142.408 32.1168C141.033 32.1168 139.945 31.8274 139.2 31.3645Z" fill="var(--fill-0, black)"/>
<path id="Vector_6" d="M172.654 35.7624H178.382V12.2102H172.31V28.066C172.31 29.2812 171.852 30.2071 170.878 30.7858C169.904 31.4223 168.873 31.7117 167.67 31.7117C166.524 31.7117 165.493 31.4223 164.691 30.9015C163.889 30.3228 163.488 29.5127 163.488 28.3553V12.1523H157.416V29.3391C157.416 31.3066 158.104 32.9848 159.479 34.2579C160.853 35.531 162.744 36.2254 165.15 36.2254C166.811 36.2254 168.358 35.936 169.675 35.4152C171.05 34.8944 171.966 34.1421 172.425 33.1584L172.654 35.7624Z" fill="var(--fill-0, black)"/>
<path id="Vector_7" d="M198.145 35.7624H204.217V18.865C204.217 16.7817 203.587 15.1036 202.327 13.7147C201.067 12.3259 199.119 11.6315 196.369 11.6315C193.62 11.6315 191.271 12.4995 189.209 14.2355V12.1523H183.137V35.7046H189.209V19.6173C189.209 18.5178 189.667 17.7076 190.641 17.0711C191.615 16.4345 192.703 16.1452 193.849 16.1452C196.656 16.1452 198.088 17.1868 198.088 19.2122L198.145 35.7624Z" fill="var(--fill-0, black)"/>
<path id="Vector_8" d="M215.273 28.7025V19.0964C215.273 17.9391 215.617 17.1289 216.361 16.6081C217.106 16.0873 218.195 15.8558 219.684 15.8558C221.116 15.8558 222.434 16.1452 223.637 16.666V31.133C222.548 31.7695 221.231 32.0589 219.684 32.0589C218.137 32.0589 216.992 31.7695 216.304 31.2487C215.617 30.7279 215.273 29.9178 215.273 28.7025ZM224.897 34.3736L225.527 35.7624H229.651V0L223.579 2.48833V12.4995C222.033 11.9208 220.543 11.6893 219.111 11.6893C215.789 11.6893 213.268 12.3838 211.607 13.7147C209.946 15.1036 209.144 16.8975 209.144 19.2122V28.6447C209.144 31.0751 209.946 32.9269 211.55 34.2579C213.154 35.5888 215.502 36.2254 218.71 36.2254C221.001 36.2254 223.121 35.5888 224.897 34.3736Z" fill="var(--fill-0, black)"/>
<path id="Vector_9" d="M129.462 53.2964C129.29 54.5117 128.774 55.4376 127.972 56.0741C127.228 56.7107 126.254 57 125.165 57C123.905 57 122.874 56.5371 122.015 55.7269C121.499 55.2061 121.156 54.5117 120.984 53.7015C120.869 53.2386 120.869 52.3127 120.869 51.0396C120.869 49.7665 120.926 48.8406 120.984 48.3777C121.156 47.5675 121.499 46.8731 122.015 46.3523C122.874 45.4843 123.905 45.0792 125.165 45.0792C126.311 45.0792 127.228 45.4264 128.03 46.0629C128.832 46.6995 129.29 47.6254 129.519 48.8406H127.17C126.884 47.7411 126.254 47.1624 125.165 47.1624C124.478 47.1624 123.962 47.4518 123.561 47.9726C123.275 48.3777 123.103 49.4772 123.103 51.1553C123.103 52.0812 123.103 52.6599 123.16 52.8914C123.218 53.6437 123.447 54.1645 123.733 54.5117C124.077 54.9168 124.593 55.1482 125.223 55.1482C126.254 55.1482 126.941 54.5695 127.228 53.4701H129.462V53.2964Z" fill="var(--fill-0, #C8C9C7)"/>
<path id="Vector_10" d="M143.038 50.9817C143.038 52.2548 142.981 53.1807 142.866 53.6437C142.752 54.4538 142.408 55.1482 141.835 55.669C140.976 56.5371 139.945 56.9421 138.684 56.9421C137.424 56.9421 136.336 56.5371 135.477 55.669C134.961 55.1482 134.617 54.4538 134.445 53.6437C134.331 53.1807 134.331 52.2548 134.331 50.9817C134.331 49.7086 134.388 48.7827 134.445 48.3198C134.617 47.5096 134.961 46.8152 135.477 46.2944C136.336 45.4264 137.424 45.0213 138.684 45.0213C139.945 45.0213 140.976 45.4843 141.835 46.2944C142.351 46.8152 142.694 47.5096 142.866 48.3198C142.981 48.7827 143.038 49.7086 143.038 50.9817ZM140.747 50.9817C140.747 50.0558 140.747 49.4772 140.689 49.2457C140.632 48.4934 140.46 47.9726 140.174 47.6254C139.773 47.2203 139.315 46.9888 138.684 46.9888C138.054 46.9888 137.596 47.2203 137.195 47.6254C136.909 47.9726 136.737 48.4934 136.68 49.2457C136.68 49.4193 136.622 49.998 136.622 50.9817C136.622 51.9655 136.622 52.5442 136.68 52.7178C136.737 53.47 136.909 53.9909 137.195 54.3381C137.596 54.7431 138.054 54.9746 138.684 54.9746C139.372 54.9746 139.887 54.6853 140.288 54.1645C140.575 53.7594 140.747 52.6599 140.747 50.9817Z" fill="var(--fill-0, #C8C9C7)"/>
<path id="Vector_11" d="M159.135 56.9421H156.843V49.998L154.609 54.5117H153.063L150.829 49.998V56.9421H148.48V45.0213H150.771L153.807 51.4447L156.843 45.0213H159.135V56.9421Z" fill="var(--fill-0, #C8C9C7)"/>
<path id="Vector_12" d="M175.633 56.9421H173.341V49.998L171.107 54.5117H169.56L167.269 49.998V56.9421H164.978V45.0213H167.212L170.305 51.4447L173.341 45.0213H175.633V56.9421Z" fill="var(--fill-0, #C8C9C7)"/>
<path id="Vector_13" d="M189.209 56.9421H181.476V45.0213H189.209V47.1046H183.767V49.8822H188.407V51.9655H183.767V54.8589H189.209V56.9421Z" fill="var(--fill-0, #C8C9C7)"/>
<path id="Vector_14" d="M203.473 56.9421H200.838L198.546 52.197H196.885V56.9421H194.594V45.0213H199.176C200.322 45.0213 201.296 45.3685 201.983 46.0629C202.671 46.7574 203.014 47.6254 203.014 48.6091C203.014 49.4193 202.785 50.0558 202.384 50.6345C201.983 51.1553 201.525 51.5025 200.895 51.734L203.473 56.9421ZM200.723 48.667C200.723 48.2041 200.551 47.799 200.265 47.5675C199.978 47.2782 199.577 47.1624 199.062 47.1624H196.885V50.2873H199.062C199.577 50.2873 199.978 50.1716 200.265 49.8822C200.551 49.5929 200.723 49.1299 200.723 48.667Z" fill="var(--fill-0, #C8C9C7)"/>
<path id="Vector_15" d="M216.82 53.2964C216.648 54.5117 216.132 55.4376 215.33 56.0741C214.586 56.7107 213.612 57 212.523 57C211.263 57 210.232 56.5371 209.373 55.7269C208.857 55.2061 208.514 54.5117 208.342 53.7015C208.227 53.2386 208.227 52.3127 208.227 51.0396C208.227 49.7665 208.284 48.8406 208.342 48.3777C208.514 47.5675 208.857 46.8731 209.373 46.3523C210.232 45.4843 211.263 45.0792 212.523 45.0792C213.669 45.0792 214.586 45.4264 215.388 46.0629C216.19 46.6995 216.648 47.6254 216.877 48.8406H214.528C214.242 47.7411 213.612 47.1624 212.523 47.1624C211.836 47.1624 211.32 47.4518 210.92 47.9726C210.633 48.3777 210.461 49.4772 210.461 51.1553C210.461 52.0812 210.461 52.6599 210.519 52.8914C210.576 53.6437 210.805 54.1645 211.091 54.5117C211.435 54.9168 211.951 55.1482 212.581 55.1482C213.612 55.1482 214.299 54.5695 214.586 53.4701H216.82V53.2964Z" fill="var(--fill-0, #C8C9C7)"/>
<path id="Vector_16" d="M229.651 56.9421H221.918V45.0213H229.651V47.1046H224.209V49.8822H228.849V51.9655H224.209V54.8589H229.651V56.9421Z" fill="var(--fill-0, #C8C9C7)"/>
</g>
<defs>
<clipPath id="clip0_0_38">
<rect width="232" height="57" fill="white"/>
</clipPath>
</defs>
</svg>
