<svg viewBox="0 0 114.863 92.7105" fill="none" preserveAspectRatio="xMidYMid meet" overflow="visible" style="display: block" xmlns="http://www.w3.org/2000/svg">
<g id="footer-logo">
<path id="Fill-1" fill-rule="evenodd" clip-rule="evenodd" d="M70.6044 34.9136C70.6044 15.6384 54.808 0 35.3163 0C15.8246 0 0 15.6384 0 34.9136V69.8271H35.2881C54.808 69.8271 70.6044 54.1888 70.6044 34.9136ZM50.4358 29.5143C52.8334 29.5143 54.808 31.4446 54.808 33.8225C54.808 36.2004 52.8616 38.1308 50.4358 38.1308C48.0099 38.1308 46.0635 36.2004 46.0635 33.8225C46.0635 31.4446 48.0099 29.5143 50.4358 29.5143ZM50.4358 41.0682C52.8334 41.0682 54.808 42.9985 54.808 45.3764C54.808 47.7544 52.8616 49.6847 50.4358 49.6847C48.0099 49.6847 46.0635 47.7544 46.0635 45.3764C46.0635 42.9985 48.0099 41.0682 50.4358 41.0682ZM16.8401 39.5575V20.5621H24.5127V39.5575C24.5127 42.495 26.9104 44.8729 29.9004 44.8729C32.8622 44.8729 35.2881 42.495 35.2881 39.5575C35.2881 36.6201 32.8904 34.2421 29.9004 34.2421H27.5873V26.6328H29.9004C37.1216 26.6328 42.9607 32.4237 42.9607 39.5575C42.9607 46.6913 37.1216 52.4822 29.9004 52.4822C22.7074 52.4822 16.8401 46.6913 16.8401 39.5575Z" fill="var(--fill-0, #1C2D4F)"/>
<path id="Fill-3" fill-rule="evenodd" clip-rule="evenodd" d="M70.6043 89.4654L68.2066 82.6113H65.4141L69.1657 92.4308H72.0711L75.8228 82.6113H73.0302L70.6043 89.4654Z" fill="var(--fill-0, #1C2D4F)"/>
<g id="Group-7">
<path id="Fill-5" fill-rule="evenodd" clip-rule="evenodd" d="M81.0411 82.3247C79.5743 82.3247 78.3331 82.8283 77.3459 83.8354C76.3304 84.8425 75.8226 86.0734 75.8226 87.5282C75.8226 88.9829 76.3304 90.2138 77.3459 91.193C78.3613 92.2001 79.6025 92.7037 81.0411 92.7037C82.4797 92.7037 83.7491 92.2001 84.7645 91.193C85.78 90.1859 86.2878 88.9549 86.2878 87.5282C86.2878 86.1014 85.78 84.8425 84.7645 83.8354C83.7491 82.8283 82.5079 82.3247 81.0411 82.3247ZM82.9592 89.4585C82.4515 89.962 81.8027 90.2138 81.0411 90.2138C80.2795 90.2138 79.6307 89.962 79.123 89.4585C78.6152 88.9549 78.3613 88.3115 78.3613 87.5282C78.3613 86.7449 78.6152 86.1014 79.123 85.5979C79.6307 85.0943 80.2795 84.8425 81.0411 84.8425C81.8027 84.8425 82.4515 85.0943 82.9592 85.5979C83.467 86.1014 83.7208 86.7449 83.7208 87.5282C83.7491 88.3115 83.4952 88.9549 82.9592 89.4585Z" fill="var(--fill-0, #1C2D4F)"/>
</g>
<path id="Fill-8" fill-rule="evenodd" clip-rule="evenodd" d="M87.642 92.4308H90.2089V82.6113H87.642V92.4308Z" fill="var(--fill-0, #1C2D4F)"/>
<path id="Fill-10" fill-rule="evenodd" clip-rule="evenodd" d="M98.3892 89.8291C97.9943 90.053 97.5148 90.1649 97.007 90.1649C96.2454 90.1649 95.5966 89.9131 95.1171 89.4095C94.6094 88.906 94.3555 88.2625 94.3555 87.5072C94.3555 86.7239 94.6094 86.0804 95.1171 85.5769C95.6248 85.0733 96.2454 84.8215 97.007 84.8215C97.5148 84.8215 97.9661 84.9334 98.361 85.1852C98.7559 85.409 99.0662 85.7447 99.2637 86.1364L101.464 84.8495C101.041 84.0662 100.448 83.4507 99.6586 83.0031C98.8687 82.5555 97.9943 82.3037 97.0352 82.3037C95.5402 82.3037 94.2991 82.8073 93.3118 83.7864C92.3245 84.7935 91.8168 85.9965 91.8168 87.4792C91.8168 88.9339 92.3245 90.1649 93.3118 91.172C94.2991 92.1791 95.5402 92.6547 97.0352 92.6547C97.9943 92.6547 98.8687 92.4309 99.6586 91.9553C100.448 91.4797 101.069 90.8642 101.492 90.1089L99.2637 88.85C99.0944 89.2976 98.7841 89.6053 98.3892 89.8291Z" fill="var(--fill-0, #1C2D4F)"/>
<path id="Fill-11" fill-rule="evenodd" clip-rule="evenodd" d="M107.613 82.3315C106.09 82.3315 104.821 82.8351 103.862 83.8142C102.874 84.7934 102.395 86.0243 102.395 87.507C102.395 88.9897 102.903 90.2486 103.89 91.2278C104.877 92.2069 106.203 92.7105 107.839 92.7105C109.729 92.7105 111.167 92.0111 112.155 90.6123L110.096 89.4373C109.588 90.0808 108.854 90.4165 107.867 90.4165C106.344 90.4165 105.413 89.801 105.075 88.5701H112.521C112.578 88.2064 112.634 87.8707 112.634 87.535C112.634 86.0803 112.155 84.8493 111.224 83.8422C110.265 82.8351 109.08 82.3315 107.613 82.3315ZM105.018 86.5838C105.159 85.9684 105.469 85.4648 105.921 85.1291C106.372 84.7934 106.936 84.5976 107.613 84.5976C108.206 84.5976 108.713 84.7654 109.165 85.1011C109.616 85.4368 109.926 85.9124 110.067 86.5838H105.018Z" fill="var(--fill-0, #1C2D4F)"/>
<path id="Fill-12" fill-rule="evenodd" clip-rule="evenodd" d="M5.75442 82.3049C4.37223 82.3049 3.30033 82.7805 2.53871 83.7317V78.6401H0V92.4041H2.53871V91.2571C3.30033 92.2083 4.37223 92.6839 5.75442 92.6839C7.08019 92.6839 8.23671 92.1803 9.16757 91.1732C10.0984 90.1661 10.578 88.9352 10.578 87.5084C10.578 86.0537 10.0984 84.8227 9.16757 83.8156C8.23671 82.8085 7.08019 82.3049 5.75442 82.3049ZM7.24944 89.4667C6.74169 89.9703 6.0647 90.25 5.27488 90.25C4.48506 90.25 3.83628 89.9982 3.32854 89.4667C2.82079 88.9631 2.56692 88.2917 2.56692 87.4804C2.56692 86.6691 2.82079 85.9977 3.32854 85.4942C3.83628 84.9906 4.48506 84.7108 5.27488 84.7108C6.0647 84.7108 6.71348 84.9626 7.24944 85.4942C7.75718 85.9977 8.03926 86.6691 8.03926 87.4804C8.03926 88.2917 7.78539 88.9631 7.24944 89.4667Z" fill="var(--fill-0, #1C2D4F)"/>
<path id="Fill-13" fill-rule="evenodd" clip-rule="evenodd" d="M20.2249 83.7305C19.4633 82.7793 18.3914 82.3037 17.0092 82.3037C15.6834 82.3037 14.5551 82.8073 13.6243 83.8144C12.6934 84.8215 12.2139 86.0524 12.2139 87.5072C12.2139 88.9619 12.6934 90.1928 13.6243 91.172C14.5551 92.1791 15.7116 92.6827 17.0092 92.6827C18.3914 92.6827 19.4633 92.2071 20.2249 91.2559V92.4029H22.7636V82.5835H20.2249V83.7305ZM19.4351 89.4655C18.9274 89.969 18.2504 90.2488 17.4605 90.2488C16.6707 90.2488 16.0219 89.997 15.5142 89.4655C15.0065 88.9619 14.7526 88.2905 14.7526 87.4792C14.7526 86.6679 15.0065 85.9965 15.5142 85.4929C16.0219 84.9894 16.6707 84.7096 17.4605 84.7096C18.2504 84.7096 18.8991 84.9614 19.4351 85.4929C19.9428 85.9965 20.2249 86.6679 20.2249 87.4792C20.2249 88.2905 19.971 88.9619 19.4351 89.4655Z" fill="var(--fill-0, #1C2D4F)"/>
<path id="Fill-14" fill-rule="evenodd" clip-rule="evenodd" d="M32.2416 84.262V82.5835H24.8229V84.9614H28.8003L24.6255 90.6964V92.4029H32.4391V90.025H28.0386L32.2416 84.262Z" fill="var(--fill-0, #1C2D4F)"/>
<path id="Fill-15" fill-rule="evenodd" clip-rule="evenodd" d="M41.6065 83.7305C40.8449 82.7793 39.773 82.3037 38.3908 82.3037C37.065 82.3037 35.9367 82.8073 35.0059 83.8144C34.075 84.8215 33.5955 86.0524 33.5955 87.5072C33.5955 88.9619 34.075 90.1928 35.0059 91.172C35.9367 92.1791 37.0932 92.6827 38.3908 92.6827C39.773 92.6827 40.8449 92.2071 41.6065 91.2559V92.4029H44.1452V82.5835H41.6065V83.7305ZM40.8167 89.4655C40.3089 89.969 39.632 90.2488 38.8421 90.2488C38.0523 90.2488 37.4035 89.997 36.8958 89.4655C36.388 88.9619 36.1342 88.2905 36.1342 87.4792C36.1342 86.6679 36.388 85.9965 36.8958 85.4929C37.4035 84.9894 38.0523 84.7096 38.8421 84.7096C39.632 84.7096 40.2807 84.9614 40.8167 85.4929C41.3244 85.9965 41.6065 86.6679 41.6065 87.4792C41.6065 88.2905 41.3244 88.9619 40.8167 89.4655Z" fill="var(--fill-0, #1C2D4F)"/>
<path id="Fill-16" fill-rule="evenodd" clip-rule="evenodd" d="M53.8489 83.7305C53.0873 82.7793 52.0154 82.3037 50.6332 82.3037C49.3075 82.3037 48.1791 82.8073 47.2483 83.8144C46.3174 84.8215 45.8379 86.0524 45.8379 87.5072C45.8379 88.9619 46.3174 90.1928 47.2483 91.172C48.1791 92.1791 49.3357 92.6827 50.6332 92.6827C52.0154 92.6827 53.0873 92.2071 53.8489 91.2559V92.4029H56.3877V82.5835H53.8489V83.7305ZM53.0591 89.4655C52.5514 89.969 51.8744 90.2488 51.0846 90.2488C50.2947 90.2488 49.646 89.997 49.1382 89.4655C48.6305 88.9619 48.3766 88.2905 48.3766 87.4792C48.3766 86.6679 48.6305 85.9965 49.1382 85.4929C49.646 84.9894 50.2947 84.7096 51.0846 84.7096C51.8744 84.7096 52.5232 84.9614 53.0591 85.4929C53.5669 85.9965 53.8489 86.6679 53.8489 87.4792C53.8489 88.2905 53.5951 88.9619 53.0591 89.4655Z" fill="var(--fill-0, #1C2D4F)"/>
<path id="Fill-17" fill-rule="evenodd" clip-rule="evenodd" d="M60.9856 84.263V82.5845H58.4469V92.4039H60.9856V87.704C60.9856 86.7529 61.2959 86.0814 61.9165 85.6898C62.537 85.2702 63.214 85.1303 64.0039 85.2142V82.3887C63.3269 82.3887 62.7345 82.5565 62.1703 82.8643C61.6062 83.172 61.2113 83.6476 60.9856 84.263Z" fill="var(--fill-0, #1C2D4F)"/>
<path id="Fill-18" fill-rule="evenodd" clip-rule="evenodd" d="M112.38 82.3598C112.38 81.6604 112.916 81.1289 113.621 81.1289C114.327 81.1289 114.863 81.6604 114.863 82.3598C114.863 83.0592 114.327 83.5908 113.621 83.5908C112.916 83.5908 112.38 83.0312 112.38 82.3598ZM114.637 82.3598C114.637 81.7723 114.186 81.3527 113.621 81.3527C113.057 81.3527 112.606 81.7723 112.606 82.3598C112.606 82.9473 113.029 83.367 113.621 83.367C114.186 83.367 114.637 82.9193 114.637 82.3598ZM113.452 82.5836V83.0872H113.114V81.6604H113.706C113.988 81.6604 114.186 81.8283 114.186 82.1081C114.186 82.3039 114.073 82.4438 113.903 82.5277L114.242 83.0872H113.819L113.565 82.5836H113.452ZM113.593 82.3039C113.734 82.3039 113.847 82.2759 113.847 82.0801C113.847 81.9682 113.734 81.8842 113.593 81.8842H113.424V82.2759H113.593V82.3039Z" fill="var(--fill-0, #1C2D4F)"/>
</g>
</svg>
