<svg preserveAspectRatio="none" width="100%" height="100%" overflow="visible" style="display: block;" viewBox="0 0 180.005 35.2648" fill="none" xmlns="http://www.w3.org/2000/svg">
<g id="Layer 1">
<path id="Vector" d="M57.7945 11.0782C58.7385 11.0801 59.6694 11.3011 60.5157 11.7242C61.362 12.1473 62.1011 12.7613 62.6761 13.5188C62.6965 13.5462 62.7222 13.5692 62.7517 13.5862C62.7812 13.6032 62.8138 13.6139 62.8475 13.6176C62.8813 13.6214 62.9154 13.6181 62.9478 13.608C62.9803 13.5979 63.0103 13.5812 63.0361 13.5589L65.0917 11.9014C65.118 11.8802 65.1399 11.8539 65.1561 11.8241C65.1723 11.7943 65.1826 11.7615 65.1863 11.7276C65.1899 11.6938 65.187 11.6595 65.1775 11.6269C65.1681 11.5942 65.1524 11.5637 65.1313 11.5372C64.2564 10.3883 63.1324 9.45814 61.846 8.81837C60.5595 8.17859 59.1451 7.84632 57.7117 7.84717C52.3441 7.84717 47.9917 12.528 47.9917 18.2834C47.9917 24.0388 52.3585 28.7196 57.7117 28.7196C59.1449 28.7245 60.5598 28.3943 61.8462 27.7549C63.1326 27.1155 64.2556 26.184 65.1277 25.0332C65.1496 25.0069 65.1658 24.9763 65.1756 24.9433C65.1853 24.9104 65.1882 24.8758 65.1841 24.8416C65.1801 24.8075 65.1691 24.7745 65.152 24.7448C65.1349 24.7151 65.1119 24.6893 65.0845 24.669L63.0325 23.0298C63.0063 23.0084 62.9762 22.9925 62.9439 22.983C62.9116 22.9734 62.8777 22.9704 62.8443 22.9742C62.8108 22.9779 62.7784 22.9882 62.749 23.0047C62.7195 23.0211 62.6935 23.0432 62.6725 23.0698C62.0946 23.8224 61.3551 24.4323 60.5101 24.8532C59.665 25.2741 58.7364 25.4951 57.7945 25.4995C54.1261 25.4995 51.2569 22.3304 51.2569 18.2907C51.2569 14.251 54.1261 11.0782 57.7945 11.0782Z" fill="var(--fill-0, #3448C5)"/>
<path id="Vector_2" d="M67.7807 7.25244H70.3583C70.4261 7.25244 70.4911 7.27969 70.539 7.32819C70.587 7.37669 70.6139 7.44248 70.6139 7.51107V28.1941C70.6139 28.2617 70.5874 28.3266 70.5401 28.3744C70.4928 28.4222 70.4287 28.4491 70.3619 28.4491H67.7843C67.7165 28.4491 67.6515 28.4218 67.6036 28.3733C67.5556 28.3248 67.5287 28.259 67.5287 28.1904V7.51107C67.5282 7.47728 67.5344 7.44373 67.5469 7.41237C67.5593 7.38101 67.5778 7.35247 67.6012 7.32841C67.6247 7.30434 67.6526 7.28523 67.6834 7.27219C67.7142 7.25915 67.7473 7.25244 67.7807 7.25244Z" fill="var(--fill-0, #3448C5)"/>
<path id="Vector_3" d="M79.398 14.4067C75.9816 14.4067 72.5256 16.8546 72.5256 21.5354C72.5256 25.648 75.4812 28.7515 79.398 28.7515C83.3148 28.7515 86.2992 25.648 86.2992 21.5354C86.2992 17.4229 83.3328 14.4067 79.398 14.4067ZM83.1888 21.5354C83.1888 23.9104 81.558 25.7026 79.398 25.7026C77.238 25.7026 75.6396 23.9104 75.6396 21.5354C75.6396 19.1604 77.256 17.4556 79.398 17.4556C81.54 17.4556 83.1888 19.2078 83.1888 21.5354Z" fill="var(--fill-0, #3448C5)"/>
<path id="Vector_4" d="M100.192 14.7056H97.6141C97.5807 14.7051 97.5475 14.7113 97.5165 14.7239C97.4856 14.7365 97.4573 14.7553 97.4336 14.779C97.4098 14.8027 97.3909 14.831 97.378 14.8622C97.3651 14.8933 97.3585 14.9268 97.3585 14.9606V21.8816C97.3585 24.5845 95.5153 25.5425 93.9349 25.5425C92.5381 25.5425 91.1305 24.4752 91.1305 22.0893V14.9606C91.1305 14.9268 91.1239 14.8933 91.111 14.8622C91.0981 14.831 91.0792 14.8027 91.0554 14.779C91.0316 14.7553 91.0034 14.7365 90.9724 14.7239C90.9414 14.7113 90.9083 14.7051 90.8749 14.7056H88.2973C88.2305 14.7056 88.1664 14.7325 88.1191 14.7803C88.0718 14.8281 88.0453 14.893 88.0453 14.9606V22.428C88.0453 26.526 89.8777 28.7808 93.2077 28.7808C94.4173 28.7808 96.3757 28.0778 97.1101 26.526L97.3585 26.577V28.1944C97.3585 28.2629 97.3854 28.3287 97.4333 28.3772C97.4813 28.4257 97.5463 28.453 97.6141 28.453H100.192C100.259 28.453 100.324 28.4257 100.372 28.3772C100.42 28.3287 100.447 28.2629 100.447 28.1944V14.9606C100.447 14.9268 100.441 14.8933 100.428 14.8622C100.415 14.831 100.396 14.8027 100.372 14.779C100.348 14.7553 100.32 14.7365 100.289 14.7239C100.258 14.7113 100.225 14.7051 100.192 14.7056Z" fill="var(--fill-0, #3448C5)"/>
<path id="Vector_5" d="M116.021 7.25244H113.44C113.406 7.25244 113.373 7.25915 113.342 7.27219C113.311 7.28523 113.283 7.30434 113.26 7.32841C113.237 7.35247 113.218 7.38101 113.206 7.41237C113.193 7.44373 113.187 7.47728 113.188 7.51107V16.7561L113.029 16.5012C112.244 15.2226 110.556 14.3957 108.727 14.3957C105.574 14.3957 102.384 16.8545 102.384 21.5535C102.384 25.6515 105.124 28.7405 108.752 28.7405C110.135 28.7405 112.082 28.1795 113.029 26.6059L113.188 26.3436V28.1941C113.187 28.2279 113.193 28.2614 113.206 28.2928C113.218 28.3241 113.237 28.3527 113.26 28.3767C113.283 28.4008 113.311 28.4199 113.342 28.433C113.373 28.446 113.406 28.4527 113.44 28.4527H116.021C116.054 28.4527 116.087 28.446 116.118 28.433C116.149 28.4199 116.177 28.4008 116.2 28.3767C116.224 28.3527 116.242 28.3241 116.255 28.2928C116.267 28.2614 116.273 28.2279 116.273 28.1941V7.51107C116.273 7.47728 116.267 7.44373 116.255 7.41237C116.242 7.38101 116.224 7.35247 116.2 7.32841C116.177 7.30434 116.149 7.28523 116.118 7.27219C116.087 7.25915 116.054 7.25244 116.021 7.25244ZM113.141 21.5353C113.158 22.0649 113.071 22.5926 112.886 23.088C112.7 23.5834 112.419 24.0367 112.059 24.4215C111.699 24.8064 111.267 25.1152 110.789 25.33C110.31 25.5449 109.794 25.6616 109.271 25.6734C107.161 25.6734 105.509 23.852 105.509 21.5353C105.509 19.2186 107.161 17.4555 109.271 17.4555C110.316 17.4823 111.308 17.9262 112.031 18.6906C112.754 19.4549 113.149 20.4775 113.13 21.5353H113.141Z" fill="var(--fill-0, #3448C5)"/>
<path id="Vector_6" d="M119.884 14.7056H122.461C122.528 14.7056 122.592 14.7324 122.639 14.7802C122.687 14.8281 122.713 14.8929 122.713 14.9606V28.1943C122.713 28.262 122.687 28.3268 122.639 28.3746C122.592 28.4225 122.528 28.4493 122.461 28.4493H119.884C119.816 28.4493 119.751 28.4221 119.703 28.3736C119.655 28.3251 119.628 28.2593 119.628 28.1907V14.9606C119.629 14.8926 119.656 14.8277 119.704 14.78C119.752 14.7323 119.816 14.7056 119.884 14.7056Z" fill="var(--fill-0, #3448C5)"/>
<path id="Vector_7" d="M121.183 7.67196C120.916 7.66613 120.651 7.71432 120.403 7.81367C120.154 7.91303 119.928 8.06156 119.737 8.25055C119.546 8.43953 119.395 8.66518 119.291 8.91424C119.188 9.16329 119.135 9.43075 119.135 9.70092C119.14 10.2452 119.359 10.7649 119.743 11.146C120.127 11.5271 120.645 11.7384 121.183 11.7335C121.448 11.7369 121.712 11.6867 121.957 11.5859C122.203 11.4851 122.427 11.3357 122.615 11.1464C122.803 10.9572 122.952 10.7318 123.053 10.4836C123.154 10.2354 123.205 9.96931 123.203 9.70092C123.207 9.432 123.158 9.16494 123.058 8.91578C122.958 8.66663 122.809 8.44051 122.62 8.25101C122.432 8.06151 122.207 7.91254 121.96 7.81303C121.713 7.71352 121.449 7.66554 121.183 7.67196Z" fill="var(--fill-0, #3448C5)"/>
<path id="Vector_8" d="M133.329 14.4067C132.199 14.4067 130.19 15.0223 129.423 16.6615L129.175 16.6105V14.9604C129.175 14.9266 129.168 14.8932 129.156 14.862C129.143 14.8308 129.124 14.8025 129.1 14.7788C129.076 14.7551 129.048 14.7364 129.017 14.7238C128.986 14.7112 128.953 14.705 128.919 14.7054H126.342C126.275 14.7054 126.211 14.7323 126.164 14.7801C126.116 14.8279 126.09 14.8928 126.09 14.9604V28.1942C126.089 28.228 126.096 28.2615 126.108 28.2929C126.12 28.3243 126.139 28.3528 126.162 28.3769C126.186 28.4009 126.214 28.42 126.245 28.4331C126.275 28.4461 126.308 28.4528 126.342 28.4528H128.919C128.987 28.4528 129.052 28.4256 129.1 28.3771C129.148 28.3286 129.175 28.2628 129.175 28.1942V21.2731C129.175 18.5922 131.018 17.6305 132.599 17.6305C133.995 17.6305 135.403 18.6905 135.403 21.0546V28.1942C135.403 28.2628 135.43 28.3286 135.478 28.3771C135.526 28.4256 135.591 28.4528 135.659 28.4528H138.243C138.311 28.4528 138.376 28.4256 138.424 28.3771C138.472 28.3286 138.499 28.2628 138.499 28.1942V20.7304C138.492 16.6543 136.656 14.4067 133.329 14.4067Z" fill="var(--fill-0, #3448C5)"/>
<path id="Vector_9" d="M153.896 14.7055H151.319C151.285 14.705 151.252 14.7113 151.221 14.7239C151.19 14.7365 151.162 14.7552 151.138 14.7789C151.114 14.8026 151.095 14.8309 151.083 14.8621C151.07 14.8932 151.063 14.9267 151.063 14.9605V16.7818L150.908 16.5268C150.12 15.2483 148.431 14.4214 146.588 14.4214C143.438 14.4214 140.245 16.8802 140.245 21.5792C140.245 25.6772 142.985 28.7662 146.617 28.7662C147.996 28.7662 149.943 28.2052 150.894 26.6316L151.049 26.3693V28.1943C151.049 28.2629 151.076 28.3287 151.123 28.3772C151.171 28.4257 151.236 28.4529 151.304 28.4529H153.882C153.915 28.4529 153.948 28.4462 153.979 28.4332C154.01 28.4201 154.038 28.401 154.061 28.3769C154.085 28.3529 154.103 28.3243 154.116 28.293C154.128 28.2616 154.134 28.2281 154.134 28.1943V14.9605C154.134 14.8953 154.109 14.8326 154.065 14.7852C154.021 14.7377 153.961 14.7092 153.896 14.7055ZM151.016 21.5355C151.033 22.0659 150.946 22.5946 150.76 23.0907C150.574 23.5868 150.292 24.0406 149.931 24.4255C149.57 24.8105 149.137 25.1191 148.657 25.3333C148.177 25.5476 147.66 25.6632 147.135 25.6736C145.026 25.6736 143.377 23.8522 143.377 21.5355C143.377 19.2188 145.026 17.4557 147.135 17.4557C148.183 17.4787 149.179 17.921 149.905 18.6857C150.631 19.4504 151.028 20.4752 151.009 21.5355H151.016Z" fill="var(--fill-0, #3448C5)"/>
<path id="Vector_10" d="M165.657 14.7534C165.07 14.5124 164.441 14.3887 163.807 14.3892C162.093 14.3892 160.848 15.4273 160.207 17.3944L159.977 17.3616V14.9611C159.977 14.9273 159.97 14.8938 159.957 14.8626C159.944 14.8315 159.925 14.8032 159.902 14.7795C159.878 14.7557 159.85 14.737 159.819 14.7244C159.788 14.7118 159.754 14.7056 159.721 14.7061H157.143C157.11 14.7056 157.077 14.7118 157.046 14.7244C157.015 14.737 156.987 14.7557 156.963 14.7795C156.939 14.8032 156.92 14.8315 156.907 14.8626C156.894 14.8938 156.888 14.9273 156.888 14.9611V28.1948C156.888 28.2634 156.915 28.3292 156.963 28.3777C157.011 28.4262 157.076 28.4535 157.143 28.4535H159.75C159.783 28.4535 159.816 28.4468 159.847 28.4337C159.878 28.4207 159.906 28.4016 159.929 28.3775C159.953 28.3534 159.971 28.3249 159.984 28.2935C159.996 28.2622 160.002 28.2286 160.002 28.1948V23.6779C160.002 18.2868 162.129 17.4854 163.4 17.4854C163.936 17.4868 164.467 17.5983 164.959 17.8133C164.993 17.8295 165.031 17.838 165.069 17.838C165.107 17.838 165.144 17.8295 165.179 17.8133C165.212 17.7957 165.24 17.7708 165.263 17.7406C165.285 17.7104 165.301 17.6755 165.308 17.6384L165.819 15.0485C165.832 14.9878 165.822 14.9247 165.793 14.8705C165.763 14.8164 165.715 14.7748 165.657 14.7534Z" fill="var(--fill-0, #3448C5)"/>
<path id="Vector_11" d="M179.96 14.8185C179.937 14.7831 179.906 14.7542 179.869 14.7344C179.831 14.7147 179.79 14.7048 179.748 14.7056H176.972C176.921 14.7062 176.871 14.722 176.829 14.7512C176.787 14.7804 176.754 14.8215 176.735 14.8695L173.376 23.6775L169.985 14.8695C169.966 14.8215 169.933 14.7804 169.891 14.7512C169.848 14.722 169.798 14.7062 169.747 14.7056H166.918C166.876 14.7054 166.836 14.7156 166.799 14.7353C166.763 14.755 166.732 14.7836 166.709 14.8185C166.685 14.8534 166.671 14.8936 166.666 14.9355C166.662 14.9775 166.668 15.0199 166.684 15.059L171.724 27.5824L168.941 34.9005C168.923 34.9402 168.916 34.9838 168.919 35.0272C168.923 35.0705 168.937 35.1123 168.961 35.1487C168.985 35.185 169.017 35.2147 169.055 35.235C169.093 35.2553 169.135 35.2655 169.178 35.2648H171.878C171.929 35.265 171.979 35.2494 172.021 35.2201C172.063 35.1908 172.095 35.1492 172.112 35.1009L179.982 15.0662C180 15.0266 180.007 14.9829 180.004 14.9395C180 14.8961 179.985 14.8544 179.96 14.8185Z" fill="var(--fill-0, #3448C5)"/>
<path id="Vector_12" d="M35.2509 10.2397C34.3195 7.28458 32.4887 4.70298 30.0201 2.86395C27.5515 1.02492 24.5715 0.0225901 21.5061 0.000237346C18.9144 -0.0148003 16.3676 0.684983 14.1394 2.0244C11.9112 3.36382 10.0858 5.29224 8.85933 7.60247C6.60517 8.01122 4.53876 9.13723 2.96086 10.8166C1.38297 12.496 0.375944 14.6411 0.0863602 16.9397C-0.203224 19.2383 0.239748 21.5704 1.3508 23.5967C2.46185 25.6229 4.183 27.2374 6.26372 28.2053L6.53372 28.3292H6.55173V25.2329C5.12434 24.3463 4.0069 23.0301 3.35602 21.4686C2.70513 19.9071 2.55343 18.1786 2.92218 16.5255C3.29093 14.8724 4.16164 13.3775 5.41227 12.2503C6.6629 11.123 8.23077 10.42 9.89612 10.2397L10.6521 10.1596L10.9833 9.47115C11.9237 7.4546 13.4135 5.7516 15.2776 4.56235C17.1416 3.3731 19.3025 2.74703 21.5061 2.75773C24.1319 2.77647 26.6761 3.68297 28.7341 5.33307C30.7921 6.98317 32.2459 9.28213 32.8641 11.8644L33.1233 12.9062H34.2033C35.9444 12.9423 37.6024 13.6659 38.8233 14.9223C40.0442 16.1788 40.7311 17.8685 40.7373 19.6305C40.7373 22.1986 39.2721 24.3004 36.7773 25.3641V28.3L36.9573 28.2418C40.9677 26.9122 43.4589 23.6119 43.4589 19.6305C43.4424 17.3261 42.6021 15.1057 41.0933 13.3794C39.5846 11.6532 37.5092 10.538 35.2509 10.2397Z" fill="var(--fill-0, #3448C5)"/>
<path id="Vector_13" d="M16.2287 27.9715L16.8263 28.5762C16.8425 28.593 16.8534 28.6142 16.8578 28.6372C16.8622 28.6602 16.8599 28.684 16.8511 28.7056C16.8423 28.7273 16.8274 28.7459 16.8083 28.7592C16.7892 28.7724 16.7667 28.7797 16.7435 28.7802H12.0275C11.4547 28.7802 10.9053 28.5499 10.5002 28.14C10.0951 27.7301 9.86754 27.1742 9.86754 26.5946V17.3276C9.86754 17.2958 9.85503 17.2652 9.83275 17.2426C9.81047 17.2201 9.78025 17.2074 9.74874 17.2074H8.74074C8.71729 17.2077 8.69429 17.2009 8.67464 17.1879C8.65499 17.175 8.63957 17.1564 8.63033 17.1346C8.62109 17.1128 8.61844 17.0887 8.62271 17.0653C8.62699 17.042 8.63799 17.0205 8.65434 17.0034L12.6575 12.9528C12.6686 12.9415 12.6818 12.9325 12.6963 12.9263C12.7108 12.9202 12.7264 12.917 12.7421 12.917C12.7579 12.917 12.7735 12.9202 12.788 12.9263C12.8025 12.9325 12.8157 12.9415 12.8267 12.9528L16.8263 17.0034C16.8425 17.0202 16.8534 17.0414 16.8578 17.0644C16.8622 17.0874 16.8599 17.1112 16.8511 17.1329C16.8423 17.1546 16.8274 17.1732 16.8083 17.1864C16.7892 17.1997 16.7667 17.207 16.7435 17.2074H15.7211C15.6893 17.2074 15.6587 17.22 15.6358 17.2424C15.613 17.2649 15.5997 17.2954 15.5987 17.3276V26.4343C15.6002 27.0107 15.8266 27.5632 16.2287 27.9715Z" fill="var(--fill-0, #3448C5)"/>
<path id="Vector_14" d="M25.0739 27.9723L25.6751 28.577C25.6915 28.594 25.7025 28.6155 25.7067 28.6389C25.711 28.6622 25.7084 28.6863 25.6991 28.7081C25.6899 28.7299 25.6745 28.7485 25.6548 28.7615C25.6352 28.7744 25.6122 28.7812 25.5887 28.781H20.8835C20.3106 28.781 19.7612 28.5507 19.3562 28.1408C18.9511 27.7309 18.7235 27.175 18.7235 26.5954V19.6707C18.7235 19.6385 18.7111 19.6075 18.6889 19.5844C18.6668 19.5612 18.6365 19.5478 18.6047 19.5468H17.5859C17.5628 19.5464 17.5403 19.5391 17.5212 19.5258C17.502 19.5126 17.4872 19.494 17.4784 19.4723C17.4696 19.4506 17.4672 19.4268 17.4716 19.4038C17.476 19.3808 17.487 19.3596 17.5031 19.3428L21.5027 15.2995C21.5138 15.2881 21.5269 15.2791 21.5415 15.273C21.556 15.2668 21.5716 15.2637 21.5873 15.2637C21.6031 15.2637 21.6186 15.2668 21.6332 15.273C21.6477 15.2791 21.6609 15.2881 21.6719 15.2995L25.6751 19.3356C25.6915 19.3526 25.7025 19.3741 25.7067 19.3974C25.711 19.4208 25.7084 19.4449 25.6991 19.4667C25.6899 19.4885 25.6745 19.5071 25.6548 19.52C25.6352 19.533 25.6122 19.5398 25.5887 19.5395H24.5663C24.5345 19.5405 24.5043 19.554 24.4821 19.5771C24.4599 19.6002 24.4475 19.6312 24.4475 19.6634V26.4351C24.448 27.011 24.6731 27.5634 25.0739 27.9723Z" fill="var(--fill-0, #3448C5)"/>
<path id="Vector_15" d="M33.9226 27.9719L34.5202 28.5766C34.5363 28.5934 34.5473 28.6146 34.5517 28.6376C34.556 28.6606 34.5537 28.6844 34.5449 28.7061C34.5361 28.7278 34.5212 28.7464 34.5021 28.7596C34.483 28.7728 34.4605 28.7801 34.4374 28.7806H29.7178C29.1449 28.7806 28.5955 28.5503 28.1904 28.1405C27.7854 27.7306 27.5578 27.1747 27.5578 26.595V21.9943C27.5578 21.9625 27.5453 21.9319 27.523 21.9093C27.5007 21.8868 27.4705 21.8741 27.439 21.8741H26.431C26.4071 21.8744 26.3837 21.8673 26.3638 21.8539C26.3439 21.8405 26.3285 21.8213 26.3195 21.7989C26.3106 21.7765 26.3086 21.7519 26.3137 21.7282C26.3188 21.7046 26.3308 21.6831 26.3482 21.6665L30.3514 17.6195C30.3621 17.6083 30.375 17.5993 30.3892 17.5932C30.4034 17.5871 30.4187 17.584 30.4342 17.584C30.4496 17.584 30.4649 17.5871 30.4791 17.5932C30.4934 17.5993 30.5062 17.6083 30.517 17.6195L34.5202 21.6665C34.5376 21.6831 34.5496 21.7046 34.5547 21.7282C34.5598 21.7519 34.5578 21.7765 34.5488 21.7989C34.5399 21.8213 34.5245 21.8405 34.5046 21.8539C34.4847 21.8673 34.4613 21.8744 34.4374 21.8741H33.4114C33.3799 21.8741 33.3497 21.8868 33.3274 21.9093C33.3051 21.9319 33.2926 21.9625 33.2926 21.9943V26.4347C33.294 27.0112 33.5205 27.5636 33.9226 27.9719Z" fill="var(--fill-0, #3448C5)"/>
</g>
</svg>
