<svg preserveAspectRatio="none" width="100%" height="100%" overflow="visible" style="display: block;" viewBox="0 0 278 54" fill="none" xmlns="http://www.w3.org/2000/svg">
<g id="CommerceTools">
<path d="M53.9596 28.2232C55.4199 28.2245 56.8746 28.0456 58.2905 27.6906L58.7701 30.914C57.1955 31.3245 55.5734 31.5271 53.9455 31.5167C46.5252 31.5167 44.3809 26.9198 44.3809 21.5241C44.3809 16.1284 47.6396 11.8539 53.9032 11.8539C55.5328 11.8591 57.1547 12.0758 58.7278 12.4985L58.0789 15.7079C56.749 15.3865 55.3847 15.2265 54.0161 15.2314C50.0802 15.3015 48.1475 18.1886 48.0769 21.5662C48.0064 24.9437 49.4171 28.2232 53.9596 28.2232Z" fill="var(--fill-0, #003037)"/>
<path d="M69.1671 11.8679C75.2754 11.8679 77.984 16.4087 77.984 21.6783C77.984 26.9479 75.6422 31.4886 69.1247 31.4886C62.6073 31.4886 60.3078 26.8358 60.3078 21.6783C60.3078 16.5209 63.0446 11.938 69.1671 11.8679ZM69.1671 28.2512C73.0606 28.2512 74.3161 25.0839 74.3161 21.6923C74.3161 18.595 72.9054 15.0913 69.1247 15.0913C65.344 15.0913 63.9333 18.567 63.9333 21.6923C63.9192 25.224 65.4851 28.2512 69.1671 28.2512Z" fill="var(--fill-0, #003037)"/>
<path d="M103.236 31.1523V19.0295C103.236 15.9743 102.093 15.1334 100.16 15.1334C98.5805 15.2601 97.0896 15.9118 95.9282 16.9834C95.9282 17.3898 96.0269 18.1886 96.0269 18.3848V31.1103H92.2886V18.8893C92.2886 15.8341 91.3716 15.0913 89.4672 15.0913C87.857 15.2924 86.339 15.9492 85.0939 16.9834V31.1523H81.2991V12.2743H85.0657V13.816C86.4717 12.6455 88.2154 11.9487 90.0455 11.8259C92.6977 11.8259 94.2777 12.7088 95.0677 14.1243C96.6301 12.742 98.6209 11.9311 100.711 11.8259C106.932 11.7278 107.016 16.675 107.016 18.8333V31.2223L103.236 31.1523Z" fill="var(--fill-0, #003037)"/>
<path d="M133.086 31.1523V19.0295C133.086 15.9743 131.944 15.1334 129.997 15.1334C128.417 15.2601 126.926 15.9118 125.765 16.9834C125.765 17.3898 125.863 18.1886 125.863 18.3848V31.1103H122.055V18.8893C122.055 15.8341 121.138 15.0913 119.233 15.0913C117.619 15.2944 116.097 15.9508 114.846 16.9834V31.1523H111.136V12.2743H114.902V13.816C116.33 12.6368 118.099 11.9398 119.953 11.8259C122.591 11.8259 124.185 12.7088 124.975 14.1243C126.537 12.742 128.528 11.9311 130.618 11.8259C136.825 11.7278 136.923 16.675 136.923 18.8333V31.2223L133.086 31.1523Z" fill="var(--fill-0, #003037)"/>
<path d="M154.416 27.6906L154.995 30.7599C153.09 31.3233 151.113 31.6065 149.126 31.6008C141.593 31.6008 139.759 26.5834 139.759 21.5801C139.759 16.5768 142.002 11.924 148.308 11.924C152.215 11.924 155.46 14.3065 155.502 20.3329V22.3089H143.497C143.497 26.0088 145.571 28.2652 149.338 28.2652C151.047 28.2711 152.752 28.0783 154.416 27.6906ZM143.638 19.478H152.018C151.877 15.6519 149.944 14.8671 148.153 14.8671C145.345 14.825 143.935 16.7451 143.638 19.464V19.478Z" fill="var(--fill-0, #003037)"/>
<path d="M169.327 15.6659C168.528 15.4787 167.708 15.3893 166.887 15.3996C166.041 15.3837 165.203 15.5568 164.434 15.9061C163.665 16.2554 162.984 16.7721 162.443 17.4178V31.1523H158.691V12.2743H162.443V13.9561C163.015 13.3616 163.699 12.8858 164.457 12.5562C165.215 12.2266 166.031 12.0498 166.859 12.0361C167.934 12.0068 169.006 12.1779 170.019 12.5406L169.327 15.6659Z" fill="var(--fill-0, #003037)"/>
<path d="M180.359 28.2232C181.824 28.2246 183.283 28.0458 184.704 27.6906L185.17 30.914C183.6 31.3246 181.982 31.5272 180.359 31.5167C172.925 31.5167 170.78 26.9198 170.78 21.5241C170.78 16.1284 174.039 11.8259 180.317 11.8259C181.946 11.8311 183.568 12.0478 185.141 12.4706L184.493 15.68C183.158 15.3574 181.789 15.1974 180.416 15.2035C176.48 15.2735 174.547 18.1605 174.491 21.5381C174.434 24.9157 175.746 28.2232 180.359 28.2232Z" fill="var(--fill-0, #003037)"/>
<path d="M201.365 27.6906L201.929 30.7599C200.024 31.3233 198.047 31.6065 196.06 31.6008C188.541 31.6008 186.707 26.5834 186.707 21.5801C186.707 16.5768 188.95 11.924 195.256 11.924C199.15 11.924 202.409 14.3065 202.451 20.3329V22.3089H190.446C190.516 26.0088 192.505 28.2652 196.272 28.2652C197.986 28.272 199.695 28.0792 201.365 27.6906ZM190.573 19.478H198.952C198.825 15.6519 196.893 14.8671 195.087 14.8671C192.237 14.825 190.911 16.7451 190.573 19.464V19.478Z" fill="var(--fill-0, #003037)"/>
<path d="M215.19 15.3015H209.998V24.4812C209.998 26.4013 210.238 27.7467 212.213 28.0129C213.31 28.09 214.412 28.0478 215.5 27.8869L215.74 31.1103C214.628 31.2717 213.506 31.3513 212.382 31.3485C207.938 31.1803 206.274 28.9239 206.274 25.3922V15.3015H203.523V12.7088L206.274 12.4005V8.06984H209.998V12.2743H215.19V15.3716V15.3015Z" fill="var(--fill-0, #003037)"/>
<path d="M226.151 11.8679C232.259 11.8679 234.968 16.4087 234.968 21.6783C234.968 26.9479 232.64 31.4886 226.123 31.4886C219.605 31.4886 217.306 26.8358 217.306 21.6783C217.306 16.5209 220.113 11.938 226.151 11.8679ZM226.151 28.2512C230.058 28.2512 231.314 25.0839 231.314 21.6923C231.314 18.595 229.903 15.0913 226.123 15.0913C222.342 15.0913 220.931 18.567 220.931 21.6923C220.931 25.224 222.497 28.2512 226.151 28.2512Z" fill="var(--fill-0, #003037)"/>
<path d="M246.437 11.8679C252.545 11.8679 255.254 16.4087 255.254 21.6783C255.254 26.9479 252.912 31.4886 246.394 31.4886C239.877 31.4886 237.577 26.8358 237.577 21.6783C237.577 16.5209 240.328 11.938 246.437 11.8679ZM246.437 28.2512C250.33 28.2512 251.586 25.0839 251.586 21.6923C251.586 18.595 250.175 15.0913 246.394 15.0913C242.614 15.0913 241.274 18.567 241.274 21.6923C241.274 25.224 242.769 28.2512 246.437 28.2512Z" fill="var(--fill-0, #003037)"/>
<path d="M258.202 31.1523V5.43512H261.828V31.1523H258.202Z" fill="var(--fill-0, #003037)"/>
<path d="M265.693 27.4804C267.458 27.9489 269.27 28.2216 271.096 28.2933C272.591 28.2933 274.115 27.985 274.214 26.2051C274.312 24.4252 272.351 23.7384 270.108 22.7994C267.569 21.7623 264.818 20.3468 264.889 16.8431C264.889 15.0913 266.017 11.6717 271.646 11.8259C273.473 11.8802 275.289 12.1292 277.063 12.5686L276.428 15.68C274.808 15.2672 273.148 15.0275 271.477 14.9652C269.84 14.9652 268.655 15.4698 268.528 16.9834C268.528 18.2727 269.502 18.9454 272.013 19.9545C274.524 20.9635 278.164 22.3369 277.994 26.3171C277.881 28.8398 276.231 31.6007 271.096 31.5307C269.008 31.5152 266.933 31.2085 264.931 30.6197L265.693 27.4804Z" fill="var(--fill-0, #003037)"/>
<path d="M0.493837 30.9702C0.347583 31.0399 0.224142 31.1491 0.137735 31.2855C0.0513281 31.4219 0.00548429 31.5798 0.00548429 31.7409C0.00548429 31.9021 0.0513281 32.0599 0.137735 32.1963C0.224142 32.3327 0.347583 32.4421 0.493837 32.5117L16.9709 40.1919C17.1895 40.302 17.4311 40.3596 17.6763 40.3601V23.2059C17.4284 23.2085 17.1837 23.2609 16.9568 23.36L0.493837 30.9702Z" fill="#FF761C"/>
<path d="M17.7326 23.1919V40.304C17.9903 40.3084 18.2457 40.2557 18.4803 40.1498L34.9856 32.4978C35.1318 32.4275 35.2555 32.3181 35.3427 32.182C35.4299 32.0459 35.4772 31.8883 35.4793 31.7269C35.4789 31.5652 35.4322 31.407 35.3448 31.2705C35.2574 31.1341 35.1328 31.025 34.9856 30.9561L18.4521 23.36C18.2261 23.2564 17.9814 23.1993 17.7326 23.1919Z" fill="#FF8C1E"/>
<path d="M0.0425692 8.53237C0.0430539 8.69409 0.0896943 8.85242 0.177091 8.98886C0.264488 9.1253 0.389058 9.23428 0.536319 9.30321L16.9711 16.9834C17.193 17.0825 17.4331 17.135 17.6764 17.1375C17.9157 17.1505 18.1553 17.1172 18.3818 17.0394L18.8473 16.8291L34.9717 9.31719C35.1187 9.24996 35.2432 9.14234 35.3305 9.00696C35.4177 8.87159 35.4641 8.71415 35.4641 8.55339C35.4641 8.39264 35.4177 8.23529 35.3305 8.09992C35.2432 7.96455 35.1187 7.85683 34.9717 7.78959L18.4523 0.151493C18.2308 0.0516115 17.9903 0 17.747 0C17.5037 0 17.2632 0.0516115 17.0416 0.151493L0.493988 7.76153C0.355657 7.8375 0.240641 7.94931 0.161153 8.08503C0.0816652 8.22076 0.0406854 8.37535 0.0425692 8.53237Z" fill="#00C1AD"/>
<path d="M17.7326 18.1045V23.1919C17.4848 23.1945 17.24 23.2469 17.0132 23.346L0.493837 30.9702C0.346577 31.0391 0.221932 31.1481 0.134535 31.2845C0.0471377 31.421 0.000484751 31.5792 0 31.7409V8.53237C0.000484751 8.69409 0.0471377 8.85242 0.134535 8.98886C0.221932 9.1253 0.346489 9.23428 0.49375 9.30321L16.9711 16.9834C17.193 17.0825 17.4331 17.135 17.6764 17.1375C17.9157 17.1505 18.1553 17.1172 18.3818 17.0394C17.8034 17.2776 17.7326 17.5158 17.7326 18.1045Z" fill="#D1D1D1"/>
<path d="M109.33 48.811V40.9207H110.741V51.1935H109.471L104.195 43.3172V51.1935H102.784V40.9207H104.054L109.33 48.811Z" fill="var(--fill-0, #003037)"/>
<path d="M119.431 48.0542H113.788C113.85 48.6497 114.119 49.205 114.55 49.6239C114.966 50.0093 115.518 50.2158 116.087 50.1984C116.456 50.2156 116.822 50.1335 117.147 49.9608C117.473 49.7881 117.745 49.5312 117.935 49.2174H119.247C118.999 49.8278 118.577 50.3536 118.034 50.731C117.467 51.1483 116.779 51.3698 116.073 51.3617C115.45 51.3538 114.841 51.1794 114.31 50.8571C113.751 50.5227 113.301 50.0364 113.012 49.4557C112.689 48.8417 112.525 48.158 112.532 47.4655C112.492 46.8052 112.618 46.1453 112.899 45.5455C113.203 44.971 113.656 44.4873 114.211 44.1441C114.744 43.8126 115.36 43.6376 115.988 43.6395C116.608 43.6268 117.217 43.7975 117.738 44.13C118.261 44.4534 118.689 44.9078 118.979 45.4475C119.302 46.0173 119.476 46.6579 119.487 47.3114C119.491 47.5602 119.472 47.8088 119.431 48.0542ZM114.55 45.4194C114.108 45.8448 113.828 46.4096 113.76 47.0171H118.246C118.187 46.4252 117.934 45.8689 117.526 45.4334C117.346 45.2406 117.127 45.0865 116.885 44.9805C116.642 44.8745 116.38 44.8187 116.115 44.8167C115.827 44.804 115.538 44.851 115.269 44.9548C114.999 45.0585 114.754 45.2167 114.55 45.4194Z" fill="var(--fill-0, #003037)"/>
<path d="M124.086 47.4235L126.668 51.1935H125.172L123.268 48.3205L121.363 51.1935H119.953L122.52 47.4235L120.094 43.8077H121.504L123.282 46.6107L125.045 43.8077H126.456L124.086 47.4235Z" fill="var(--fill-0, #003037)"/>
<path d="M129.221 50.703C128.785 50.2038 128.562 49.555 128.6 48.8951V44.9709H127.331V43.8637H127.895C128.016 43.8702 128.137 43.8525 128.251 43.8116C128.365 43.7707 128.469 43.7074 128.558 43.6255C128.641 43.5409 128.706 43.4397 128.747 43.3286C128.788 43.2175 128.806 43.099 128.798 42.9808V41.8736H129.828V43.8077H131.52V44.9709H129.828V48.853C129.807 49.211 129.917 49.5645 130.138 49.8481C130.252 49.9574 130.387 50.0424 130.535 50.0979C130.683 50.1533 130.84 50.178 130.998 50.1704C131.178 50.1759 131.356 50.1425 131.52 50.0723V51.2356C131.27 51.3171 131.008 51.3597 130.744 51.3617C130.458 51.3648 130.174 51.3076 129.912 51.1941C129.649 51.0806 129.414 50.9133 129.221 50.703Z" fill="var(--fill-0, #003037)"/>
<path d="M138.292 53.6601C137.889 53.4764 137.532 53.2065 137.247 52.8697C136.962 52.5329 136.755 52.1376 136.641 51.7121H137.925C138.039 52.0628 138.287 52.3548 138.616 52.525C138.997 52.7428 139.432 52.8496 139.872 52.8333C140.393 52.8409 140.898 52.6503 141.283 52.3006C141.465 52.1163 141.608 51.8971 141.703 51.6561C141.797 51.4152 141.841 51.1576 141.833 50.8992V49.9182C141.574 50.2431 141.247 50.507 140.874 50.6911C140.501 50.8753 140.091 50.9751 139.674 50.9833C139.081 50.9812 138.5 50.8163 137.996 50.5068C137.473 50.1867 137.049 49.7313 136.768 49.1894C136.459 48.627 136.303 47.9941 136.317 47.3535C136.304 46.704 136.459 46.062 136.768 45.4895C137.048 44.9514 137.467 44.4967 137.981 44.172C138.483 43.8562 139.066 43.6907 139.66 43.6955C140.156 43.6822 140.645 43.8086 141.071 44.06C141.397 44.2364 141.68 44.4801 141.903 44.7747L142.185 43.8497H143.145V50.8571C143.161 51.2792 143.09 51.7002 142.934 52.0934C142.779 52.4866 142.543 52.8435 142.242 53.1416C141.587 53.7299 140.725 54.0371 139.844 53.9964C139.307 54.0025 138.777 53.8876 138.292 53.6601ZM140.817 49.4557C141.154 49.2299 141.427 48.9207 141.607 48.5587C141.809 48.1739 141.91 47.7452 141.903 47.3114C141.91 46.8687 141.809 46.4308 141.607 46.036C141.434 45.6689 141.16 45.3579 140.817 45.1391C140.499 44.9288 140.126 44.8165 139.745 44.8165C139.363 44.8165 138.99 44.9288 138.673 45.1391C138.333 45.3619 138.06 45.6717 137.883 46.036C137.681 46.4308 137.579 46.8687 137.586 47.3114C137.579 47.7452 137.681 48.1739 137.883 48.5587C138.068 48.9177 138.339 49.2258 138.673 49.4557C138.99 49.666 139.363 49.7782 139.745 49.7782C140.126 49.7782 140.499 49.666 140.817 49.4557Z" fill="var(--fill-0, #003037)"/>
<path d="M151.722 48.0542H146.079C146.135 48.6514 146.405 49.2086 146.841 49.6239C147.046 49.816 147.288 49.9657 147.552 50.0644C147.815 50.163 148.097 50.2086 148.378 50.1984C148.745 50.2177 149.11 50.1364 149.434 49.9634C149.757 49.7903 150.027 49.5322 150.212 49.2174H151.538C151.29 49.8278 150.868 50.3536 150.325 50.731C149.758 51.1483 149.07 51.3698 148.364 51.3617C147.721 51.3621 147.091 51.1872 146.541 50.856C145.991 50.5249 145.544 50.0502 145.247 49.4837C144.918 48.8719 144.753 48.1868 144.767 47.4936C144.761 46.813 144.931 46.1423 145.261 45.5455C145.565 44.971 146.018 44.4873 146.573 44.1441C147.105 43.8112 147.721 43.6361 148.35 43.6395C148.969 43.6268 149.578 43.7975 150.099 44.13C150.622 44.45 151.046 44.9056 151.327 45.4475C151.641 46.0187 151.801 46.6607 151.792 47.3114C151.801 47.561 151.777 47.8106 151.722 48.0542ZM146.855 45.4194C146.409 45.8434 146.124 46.4081 146.051 47.0171H150.537C150.49 46.4221 150.235 45.862 149.817 45.4334C149.638 45.2393 149.42 45.0843 149.177 44.9782C148.934 44.8721 148.672 44.817 148.407 44.8167C148.12 44.806 147.835 44.854 147.568 44.9577C147.301 45.0614 147.058 45.2185 146.855 45.4194Z" fill="var(--fill-0, #003037)"/>
<path d="M153.316 51.1935V43.8077H154.275L154.557 44.7326C154.8 44.3971 155.12 44.1242 155.491 43.9365C155.861 43.7487 156.272 43.6517 156.687 43.6535C157.228 43.6478 157.759 43.7884 158.225 44.06C158.681 44.3332 159.052 44.726 159.297 45.1952C159.56 45.7217 159.691 46.3035 159.678 46.891V51.1935H158.38V46.989C158.413 46.4317 158.226 45.8837 157.858 45.4614C157.682 45.2661 157.464 45.1129 157.219 45.0134C156.975 44.9139 156.711 44.8706 156.448 44.8869C156.185 44.8774 155.923 44.9238 155.68 45.0229C155.437 45.1219 155.217 45.2715 155.037 45.4614C154.666 45.8823 154.473 46.43 154.501 46.989V51.1935H153.316Z" fill="var(--fill-0, #003037)"/>
<path d="M168.171 48.0542H162.528C162.59 48.6497 162.859 49.205 163.29 49.6239C163.706 50.0093 164.258 50.2158 164.827 50.1984C165.194 50.2177 165.559 50.1364 165.883 49.9634C166.206 49.7903 166.475 49.5322 166.661 49.2174H167.987C167.739 49.8278 167.317 50.3536 166.774 50.731C166.207 51.1483 165.519 51.3698 164.813 51.3617C164.17 51.3621 163.54 51.1872 162.99 50.856C162.44 50.5249 161.992 50.0502 161.695 49.4837C161.367 48.8719 161.202 48.1868 161.216 47.4936C161.21 46.813 161.38 46.1423 161.71 45.5455C162.014 44.971 162.467 44.4873 163.022 44.1441C163.554 43.8126 164.17 43.6376 164.799 43.6395C165.418 43.6268 166.027 43.7975 166.548 44.13C167.071 44.4534 167.499 44.9078 167.79 45.4475C168.092 46.0224 168.248 46.6627 168.241 47.3114C168.25 47.561 168.226 47.8106 168.171 48.0542ZM163.304 45.4194C162.862 45.8448 162.582 46.4096 162.514 47.0171H167C166.941 46.4252 166.688 45.8689 166.28 45.4334C166.099 45.2419 165.88 45.0887 165.638 44.9827C165.396 44.8768 165.134 44.8203 164.87 44.8167C164.581 44.804 164.292 44.851 164.023 44.9548C163.753 45.0585 163.508 45.2167 163.304 45.4194Z" fill="var(--fill-0, #003037)"/>
<path d="M169.779 51.1935V43.8077H170.738L171.02 44.7326C171.231 44.4391 171.5 44.1911 171.81 44.0039C172.139 43.7711 172.535 43.6484 172.939 43.6535C173.131 43.6277 173.325 43.6277 173.517 43.6535V44.9289C173.328 44.8805 173.134 44.8569 172.939 44.8588C172.676 44.8511 172.415 44.8983 172.172 44.9973C171.929 45.0963 171.71 45.2448 171.528 45.4334C171.154 45.8636 170.962 46.4212 170.992 46.989V51.1935H169.779Z" fill="var(--fill-0, #003037)"/>
<path d="M178.864 44.0179C179.287 44.2535 179.634 44.6034 179.865 45.027C180.12 45.4804 180.247 45.9936 180.232 46.5125V51.1935H179.273L179.005 50.2686H178.934C178.705 50.5791 178.412 50.8371 178.074 51.0253C177.644 51.2662 177.156 51.3828 176.663 51.3617C176.213 51.3678 175.768 51.2669 175.365 51.0674C175.005 50.8858 174.703 50.6095 174.491 50.2686C174.282 49.9319 174.174 49.5428 174.18 49.1474C174.176 48.7004 174.325 48.2653 174.603 47.9141C174.919 47.5407 175.328 47.2556 175.788 47.0871C176.343 46.8826 176.932 46.7828 177.524 46.7929H178.934V46.4565C178.947 46.2388 178.915 46.0208 178.84 45.8159C178.764 45.6111 178.648 45.4237 178.497 45.2653C178.349 45.1144 178.171 44.9964 177.974 44.919C177.777 44.8417 177.566 44.8068 177.354 44.8167C176.972 44.794 176.594 44.9139 176.296 45.1531C176.037 45.3783 175.862 45.6849 175.803 46.022H174.519C174.573 45.6018 174.723 45.1993 174.956 44.8448C175.2 44.472 175.542 44.1718 175.944 43.9759C176.381 43.7564 176.865 43.6457 177.354 43.6535C177.881 43.638 178.403 43.764 178.864 44.0179ZM178.384 49.708C178.577 49.5309 178.728 49.3132 178.826 49.0707C178.924 48.8282 178.965 48.5671 178.948 48.3065V47.7459H177.636C177.083 47.7143 176.531 47.8355 176.042 48.0963C175.871 48.1863 175.727 48.3214 175.628 48.4871C175.528 48.6527 175.476 48.8423 175.478 49.0352C175.472 49.195 175.503 49.3542 175.569 49.5C175.635 49.6459 175.735 49.7747 175.859 49.8761C176.157 50.102 176.529 50.2117 176.903 50.1845C177.169 50.2057 177.437 50.1745 177.691 50.0927C177.945 50.011 178.181 49.8802 178.384 49.708Z" fill="var(--fill-0, #003037)"/>
<path d="M183.124 50.703C182.698 50.1987 182.481 49.5524 182.518 48.8951V44.9709H181.248V43.8637H181.812C181.933 43.8702 182.054 43.8525 182.168 43.8116C182.282 43.7707 182.386 43.7074 182.475 43.6255C182.559 43.5409 182.623 43.4397 182.664 43.3286C182.706 43.2175 182.723 43.099 182.715 42.9808V41.8736H183.787V43.8077H185.48V44.9709H183.787V48.853C183.766 49.211 183.877 49.5645 184.098 49.8481C184.211 49.9574 184.346 50.0424 184.494 50.0979C184.642 50.1533 184.8 50.178 184.958 50.1704C185.137 50.1759 185.315 50.1425 185.48 50.0723V51.2356C185.229 51.3171 184.968 51.3597 184.704 51.3617C184.409 51.3692 184.115 51.3143 183.843 51.2008C183.571 51.0872 183.326 50.9176 183.124 50.703Z" fill="var(--fill-0, #003037)"/>
<path d="M186.877 42.4763C186.802 42.4006 186.743 42.3107 186.705 42.2119C186.666 42.1131 186.648 42.0076 186.651 41.9017C186.646 41.7955 186.663 41.6895 186.702 41.5905C186.741 41.4915 186.8 41.4017 186.877 41.3271C187.03 41.187 187.232 41.1116 187.441 41.1168C187.658 41.1087 187.87 41.184 188.033 41.3271C188.11 41.4017 188.169 41.4915 188.208 41.5905C188.247 41.6895 188.264 41.7955 188.259 41.9017C188.263 42.009 188.244 42.1159 188.203 42.2151C188.161 42.3143 188.099 42.4034 188.019 42.4763C187.945 42.5537 187.855 42.6149 187.755 42.6559C187.656 42.6969 187.549 42.7169 187.441 42.7146C187.335 42.7158 187.231 42.6953 187.134 42.6543C187.036 42.6133 186.949 42.5526 186.877 42.4763ZM188.09 51.1935H186.806V43.8077H188.09V51.1935Z" fill="var(--fill-0, #003037)"/>
<path d="M191.405 50.8571C190.848 50.5161 190.395 50.0318 190.093 49.4557C189.763 48.8539 189.594 48.1787 189.599 47.4936C189.593 46.813 189.763 46.1423 190.093 45.5455C190.397 44.971 190.85 44.4873 191.405 44.1441C191.944 43.8142 192.564 43.6395 193.197 43.6395C193.829 43.6395 194.45 43.8142 194.988 44.1441C195.547 44.4864 196.005 44.97 196.314 45.5455C196.639 46.1433 196.805 46.8142 196.794 47.4936C196.805 48.1775 196.639 48.8528 196.314 49.4557C196.007 50.0328 195.549 50.5169 194.988 50.8571C194.45 51.187 193.829 51.3617 193.197 51.3617C192.564 51.3617 191.944 51.187 191.405 50.8571ZM194.353 49.8341C194.716 49.5969 195.008 49.2679 195.2 48.8811C195.417 48.4461 195.524 47.9649 195.51 47.4795C195.526 46.994 195.419 46.5122 195.2 46.0781C195.008 45.6953 194.715 45.371 194.353 45.1391C194.009 44.9165 193.607 44.7995 193.197 44.8028C192.787 44.8035 192.385 44.9202 192.04 45.1391C191.678 45.371 191.386 45.6953 191.193 46.0781C190.974 46.5122 190.867 46.994 190.883 47.4795C190.87 47.9649 190.976 48.4461 191.193 48.8811C191.385 49.2679 191.677 49.5969 192.04 49.8341C192.385 50.0539 192.787 50.1707 193.197 50.1707C193.607 50.1707 194.008 50.0539 194.353 49.8341Z" fill="var(--fill-0, #003037)"/>
<path d="M198.346 51.1935V43.8077H199.291L199.573 44.7326H199.644C199.863 44.4273 200.147 44.1737 200.476 43.9899C200.868 43.7595 201.318 43.643 201.774 43.6535C202.314 43.6464 202.846 43.7871 203.311 44.06C203.774 44.3252 204.147 44.7201 204.384 45.1952C204.646 45.7217 204.777 46.3035 204.764 46.891V51.1935H203.481V46.989C203.508 46.43 203.316 45.8823 202.945 45.4614C202.77 45.2644 202.551 45.1101 202.307 45.0105C202.062 44.9108 201.798 44.8685 201.534 44.8869C201.271 44.8765 201.009 44.9224 200.766 45.0215C200.522 45.1207 200.303 45.2707 200.123 45.4614C199.934 45.6672 199.788 45.9082 199.694 46.1704C199.599 46.4327 199.558 46.7109 199.573 46.989V51.1935H198.346Z" fill="var(--fill-0, #003037)"/>
<path d="M211.776 50.8571C211.219 50.5161 210.766 50.0318 210.464 49.4557C210.138 48.8528 209.973 48.1775 209.984 47.4936C209.973 46.8142 210.138 46.1433 210.464 45.5455C210.768 44.971 211.221 44.4873 211.776 44.1441C212.313 43.8107 212.934 43.6357 213.567 43.6395C214.115 43.6294 214.656 43.7649 215.133 44.0319C215.596 44.2934 215.995 44.6521 216.304 45.083C216.602 45.5034 216.808 45.9807 216.911 46.4846H215.627C215.507 46.0276 215.252 45.6172 214.893 45.3072C214.527 44.9907 214.052 44.8254 213.567 44.8448C213.161 44.8434 212.764 44.9604 212.425 45.1812C212.055 45.4083 211.757 45.7335 211.564 46.1201C211.345 46.5543 211.238 47.036 211.254 47.5216C211.24 48.0069 211.347 48.4882 211.564 48.9231C211.756 49.3099 212.048 49.6389 212.41 49.8761C212.754 50.0988 213.157 50.2157 213.567 50.2124C214.052 50.2319 214.527 50.0665 214.893 49.75C215.252 49.4401 215.507 49.0297 215.627 48.5728H216.911C216.808 49.0766 216.602 49.5538 216.304 49.9742C215.995 50.4051 215.596 50.7639 215.133 51.0253C214.656 51.2924 214.115 51.4278 213.567 51.4177C212.928 51.4048 212.307 51.2102 211.776 50.8571Z" fill="var(--fill-0, #003037)"/>
<path d="M219.76 50.8571C219.204 50.5161 218.75 50.0318 218.448 49.4557C218.119 48.8539 217.949 48.1787 217.955 47.4936C217.949 46.813 218.119 46.1423 218.448 45.5455C218.753 44.971 219.205 44.4873 219.76 44.1441C220.299 43.8142 220.919 43.6395 221.552 43.6395C222.185 43.6395 222.805 43.8142 223.343 44.1441C223.906 44.4826 224.364 44.9672 224.669 45.5455C224.995 46.1433 225.16 46.8142 225.149 47.4936C225.16 48.1775 224.995 48.8528 224.669 49.4557C224.367 50.0357 223.907 50.5208 223.343 50.8571C222.805 51.187 222.185 51.3617 221.552 51.3617C220.919 51.3617 220.299 51.187 219.76 50.8571ZM222.709 49.8341C223.071 49.5969 223.363 49.2679 223.555 48.8811C223.772 48.4461 223.879 47.9649 223.865 47.4795C223.881 46.994 223.774 46.5122 223.555 46.0781C223.363 45.6953 223.07 45.371 222.709 45.1391C222.366 44.9189 221.967 44.8018 221.559 44.8018C221.151 44.8018 220.752 44.9189 220.409 45.1391C220.04 45.3662 219.742 45.6914 219.549 46.0781C219.329 46.5122 219.223 46.994 219.238 47.4795C219.225 47.9649 219.331 48.4461 219.549 48.8811C219.74 49.2679 220.033 49.5969 220.395 49.8341C220.74 50.0539 221.142 50.1707 221.552 50.1707C221.962 50.1707 222.363 50.0539 222.709 49.8341Z" fill="var(--fill-0, #003037)"/>
<path d="M235.447 44.0179C235.844 44.2806 236.157 44.65 236.35 45.083C236.581 45.5936 236.692 46.1495 236.675 46.7088V51.1935H235.405V46.7368C235.436 46.2345 235.286 45.7376 234.982 45.3353C234.85 45.1716 234.682 45.0395 234.492 44.9487C234.301 44.8579 234.093 44.8108 233.881 44.8108C233.67 44.8108 233.462 44.8579 233.271 44.9487C233.081 45.0395 232.913 45.1716 232.781 45.3353C232.455 45.7273 232.293 46.2293 232.33 46.7368V51.1935H231.046V46.7368C231.074 46.237 230.93 45.7426 230.637 45.3353C230.501 45.1778 230.332 45.0521 230.142 44.9673C229.952 44.8825 229.745 44.8407 229.536 44.8448C229.324 44.8403 229.114 44.8833 228.921 44.9706C228.728 45.058 228.558 45.1874 228.422 45.3493C228.105 45.7465 227.945 46.2447 227.971 46.7508V51.2075H226.701V43.8077H227.646L227.928 44.7326H227.999C228.184 44.4465 228.424 44.1991 228.704 44.004C229.025 43.7657 229.418 43.6421 229.819 43.6535C230.322 43.6221 230.821 43.7659 231.229 44.06C231.549 44.3026 231.81 44.6141 231.991 44.9709C232.212 44.6121 232.505 44.3021 232.852 44.06C233.265 43.7759 233.76 43.6331 234.262 43.6535C234.683 43.6689 235.092 43.7947 235.447 44.0179Z" fill="var(--fill-0, #003037)"/>
<path d="M247.368 44.0179C247.761 44.2845 248.073 44.6528 248.271 45.083C248.495 45.5957 248.605 46.1501 248.595 46.7088V51.1935H247.325V46.7368C247.357 46.2345 247.207 45.7376 246.902 45.3353C246.768 45.1797 246.602 45.0551 246.414 44.9703C246.226 44.8856 246.022 44.8428 245.816 44.8448C245.601 44.8398 245.387 44.884 245.191 44.9739C244.996 45.0638 244.823 45.197 244.687 45.3634C244.367 45.7587 244.206 46.2582 244.236 46.7648V51.2216H242.966V46.7368C242.998 46.2345 242.847 45.7376 242.543 45.3353C242.409 45.1797 242.243 45.0551 242.055 44.9703C241.867 44.8856 241.663 44.8428 241.457 44.8448C241.245 44.8403 241.035 44.8833 240.842 44.9706C240.649 45.058 240.478 45.1874 240.342 45.3493C240.02 45.7433 239.859 46.2439 239.891 46.7508V51.2075H238.621V43.8077H239.567L239.849 44.7326C240.034 44.4465 240.274 44.199 240.554 44.0039C240.874 43.7636 241.268 43.6399 241.669 43.6535C242.148 43.6371 242.62 43.7802 243.009 44.06C243.336 44.2984 243.602 44.6106 243.785 44.9709C244.001 44.6088 244.295 44.2979 244.645 44.06C245.057 43.773 245.553 43.63 246.056 43.6535C246.519 43.6488 246.974 43.7752 247.368 44.0179Z" fill="var(--fill-0, #003037)"/>
<path d="M257.031 48.0542H251.388C251.45 48.6497 251.72 49.205 252.15 49.6239C252.358 49.8164 252.602 49.9663 252.868 50.0649C253.135 50.1635 253.418 50.2089 253.702 50.1984C254.068 50.2146 254.432 50.132 254.755 49.9592C255.078 49.7865 255.348 49.5302 255.536 49.2175H256.791C256.548 49.8309 256.125 50.3579 255.578 50.731C255.017 51.1481 254.332 51.3699 253.631 51.3617C252.986 51.3646 252.352 51.1909 251.8 50.8596C251.248 50.5284 250.798 50.0523 250.5 49.4837C250.182 48.8685 250.022 48.1849 250.034 47.4936C250.023 46.8142 250.188 46.1433 250.514 45.5455C250.818 44.971 251.271 44.4873 251.826 44.1441C252.363 43.8107 252.984 43.6357 253.617 43.6395C254.232 43.6287 254.836 43.7994 255.352 44.13C255.878 44.4497 256.307 44.905 256.594 45.4475C256.897 46.0224 257.052 46.6627 257.045 47.3114C257.071 47.5587 257.066 47.8081 257.031 48.0542ZM252.15 45.4194C251.713 45.8482 251.434 46.4112 251.36 47.0171H255.846C255.787 46.4252 255.534 45.8689 255.127 45.4334C254.947 45.2393 254.729 45.0843 254.486 44.9782C254.244 44.8721 253.981 44.817 253.716 44.8167C253.427 44.8049 253.139 44.8523 252.87 44.956C252.6 45.0596 252.355 45.2174 252.15 45.4194Z" fill="var(--fill-0, #003037)"/>
<path d="M258.625 51.1935V43.8077H259.613L259.895 44.7326H259.965C260.179 44.4415 260.447 44.1941 260.755 44.0039C261.089 43.7691 261.489 43.6464 261.898 43.6535C262.09 43.6285 262.285 43.6285 262.476 43.6535V44.9289C262.287 44.8814 262.093 44.8578 261.898 44.8588C261.635 44.8484 261.373 44.8944 261.13 44.9936C260.886 45.0927 260.667 45.2427 260.487 45.4334C260.297 45.6438 260.15 45.8896 260.056 46.1566C259.961 46.4236 259.921 46.7065 259.937 46.989V51.1935H258.625Z" fill="var(--fill-0, #003037)"/>
<path d="M264.79 50.8571C264.234 50.5161 263.78 50.0318 263.478 49.4557C263.153 48.8528 262.988 48.1775 262.998 47.4936C262.988 46.8142 263.153 46.1433 263.478 45.5455C263.782 44.971 264.235 44.4873 264.79 44.1441C265.332 43.8103 265.958 43.6354 266.596 43.6395C267.139 43.6312 267.675 43.7666 268.148 44.0319C268.613 44.2895 269.013 44.6489 269.318 45.083C269.616 45.5034 269.823 45.9807 269.925 46.4846H268.655C268.525 46.0325 268.271 45.6249 267.922 45.3072C267.553 44.9944 267.08 44.8296 266.596 44.8448C266.185 44.8415 265.783 44.9585 265.439 45.1812C265.077 45.413 264.785 45.7373 264.593 46.1201C264.364 46.5513 264.252 47.0343 264.268 47.5216C264.252 48.0088 264.364 48.492 264.593 48.9231C264.784 49.3061 265.07 49.6341 265.425 49.8761C265.805 50.0777 266.238 50.1607 266.666 50.1144C267.151 50.1296 267.624 49.9646 267.992 49.6518C268.342 49.3341 268.595 48.9267 268.726 48.4746H269.996C269.893 48.9784 269.687 49.4557 269.389 49.8761C269.084 50.3102 268.684 50.6696 268.218 50.9272C267.745 51.1925 267.209 51.3279 266.666 51.3197C266.009 51.3499 265.357 51.1892 264.79 50.8571Z" fill="var(--fill-0, #003037)"/>
<path d="M277.952 48.0542H272.309C272.37 48.6529 272.645 49.21 273.085 49.6239C273.289 49.8173 273.531 49.9678 273.795 50.0666C274.059 50.1653 274.341 50.2101 274.623 50.1984C274.989 50.2146 275.353 50.132 275.676 49.9592C275.999 49.7865 276.269 49.5301 276.457 49.2174H277.769C277.525 49.8308 277.103 50.3579 276.555 50.731C275.994 51.1481 275.31 51.3699 274.609 51.3617C273.966 51.3677 273.335 51.1927 272.789 50.8571C272.226 50.5235 271.771 50.0374 271.477 49.4557C271.159 48.8404 270.999 48.1569 271.011 47.4655C271.001 46.7861 271.166 46.1153 271.491 45.5175C271.795 44.9429 272.248 44.4592 272.803 44.116C273.34 43.7827 273.961 43.6077 274.594 43.6114C275.209 43.6006 275.813 43.7714 276.33 44.102C276.859 44.4178 277.289 44.874 277.571 45.4194C277.854 46.0089 277.985 46.6591 277.952 47.3114C277.982 47.5581 277.982 47.8075 277.952 48.0542ZM273.071 45.4194C272.634 45.8482 272.355 46.4112 272.281 47.0171H276.767C276.708 46.4252 276.455 45.8689 276.048 45.4334C275.868 45.2393 275.65 45.0843 275.407 44.9782C275.164 44.8721 274.902 44.817 274.637 44.8167C274.346 44.8038 274.055 44.8507 273.784 44.9544C273.512 45.058 273.264 45.2163 273.057 45.4194H273.071Z" fill="var(--fill-0, #003037)"/>
</g>
</svg>
