<svg preserveAspectRatio="none" width="100%" height="100%" overflow="visible" style="display: block;" viewBox="0 0 203.589 35.6891" fill="none" xmlns="http://www.w3.org/2000/svg">
<g id="Group">
<path id="Vector" d="M32.9943 14.5013C32.9999 14.5877 32.9871 14.6743 32.9567 14.7555C32.9262 14.8366 32.8789 14.9103 32.8177 14.9719C32.7566 15.0335 32.683 15.0815 32.6018 15.1128C32.5207 15.144 32.4338 15.1579 32.3469 15.1533H19.9528C19.8655 15.1578 19.7783 15.1439 19.6968 15.1127C19.6153 15.0815 19.5413 15.0337 19.4795 14.9722C19.4177 14.9108 19.3696 14.8371 19.3383 14.756C19.3069 14.6749 19.2931 14.5881 19.2976 14.5013V13.1043C19.2931 13.0175 19.3069 12.9307 19.3383 12.8496C19.3696 12.7685 19.4177 12.6948 19.4795 12.6334C19.5413 12.5719 19.6153 12.524 19.6968 12.4929C19.7783 12.4617 19.8655 12.4479 19.9528 12.4523H32.3313C32.4182 12.4478 32.5051 12.4616 32.5863 12.4928C32.6674 12.5241 32.741 12.5721 32.8022 12.6337C32.8633 12.6952 32.9107 12.769 32.9411 12.8502C32.9715 12.9313 32.9844 13.0179 32.9787 13.1043L32.9943 14.5013Z" fill="var(--fill-0, #E74C3D)"/>
<path id="Vector_2" d="M38.4778 18.5517C38.4836 18.6387 38.4706 18.7261 38.4397 18.8077C38.4088 18.8894 38.3607 18.9636 38.2987 19.0253C38.2367 19.087 38.1621 19.1349 38.08 19.1656C37.9979 19.1964 37.9101 19.2093 37.8226 19.2036H22.5581C22.4709 19.2094 22.3834 19.1965 22.3017 19.1657C22.2199 19.1349 22.1458 19.0869 22.0844 19.0251C22.023 18.9632 21.9756 18.8889 21.9457 18.8072C21.9157 18.7255 21.9038 18.6384 21.9107 18.5517V17.1236C21.9049 17.0375 21.9177 16.9512 21.9482 16.8704C21.9787 16.7897 22.0262 16.7163 22.0875 16.6553C22.1488 16.5943 22.2226 16.5471 22.3037 16.5167C22.3848 16.4864 22.4716 16.4737 22.5581 16.4794H37.69C37.7768 16.4738 37.8639 16.4865 37.9454 16.5168C38.027 16.5471 38.1011 16.5942 38.163 16.6551C38.2249 16.7159 38.2731 16.7891 38.3045 16.8699C38.336 16.9506 38.3498 17.0371 38.3452 17.1236L38.4778 18.5517Z" fill="var(--fill-0, #E74C3D)"/>
<path id="Vector_3" d="M42.6527 22.703C42.6584 22.79 42.6454 22.8774 42.6145 22.959C42.5836 23.0407 42.5355 23.1149 42.4735 23.1766C42.4115 23.2383 42.337 23.2862 42.2549 23.3169C42.1728 23.3477 42.085 23.3606 41.9975 23.3549H25.4303C25.3431 23.3607 25.2557 23.3478 25.174 23.317C25.0922 23.2862 25.0181 23.2382 24.9567 23.1764C24.8952 23.1145 24.8479 23.0402 24.818 22.9585C24.788 22.8768 24.776 22.7897 24.7829 22.703V21.2826C24.776 21.1959 24.788 21.1087 24.818 21.027C24.8479 20.9454 24.8952 20.871 24.9567 20.8092C25.0181 20.7473 25.0922 20.6993 25.174 20.6685C25.2557 20.6377 25.3431 20.6248 25.4303 20.6306H41.9975C42.085 20.625 42.1728 20.6379 42.2549 20.6686C42.337 20.6994 42.4115 20.7472 42.4735 20.8089C42.5355 20.8706 42.5836 20.9448 42.6145 21.0265C42.6454 21.1082 42.6584 21.1955 42.6527 21.2826V22.703Z" fill="var(--fill-0, #E74C3D)"/>
<path id="Vector_4" d="M42.6527 26.8641C42.6573 26.9506 42.6434 27.037 42.612 27.1178C42.5806 27.1985 42.5324 27.2717 42.4705 27.3326C42.4086 27.3934 42.3344 27.4405 42.2529 27.4709C42.1714 27.5011 42.0843 27.5139 41.9975 27.5083H25.4303C25.3439 27.514 25.2571 27.5013 25.1759 27.471C25.0948 27.4406 25.0211 27.3933 24.9598 27.3323C24.8985 27.2713 24.851 27.198 24.8205 27.1173C24.79 27.0365 24.7772 26.9502 24.7829 26.8641V25.436C24.776 25.3493 24.788 25.2622 24.818 25.1805C24.8479 25.0987 24.8952 25.0244 24.9567 24.9626C25.0181 24.9007 25.0922 24.8527 25.174 24.822C25.2557 24.7911 25.3431 24.7782 25.4303 24.7841H41.9975C42.085 24.7783 42.1728 24.7913 42.2549 24.8221C42.337 24.8528 42.4115 24.9006 42.4735 24.9623C42.5355 25.0241 42.5836 25.0982 42.6145 25.1799C42.6454 25.2616 42.6584 25.3489 42.6527 25.436V26.8641Z" fill="var(--fill-0, #E74C3D)"/>
<path id="Vector_5" d="M38.4794 30.8836C38.4839 30.9704 38.47 31.0571 38.4386 31.1382C38.4073 31.2194 38.3592 31.293 38.2974 31.3545C38.2357 31.4159 38.1617 31.4638 38.0802 31.495C37.9986 31.5262 37.9114 31.54 37.8242 31.5355H22.5596C22.4727 31.5401 22.3858 31.5263 22.3047 31.495C22.2236 31.4638 22.15 31.4158 22.0888 31.3542C22.0277 31.2926 21.9803 31.2188 21.9499 31.1377C21.9195 31.0566 21.9066 30.97 21.9122 30.8836V29.4555C21.9066 29.3691 21.9195 29.2825 21.9499 29.2013C21.9803 29.1203 22.0277 29.0465 22.0888 28.9849C22.15 28.9233 22.2236 28.8753 22.3047 28.844C22.3858 28.8128 22.4727 28.799 22.5596 28.8035H37.6916C37.7788 28.7991 37.866 28.8129 37.9475 28.8441C38.0291 28.8753 38.1031 28.9231 38.1648 28.9846C38.2266 29.0461 38.2747 29.1197 38.3061 29.2008C38.3374 29.282 38.3513 29.3687 38.3468 29.4555L38.4794 30.8836Z" fill="var(--fill-0, #E74C3D)"/>
<path id="Vector_6" d="M32.9944 35.0363C33 35.1227 32.9872 35.2093 32.9567 35.2904C32.9263 35.3715 32.8789 35.4453 32.8178 35.5069C32.7566 35.5685 32.6831 35.6165 32.6019 35.6477C32.5208 35.679 32.4339 35.6928 32.347 35.6882H19.9528C19.8656 35.6927 19.7784 35.6789 19.6969 35.6477C19.6154 35.6165 19.5413 35.5686 19.4796 35.5072C19.4178 35.4457 19.3697 35.372 19.3384 35.2909C19.307 35.2098 19.2931 35.1231 19.2976 35.0363V33.6082C19.293 33.5217 19.3069 33.4352 19.3383 33.3545C19.3697 33.2738 19.4179 33.2006 19.4798 33.1397C19.5417 33.0788 19.6159 33.0317 19.6974 33.0014C19.7789 32.9712 19.866 32.9584 19.9528 32.964H32.3314C32.4179 32.9583 32.5046 32.971 32.5858 33.0013C32.6669 33.0317 32.7406 33.079 32.8019 33.14C32.8632 33.201 32.9107 33.2743 32.9412 33.355C32.9717 33.4358 32.9845 33.5221 32.9788 33.6082L32.9944 35.0363Z" fill="var(--fill-0, #E74C3D)"/>
<path id="Vector_7" d="M9.51882 2.08135C9.51423 2.16781 9.5281 2.25427 9.55949 2.33501C9.59092 2.41576 9.63918 2.48897 9.70108 2.54983C9.76298 2.61069 9.8371 2.65781 9.91862 2.68809C10.0001 2.71838 10.0872 2.73114 10.174 2.72554H22.5604C22.6475 2.73243 22.7351 2.72055 22.8172 2.69072C22.8993 2.66089 22.974 2.61381 23.0362 2.55268C23.0984 2.49155 23.1466 2.41782 23.1775 2.33648C23.2085 2.25514 23.2215 2.16813 23.2156 2.08135V0.653265C23.2213 0.566169 23.2083 0.478863 23.1774 0.397174C23.1465 0.315486 23.0985 0.241302 23.0364 0.179585C22.9744 0.117867 22.8998 0.0700379 22.8178 0.0392945C22.7356 0.00855059 22.6479 -0.00439701 22.5604 0.00131421H10.174C10.0868 -0.00314565 9.9996 0.0106546 9.91807 0.0418405C9.83655 0.0730265 9.76252 0.120892 9.70075 0.182344C9.63899 0.243796 9.59092 0.317465 9.55954 0.398583C9.5282 0.4797 9.51432 0.566471 9.51882 0.653265V2.08135Z" fill="var(--fill-0, #E74C3D)"/>
<path id="Vector_8" d="M4.17334 6.22553C4.16759 6.31164 4.1804 6.39792 4.2109 6.47868C4.2414 6.55943 4.28889 6.63278 4.3502 6.69378C4.4115 6.75477 4.4852 6.80201 4.56635 6.83237C4.64748 6.86274 4.73425 6.87545 4.82073 6.86973H19.9527C20.0395 6.87536 20.1266 6.8626 20.2081 6.83228C20.2896 6.80201 20.3638 6.75487 20.4257 6.69405C20.4876 6.63319 20.5358 6.55998 20.5672 6.47923C20.5986 6.39847 20.6125 6.312 20.6079 6.22553V4.79745C20.6124 4.71066 20.5985 4.62391 20.5672 4.5428C20.5358 4.46168 20.4877 4.38801 20.4259 4.32656C20.3642 4.2651 20.2901 4.21724 20.2086 4.18606C20.1271 4.15487 20.0399 4.14106 19.9527 4.14552H4.82073C4.73383 4.14095 4.64698 4.15475 4.56582 4.18601C4.48467 4.21726 4.41109 4.26526 4.34993 4.32685C4.28877 4.38844 4.24141 4.46223 4.21098 4.54334C4.18054 4.62446 4.16771 4.71107 4.17334 4.79745V6.22553Z" fill="var(--fill-0, #E74C3D)"/>
<path id="Vector_9" d="M0.00133902 10.3768C-0.00440911 10.4629 0.00839348 10.5491 0.0388952 10.6299C0.0693971 10.7107 0.116891 10.784 0.178194 10.845C0.239497 10.906 0.313191 10.9532 0.394343 10.9836C0.475496 11.014 0.562231 11.0267 0.64873 11.021H17.2159C17.3024 11.0267 17.3891 11.014 17.4703 10.9836C17.5514 10.9532 17.6251 10.906 17.6864 10.845C17.7477 10.784 17.7952 10.7107 17.8257 10.6299C17.8562 10.5491 17.8691 10.4629 17.8633 10.3768V8.94871C17.8689 8.86229 17.8561 8.77568 17.8256 8.69457C17.7952 8.61345 17.7479 8.53964 17.6867 8.4781C17.6255 8.4165 17.552 8.36849 17.4708 8.33721C17.3897 8.30598 17.3028 8.29217 17.2159 8.29674H0.64873C0.56184 8.29217 0.474954 8.30598 0.393808 8.33721C0.312659 8.36849 0.239086 8.4165 0.177926 8.4781C0.116766 8.53964 0.0694095 8.61345 0.0389726 8.69457C0.00853575 8.77568 -0.00428935 8.86229 0.00133902 8.94871V10.3768Z" fill="var(--fill-0, #E74C3D)"/>
<path id="Vector_10" d="M0.00129051 14.5013C-0.00433787 14.5877 0.00848723 14.6743 0.0389241 14.7555C0.0693608 14.8366 0.116718 14.9103 0.177878 14.9719C0.239038 15.0335 0.31261 15.0815 0.393759 15.1128C0.474908 15.144 0.561789 15.1579 0.648684 15.1533H17.2159C17.3028 15.1579 17.3896 15.144 17.4708 15.1128C17.5519 15.0815 17.6255 15.0335 17.6867 14.9719C17.7478 14.9103 17.7952 14.8366 17.8256 14.7555C17.856 14.6743 17.8689 14.5877 17.8632 14.5013V13.1043C17.8689 13.0179 17.856 12.9313 17.8256 12.8502C17.7952 12.769 17.7478 12.6952 17.6867 12.6337C17.6255 12.5721 17.5519 12.5241 17.4708 12.4928C17.3896 12.4616 17.3028 12.4478 17.2159 12.4523H0.648684C0.561789 12.4478 0.474908 12.4616 0.393759 12.4928C0.31261 12.5241 0.239038 12.5721 0.177878 12.6337C0.116718 12.6952 0.0693608 12.769 0.0389241 12.8502C0.00848723 12.9313 -0.00433787 13.0179 0.00129051 13.1043V14.5013Z" fill="var(--fill-0, #E74C3D)"/>
<path id="Vector_11" d="M4.17392 18.5517C4.16699 18.6384 4.17893 18.7255 4.2089 18.8072C4.23888 18.8889 4.28619 18.9632 4.34763 19.0251C4.40906 19.0869 4.48317 19.1349 4.56491 19.1657C4.64666 19.1965 4.73411 19.2094 4.82133 19.2036H19.9532C20.0408 19.2093 20.1285 19.1964 20.2106 19.1656C20.2927 19.1349 20.3673 19.087 20.4293 19.0253C20.4913 18.9636 20.5394 18.8894 20.5703 18.8077C20.6012 18.7261 20.6142 18.6387 20.6085 18.5517V17.1236C20.6131 17.0371 20.5992 16.9506 20.5677 16.8699C20.5364 16.7891 20.4881 16.7159 20.4262 16.6551C20.3643 16.5942 20.2902 16.5471 20.2087 16.5168C20.1271 16.4865 20.0401 16.4738 19.9532 16.4794H4.82133C4.7348 16.4737 4.64808 16.4864 4.56692 16.5167C4.48577 16.5471 4.41207 16.5943 4.35077 16.6553C4.28947 16.7163 4.24197 16.7897 4.21147 16.8704C4.18097 16.9512 4.16817 17.0375 4.17392 17.1236V18.5517Z" fill="var(--fill-0, #E74C3D)"/>
<path id="Vector_12" d="M9.51929 22.7029C9.51354 22.79 9.52655 22.8773 9.55747 22.959C9.58836 23.0407 9.63642 23.1148 9.69846 23.1766C9.76045 23.2383 9.83504 23.2861 9.91711 23.3168C9.99923 23.3476 10.087 23.3606 10.1745 23.3548H22.5608C22.6484 23.3606 22.7361 23.3476 22.8182 23.3168C22.9003 23.2861 22.9749 23.2383 23.0369 23.1766C23.0989 23.1148 23.147 23.0407 23.1779 22.959C23.2088 22.8773 23.2218 22.79 23.216 22.7029V21.2826C23.2218 21.1954 23.2088 21.1082 23.1779 21.0264C23.147 20.9448 23.0989 20.8706 23.0369 20.8089C22.9749 20.7471 22.9003 20.6993 22.8182 20.6686C22.7361 20.6379 22.6484 20.6249 22.5608 20.6306H10.1745C10.087 20.6249 9.99923 20.6379 9.91711 20.6686C9.83504 20.6993 9.76045 20.7471 9.69846 20.8089C9.63642 20.8706 9.58836 20.9448 9.55747 21.0264C9.52655 21.1082 9.51354 21.1954 9.51929 21.2826V22.7029Z" fill="var(--fill-0, #E74C3D)"/>
<path id="Vector_13" d="M58.9554 25.9544C58.3079 26.0575 57.6526 26.0991 56.9973 26.0786C55.6527 26.1509 54.3108 25.8839 53.0976 25.3025C52.6657 25.0228 52.2934 24.6606 52.003 24.237C51.7126 23.8134 51.509 23.3367 51.4051 22.8344C51.1037 21.165 50.9727 19.4696 51.015 17.774C50.9727 16.0784 51.1037 14.3829 51.4051 12.7136C51.4828 12.2021 51.6754 11.7147 51.9685 11.2875C52.2613 10.8602 52.6473 10.5041 53.0976 10.2455C53.8881 9.72805 55.1881 9.46933 56.9973 9.46933C57.609 9.44729 58.2211 9.49155 58.8226 9.6013C59.3355 9.72622 59.8571 9.81187 60.3828 9.85741V12.7136C59.08 12.5816 58.1673 12.4497 57.7698 12.4497C57.0221 12.4294 56.2758 12.5183 55.5544 12.7136C55.1647 12.8455 54.8995 13.3578 54.7745 14.0097C54.6376 15.2154 54.5935 16.4297 54.6417 17.6421C54.5935 18.857 54.6376 20.0738 54.7745 21.2821C54.8067 21.5403 54.8931 21.7888 55.0273 22.012C55.1614 22.2352 55.3411 22.428 55.5544 22.5782C56.263 22.8328 57.0212 22.9205 57.7698 22.8344C58.6898 22.8103 59.6071 22.7247 60.5151 22.5782V25.4344C60.04 25.72 59.5073 25.8975 58.9554 25.9544Z" fill="var(--fill-0, black)"/>
<path id="Vector_14" d="M64.5617 25.3045C64.1545 25.0444 63.8058 24.7033 63.5369 24.3026C63.2685 23.9019 63.0866 23.4503 63.0016 22.9761C62.7502 21.2574 62.6638 19.5187 62.7442 17.7838C62.7281 16.0495 62.8141 14.3157 63.0016 12.5914C63.0512 12.1061 63.2189 11.6401 63.491 11.2343C63.763 10.8284 64.1306 10.495 64.5617 10.263C65.3415 9.74302 66.7767 9.61883 68.7348 9.61883C70.1557 9.54187 71.5771 9.76127 72.9075 10.263C73.3151 10.5231 73.6639 10.8643 73.9322 11.2649C74.2006 11.6656 74.3831 12.1173 74.4676 12.5914C74.724 14.3097 74.8104 16.0488 74.7249 17.7838C74.7452 19.5181 74.6592 21.2521 74.4676 22.9761C74.3922 23.4533 74.2135 23.9085 73.9442 24.3104C73.6749 24.7124 73.321 25.0515 72.9075 25.3045C71.9953 25.8245 70.6925 25.9565 68.7348 25.9565C66.7767 26.0807 65.217 25.8245 64.5617 25.3045ZM70.4273 22.7045C70.601 22.5656 70.7389 22.3876 70.8299 22.1852C70.9209 21.9827 70.9618 21.7616 70.9498 21.5403C71.0854 20.2904 71.1299 19.0323 71.0826 17.776C71.1299 16.5197 71.0854 15.2616 70.9498 14.0117C70.8253 13.3598 70.6925 12.9717 70.4273 12.8475C69.3267 12.4954 68.1429 12.4954 67.0423 12.8475C66.8686 12.9864 66.7303 13.1644 66.6398 13.3669C66.5488 13.5693 66.5074 13.7903 66.5194 14.0117C66.3838 15.2616 66.3397 16.5197 66.387 17.776C66.3397 19.0323 66.3838 20.2904 66.5194 21.5403C66.6443 22.1922 66.7767 22.5803 67.0423 22.7045C67.5837 22.9008 68.1585 22.9904 68.7348 22.9684C69.3125 23.0444 69.9002 22.9528 70.4273 22.7045Z" fill="var(--fill-0, black)"/>
<path id="Vector_15" d="M85.6904 25.8233L81.0105 16.6106H80.8781V25.8233H77.3603V9.72629H81.0105L85.4409 18.1629H85.5737V9.72629H89.0993V25.8233H85.6904Z" fill="var(--fill-0, black)"/>
<path id="Vector_16" d="M94.5615 25.8228V12.9467H90.7785V9.84221H101.995V12.9467H98.2121V25.7995L94.5615 25.8228Z" fill="var(--fill-0, black)"/>
<path id="Vector_17" d="M103.695 25.8233V9.72629H113.343V12.7144H107.212V16.0906H112.431V19.0709H107.212V22.7032H113.343V25.6914H103.695V25.8233Z" fill="var(--fill-0, black)"/>
<path id="Vector_18" d="M124.303 25.8233L119.623 16.6106H119.491V25.8233H115.949V9.72629H119.608L124.038 18.1629H124.171V9.72629H127.688V25.8233H124.303Z" fill="var(--fill-0, black)"/>
<path id="Vector_19" d="M133.295 25.8228V12.9467H129.52V9.84221H140.751V12.9467H136.968V25.7995L133.295 25.8228Z" fill="var(--fill-0, black)"/>
<path id="Vector_20" d="M142.43 25.6909V22.8347C144.388 22.9667 145.691 23.0986 146.603 23.0986C147.127 23.1317 147.653 23.0873 148.164 22.9667C148.553 22.8347 148.811 22.8347 148.943 22.7028C149.024 22.6433 149.09 22.5662 149.136 22.4774C149.182 22.3885 149.207 22.2904 149.209 22.1905V21.2824C149.209 20.7624 149.209 20.3666 149.076 20.2424C148.976 20.0483 148.845 19.8724 148.686 19.7224C148.368 19.5415 148.007 19.4502 147.641 19.4585L145.028 19.0704C144.532 19.0402 144.051 18.8953 143.622 18.6475C143.193 18.3995 142.827 18.0554 142.555 17.6423C142.023 16.648 141.795 15.52 141.9 14.3981C141.876 13.327 142.1 12.2647 142.555 11.2936C142.971 10.6147 143.619 10.1076 144.381 9.86552C145.353 9.58489 146.363 9.45402 147.375 9.47743C148.915 9.46591 150.45 9.64054 151.946 9.99744V12.8536C150.511 12.7217 149.334 12.5897 148.164 12.5897C147.413 12.5471 146.66 12.6365 145.94 12.8536C145.683 12.9778 145.683 13.1097 145.551 13.3658C145.439 13.6575 145.396 13.9709 145.426 14.2817C145.385 14.59 145.428 14.9036 145.551 15.1898C145.683 15.3139 145.683 15.4459 145.816 15.5778C145.948 15.7098 146.205 15.702 146.728 15.834L149.466 16.222C150.013 16.2997 150.542 16.4759 151.026 16.742C151.467 17.0383 151.824 17.4418 152.063 17.914C152.424 18.8659 152.601 19.877 152.586 20.8944C152.64 22.0547 152.418 23.2114 151.939 24.2706C151.578 24.9752 150.975 25.5265 150.238 25.8228C149.311 26.1148 148.34 26.246 147.368 26.2109C145.433 26.079 143.733 25.8228 142.43 25.6909Z" fill="var(--fill-0, black)"/>
<path id="Vector_21" d="M157.561 25.8228V12.9467H153.778V9.84221H164.995V12.9467H161.212V25.7995L157.561 25.8228Z" fill="var(--fill-0, black)"/>
<path id="Vector_22" d="M174.777 25.8233L173.997 22.5791H169.169L168.389 25.8233H164.731L169.036 9.72629H174.122L178.427 25.8233H174.777ZM171.517 13.1025L169.824 19.5909H173.084L171.517 13.1025Z" fill="var(--fill-0, black)"/>
<path id="Vector_23" d="M187.552 25.9543C186.905 26.0574 186.249 26.099 185.594 26.0785C184.249 26.1508 182.907 25.8838 181.694 25.3024C181.244 25.0437 180.858 24.6876 180.565 24.2604C180.272 23.8331 180.079 23.3457 180.001 22.8343C179.7 21.1649 179.569 19.4694 179.612 17.7738C179.569 16.0783 179.7 14.3828 180.001 12.7135C180.079 12.202 180.272 11.7146 180.565 11.2874C180.858 10.8601 181.244 10.504 181.694 10.2454C182.479 9.72791 183.779 9.46924 185.594 9.46924C186.206 9.44743 186.817 9.49164 187.419 9.60116C187.932 9.72609 188.454 9.81173 188.979 9.85728V12.7135C187.677 12.5815 186.756 12.4496 186.366 12.4496C185.619 12.4293 184.872 12.5182 184.151 12.7135C183.936 12.8619 183.755 13.0543 183.621 13.2778C183.486 13.5013 183.401 13.7508 183.371 14.0096C183.234 15.2153 183.19 16.4296 183.238 17.6419C183.19 18.8569 183.234 20.0737 183.371 21.282C183.403 21.5401 183.489 21.7887 183.624 22.0119C183.758 22.2351 183.938 22.4279 184.151 22.5781C184.86 22.8327 185.618 22.9203 186.366 22.8343C187.284 22.8106 188.198 22.725 189.104 22.5781V25.4343C188.623 25.7005 188.097 25.8767 187.552 25.9543Z" fill="var(--fill-0, black)"/>
<path id="Vector_24" d="M199.689 25.8233L196.039 19.2029H194.994V25.8233H191.343V9.72629H194.994V16.0906H196.039L199.689 9.72629H203.589L198.909 17.3867L203.589 25.6914L199.689 25.8233Z" fill="var(--fill-0, black)"/>
</g>
</svg>
