<svg preserveAspectRatio="none" width="100%" height="100%" overflow="visible" style="display: block;" viewBox="0 0 180 49" fill="none" xmlns="http://www.w3.org/2000/svg">
<g id="FlyBuy">
<path d="M53.0501 11.7058V15.1091H58.3804V20.733H53.0501V39.5276H46.447V20.733H43.0232V15.1091H46.447V11.1131C46.447 4.84865 50.1635 1.93712 55.7873 1.93712C57.3037 1.93712 58.4777 2.18425 59.4064 2.47929V8.05398C58.6731 7.95566 58.0861 7.9065 57.4501 7.9065C54.516 7.90782 53.0501 8.89381 53.0501 11.7058Z" fill="#02174F"/>
<path d="M62.7804 2.53107H69.382V39.5289H62.7804V2.53107Z" fill="#02174F"/>
<path d="M98.4311 15.1104L86.8403 41.6498C84.6402 46.681 81.7537 49 77.2065 49C75.8372 49 74.2233 48.7528 72.9513 48.4086V42.8339C74.0762 42.9322 75.005 43.0319 75.7873 43.0319C77.89 43.0319 79.6011 42.4896 80.8241 39.7269L81.5575 38.0498L72.2663 15.1117H79.2586L85.1766 31.1435L91.4855 15.1117H98.4311V15.1104Z" fill="#02174F"/>
<path d="M125.915 27.3442C125.915 34.6943 121.025 40.1203 114.178 40.1203C110.853 40.1203 108.066 38.7887 106.403 36.5189V39.5276H100.338V2.53107H106.94V17.4785C108.652 15.6034 111.145 14.5682 114.178 14.5682C121.025 14.5669 125.915 19.9941 125.915 27.3442ZM119.214 27.2951C119.214 23.1515 116.378 20.5867 112.955 20.5867C109.874 20.5867 106.843 22.7077 106.843 27.3456C106.843 32.0313 109.924 34.0538 112.955 34.0538C116.427 34.0525 119.214 31.4386 119.214 27.2951Z" fill="#02174F"/>
<path d="M128.898 28.7741V15.1091H135.499V29.3163C135.499 32.1774 137.504 34.002 140.096 34.002C142.59 34.002 144.595 32.1761 144.595 29.3163V15.1104H151.196V28.7755C151.196 35.6817 146.404 40.1216 140.096 40.1216C133.69 40.1203 128.898 35.6804 128.898 28.7741Z" fill="#02174F"/>
<path d="M180 15.1104L168.41 41.6498C166.209 46.681 163.323 49 158.775 49C157.407 49 155.793 48.7528 154.52 48.4086V42.8339C155.645 42.9322 156.574 43.0319 157.356 43.0319C159.459 43.0319 161.171 42.4896 162.393 39.7269L163.127 38.0498L153.835 15.1117H160.828L166.746 31.1435L173.055 15.1117H180V15.1104Z" fill="#02174F"/>
<path d="M15.9472 5.5863C18.2884 5.5863 20.45 6.37177 22.1909 7.693C22.5641 7.97637 23.085 7.94662 23.4147 7.61146L26.0253 4.94583C26.4063 4.55625 26.3781 3.91576 25.956 3.5728C23.2171 1.33932 19.7355 0 15.9472 0C12.0473 0 8.47329 1.4221 5.69971 3.77593C5.28669 4.12663 5.26737 4.76463 5.65228 5.14764L8.28853 7.77587C8.62332 8.10972 9.1493 8.13167 9.5188 7.83663C11.2904 6.42875 13.5226 5.5863 15.9472 5.5863Z" fill="#00E5C8"/>
<path d="M26.3563 16.0862C26.3563 18.1022 25.8072 20.0135 24.7579 21.6828C24.7438 21.7061 24.7284 21.7281 24.7117 21.7501L23.9189 22.8345C23.915 22.841 23.9099 22.8462 23.9048 22.8514C23.779 23.0027 23.7906 23.2267 23.9304 23.3651L26.922 26.3479C27.3095 26.7334 27.9419 26.6998 28.287 26.2754C28.3127 26.243 28.3384 26.212 28.3639 26.1796L28.3691 26.1719C30.6423 23.325 31.8931 19.7482 31.8931 16.0862C31.8931 12.6233 30.8014 9.41277 28.9489 6.78461C28.6193 6.31744 27.9458 6.27215 27.5468 6.67981L24.899 9.38303C24.5962 9.69229 24.5488 10.1685 24.7771 10.5373C25.7777 12.1484 26.3563 14.0506 26.3563 16.0862Z" fill="#A162F7"/>
<path d="M7.97298 22.8332L7.17888 21.7449C7.16348 21.7229 7.14809 21.7009 7.13268 21.6776C6.08586 20.0109 5.5381 18.1009 5.5381 16.0861C5.5381 14.1321 6.07175 12.301 6.99796 10.7327C7.21482 10.3651 7.15582 9.89541 6.85306 9.59387L4.17059 6.92043C3.76515 6.51539 3.08784 6.57105 2.76714 7.04596C1.02246 9.62364 0 12.7358 0 16.0861C0 19.7495 1.25082 23.3249 3.52401 26.1718L3.56377 26.2223C3.57787 26.2404 3.59196 26.2572 3.60614 26.2753L3.65104 26.331C3.99993 26.7542 4.63496 26.7826 5.01979 26.3905L7.97421 23.3741C8.11023 23.2343 8.12049 23.0143 7.99605 22.863L7.98578 22.8513C7.98195 22.8448 7.97811 22.8396 7.97298 22.8332Z" fill="#1DAEFC"/>
<path d="M15.2365 31.652L10.3385 25.7059C9.98963 25.2828 9.3546 25.2544 8.96977 25.6464L6.36294 28.307C6.02945 28.6486 6.00631 29.1895 6.30907 29.5583L13.7266 38.5609C14.8811 39.9623 17.0119 39.9623 18.1665 38.5609L25.6276 29.504C25.9342 29.1312 25.9073 28.5852 25.5661 28.2448L22.9323 25.6193C22.5475 25.2349 21.9176 25.266 21.5725 25.6865L16.6592 31.6507C16.2884 32.0998 15.606 32.0998 15.2365 31.652Z" fill="#02174F"/>
</g>
</svg>
