<svg preserveAspectRatio="none" width="100%" height="100%" overflow="visible" style="display: block;" viewBox="0 0 214 37" fill="none" xmlns="http://www.w3.org/2000/svg">
<g id="Gringteq_logo" clip-path="url(#clip0_0_56)">
<path id="Vector" d="M195.496 4.82206C185.63 4.82206 181.404 9.05829 181.404 18.9343C181.404 28.8104 185.629 33.0466 195.496 33.0466C197.219 33.0466 198.766 32.914 200.149 32.6499L198.595 37L211.761 33.6446L214 27.4L206.644 29.2702C208.656 26.9725 209.592 23.5795 209.592 18.9343C209.594 9.05829 205.361 4.82206 195.496 4.82206ZM22.9928 18.9343C22.9928 28.8104 27.2242 33.0466 37.7933 33.0466C46.9162 33.0466 50.9722 30.025 50.833 22.9694C50.7888 20.9935 50.7513 19.0162 50.7138 17.0334C46.6525 17.0334 42.5897 17.0334 38.5351 17.0334C37.8817 18.8646 37.2269 20.6972 36.5734 22.5217C39.2394 22.5217 41.9055 22.5217 44.5648 22.5217C44.5648 22.6733 44.5648 22.8233 44.5648 22.9682C44.5648 25.908 42.5723 27.1668 37.8749 27.1668C31.6069 27.1668 29.2609 24.6935 29.2609 18.9331C29.2609 13.1725 31.6055 10.6992 37.089 10.6992C40.5276 10.6992 42.729 11.7006 43.9046 13.8589C46.1369 13.6887 48.3745 13.5184 50.6067 13.3495C49.1162 7.44557 44.8475 4.82071 37.089 4.82071C27.2242 4.82206 22.9928 9.05829 22.9928 18.9343ZM61.2842 32.6565C61.2842 29.8681 61.2842 27.0865 61.2842 24.3033C63.9999 24.3033 66.7167 24.3033 69.4324 24.3033C71.9349 24.3033 73.029 25.0835 73.029 26.9283C73.029 28.8358 73.029 30.7422 73.029 32.6565C75.1232 32.6565 77.2095 32.6565 79.2972 32.6565C79.2972 30.6417 79.2972 28.6281 79.2972 26.6132C79.2972 24.0258 78.4361 22.2631 76.5561 21.2442C78.7066 19.8715 79.6867 17.3095 79.6867 13.9367C79.6867 8.09575 76.7502 5.21887 69.897 5.21887C64.9358 5.21887 59.9813 5.21887 55.0216 5.21887C55.0216 14.3657 55.0216 23.511 55.0216 32.6579C57.1091 32.6565 59.1967 32.6565 61.2842 32.6565ZM61.2842 18.4249C61.2842 15.9825 61.2842 13.5399 61.2842 11.0973C64.0253 11.0973 66.7663 11.0973 69.5086 11.0973C72.2496 11.0973 73.4254 12.4446 73.4254 14.7611C73.4254 17.1085 72.2496 18.4249 69.5086 18.4249C66.7663 18.4249 64.0253 18.4249 61.2842 18.4249ZM84.1887 32.6565C86.2762 32.6565 88.3638 32.6565 90.4513 32.6565C90.4513 23.5098 90.4513 14.3643 90.4513 5.21752C88.3638 5.21752 86.2762 5.21752 84.1887 5.21752C84.1887 14.3643 84.1887 23.511 84.1887 32.6565ZM101.417 32.6565C101.417 26.5891 101.417 20.527 101.417 14.4649C106.378 20.527 111.332 26.5877 116.292 32.6565C118.38 32.6565 120.468 32.6565 122.555 32.6565C122.555 23.5098 122.555 14.3643 122.555 5.21752C120.468 5.21752 118.38 5.21752 116.292 5.21752C116.292 11.2796 116.292 17.3404 116.292 23.4025C111.331 17.3404 106.377 11.2796 101.417 5.21752C99.3292 5.21752 97.2416 5.21752 95.1541 5.21752C95.1541 14.3643 95.1541 23.5098 95.1541 32.6565C97.2416 32.6565 99.3292 32.6565 101.417 32.6565ZM152.508 11.0973C152.508 9.13336 152.508 7.17612 152.508 5.21752C143.637 5.21752 134.759 5.21752 125.887 5.21752C125.887 7.17478 125.887 9.13336 125.887 11.0973C129.276 11.0973 132.67 11.0973 136.066 11.0973C136.066 18.2802 136.066 25.4683 136.066 32.6565C138.154 32.6565 140.241 32.6565 142.329 32.6565C142.329 25.4683 142.329 18.2802 142.329 11.0973C145.725 11.0973 149.114 11.0973 152.508 11.0973ZM178.596 32.6565C178.596 30.6926 178.596 28.7353 178.596 26.7714C173.094 26.7714 167.599 26.7714 162.104 26.7714C162.104 25.0783 162.104 23.3783 162.104 21.6785C165.725 21.6785 169.354 21.6785 172.981 21.6785C173.634 19.8473 174.29 18.0215 174.937 16.1901C170.66 16.1901 166.378 16.1901 162.104 16.1901C162.104 14.4903 162.104 12.7972 162.104 11.0973C166.989 11.0973 171.874 11.0973 176.759 11.0973C177.457 9.13336 178.162 7.17612 178.859 5.21752C171.183 5.21752 163.511 5.21752 155.835 5.21752C155.835 14.3643 155.835 23.5098 155.835 32.6565C163.424 32.6565 171.008 32.6565 178.596 32.6565ZM187.669 18.9343C187.669 13.1752 190.014 10.7005 195.497 10.7005C200.978 10.7005 203.332 13.1739 203.332 18.9343C203.332 24.6949 200.98 27.1682 195.497 27.1682C190.014 27.1682 187.669 24.6935 187.669 18.9343Z" fill="var(--fill-0, #333333)"/>
<path id="Vector_2" fill-rule="evenodd" clip-rule="evenodd" d="M22.3701 0L9.78308 35.2117H0L12.587 0H22.3701Z" fill="var(--fill-0, #6666FF)"/>
</g>
<defs>
<clipPath id="clip0_0_56">
<rect width="214" height="37" fill="white"/>
</clipPath>
</defs>
</svg>
