<svg preserveAspectRatio="none" width="100%" height="100%" overflow="visible" style="display: block;" viewBox="0 0 166.5 44.25" fill="none" xmlns="http://www.w3.org/2000/svg">
<g id="PayPal 1">
<path id="Vector" d="M62.0496 9.0498H52.8666C52.2382 9.0498 51.7038 9.50571 51.6057 10.1252L47.8917 33.6407C47.8179 34.1047 48.1777 34.5231 48.649 34.5231H53.0331C53.6615 34.5231 54.1959 34.0671 54.2939 33.4463L55.2956 27.1038C55.3923 26.483 55.928 26.0271 56.5551 26.0271H59.4621C65.5112 26.0271 69.0023 23.1039 69.914 17.3111C70.3249 14.7768 69.9315 12.7856 68.7432 11.391C67.438 9.85971 65.1231 9.0498 62.0496 9.0498ZM63.109 17.6383C62.6068 20.9289 60.0892 20.9289 57.6548 20.9289H56.2691L57.2412 14.7835C57.299 14.4121 57.6212 14.1386 57.9972 14.1386H58.6323C60.2906 14.1386 61.8549 14.1386 62.6632 15.0826C63.1453 15.6457 63.293 16.4825 63.109 17.6383Z" fill="var(--fill-0, #253B80)"/>
<path id="Vector_2" d="M89.4991 17.5326H85.1016C84.727 17.5326 84.4034 17.8062 84.3457 18.1776L84.151 19.4059L83.8435 18.9607C82.8915 17.5809 80.7686 17.1196 78.6498 17.1196C73.7904 17.1196 69.64 20.7951 68.8316 25.9509C68.4113 28.5227 69.0089 30.9819 70.4698 32.697C71.8098 34.2739 73.7273 34.9309 76.0086 34.9309C79.924 34.9309 82.0952 32.4167 82.0952 32.4167L81.8992 33.6369C81.8253 34.1036 82.1852 34.5219 82.6538 34.5219H86.6149C87.2446 34.5219 87.7764 34.066 87.8757 33.4452L90.2524 18.4149C90.3276 17.9523 89.9691 17.5326 89.4991 17.5326ZM83.3695 26.0796C82.9452 28.5884 80.9512 30.2726 78.4081 30.2726C77.1311 30.2726 76.1106 29.8636 75.4554 29.0886C74.8055 28.3189 74.5584 27.2234 74.7652 26.0032C75.1613 23.5158 77.1889 21.7766 79.6931 21.7766C80.9418 21.7766 81.9569 22.1909 82.6256 22.9727C83.2956 23.7625 83.5615 24.8647 83.3695 26.0796Z" fill="var(--fill-0, #253B80)"/>
<path id="Vector_3" d="M112.919 17.5327H108.5C108.079 17.5327 107.683 17.7419 107.444 18.0919L101.349 27.0572L98.7655 18.4419C98.603 17.9028 98.1048 17.5327 97.5409 17.5327H93.1984C92.6707 17.5327 92.3042 18.0476 92.472 18.5438L97.3395 32.8084L92.7634 39.2595C92.4035 39.7677 92.7661 40.4663 93.3878 40.4663H97.8014C98.2203 40.4663 98.6124 40.2625 98.85 39.9192L113.548 18.7328C113.9 18.226 113.538 17.5327 112.919 17.5327Z" fill="var(--fill-0, #253B80)"/>
<path id="Vector_4" d="M127.55 9.0498H118.365C117.738 9.0498 117.204 9.50571 117.106 10.1252L113.392 33.6407C113.318 34.1047 113.678 34.5231 114.146 34.5231H118.859C119.297 34.5231 119.672 34.2039 119.74 33.7695L120.794 27.1038C120.891 26.483 121.427 26.0271 122.054 26.0271H124.96C131.01 26.0271 134.5 23.1039 135.413 17.3111C135.825 14.7768 135.429 12.7856 134.241 11.391C132.937 9.85971 130.623 9.0498 127.55 9.0498ZM128.609 17.6383C128.108 20.9289 125.591 20.9289 123.155 20.9289H121.771L122.744 14.7835C122.802 14.4121 123.121 14.1386 123.499 14.1386H124.134C125.791 14.1386 127.356 14.1386 128.165 15.0826C128.647 15.6457 128.793 16.4825 128.609 17.6383Z" fill="var(--fill-0, #179BD7)"/>
<path id="Vector_5" d="M154.998 17.5326H150.603C150.226 17.5326 149.905 17.8062 149.849 18.1776L149.654 19.4059L149.345 18.9607C148.393 17.5809 146.272 17.1196 144.153 17.1196C139.294 17.1196 135.144 20.7951 134.336 25.9509C133.917 28.5227 134.512 30.9819 135.973 32.697C137.316 34.2739 139.23 34.9309 141.512 34.9309C145.427 34.9309 147.598 32.4167 147.598 32.4167L147.402 33.6369C147.329 34.1036 147.688 34.5219 148.16 34.5219H152.119C152.746 34.5219 153.281 34.066 153.379 33.4452L155.757 18.4149C155.829 17.9523 155.47 17.5326 154.998 17.5326ZM148.869 26.0796C148.447 28.5884 146.45 30.2726 143.907 30.2726C142.633 30.2726 141.61 29.8636 140.955 29.0886C140.305 28.3189 140.06 27.2234 140.264 26.0032C140.663 23.5158 142.688 21.7766 145.192 21.7766C146.441 21.7766 147.456 22.1909 148.125 22.9727C148.797 23.7625 149.063 24.8647 148.869 26.0796Z" fill="var(--fill-0, #179BD7)"/>
<path id="Vector_6" d="M160.182 9.69466L156.413 33.6406C156.339 34.1046 156.699 34.5229 157.168 34.5229H160.957C161.587 34.5229 162.121 34.067 162.218 33.4462L165.935 9.932C166.008 9.46804 165.649 9.04834 165.18 9.04834H160.937C160.562 9.04968 160.24 9.32323 160.182 9.69466Z" fill="var(--fill-0, #179BD7)"/>
<path id="Vector_7" d="M9.75627 39.0923L10.4585 34.6378L8.89423 34.6016H1.42456L6.6156 1.73192C6.63171 1.63269 6.68408 1.54017 6.76062 1.47447C6.83715 1.40876 6.93517 1.37256 7.03722 1.37256H19.6321C23.8134 1.37256 26.699 2.24147 28.2055 3.95649C28.9118 4.76104 29.3616 5.60179 29.5792 6.52701C29.8074 7.49783 29.8115 8.65772 29.5886 10.0724L29.5725 10.1756V11.0821L30.2787 11.4817C30.8736 11.7968 31.3462 12.1575 31.7088 12.5705C32.313 13.2584 32.7037 14.1326 32.8689 15.1692C33.0394 16.2352 32.983 17.5037 32.7037 18.9398C32.3815 20.5918 31.8605 22.0306 31.1569 23.2079C30.5097 24.2927 29.6852 25.1925 28.7064 25.8897C27.7718 26.5522 26.6614 27.055 25.4059 27.3768C24.1894 27.6933 22.8024 27.8528 21.281 27.8528H20.3008C19.5999 27.8528 18.9191 28.1049 18.3847 28.5568C17.849 29.0181 17.4945 29.6483 17.3857 30.3375L17.3119 30.7385L16.0712 38.5895L16.0148 38.8778C16 38.969 15.9745 39.0146 15.9369 39.0454C15.9033 39.0736 15.855 39.0923 15.808 39.0923H9.75627Z" fill="var(--fill-0, #253B80)"/>
<path id="Vector_8" d="M30.9475 10.2803C30.9099 10.5203 30.8669 10.7657 30.8186 11.0178C29.1576 19.5339 23.4751 22.4758 16.2176 22.4758H12.5224C11.6349 22.4758 10.8869 23.1195 10.7486 23.9938L8.85672 35.9761L8.32096 39.3726C8.231 39.9465 8.6741 40.4641 9.25417 40.4641H15.8081C16.5842 40.4641 17.2435 39.901 17.3657 39.1366L17.4301 38.8041L18.6641 30.9839L18.7433 30.5548C18.8642 29.7878 19.5248 29.2246 20.3009 29.2246H21.2811C27.6309 29.2246 32.6018 26.6501 34.0546 19.2C34.6615 16.0878 34.3473 13.4891 32.7414 11.6614C32.2553 11.1103 31.6524 10.653 30.9475 10.2803Z" fill="var(--fill-0, #179BD7)"/>
<path id="Vector_9" d="M29.21 9.5895C28.9562 9.51575 28.6944 9.44871 28.4259 9.38837C28.156 9.32937 27.8794 9.27707 27.5947 9.23148C26.5984 9.07057 25.5067 8.99414 24.3372 8.99414H14.4654C14.2223 8.99414 13.9914 9.04912 13.7846 9.14835C13.3294 9.36691 12.991 9.79735 12.9091 10.3243L10.8091 23.6074L10.7487 23.9949C10.887 23.1206 11.6349 22.477 12.5224 22.477H16.2176C23.4752 22.477 29.1576 19.5337 30.8186 11.0189C30.8683 10.7668 30.9099 10.5214 30.9475 10.2814C30.5272 10.0588 30.0721 9.86841 29.582 9.70616C29.4611 9.66594 29.3362 9.62705 29.21 9.5895Z" fill="var(--fill-0, #222D65)"/>
<path id="Vector_10" d="M12.9091 10.3237C12.991 9.79668 13.3294 9.36625 13.7846 9.14902C13.9927 9.0498 14.2223 8.99482 14.4653 8.99482H24.3372C25.5067 8.99482 26.5984 9.07125 27.5947 9.23216C27.8793 9.27775 28.1559 9.33005 28.4258 9.38905C28.6944 9.44939 28.9562 9.51643 29.21 9.59018C29.3362 9.62773 29.4611 9.66661 29.5833 9.7055C30.0734 9.86775 30.5286 10.0595 30.9488 10.2808C31.443 7.13364 30.9448 4.99086 29.2409 3.05057C27.3624 0.9145 23.972 0 19.6336 0H7.03864C6.15243 0 5.39646 0.643636 5.25951 1.51925L0.0134124 34.7269C-0.0899787 35.3839 0.417578 35.9766 1.08089 35.9766H8.85671L10.8091 23.6067L12.9091 10.3237Z" fill="var(--fill-0, #253B80)"/>
</g>
</svg>
