<svg viewBox="0 0 149.25 73.5" fill="none" preserveAspectRatio="xMidYMid meet" overflow="visible" style="display: block" xmlns="http://www.w3.org/2000/svg">
<g id="SAP_2011_logo 2" clip-path="url(#clip0_0_85)">
<path id="Vector" fill-rule="evenodd" clip-rule="evenodd" d="M0 73.5H75.4306L149.25 0H0L0 73.5Z" fill="url(#paint0_linear_0_85)"/>
<path id="Vector_2" fill-rule="evenodd" clip-rule="evenodd" d="M88.5728 14.7006H73.8325L73.8818 49.2129L61.0464 14.6875H48.3193L37.3626 43.5207C36.1977 36.1838 28.5781 33.6521 22.5829 31.7558C18.6239 30.49 14.422 28.628 14.4646 26.57C14.4975 24.8811 16.7124 23.3148 21.1145 23.5483C24.0678 23.7068 26.6765 23.9436 31.8661 26.4393L36.9688 17.5867C32.237 15.1889 25.6937 13.6748 20.3286 13.6699H20.2958C14.0397 13.6699 8.83039 15.6871 5.60145 19.0109C3.35038 21.3303 2.13624 24.2801 2.08702 27.5418C2.00499 32.0302 3.65719 35.212 7.12896 37.7551C10.0626 39.8947 13.8149 41.2831 17.121 42.3023C21.1982 43.5599 24.5288 44.6543 24.4878 46.9834C24.455 47.8327 24.1334 48.6265 23.5198 49.2668C22.5025 50.3121 20.9439 50.7041 18.7863 50.7466C14.6238 50.8348 11.5392 50.1831 6.62362 47.2905L2.08374 56.2575C6.99442 59.0374 12.207 60.4323 18.13 60.4323L19.4623 60.4225C24.6174 60.3294 28.8013 59.0995 32.1254 56.4371C32.3157 56.2852 32.4863 56.1317 32.6635 55.9765L32.1057 58.8381L44.5424 58.7989L46.7738 53.1117C49.12 53.9087 51.7878 54.3497 54.6197 54.3497C57.3794 54.3497 59.975 53.9316 62.2769 53.1803L63.8324 58.7989L86.1462 58.8202L86.2003 45.8548H90.9486C102.425 45.8548 109.21 40.0401 109.21 30.2891C109.206 19.4291 102.611 14.6989 88.5728 14.6989L88.5728 14.7006ZM54.6197 44.2018C52.9051 44.2018 51.2972 43.9046 49.9141 43.3819L54.5672 28.7554H54.6574L59.235 43.4227C57.8568 43.9127 56.2866 44.2018 54.618 44.2018H54.6197ZM89.4358 35.7983H86.197V24.0106H89.4374C93.7525 24.0106 97.1981 25.4414 97.1981 29.8285C97.1943 34.3692 93.7525 35.7983 89.4374 35.7983" fill="var(--fill-0, white)"/>
</g>
<defs>
<linearGradient id="paint0_linear_0_85" x1="74.625" y1="0" x2="74.625" y2="73.5016" gradientUnits="userSpaceOnUse">
<stop stop-color="#00AEEF"/>
<stop offset="0.212" stop-color="#0097DC"/>
<stop offset="0.519" stop-color="#007CC5"/>
<stop offset="0.792" stop-color="#006CB8"/>
<stop offset="1" stop-color="#0066B3"/>
</linearGradient>
<clipPath id="clip0_0_85">
<rect width="149.25" height="73.5" fill="white"/>
</clipPath>
</defs>
</svg>
