<svg preserveAspectRatio="none" width="100%" height="100%" overflow="visible" style="display: block;" viewBox="0 0 193.464 39.6625" fill="none" xmlns="http://www.w3.org/2000/svg">
<g id="Group">
<path id="Vector" d="M150.774 14.9946C148.31 14.9946 146.288 15.8502 144.851 17.4846L145.129 16.0439C145.217 15.5879 144.906 15.2025 144.448 15.2025C143.991 15.2025 143.529 15.5879 143.442 16.0439L139.185 38.0789C139.097 38.5349 139.408 38.9203 139.866 38.9203C140.323 38.9203 140.785 38.5349 140.873 38.0789L142.453 29.8948C143.035 30.941 144.385 32.3757 147.416 32.3757C149.788 32.3757 151.776 31.6493 153.329 30.2146C154.931 28.7346 156.024 26.5322 156.577 23.667C157.131 20.8038 156.887 18.6064 155.855 17.1365C154.857 15.716 153.147 14.9946 150.774 14.9946ZM147.715 30.8341C144.109 30.8341 142.682 28.3563 143.588 23.669C144.503 18.9374 146.785 16.5382 150.373 16.5382C154.293 16.5382 155.747 18.8708 154.82 23.669C153.875 28.5571 151.617 30.8341 147.715 30.8341Z" fill="var(--fill-0, black)"/>
<path id="Vector_2" d="M187.511 22.7374C185.373 21.9464 183.351 21.1998 183.736 19.2123C183.929 18.2135 184.742 16.5368 188.018 16.5368C189.859 16.5368 191.021 17.0442 192.028 18.2892C192.217 18.5212 192.431 18.5212 192.524 18.5212C192.943 18.5212 193.366 18.1681 193.446 17.7494C193.491 17.5224 193.447 17.3883 193.347 17.2097C193.343 17.2026 193.339 17.1956 193.334 17.1885C192.312 15.7317 190.624 14.9932 188.317 14.9932C184.954 14.9932 182.552 16.6094 182.048 19.2113C181.447 22.3267 184.213 23.3689 186.654 24.289C188.763 25.084 190.757 25.8346 190.387 27.7404C189.867 30.4311 187.037 30.8326 185.396 30.8326C183.133 30.8326 181.736 30.2192 180.723 28.7806C180.72 28.7765 180.716 28.7715 180.713 28.7675C180.588 28.6131 180.421 28.5354 180.218 28.5354C179.845 28.5354 179.384 28.8461 179.295 29.3072C179.251 29.5332 179.294 29.6664 179.394 29.846C180.068 31.104 182.095 32.3762 185.098 32.3762C188.907 32.3762 191.515 30.643 192.075 27.7404C192.674 24.6452 189.931 23.6312 187.511 22.7374Z" fill="var(--fill-0, black)"/>
<path id="Vector_3" d="M182.408 10.6434H180.627L180.97 8.86777C181.058 8.41176 180.746 8.02637 180.289 8.02637C179.831 8.02637 179.37 8.41176 179.282 8.86777L178.939 10.6434H177.158C176.7 10.6434 176.24 11.0288 176.152 11.4848C176.064 11.9408 176.375 12.3262 176.833 12.3262H178.614L178.271 14.1019C178.183 14.5579 178.495 14.9433 178.952 14.9433C179.409 14.9433 179.871 14.5579 179.958 14.1019L180.301 12.3262H182.082C182.539 12.3262 183 11.9408 183.088 11.4848C183.178 11.0298 182.866 10.6434 182.408 10.6434Z" fill="var(--fill-0, black)"/>
<path id="Vector_4" d="M40.9901 27.7447C41.8553 28.1937 43.4129 28.8142 44.9016 28.7799C46.2516 28.7799 46.9782 28.0545 46.9782 27.1586C46.9782 26.296 46.4591 25.7098 45.0048 24.8815C43.2054 23.8464 41.8554 22.3967 41.8554 20.4989C41.8554 17.1515 44.7285 14.7705 48.9163 14.7705C50.7511 14.7705 52.17 15.1155 52.931 15.5645L51.8238 18.9463C51.166 18.6355 50.0933 18.2905 48.8475 18.2905C47.4974 18.2905 46.6321 18.912 46.6321 19.8775C46.6321 20.6362 47.2555 21.189 48.4669 21.8448C50.3362 22.9142 51.8937 24.364 51.8937 26.3999C51.8937 30.1953 48.8131 32.3352 44.521 32.3009C42.5476 32.2666 40.7128 31.748 39.8141 31.1275L40.9901 27.7447Z" fill="var(--fill-0, black)"/>
<path id="Vector_5" d="M52.8633 32.2072L57.5014 8.04541H62.2782L60.4434 17.4119L60.5122 17.3504C61.7924 15.832 63.4542 14.7837 65.5653 14.7837C68.0579 14.7837 69.4768 16.3818 69.4768 19.0735C69.4768 19.9018 69.3381 21.2406 69.1306 22.2767L67.2614 32.2082H62.4847L64.284 22.5743C64.4217 21.9186 64.4925 21.0701 64.4925 20.4153C64.4925 19.3802 64.0776 18.6286 63.0038 18.6286C61.4807 18.6286 59.8534 20.6565 59.231 23.7971L57.638 32.2082H52.8633V32.2072Z" fill="var(--fill-0, black)"/>
<path id="Vector_6" d="M86.751 21.396C86.751 27.297 82.9427 32.3353 77.3007 32.3353C73.0086 32.3353 70.7245 29.3672 70.7245 25.6747C70.7245 19.9119 74.5328 14.7354 80.278 14.7354C84.7441 14.7364 86.751 17.9799 86.751 21.396ZM75.6055 25.5718C75.6055 27.297 76.2977 28.6771 77.9251 28.6771C80.4511 28.6771 81.871 24.1906 81.871 21.2578C81.871 19.8433 81.3164 18.3946 79.6212 18.3946C77.0244 18.3936 75.6055 22.8448 75.6055 25.5718Z" fill="var(--fill-0, black)"/>
<path id="Vector_7" d="M85.6095 38.9175L88.932 21.5042C89.3135 19.5369 89.693 16.9925 89.9015 15.2017H94.1247L93.8474 17.8864H93.9162C95.1964 16.0966 97.0667 14.895 98.9693 14.895C102.465 14.895 103.885 17.6785 103.885 20.8878C103.885 26.6858 100.216 32.3961 94.6085 32.3961C93.4315 32.3961 92.3587 32.2054 91.8041 31.7585H91.6999L90.3842 38.9175H85.6095ZM92.4296 28.0549C92.9487 28.4685 93.5367 28.745 94.403 28.745C97.0687 28.745 98.9035 24.3624 98.9035 21.2913C98.9035 20.0151 98.4532 18.6693 96.9999 18.6693C95.3381 18.6693 93.7806 20.6366 93.227 23.6037L92.4296 28.0549Z" fill="var(--fill-0, black)"/>
<path id="Vector_8" d="M104.026 32.2068L107.245 15.2041H112.056L108.802 32.2068H104.026ZM110.222 13.4143C108.872 13.4143 107.972 12.2632 107.972 10.8487C107.972 9.29606 109.184 7.99561 110.707 7.99561C112.16 7.99561 113.095 9.13564 113.095 10.5158C113.061 12.2753 111.78 13.4153 110.292 13.4153L110.222 13.4143Z" fill="var(--fill-0, black)"/>
<path id="Vector_9" d="M112.956 32.2066L115.483 18.7834H113.267L113.96 15.2039H116.175L116.313 14.3484C116.695 12.3467 117.455 10.3138 119.082 8.93368C120.363 7.82997 122.059 7.33057 123.756 7.33057C124.933 7.33057 125.798 7.49603 126.352 7.73715L125.418 11.4599C125.003 11.3227 124.518 11.2168 123.895 11.2168C122.302 11.2168 121.332 12.7271 121.056 14.3494L120.883 15.2039H124.205L123.547 18.7834H120.259L117.732 32.2066H112.956Z" fill="var(--fill-0, black)"/>
<path id="Vector_10" d="M130.126 15.2041L130.887 22.8151C131.095 24.506 131.233 25.9426 131.302 26.8375H131.371C131.752 25.9426 132.098 24.6089 132.791 22.7808L135.698 15.2051H140.682L134.833 27.6527C132.756 31.9314 130.748 35.0498 128.567 37.0858C126.871 38.6727 124.863 39.4556 123.894 39.6625L122.578 35.6189C123.375 35.3424 124.378 34.9258 125.278 34.271C126.385 33.5123 127.321 32.4752 127.874 31.4058C128.012 31.1646 128.047 31.0012 127.978 30.6561L125.105 15.2061L130.126 15.2041Z" fill="var(--fill-0, black)"/>
<path id="Vector_11" d="M178.501 16.8027C178.043 16.8027 177.582 17.1881 177.494 17.6441L175.88 25.9967C175.005 30.2511 172.384 30.8322 169.927 30.8322C165.501 30.8322 165.39 28.3191 165.864 25.8605L167.761 16.044C167.849 15.588 167.537 15.2026 167.08 15.2026C166.622 15.2026 166.161 15.588 166.073 16.044L164.176 25.8605C163.795 27.8389 163.93 29.3159 164.594 30.3742C165.426 31.7019 167.12 32.3748 169.628 32.3748C172.136 32.3748 174.089 31.7009 175.435 30.3742C176.508 29.3159 177.215 27.8389 177.597 25.8605L179.184 17.6441C179.27 17.1881 178.958 16.8027 178.501 16.8027Z" fill="var(--fill-0, black)"/>
<path id="Vector_12" d="M163.252 8.07178C162.794 8.07178 162.333 8.45718 162.245 8.91319L157.915 31.3255C157.827 31.7815 158.139 32.1669 158.596 32.1669C159.054 32.1669 159.515 31.7815 159.603 31.3255L163.933 8.91319C164.021 8.45718 163.709 8.07178 163.252 8.07178Z" fill="var(--fill-0, black)"/>
<g id="Group_2">
<path id="Vector_13" d="M23.4679 4.52853C23.4649 4.52953 23.0328 4.66271 22.3021 4.8887C22.1806 4.49423 22.0005 4.00895 21.7445 3.52166C20.9186 1.95083 19.7083 1.11851 18.2469 1.11649C18.2449 1.11649 18.2439 1.11649 18.2418 1.11649C18.1406 1.11649 18.0394 1.12556 17.9382 1.13464C17.8957 1.08319 17.8522 1.03173 17.8056 0.983308C17.1691 0.30433 16.3514 -0.0265817 15.3737 0.00166704C13.4853 0.0561467 11.6049 1.41512 10.0808 3.82938C9.00706 5.52834 8.19237 7.66313 7.96062 9.31467C5.79285 9.98356 4.27582 10.4527 4.24344 10.4628C3.14943 10.8048 3.11502 10.8391 2.97132 11.8671C2.86303 12.645 0 34.7183 0 34.7183L23.7564 38.8144V4.4801C23.639 4.48817 23.5337 4.50936 23.4679 4.52853ZM17.9827 6.22244C16.7258 6.61086 15.3535 7.0346 13.9761 7.45934C14.3637 5.98132 15.0974 4.50936 15.9992 3.54486C16.3341 3.18671 16.8037 2.78619 17.3593 2.55718C17.8826 3.64273 17.9949 5.18229 17.9827 6.22244ZM15.4102 1.2547C15.8534 1.24562 16.2269 1.34247 16.5457 1.55131C16.0356 1.81564 15.5417 2.19498 15.0792 2.68933C13.88 3.97162 12.9611 5.96316 12.5947 7.88407C11.4511 8.23718 10.3328 8.58223 9.3046 8.90002C9.95331 5.8764 12.4955 1.33844 15.4102 1.2547ZM11.7365 18.4804C11.864 20.4951 17.1812 20.935 17.4798 25.6545C17.7146 29.3672 15.5043 31.9066 12.3194 32.1074C8.497 32.3475 6.39299 30.0997 6.39299 30.0997L7.20261 26.6644C7.20261 26.6644 9.32079 28.2575 11.0159 28.1505C12.1231 28.0809 12.5188 27.183 12.4793 26.5474C12.3134 23.9193 7.9839 24.0736 7.70964 19.7556C7.47991 16.1216 9.87336 12.4392 15.1562 12.1062C17.1913 11.9781 18.2337 12.4957 18.2337 12.4957L17.0254 17.0003C17.0254 17.0003 15.6784 16.389 14.0804 16.4888C11.7375 16.6382 11.7122 18.1111 11.7365 18.4804ZM19.2377 5.83403C19.2235 4.88063 19.1091 3.55495 18.6638 2.40886C20.0969 2.67924 20.8023 4.29547 21.0998 5.25896C20.5482 5.43047 19.9198 5.62418 19.2377 5.83403Z" fill="var(--fill-0, black)"/>
<path id="Vector_14" d="M24.5416 38.7202L34.3968 36.2777C34.3968 36.2777 30.1533 7.67791 30.127 7.48117C30.0997 7.28545 29.9276 7.17649 29.786 7.16438C29.6443 7.15228 26.8693 7.11091 26.8693 7.11091C26.8693 7.11091 25.1772 5.47349 24.5416 4.85303V38.7202Z" fill="var(--fill-0, black)"/>
</g>
</g>
</svg>
