<svg preserveAspectRatio="none" width="100%" height="100%" overflow="visible" style="display: block;" viewBox="0 0 171.75 47.25" fill="none" xmlns="http://www.w3.org/2000/svg">
<g id="syte-logo-colored-1 2" clip-path="url(#clip0_0_157)">
<path id="Vector" d="M39.8932 31.8424C39.9651 31.9023 38.9434 32.8695 38.9434 32.8695C38.9434 32.8695 29.0212 39.1891 24.9777 41.6071C21.0406 43.9687 16.5716 46.7802 11.8896 46.4991C11.2512 46.4428 10.5595 46.3866 9.8679 46.2179C9.38906 46.1054 8.96344 45.993 8.4846 45.8243C6.72889 45.1495 5.23919 44.025 4.06871 42.5629C1.19572 38.9643 0.504072 34.1285 0.184851 29.6301C-0.240777 24.1196 0.131648 18.4966 0.663684 13.0424C0.929702 10.512 1.19572 8.0379 2.20658 5.67625C5.29239 -1.46494 13.3793 -0.621488 19.2317 1.51524C25.4565 3.76443 33.7294 7.8277 38.9434 12.3261C36.9749 14.0129 39.7492 16.6335 37.9935 18.4892C36.3442 20.2885 36.4585 21.0384 37.0437 23.625C37.8417 27.4487 37.1266 29.537 39.8932 31.8424Z" fill="var(--fill-0, #85CDCA)"/>
<path id="Vector_2" d="M77.7008 29.6301C77.3816 34.1847 76.6899 38.9643 73.817 42.5629C72.6466 44.0812 71.1036 45.2057 69.4011 45.8243C68.9754 45.993 68.4967 46.1617 68.0178 46.2179C67.3793 46.3866 66.6877 46.4428 65.996 46.4991C61.2609 46.7802 55.9345 44.6755 51.9249 42.1141C47.8813 39.6963 42.6149 35.8497 38.9439 32.8695L37.994 31.8424C40.7606 29.537 40.9421 27.4487 41.7934 23.625C42.3786 21.0384 43.4427 21.2594 41.7934 19.5163C40.0376 17.6608 40.9124 14.0693 38.9439 12.3261C44.1578 7.8277 52.4823 3.76443 58.7072 1.51524C64.6127 -0.621488 72.6466 -1.46494 75.7323 5.67625C76.7432 8.0379 77.0093 10.512 77.2753 13.0424C77.754 18.4966 78.1265 24.1196 77.7008 29.6301Z" fill="var(--fill-0, #E8AB7C)"/>
<path id="Vector_3" d="M47.3884 23.536C46.4935 27.3597 42.5783 30.0023 39.6698 32.3079C39.4461 32.4765 39.2224 32.7015 38.9428 32.8702C38.719 32.7015 38.4953 32.5328 38.2156 32.3079C35.3071 30.0023 31.3919 27.3597 30.497 23.536C29.8818 20.9494 31.2801 18.5878 33.014 16.8446C34.8597 14.9891 36.8734 14.0698 38.9429 12.3267C41.0123 14.0136 42.9139 14.9891 44.7596 16.8446C46.6054 18.5878 48.0037 20.9494 47.3884 23.536Z" fill="var(--fill-0, #762232)"/>
<path id="Vector_4" d="M155.502 24.5801C155.744 26.468 156.206 28.1918 157.561 29.5479C157.644 29.6321 157.731 29.7074 157.824 29.7828C158.651 30.474 159.619 30.8552 160.674 30.9305C163.033 31.0989 165.324 30.833 167.488 29.7916C168.143 29.4769 168.702 29.5922 169.208 30.1107C169.323 30.2259 169.432 30.3455 169.538 30.4652C170.479 31.5509 170.153 33.1684 168.856 33.7755C167.655 34.3383 166.384 34.6928 165.077 34.9011C163.626 35.1316 162.17 35.2645 160.701 35.1183C156.448 34.7017 153.536 32.5303 152.102 28.44C151.495 26.7118 151.275 24.9126 151.23 23.0911C151.182 21.0438 151.35 19.023 151.93 17.0466C152.234 16.0229 152.651 15.0525 153.224 14.1484C154.293 12.4644 155.739 11.2369 157.6 10.5367C160.16 9.57512 162.764 9.45546 165.333 10.457C168.834 11.8219 170.866 14.4453 171.557 18.1412C171.843 19.6789 171.786 21.2255 171.548 22.7677C171.385 23.8312 170.558 24.5491 169.476 24.5669C168.934 24.5757 168.39 24.5669 167.848 24.5669C163.921 24.5669 159.992 24.5669 156.065 24.5669C155.898 24.5801 155.739 24.5801 155.502 24.5801ZM155.497 20.3348C156.047 20.4322 167.268 20.4057 167.615 20.2993C167.545 19.7543 167.515 19.1915 167.4 18.6464C166.951 16.4927 165.693 15.0303 163.626 14.2991C162.68 13.9623 161.699 13.9313 160.713 14.0287C158.884 14.2149 157.481 15.0879 156.571 16.7186C156.158 17.4588 155.889 18.252 155.712 19.0763C155.625 19.4972 155.567 19.9182 155.497 20.3348Z" fill="var(--fill-0, #404040)"/>
<path id="Vector_5" d="M122.606 29.0555C122.686 28.8516 122.747 28.7054 122.804 28.5592C124.911 22.7229 127.027 16.891 129.12 11.0503C129.349 10.4077 129.847 9.88036 130.708 9.93354C131.104 9.95569 131.501 9.96012 131.896 9.93354C132.838 9.87593 133.651 10.8331 133.268 11.879C132.635 13.5939 132.023 15.3133 131.404 17.0328C129.156 23.2546 126.908 29.4764 124.656 35.6982C123.794 38.0869 122.637 40.316 120.992 42.2614C118.991 44.6234 116.536 46.2897 113.545 47.1227C113.114 47.2423 112.692 47.3133 112.252 47.1714C111.544 46.9366 111.047 46.3117 111.007 45.5628C110.99 45.195 110.972 44.8227 110.994 44.4549C111.034 43.8123 111.421 43.3338 112.041 43.1832C114.966 42.4785 117.113 40.7015 118.771 38.2509C119.382 37.3468 119.875 36.3719 120.315 35.3748C120.429 35.1134 120.438 34.8918 120.328 34.6215C118.353 29.667 116.382 24.7082 114.416 19.7493C113.387 17.1613 112.362 14.5733 111.329 11.9853C111.17 11.5821 111.117 11.1832 111.298 10.7844C111.526 10.2659 111.927 9.96899 112.49 9.9424C113.031 9.92024 113.576 9.92024 114.117 9.9424C114.737 9.96899 115.151 10.3058 115.38 10.8819C115.894 12.1847 116.413 13.4832 116.928 14.786C118.753 19.3859 120.583 23.9902 122.408 28.5902C122.461 28.7276 122.523 28.8605 122.606 29.0555Z" fill="var(--fill-0, #404040)"/>
<path id="Vector_6" d="M101.047 35.9379C100.083 35.9644 99.1509 35.7695 98.2316 35.5213C97.0264 35.1978 95.8608 34.768 94.7215 34.2583C93.3228 33.6335 92.619 32.1579 93.0062 30.6777C93.2217 29.849 94.0486 29.4457 94.8316 29.7959C94.9767 29.8623 95.113 29.9509 95.2538 30.0307C96.5646 30.7752 97.9369 31.3468 99.4237 31.6127C100.563 31.8166 101.702 31.8477 102.81 31.4709C103.18 31.3468 103.545 31.1696 103.87 30.9525C105.085 30.1592 105.296 28.5329 104.979 27.5713C104.816 27.0794 104.508 26.6938 104.112 26.3702C103.571 25.9316 102.96 25.6081 102.313 25.3599C101.412 25.0143 100.497 24.6996 99.5819 24.3894C98.3855 23.9817 97.2156 23.5253 96.1379 22.8473C94.9987 22.1338 94.0486 21.2386 93.4064 20.0288C92.1397 17.6447 92.3376 13.5899 95.267 11.25C96.5866 10.1954 98.0997 9.60597 99.7623 9.40655C102.01 9.13623 104.161 9.6104 106.276 10.3239C106.43 10.377 106.58 10.4258 106.73 10.4923C107.49 10.8246 107.812 11.6444 107.464 12.4067C107.275 12.8233 107.068 13.2264 106.857 13.6342C106.492 14.3389 105.828 14.6135 105.08 14.3521C104.139 14.0197 103.18 13.7494 102.19 13.612C101.135 13.4702 100.083 13.488 99.0673 13.8558C98.0997 14.2058 97.3167 14.773 97.0044 15.81C96.5601 17.268 96.9736 18.3492 98.0732 19.116C98.8518 19.6565 99.7271 19.9934 100.611 20.3081C101.702 20.6936 102.806 21.0481 103.879 21.4735C105.155 21.9787 106.325 22.6744 107.314 23.6582C108.889 25.2226 109.448 27.1414 109.215 29.3172C108.841 32.8226 106.404 34.8743 103.47 35.6366C102.683 35.8404 101.874 35.9468 101.047 35.9379Z" fill="var(--fill-0, #404040)"/>
<path id="Vector_7" d="M141.396 9.78781C141.577 9.78781 141.735 9.78781 141.894 9.78781C143.843 9.78781 145.79 9.78781 147.743 9.78781C147.902 9.78781 148.069 9.78781 148.223 9.81884C148.909 9.93849 149.367 10.4747 149.379 11.1704C149.388 11.6446 149.388 12.1143 149.379 12.5885C149.367 13.3374 148.857 13.9002 148.114 13.9844C147.981 13.9978 147.849 13.9933 147.717 13.9933C145.782 13.9933 143.847 13.9933 141.911 13.9933C141.752 13.9933 141.59 13.9933 141.405 13.9933C141.392 14.1307 141.378 14.2459 141.378 14.3566C141.378 18.2254 141.375 22.0942 141.378 25.9628C141.378 26.8225 141.462 27.6778 141.74 28.4932C141.881 28.9098 142.065 29.3219 142.302 29.6853C142.83 30.4918 143.632 30.8906 144.568 30.9394C145.593 30.9926 146.617 30.9749 147.643 30.9881C147.818 30.9926 147.994 30.9837 148.171 31.0059C148.869 31.0945 149.367 31.644 149.385 32.353C149.393 32.6499 149.388 32.9424 149.385 33.2393C149.371 34.2674 148.654 35.1271 147.638 35.1626C146.31 35.2069 144.972 35.2733 143.644 35.0474C140.926 34.5776 139.092 33.0134 138.045 30.474C137.56 29.3041 137.337 28.0722 137.253 26.8137C137.222 26.3572 137.218 25.9007 137.218 25.4398C137.218 18.0836 137.218 10.7317 137.218 3.37544C137.218 3.18488 137.213 2.98989 137.236 2.79933C137.301 2.15677 137.798 1.63385 138.441 1.59397C139.008 1.55852 139.585 1.55852 140.152 1.59397C140.802 1.63385 141.305 2.17449 141.37 2.84366C141.384 2.98989 141.378 3.14057 141.378 3.2868C141.378 5.312 141.378 7.33276 141.378 9.35796C141.375 9.4909 141.387 9.62384 141.396 9.78781Z" fill="var(--fill-0, #404040)"/>
</g>
<defs>
<clipPath id="clip0_0_157">
<rect width="171.75" height="47.25" fill="white"/>
</clipPath>
</defs>
</svg>
