<svg width="187" height="54" viewBox="0 0 187 54" fill="none" xmlns="http://www.w3.org/2000/svg">
<g id="BildIt-Horiz_512 1" clip-path="url(#clip0_75_707)">
<path id="Vector" d="M53.6682 0H0V54H53.6682V0Z" fill="#ED1E79"/>
<path id="Vector_2" d="M35.9392 31.4621C35.8311 30.3826 35.395 29.3624 34.69 28.5396C33.9466 27.721 32.8477 27.147 31.3931 26.8174L17.7148 32.962V39.6488L35.9392 31.4621Z" fill="white"/>
<path id="Vector_3" d="M18.4355 40.4999H27.8995C30.329 40.4999 32.2878 39.7888 33.7757 38.3667C35.2755 36.9564 36.0253 35.0911 36.0253 32.7711C36.0253 32.7131 36.0236 32.6564 36.0227 32.5991L18.4355 40.4999Z" fill="white"/>
<path id="Vector_4" d="M33.9305 16.3758C33.7066 16.1003 33.4635 15.841 33.2033 15.5999C31.6802 14.2 29.3378 13.5 26.176 13.5H17.7188V23.6567L33.9305 16.3758Z" fill="white"/>
<path id="Vector_5" d="M17.7148 24.8325V31.7876L34.9486 24.0459C35.3529 23.1394 35.5477 22.153 35.5183 21.1604C35.5466 19.8003 35.2105 18.4574 34.5448 17.272L17.7148 24.8325Z" fill="white"/>
<path id="Vector_6" d="M83.6386 26.7686C86.7952 26.19 88.8353 23.9143 88.8353 20.4814C88.8353 16.2 85.5248 13.5 80.2511 13.5H67.0859V40.5H80.559C85.8713 40.5 89.2588 37.6072 89.2588 33.0557C89.2588 29.4686 86.9491 27.1543 83.6386 26.7686ZM77.6334 18.6686C79.6352 18.6686 80.8284 19.71 80.8284 21.4843C80.8284 23.2586 79.5966 24.3772 77.6334 24.3772H75.0928V18.6686H77.6334ZM75.0928 34.9072V29.0443H77.8644C79.8276 29.0443 81.0979 30.2015 81.0979 31.9372C81.0979 33.75 79.8661 34.9072 77.8259 34.9072H75.0928Z" fill="#171717"/>
<path id="Vector_7" d="M100.542 40.5V13.5H92.5352V40.5H100.542Z" fill="#171717"/>
<path id="Vector_8" d="M122.485 40.5V33.5957H113.324V13.5H105.316V40.5H122.485Z" fill="#171717"/>
<path id="Vector_9" d="M137.418 40.5C145.886 40.5 151.391 34.5986 151.391 27C151.391 19.44 145.848 13.5 137.418 13.5H126.293V40.5H137.418ZM134.299 20.0572H136.725C140.767 20.0572 143.077 23.22 143.077 27C143.077 30.78 140.767 33.9429 136.725 33.9429H134.299V20.0572Z" fill="#171717"/>
<path id="Vector_10" d="M162.417 40.5V13.5H154.41V40.5H162.417Z" fill="#ED1E79"/>
<path id="Vector_11" d="M179.972 40.5V20.4042H186.901V13.5H164.998V20.4042H171.927V40.5H179.972Z" fill="#ED1E79"/>
</g>
<defs>
<clipPath id="clip0_75_707">
<rect width="187" height="54" fill="white"/>
</clipPath>
</defs>
</svg>
