<svg width="168" height="169" viewBox="0 0 168 169" fill="none" xmlns="http://www.w3.org/2000/svg">
<g id="chart-up">
<path id="Vector" d="M143.5 74V137C143.5 140.261 143.5 141.892 142.967 143.179C142.257 144.894 140.894 146.257 139.179 146.967C137.892 147.5 136.261 147.5 133 147.5C129.739 147.5 128.108 147.5 126.821 146.967C125.106 146.257 123.743 144.894 123.033 143.179C122.5 141.892 122.5 140.261 122.5 137V74C122.5 70.7387 122.5 69.1076 123.033 67.8212C123.743 66.106 125.106 64.7433 126.821 64.0328C128.108 63.5 129.739 63.5 133 63.5C136.261 63.5 137.892 63.5 139.179 64.0328C140.894 64.7433 142.257 66.106 142.967 67.8212C143.5 69.1076 143.5 70.7387 143.5 74Z" fill="#ED1E79" fill-opacity="0.15" stroke="#ED1E79" stroke-width="6" stroke-linejoin="round"/>
<path id="Vector_2" d="M115.5 21.5H136.5V42.5" stroke="#ED1E79" stroke-width="6" stroke-linecap="round" stroke-linejoin="round"/>
<path id="Vector_3" d="M133 25C133 25 105 60 31.5 84.5" stroke="#ED1E79" stroke-width="6" stroke-linecap="round" stroke-linejoin="round"/>
<path id="Vector_4" d="M94.5 98.5V137C94.5 140.261 94.5 141.892 93.9673 143.179C93.2568 144.894 91.8939 146.257 90.1789 146.967C88.8923 147.5 87.2613 147.5 84 147.5C80.7387 147.5 79.1077 147.5 77.8211 146.967C76.1061 146.257 74.7432 144.894 74.0327 143.179C73.5 141.892 73.5 140.261 73.5 137V98.5C73.5 95.2387 73.5 93.6077 74.0327 92.3211C74.7432 90.6061 76.1061 89.2432 77.8211 88.5327C79.1077 88 80.7387 88 84 88C87.2613 88 88.8923 88 90.1789 88.5327C91.8939 89.2432 93.2568 90.6061 93.9673 92.3211C94.5 93.6077 94.5 95.2387 94.5 98.5Z" fill="#ED1E79" fill-opacity="0.15" stroke="#ED1E79" stroke-width="6" stroke-linejoin="round"/>
<path id="Vector_5" d="M45.5 116V137C45.5 140.261 45.5 141.892 44.9672 143.179C44.2567 144.894 42.894 146.257 41.1788 146.967C39.8924 147.5 38.2616 147.5 35 147.5C31.7384 147.5 30.1076 147.5 28.8212 146.967C27.106 146.257 25.7433 144.894 25.0328 143.179C24.5 141.892 24.5 140.261 24.5 137V116C24.5 112.739 24.5 111.108 25.0328 109.821C25.7433 108.106 27.106 106.743 28.8212 106.033C30.1076 105.5 31.7384 105.5 35 105.5C38.2616 105.5 39.8924 105.5 41.1788 106.033C42.894 106.743 44.2567 108.106 44.9672 109.821C45.5 111.108 45.5 112.739 45.5 116Z" fill="#ED1E79" fill-opacity="0.15" stroke="#ED1E79" stroke-width="6" stroke-linejoin="round"/>
</g>
</svg>
