<svg width="168" height="169" viewBox="0 0 168 169" fill="none" xmlns="http://www.w3.org/2000/svg">
<path d="M77 14.5H70C47.0454 14.5 35.5681 14.5 27.4324 20.1967C24.4224 22.3043 21.8043 24.9224 19.6967 27.9324C14 36.0681 14 47.5454 14 70.5C14 93.4544 14 104.932 19.6967 113.068C21.8043 116.078 24.4224 118.696 27.4324 120.803C35.5681 126.5 47.0454 126.5 70 126.5H98C120.954 126.5 132.432 126.5 140.568 120.803C143.578 118.696 146.196 116.078 148.303 113.068C153.056 106.28 153.844 97.1658 153.974 81" stroke="#ED1E79" stroke-width="6" stroke-linecap="round"/>
<path d="M48.5 22.9766H78V49.4766C78 66.0451 91.4315 79.4766 108 79.4766H144V93.4766C144 106.731 133.255 117.477 120 117.477H48.5C35.2452 117.477 24.5 106.731 24.5 93.4766V46.9766C24.5 33.7217 35.2452 22.9766 48.5 22.9766Z" fill="#ED1E79" fill-opacity="0.15"/>
<path d="M91 47.1667C91 56.1873 98.0518 63.5 106.75 63.5H139.825C147.654 63.5 154 56.9186 154 48.8C154 40.6814 147.583 34.1002 139.754 34.1002C140.628 24.0503 132.859 14.5 122.5 14.5C113.439 14.5 106.001 21.7148 105.239 30.9075C97.2496 31.696 91 38.6744 91 47.1667Z" stroke="#ED1E79" stroke-width="6" stroke-linecap="round" stroke-linejoin="round"/>
<path d="M77 105.5H91" stroke="#ED1E79" stroke-width="6" stroke-linecap="round" stroke-linejoin="round"/>
<path d="M84 126.5V154.5" stroke="#ED1E79" stroke-width="6"/>
<path d="M56 154.5H112" stroke="#ED1E79" stroke-width="6" stroke-linecap="round"/>
</svg>
