<svg width="286" height="287" viewBox="0 0 286 287" fill="none" xmlns="http://www.w3.org/2000/svg">
<circle cx="143" cy="143.5" r="142.5" fill="white" stroke="#D9D9D9"/>
<path opacity="0.1" d="M143 34.5C169.022 34.5 194.186 43.8096 213.942 60.7459C233.698 77.6822 246.744 101.128 250.72 126.844L143 143.5V34.5Z" fill="#ED1E79"/>
<g filter="url(#filter0_d_1_5375)">
<circle cx="143" cy="143.5" r="68" fill="white"/>
</g>
<path d="M111.038 162.31C101.642 162.31 96.512 157.666 96.512 149.404H105.314C105.314 153.292 107.474 155.452 111.2 155.452C114.386 155.452 116.438 153.562 116.438 150.7C116.438 147.406 114.44 145.786 110.66 145.786H106.988V139.09H110.714C114.17 139.09 115.898 137.632 115.898 134.608C115.898 132.124 114.008 130.45 111.2 130.45C107.96 130.45 105.962 132.394 105.962 135.634H97.322C97.322 128.614 102.614 123.97 111.416 123.97C119.354 123.97 124.646 127.912 124.646 134.176C124.646 138.172 122.378 141.088 117.896 142.33C122.486 143.194 125.294 146.488 125.294 151.078C125.294 157.72 119.678 162.31 111.038 162.31ZM145.25 162.31C137.042 162.31 131.75 157.99 131.264 151.186H139.742C140.012 153.832 142.334 155.29 145.25 155.29C149.084 155.29 151.298 152.752 151.298 148.81C151.298 145.084 149.192 142.546 145.736 142.546C142.82 142.546 140.876 143.626 139.796 146.164H132.128V124.78H157.724V131.53H139.958V139.36C141.848 137.308 144.71 136.444 147.788 136.444C155.024 136.444 159.668 141.412 159.668 148.648C159.668 156.478 154.16 162.31 145.25 162.31ZM169.112 120.042C170.775 120.042 172.028 120.68 172.87 121.954C173.734 123.207 174.166 124.978 174.166 127.268C174.166 129.557 173.756 131.35 172.935 132.646C172.136 133.92 170.862 134.558 169.112 134.558C168.054 134.558 167.146 134.266 166.39 133.683C165.656 133.1 165.105 132.268 164.738 131.188C164.371 130.086 164.187 128.78 164.187 127.268C164.187 124.978 164.576 123.207 165.354 121.954C166.153 120.68 167.406 120.042 169.112 120.042ZM169.112 122.44C168.399 122.44 167.87 122.85 167.524 123.671C167.179 124.47 167.006 125.669 167.006 127.268C167.006 128.888 167.179 130.108 167.524 130.929C167.87 131.75 168.399 132.16 169.112 132.16C169.868 132.16 170.43 131.76 170.797 130.961C171.164 130.14 171.348 128.909 171.348 127.268C171.348 125.669 171.164 124.47 170.797 123.671C170.43 122.85 169.868 122.44 169.112 122.44ZM184.405 120.366L171.574 143.5H168.691L181.521 120.366H184.405ZM183.886 129.309C184.988 129.309 185.906 129.6 186.64 130.184C187.396 130.745 187.969 131.566 188.358 132.646C188.746 133.704 188.941 135 188.941 136.534C188.941 138.824 188.53 140.616 187.71 141.912C186.889 143.187 185.614 143.824 183.886 143.824C182.806 143.824 181.899 143.532 181.165 142.949C180.43 142.366 179.869 141.534 179.48 140.454C179.113 139.353 178.929 138.046 178.929 136.534C178.929 134.244 179.318 132.473 180.096 131.22C180.895 129.946 182.158 129.309 183.886 129.309ZM183.886 131.706C183.152 131.706 182.612 132.106 182.266 132.905C181.942 133.704 181.78 134.914 181.78 136.534C181.78 138.154 181.942 139.374 182.266 140.195C182.612 140.994 183.152 141.394 183.886 141.394C184.642 141.394 185.193 140.994 185.539 140.195C185.906 139.396 186.09 138.176 186.09 136.534C186.09 134.914 185.906 133.704 185.539 132.905C185.193 132.106 184.642 131.706 183.886 131.706Z" fill="#404040"/>
<path d="M276 143.5C276 216.954 216.454 276.5 143 276.5C69.5461 276.5 10 216.954 10 143.5C10 70.0461 69.5461 10.5 143 10.5C216.454 10.5 276 70.0461 276 143.5ZM35.2052 143.5C35.2052 203.033 83.4666 251.295 143 251.295C202.533 251.295 250.795 203.033 250.795 143.5C250.795 83.9666 202.533 35.7052 143 35.7052C83.4666 35.7052 35.2052 83.9666 35.2052 143.5Z" fill="#F2F2F2"/>
<path d="M143 10.5C175.044 10.5 206.01 22.069 230.205 43.0793C254.399 64.0897 270.195 93.1287 274.687 124.856L249.73 128.389C246.09 102.675 233.288 79.139 213.678 62.1103C194.069 45.0817 168.971 35.7052 143 35.7052V10.5Z" fill="#ED1E79"/>
<defs>
<filter id="filter0_d_1_5375" x="71" y="73.5" width="144" height="144" filterUnits="userSpaceOnUse" color-interpolation-filters="sRGB">
<feFlood flood-opacity="0" result="BackgroundImageFix"/>
<feColorMatrix in="SourceAlpha" type="matrix" values="0 0 0 0 0 0 0 0 0 0 0 0 0 0 0 0 0 0 127 0" result="hardAlpha"/>
<feOffset dy="2"/>
<feGaussianBlur stdDeviation="2"/>
<feComposite in2="hardAlpha" operator="out"/>
<feColorMatrix type="matrix" values="0 0 0 0 0 0 0 0 0 0 0 0 0 0 0 0 0 0 0.15 0"/>
<feBlend mode="normal" in2="BackgroundImageFix" result="effect1_dropShadow_1_5375"/>
<feBlend mode="normal" in="SourceGraphic" in2="effect1_dropShadow_1_5375" result="shape"/>
</filter>
</defs>
</svg>
