<svg width="34" height="34" viewBox="0 0 34 34" fill="none" xmlns="http://www.w3.org/2000/svg">
<path d="M16.7185 9.19329L18.8231 7.08873C21.1928 4.71904 24.2951 3.73612 27.5784 3.57549C28.8555 3.51302 29.494 3.48178 30.006 3.99382C30.5181 4.50585 30.4868 5.14437 30.4244 6.42144C30.2637 9.70472 29.2808 12.8071 26.9112 15.1767L24.8066 17.2813C23.0734 19.0145 22.5807 19.5073 22.9445 21.3873C23.3036 22.8233 23.6511 24.2139 22.6069 25.2582C21.3403 26.5248 20.1848 26.5248 18.9182 25.2582L8.74167 15.0817C7.47505 13.815 7.475 12.6596 8.74167 11.3929C9.78588 10.3487 11.1765 10.6963 12.6126 11.0554C14.4925 11.4192 14.9854 10.9264 16.7185 9.19329Z" stroke="#737373" stroke-width="1.5" stroke-linejoin="round"/>
<path d="M24.0775 9.9165H24.0903" stroke="#737373" stroke-width="2" stroke-linecap="round" stroke-linejoin="round"/>
<path d="M3.54169 30.4583L10.625 23.375" stroke="#737373" stroke-width="1.5" stroke-linecap="round"/>
<path d="M12.0417 30.4583L14.875 27.625" stroke="#737373" stroke-width="1.5" stroke-linecap="round"/>
<path d="M3.54169 21.9583L6.37502 19.125" stroke="#737373" stroke-width="1.5" stroke-linecap="round"/>
</svg>
