<svg width="177" height="45" viewBox="0 0 177 45" fill="none" xmlns="http://www.w3.org/2000/svg">
<g id="Shopify">
<path id="Vector" d="M137.542 17.1045C135.294 17.1045 133.449 18.0589 132.138 19.882L132.392 18.2749C132.473 17.7662 132.188 17.3363 131.771 17.3363C131.354 17.3363 130.933 17.7662 130.853 18.2749L126.969 42.8552C126.889 43.3639 127.173 43.7938 127.591 43.7938C128.008 43.7938 128.429 43.3639 128.509 42.8552L129.951 33.7258C130.482 34.8929 131.714 36.4932 134.479 36.4932C136.642 36.4932 138.456 35.6829 139.872 34.0826C141.334 32.4316 142.331 29.9748 142.836 26.7786C143.341 23.5847 143.118 21.1335 142.176 19.4938C141.266 17.9092 139.706 17.1045 137.542 17.1045ZM134.751 34.7736C131.462 34.7736 130.16 32.0096 130.986 26.7809C131.821 21.5026 133.903 18.8264 137.175 18.8264C140.752 18.8264 142.079 21.4284 141.233 26.7809C140.371 32.2335 138.311 34.7736 134.751 34.7736Z" fill="#A6A6A6"/>
<path id="Vector_2" d="M171.054 25.7422C169.103 24.8599 167.26 24.0271 167.61 21.81C167.787 20.6959 168.528 18.8254 171.517 18.8254C173.196 18.8254 174.256 19.3915 175.174 20.7803C175.347 21.0391 175.543 21.0391 175.627 21.0391C176.009 21.0391 176.395 20.6452 176.469 20.1782C176.509 19.925 176.47 19.7753 176.378 19.5761C176.374 19.5682 176.371 19.5603 176.366 19.5524C175.434 17.9273 173.894 17.1035 171.789 17.1035C168.721 17.1035 166.53 18.9064 166.071 21.8089C165.522 25.2842 168.045 26.4468 170.272 27.4731C172.196 28.36 174.015 29.1973 173.678 31.3232C173.203 34.3247 170.622 34.7726 169.124 34.7726C167.06 34.7726 165.786 34.0884 164.862 32.4835C164.859 32.479 164.856 32.4734 164.853 32.4689C164.738 32.2967 164.586 32.21 164.401 32.21C164.061 32.21 163.641 32.5567 163.559 33.071C163.519 33.3231 163.558 33.4716 163.65 33.672C164.265 35.0754 166.113 36.4945 168.853 36.4945C172.327 36.4945 174.706 34.561 175.218 31.3232C175.764 27.8704 173.261 26.7394 171.054 25.7422Z" fill="#A6A6A6"/>
<path id="Vector_3" d="M166.399 12.2504H164.774L165.087 10.2697C165.167 9.76096 164.883 9.33105 164.465 9.33105C164.048 9.33105 163.627 9.76096 163.547 10.2697L163.234 12.2504H161.609C161.192 12.2504 160.772 12.6803 160.691 13.189C160.611 13.6977 160.895 14.1276 161.313 14.1276H162.937L162.625 16.1083C162.544 16.617 162.829 17.0469 163.246 17.0469C163.663 17.0469 164.084 16.617 164.164 16.1083L164.476 14.1276H166.101C166.518 14.1276 166.939 13.6977 167.019 13.189C167.101 12.6814 166.816 12.2504 166.399 12.2504Z" fill="#A6A6A6"/>
<path id="Vector_4" d="M37.3914 31.3274C38.1807 31.8282 39.6015 32.5203 40.9596 32.4821C42.1911 32.4821 42.854 31.6729 42.854 30.6735C42.854 29.7113 42.3804 29.0574 41.0538 28.1334C39.4123 26.9788 38.1807 25.3615 38.1807 23.2446C38.1807 19.5105 40.8017 16.8545 44.622 16.8545C46.2957 16.8545 47.5901 17.2394 48.2843 17.7402L47.2743 21.5126C46.6743 21.166 45.6957 20.7811 44.5592 20.7811C43.3276 20.7811 42.5383 21.4743 42.5383 22.5514C42.5383 23.3977 43.107 24.0144 44.2121 24.7459C45.9172 25.9389 47.3381 27.5561 47.3381 29.8272C47.3381 34.061 44.5278 36.448 40.6125 36.4098C38.8122 36.3715 37.1384 35.7931 36.3186 35.1009L37.3914 31.3274Z" fill="#A6A6A6"/>
<path id="Vector_5" d="M48.2241 36.3052L52.4552 9.35254H56.8128L55.139 19.8009L55.2017 19.7323C56.3696 18.0385 57.8855 16.8692 59.8113 16.8692C62.0852 16.8692 63.3796 18.6519 63.3796 21.6545C63.3796 22.5785 63.2531 24.0719 63.0638 25.2277L61.3586 36.3063H57.0011L58.6426 25.5597C58.7681 24.8282 58.8327 23.8817 58.8327 23.1513C58.8327 21.9966 58.4542 21.1582 57.4747 21.1582C56.0853 21.1582 54.6007 23.4203 54.033 26.9237L52.5798 36.3063H48.2241V36.3052Z" fill="#A6A6A6"/>
<path id="Vector_6" d="M79.1375 24.2445C79.1375 30.8271 75.6635 36.4474 70.5166 36.4474C66.6013 36.4474 64.5176 33.1364 64.5176 29.0174C64.5176 22.589 67.9916 16.8145 73.2327 16.8145C77.3068 16.8156 79.1375 20.4338 79.1375 24.2445ZM68.9702 28.9026C68.9702 30.8271 69.6017 32.3666 71.0862 32.3666C73.3906 32.3666 74.6858 27.3619 74.6858 24.0903C74.6858 22.5125 74.1799 20.8964 72.6335 20.8964C70.2646 20.8952 68.9702 25.8606 68.9702 28.9026Z" fill="#A6A6A6"/>
<path id="Vector_7" d="M78.0967 43.7915L81.1276 24.3668C81.4756 22.1722 81.8218 19.3339 82.012 17.3363H85.8646L85.6116 20.331H85.6744C86.8423 18.3345 88.5483 16.9941 90.284 16.9941C93.4727 16.9941 94.768 20.0992 94.768 23.6791C94.768 30.1469 91.4214 36.5168 86.3059 36.5168C85.2322 36.5168 84.2536 36.3041 83.7476 35.8055H83.6526L82.4524 43.7915H78.0967ZM84.3182 31.6741C84.7918 32.1355 85.3282 32.4439 86.1184 32.4439C88.5502 32.4439 90.224 27.5551 90.224 24.1293C90.224 22.7056 89.8131 21.2043 88.4874 21.2043C86.9715 21.2043 85.5507 23.3989 85.0457 26.7088L84.3182 31.6741Z" fill="#A6A6A6"/>
<path id="Vector_8" d="M94.8955 36.3057L97.8322 17.339H102.221L99.2531 36.3057H94.8955ZM100.548 15.3425C99.3168 15.3425 98.496 14.0584 98.496 12.4805C98.496 10.7485 99.6011 9.29785 100.991 9.29785C102.316 9.29785 103.169 10.5696 103.169 12.1091C103.138 14.0719 101.969 15.3436 100.612 15.3436L100.548 15.3425Z" fill="#A6A6A6"/>
<path id="Vector_9" d="M103.042 36.3042L105.348 21.3305H103.327L103.958 17.3375H105.979L106.106 16.3831C106.454 14.1503 107.147 11.8826 108.632 10.343C109.799 9.11177 111.347 8.55469 112.895 8.55469C113.969 8.55469 114.758 8.73926 115.263 9.00823L114.411 13.161C114.032 13.008 113.59 12.8898 113.021 12.8898C111.568 12.8898 110.684 14.5746 110.432 16.3842L110.274 17.3375H113.305L112.705 21.3305H109.705L107.4 36.3042H103.042Z" fill="#A6A6A6"/>
<path id="Vector_10" d="M118.706 17.3379L119.4 25.828C119.59 27.7143 119.716 29.3168 119.778 30.3151H119.841C120.189 29.3168 120.505 27.829 121.136 25.7898L123.789 17.339H128.336L122.999 31.2244C121.105 35.9973 119.273 39.476 117.284 41.7471C115.737 43.5174 113.905 44.3907 113.02 44.6214L111.82 40.1108C112.547 39.8024 113.462 39.3376 114.283 38.6072C115.293 37.7609 116.146 36.6039 116.651 35.411C116.777 35.142 116.809 34.9597 116.747 34.5748L114.126 17.3401L118.706 17.3379Z" fill="#A6A6A6"/>
<path id="Vector_11" d="M162.835 19.1228C162.418 19.1228 161.997 19.5527 161.917 20.0614L160.445 29.3788C159.647 34.1246 157.255 34.7729 155.014 34.7729C150.977 34.7729 150.875 31.9695 151.308 29.2268L153.038 18.2765C153.119 17.7678 152.834 17.3379 152.417 17.3379C152 17.3379 151.579 17.7678 151.498 18.2765L149.768 29.2268C149.42 31.4338 149.544 33.0814 150.15 34.2619C150.908 35.743 152.454 36.4937 154.742 36.4937C157.029 36.4937 158.811 35.7419 160.039 34.2619C161.018 33.0814 161.663 31.4338 162.011 29.2268L163.459 20.0614C163.537 19.5527 163.253 19.1228 162.835 19.1228Z" fill="#A6A6A6"/>
<path id="Vector_12" d="M148.923 9.38379C148.506 9.38379 148.085 9.81371 148.004 10.3224L144.055 35.3236C143.975 35.8323 144.259 36.2622 144.676 36.2622C145.094 36.2622 145.515 35.8323 145.595 35.3236L149.544 10.3224C149.625 9.81371 149.34 9.38379 148.923 9.38379Z" fill="#A6A6A6"/>
<g id="Group">
<path id="Vector_13" d="M21.4083 5.43052C21.4056 5.43165 21.0114 5.58021 20.3448 5.83231C20.234 5.39227 20.0697 4.85093 19.8361 4.30736C19.0828 2.55508 17.9786 1.62661 16.6455 1.62436C16.6436 1.62436 16.6427 1.62436 16.6409 1.62436C16.5486 1.62436 16.4562 1.63448 16.3639 1.64461C16.3251 1.58721 16.2854 1.52982 16.243 1.4758C15.6623 0.71839 14.9163 0.349254 14.0245 0.380766C12.3018 0.441539 10.5865 1.95749 9.1961 4.65062C8.21657 6.54582 7.47339 8.92721 7.26197 10.7695C5.28446 11.5157 3.90056 12.039 3.87102 12.0502C2.87303 12.4318 2.84164 12.47 2.71055 13.6168C2.61176 14.4845 0 39.1076 0 39.1076L21.6714 43.6768V5.37651C21.5644 5.38551 21.4683 5.40914 21.4083 5.43052ZM16.4045 7.32011C15.2579 7.75339 14.006 8.22607 12.7495 8.69987C13.1031 7.05113 13.7725 5.40914 14.595 4.33324C14.9006 3.93372 15.329 3.48693 15.8358 3.23146C16.3131 4.44241 16.4156 6.1598 16.4045 7.32011ZM14.0577 1.77854C14.4621 1.76841 14.8028 1.87645 15.0936 2.10941C14.6283 2.40427 14.1777 2.82743 13.7558 3.37889C12.6618 4.80929 11.8236 7.03087 11.4894 9.17367C10.4461 9.56757 9.42598 9.95247 8.488 10.307C9.07978 6.93409 11.3989 1.87195 14.0577 1.77854ZM10.7065 20.994C10.8228 23.2414 15.6733 23.7321 15.9457 28.9968C16.1599 33.1384 14.1436 35.971 11.2382 36.195C7.75128 36.4628 5.83192 33.9554 5.83192 33.9554L6.57049 30.1234C6.57049 30.1234 8.50277 31.9004 10.0491 31.7811C11.0591 31.7034 11.4201 30.7018 11.3841 29.9928C11.2327 27.0611 7.28321 27.2333 7.03302 22.4165C6.82345 18.3627 9.00684 14.2549 13.826 13.8835C15.6826 13.7406 16.6335 14.318 16.6335 14.318L15.5312 19.343C15.5312 19.343 14.3024 18.661 12.8446 18.7724C10.7074 18.9389 10.6843 20.5821 10.7065 20.994ZM17.5493 6.88682C17.5364 5.8233 17.4321 4.34449 17.0259 3.06602C18.3331 3.36763 18.9766 5.17055 19.248 6.24533C18.7449 6.43665 18.1716 6.65274 17.5493 6.88682Z" fill="#A6A6A6"/>
<path id="Vector_14" d="M22.3887 43.5722L31.379 40.8475C31.379 40.8475 27.5079 8.94415 27.4839 8.72469C27.459 8.50636 27.3021 8.38481 27.1728 8.37131C27.0436 8.3578 24.5121 8.31166 24.5121 8.31166C24.5121 8.31166 22.9685 6.4851 22.3887 5.79297V43.5722Z" fill="#A6A6A6"/>
</g>
</g>
</svg>
