<svg width="168" height="169" viewBox="0 0 168 169" fill="none" xmlns="http://www.w3.org/2000/svg">
<path d="M126 39L133 32M35 32L42 39" stroke="#ED1E79" stroke-width="6" stroke-linecap="round" stroke-linejoin="round"/>
<path d="M87 145.477C79.3833 145.477 71.8412 143.976 64.8044 141.062C57.7675 138.147 51.3736 133.875 45.9878 128.489C40.602 123.103 36.3298 116.709 33.415 109.672C30.5002 102.635 29 95.0932 29 87.4766H57.0751C57.0751 91.4064 57.8491 95.2977 59.353 98.9283C60.8569 102.559 63.0611 105.858 65.8399 108.637C68.6187 111.415 71.9176 113.62 75.5482 115.124C79.1789 116.627 83.0702 117.401 87 117.401L87 145.477Z" fill="#ED1E79" fill-opacity="0.15"/>
<path d="M82 33.4766C97.1173 33.4766 111.616 39.4819 122.305 50.1715L102.795 69.6813C97.28 64.166 89.7997 61.0676 82 61.0676V33.4766Z" fill="#ED1E79" fill-opacity="0.15"/>
<path d="M84 67V95L98 109" stroke="#ED1E79" stroke-width="6" stroke-linecap="round" stroke-linejoin="round"/>
<path d="M84 25V14.5" stroke="#ED1E79" stroke-width="6" stroke-linecap="round" stroke-linejoin="round"/>
<path d="M70 14.5H98" stroke="#ED1E79" stroke-width="6" stroke-linecap="round" stroke-linejoin="round"/>
<path d="M84.0101 154.303C118.635 154.303 146.704 126.052 146.704 91.2043C146.704 56.3559 118.635 28.1057 84.0101 28.1057C55.9377 28.1057 32.4395 46.6749 24.4507 72.2747H40.1242" stroke="#ED1E79" stroke-width="6" stroke-linecap="round" stroke-linejoin="round"/>
<path d="M21 90.4766C21 92.5341 21.0934 94.5691 21.2761 96.5766M64 151.477C61.9016 150.791 59.8518 149.991 57.8571 149.084M28.4291 120.977C27.2445 118.71 26.1878 116.361 25.2691 113.938M38.3918 135.046C40.2695 137.055 42.2731 138.936 44.3892 140.675" stroke="#ED1E79" stroke-width="6" stroke-linecap="round" stroke-linejoin="round"/>
</svg>
