<svg width="134" height="30" viewBox="0 0 134 30" fill="none" xmlns="http://www.w3.org/2000/svg">
<g clip-path="url(#clip0_474_534)">
<path d="M18.5047 14.7446C22.0335 14.1018 24.3143 11.5734 24.3143 7.75924C24.3143 3.00231 20.6134 0.00244141 14.7177 0.00244141H0V30.0011H15.062C21.0007 30.0011 24.7877 26.787 24.7877 21.73C24.7877 17.7445 22.2056 15.1732 18.5047 14.7446ZM11.7914 5.74504C14.0291 5.74504 15.3632 6.90213 15.3632 8.87347C15.3632 10.8448 13.9861 12.0876 11.7914 12.0876H8.9511V5.74504H11.7914ZM8.9511 23.7871V17.2731H12.0496C14.2443 17.2731 15.6644 18.5588 15.6644 20.4872C15.6644 22.5014 14.2873 23.7871 12.0065 23.7871H8.9511Z" fill="white"/>
<path d="M37.4024 30.0011V0.00244141H28.4513V30.0011H37.4024Z" fill="white"/>
<path d="M61.9332 30.0011V22.33H51.6911V0.00244141H42.74V30.0011H61.9332Z" fill="white"/>
<path d="M78.6271 30.0011C88.0946 30.0011 94.2485 23.4443 94.2485 15.0018C94.2485 6.60215 88.0516 0.00244141 78.6271 0.00244141H66.1902V30.0011H78.6271ZM75.1413 7.28783H77.8525C82.3711 7.28783 84.9531 10.802 84.9531 15.0018C84.9531 19.2016 82.3711 22.7157 77.8525 22.7157H75.1413V7.28783Z" fill="white"/>
<path d="M106.576 29.9987V0H97.6248V29.9987H106.576Z" fill="#ED1E79"/>
<path d="M126.201 29.9987V7.67109H133.947V0H109.46V7.67109H117.207V29.9987H126.201Z" fill="#ED1E79"/>
</g>
<defs>
<clipPath id="clip0_474_534">
<rect width="133.947" height="30.0012" fill="white"/>
</clipPath>
</defs>
</svg>
