<svg width="286" height="287" viewBox="0 0 286 287" fill="none" xmlns="http://www.w3.org/2000/svg">
<circle cx="143" cy="143.5" r="142.5" fill="white" stroke="#D9D9D9"/>
<path d="M276 143.5C276 216.954 216.454 276.5 143 276.5C69.5461 276.5 10 216.954 10 143.5C10 70.0461 69.5461 10.5 143 10.5C216.454 10.5 276 70.0461 276 143.5ZM35.2052 143.5C35.2052 203.033 83.4666 251.295 143 251.295C202.533 251.295 250.795 203.033 250.795 143.5C250.795 83.9666 202.533 35.7052 143 35.7052C83.4666 35.7052 35.2052 83.9666 35.2052 143.5Z" fill="#F2F2F2"/>
<path opacity="0.1" d="M143 34.5C165.014 34.5 186.512 41.1656 204.664 53.6195C222.817 66.0734 236.773 83.7318 244.696 104.271L143 143.5V34.5Z" fill="#ED1E79"/>
<g filter="url(#filter0_d_1_5391)">
<circle cx="143" cy="143.5" r="68" fill="white"/>
</g>
<path d="M143 10.5C169.91 10.5 196.187 18.663 218.36 33.9108C240.534 49.1586 257.56 70.7738 267.191 95.9015L243.655 104.922C235.85 84.5564 222.05 67.0375 204.079 54.6794C186.107 42.3212 164.81 35.7052 143 35.7052V10.5Z" fill="#ED1E79"/>
<path d="M110.523 162.31C101.127 162.31 95.9974 157.666 95.9974 149.404H104.799C104.799 153.292 106.959 155.452 110.685 155.452C113.871 155.452 115.923 153.562 115.923 150.7C115.923 147.406 113.925 145.786 110.145 145.786H106.473V139.09H110.199C113.655 139.09 115.383 137.632 115.383 134.608C115.383 132.124 113.493 130.45 110.685 130.45C107.445 130.45 105.447 132.394 105.447 135.634H96.8074C96.8074 128.614 102.099 123.97 110.901 123.97C118.839 123.97 124.131 127.912 124.131 134.176C124.131 138.172 121.863 141.088 117.381 142.33C121.971 143.194 124.779 146.488 124.779 151.078C124.779 157.72 119.163 162.31 110.523 162.31ZM144.088 162.31C134.692 162.31 129.562 157.666 129.562 149.404H138.364C138.364 153.292 140.524 155.452 144.25 155.452C147.436 155.452 149.488 153.562 149.488 150.7C149.488 147.406 147.49 145.786 143.71 145.786H140.038V139.09H143.764C147.22 139.09 148.948 137.632 148.948 134.608C148.948 132.124 147.058 130.45 144.25 130.45C141.01 130.45 139.012 132.394 139.012 135.634H130.372C130.372 128.614 135.664 123.97 144.466 123.97C152.404 123.97 157.696 127.912 157.696 134.176C157.696 138.172 155.428 141.088 150.946 142.33C155.536 143.194 158.344 146.488 158.344 151.078C158.344 157.72 152.728 162.31 144.088 162.31ZM168.062 120.042C169.898 120.042 171.313 120.68 172.306 121.954C173.321 123.207 173.829 124.978 173.829 127.268C173.829 129.557 173.354 131.35 172.403 132.646C171.453 133.92 170.006 134.558 168.062 134.558C166.895 134.558 165.891 134.266 165.049 133.683C164.206 133.1 163.558 132.268 163.105 131.188C162.651 130.086 162.424 128.78 162.424 127.268C162.424 124.978 162.889 123.207 163.817 121.954C164.746 120.68 166.161 120.042 168.062 120.042ZM168.127 123.606C167.63 123.606 167.273 123.92 167.057 124.546C166.863 125.172 166.766 126.09 166.766 127.3C166.766 128.488 166.863 129.417 167.057 130.086C167.273 130.734 167.63 131.058 168.127 131.058C168.623 131.058 168.969 130.734 169.163 130.086C169.379 129.438 169.487 128.51 169.487 127.3C169.487 126.09 169.379 125.172 169.163 124.546C168.947 123.92 168.602 123.606 168.127 123.606ZM185.039 120.366L172.209 143.5H167.997L180.827 120.366H185.039ZM184.91 129.276C186.119 129.276 187.156 129.568 188.02 130.151C188.884 130.713 189.543 131.534 189.997 132.614C190.45 133.672 190.677 134.968 190.677 136.502C190.677 138.791 190.202 140.584 189.251 141.88C188.301 143.154 186.854 143.792 184.91 143.792C183.743 143.792 182.728 143.5 181.864 142.917C181.022 142.334 180.374 141.502 179.92 140.422C179.488 139.32 179.272 138.014 179.272 136.502C179.272 134.212 179.737 132.441 180.665 131.188C181.616 129.914 183.031 129.276 184.91 129.276ZM184.975 132.808C184.478 132.808 184.121 133.132 183.905 133.78C183.711 134.406 183.614 135.324 183.614 136.534C183.614 137.722 183.711 138.64 183.905 139.288C184.121 139.936 184.478 140.26 184.975 140.26C185.45 140.26 185.795 139.947 186.011 139.32C186.227 138.672 186.335 137.744 186.335 136.534C186.335 135.324 186.227 134.406 186.011 133.78C185.795 133.132 185.45 132.808 184.975 132.808Z" fill="#171717"/>
<defs>
<filter id="filter0_d_1_5391" x="71" y="73.5" width="144" height="144" filterUnits="userSpaceOnUse" color-interpolation-filters="sRGB">
<feFlood flood-opacity="0" result="BackgroundImageFix"/>
<feColorMatrix in="SourceAlpha" type="matrix" values="0 0 0 0 0 0 0 0 0 0 0 0 0 0 0 0 0 0 127 0" result="hardAlpha"/>
<feOffset dy="2"/>
<feGaussianBlur stdDeviation="2"/>
<feComposite in2="hardAlpha" operator="out"/>
<feColorMatrix type="matrix" values="0 0 0 0 0 0 0 0 0 0 0 0 0 0 0 0 0 0 0.15 0"/>
<feBlend mode="normal" in2="BackgroundImageFix" result="effect1_dropShadow_1_5391"/>
<feBlend mode="normal" in="SourceGraphic" in2="effect1_dropShadow_1_5391" result="shape"/>
</filter>
</defs>
</svg>
