<svg width="168" height="169" viewBox="0 0 168 169" fill="none" xmlns="http://www.w3.org/2000/svg">
<g id="checkmark-badge-03">
<path id="Vector" d="M99.8326 25.6956C92.3692 18.2318 88.6375 14.5 84 14.5C79.3625 14.5 75.6308 18.2318 68.1671 25.6956C63.6882 30.1744 59.2499 32.2538 52.8646 32.2538C47.2892 32.2538 39.357 31.1725 35 35.5661C30.6774 39.925 31.754 47.8246 31.754 53.3644C31.754 59.75 29.6744 64.1882 25.1955 68.6672C17.7318 76.1308 14.0001 79.8625 14 84.5C14.0001 89.1368 17.732 92.8692 25.1957 100.333C30.2131 105.35 31.754 108.59 31.754 115.635C31.754 121.211 30.6727 129.143 35.0664 133.5C39.4253 137.823 47.3248 136.746 52.8644 136.746C59.6644 136.746 62.939 138.076 67.792 142.929C71.9243 147.062 77.4641 154.5 84 154.5C90.5359 154.5 96.0757 147.062 100.208 142.929C105.061 138.076 108.336 136.746 115.135 136.746C120.675 136.746 128.575 137.823 132.934 133.5M132.934 133.5C137.327 129.143 136.246 121.211 136.246 115.635C136.246 108.59 137.787 105.35 142.804 100.333C150.268 92.8692 154 89.1368 154 84.5C154 79.8625 150.268 76.1308 142.804 68.6672M132.934 133.5H133" stroke="#ED1E79" stroke-width="6" stroke-linecap="round" stroke-linejoin="round"/>
<path id="Vector_2" d="M163.915 36.6902C165.992 42.5128 163.079 46.4993 157.44 50.4261C152.89 53.5945 147.094 57.027 140.952 62.8951C134.931 68.6478 129.055 75.5768 123.832 82.3968C117.504 90.6609 111.519 99.2929 106.252 108.281C104.266 111.685 100.694 113.746 96.8653 113.695C93.0355 113.643 89.5172 111.487 87.6169 108.029C82.7592 99.1885 79.0106 95.6974 77.2877 94.4433C72.5075 90.9639 67.2686 90.3618 67.2686 82.7711C67.2686 76.5603 72.1099 71.5258 78.0821 71.5258C82.3558 71.6971 86.2684 73.5279 89.6898 76.0186C91.9099 77.6347 94.2611 79.7711 96.707 82.5842C99.5772 78.3432 103.036 73.4501 106.914 68.3863C112.545 61.0331 119.192 53.1438 126.32 46.3336C133.327 39.6389 141.428 33.3724 150.015 30.0591C155.614 27.8987 161.837 30.8676 163.915 36.6902Z" fill="#ED1E79" fill-opacity="0.15" stroke="#ED1E79" stroke-width="6" stroke-linecap="round" stroke-linejoin="round"/>
<path id="Vector_3" d="M50.6568 72.0143C49.6289 71.6776 48.6998 71.4655 47.8859 71.3383C47.48 71.2747 47.1057 71.2325 46.7651 71.2066L45.851 71.1703C39.7638 71.1703 34.8291 76.2476 34.8291 82.5103C34.8291 88.178 38.8706 92.8746 44.1505 93.716C44.335 93.8133 44.6346 93.9879 45.0414 94.2811C46.7974 95.5456 50.6183 99.0665 55.5697 107.981C57.5067 111.469 61.0924 113.642 64.9963 113.695C67.6705 113.73 70.2212 112.766 72.2135 111.051M119.171 29.3538C110.418 32.695 102.16 39.0144 95.0184 45.7655C92.5245 48.1229 90.0883 50.6085 87.732 53.1565" stroke="#ED1E79" stroke-width="6" stroke-linecap="round" stroke-linejoin="round"/>
</g>
</svg>
