<svg width="286" height="287" viewBox="0 0 286 287" fill="none" xmlns="http://www.w3.org/2000/svg">
<circle cx="143" cy="143.5" r="142.5" fill="white" stroke="#D9D9D9"/>
<path d="M276 143.5C276 216.954 216.454 276.5 143 276.5C69.5461 276.5 10 216.954 10 143.5C10 70.0461 69.5461 10.5 143 10.5C216.454 10.5 276 70.0461 276 143.5ZM35.2052 143.5C35.2052 203.033 83.4666 251.295 143 251.295C202.533 251.295 250.795 203.033 250.795 143.5C250.795 83.9666 202.533 35.7052 143 35.7052C83.4666 35.7052 35.2052 83.9666 35.2052 143.5Z" fill="#F2F2F2"/>
<path opacity="0.1" d="M143 34.5C164.471 34.5 185.465 40.8415 203.345 52.7287C221.226 64.6158 235.198 81.5192 243.507 101.318L143 143.5V34.5Z" fill="#ED1E79"/>
<g filter="url(#filter0_d_1_5383)">
<circle cx="143" cy="143.5" r="68" fill="white"/>
</g>
<path d="M109.39 162.31C99.9936 162.31 94.8636 157.666 94.8636 149.404H103.666C103.666 153.292 105.826 155.452 109.552 155.452C112.738 155.452 114.79 153.562 114.79 150.7C114.79 147.406 112.792 145.786 109.012 145.786H105.34V139.09H109.066C112.522 139.09 114.25 137.632 114.25 134.608C114.25 132.124 112.36 130.45 109.552 130.45C106.312 130.45 104.314 132.394 104.314 135.634H95.6736C95.6736 128.614 100.966 123.97 109.768 123.97C117.706 123.97 122.998 127.912 122.998 134.176C122.998 138.172 120.73 141.088 116.248 142.33C120.838 143.194 123.646 146.488 123.646 151.078C123.646 157.72 118.03 162.31 109.39 162.31ZM144.304 162.31C134.314 162.31 128.968 155.614 128.968 143.14C128.968 130.666 134.314 123.97 144.304 123.97C154.294 123.97 159.64 130.666 159.64 143.14C159.64 155.614 154.294 162.31 144.304 162.31ZM144.304 155.29C149.056 155.29 151.324 151.402 151.324 143.14C151.324 134.878 149.056 130.99 144.304 130.99C139.552 130.99 137.284 134.878 137.284 143.14C137.284 151.456 139.552 155.29 144.304 155.29ZM169.196 120.042C171.032 120.042 172.446 120.68 173.44 121.954C174.455 123.207 174.963 124.978 174.963 127.268C174.963 129.557 174.488 131.35 173.537 132.646C172.587 133.92 171.14 134.558 169.196 134.558C168.029 134.558 167.025 134.266 166.182 133.683C165.34 133.1 164.692 132.268 164.238 131.188C163.785 130.086 163.558 128.78 163.558 127.268C163.558 124.978 164.022 123.207 164.951 121.954C165.88 120.68 167.295 120.042 169.196 120.042ZM169.26 123.606C168.764 123.606 168.407 123.92 168.191 124.546C167.997 125.172 167.9 126.09 167.9 127.3C167.9 128.488 167.997 129.417 168.191 130.086C168.407 130.734 168.764 131.058 169.26 131.058C169.757 131.058 170.103 130.734 170.297 130.086C170.513 129.438 170.621 128.51 170.621 127.3C170.621 126.09 170.513 125.172 170.297 124.546C170.081 123.92 169.736 123.606 169.26 123.606ZM186.173 120.366L173.343 143.5H169.131L181.961 120.366H186.173ZM186.044 129.276C187.253 129.276 188.29 129.568 189.154 130.151C190.018 130.713 190.677 131.534 191.13 132.614C191.584 133.672 191.811 134.968 191.811 136.502C191.811 138.791 191.336 140.584 190.385 141.88C189.435 143.154 187.988 143.792 186.044 143.792C184.877 143.792 183.862 143.5 182.998 142.917C182.156 142.334 181.508 141.502 181.054 140.422C180.622 139.32 180.406 138.014 180.406 136.502C180.406 134.212 180.87 132.441 181.799 131.188C182.75 129.914 184.164 129.276 186.044 129.276ZM186.108 132.808C185.612 132.808 185.255 133.132 185.039 133.78C184.845 134.406 184.748 135.324 184.748 136.534C184.748 137.722 184.845 138.64 185.039 139.288C185.255 139.936 185.612 140.26 186.108 140.26C186.584 140.26 186.929 139.947 187.145 139.32C187.361 138.672 187.469 137.744 187.469 136.534C187.469 135.324 187.361 134.406 187.145 133.78C186.929 133.132 186.584 132.808 186.108 132.808Z" fill="#171717"/>
<path d="M143 10.5C169.293 10.5 194.996 18.2933 216.862 32.8954C238.728 47.4974 255.775 68.2528 265.85 92.5393L242.568 102.197C234.403 82.5132 220.586 65.6911 202.864 53.8564C185.142 42.0216 164.31 35.7052 143 35.7052V10.5Z" fill="#ED1E79"/>
<defs>
<filter id="filter0_d_1_5383" x="71" y="73.5" width="144" height="144" filterUnits="userSpaceOnUse" color-interpolation-filters="sRGB">
<feFlood flood-opacity="0" result="BackgroundImageFix"/>
<feColorMatrix in="SourceAlpha" type="matrix" values="0 0 0 0 0 0 0 0 0 0 0 0 0 0 0 0 0 0 127 0" result="hardAlpha"/>
<feOffset dy="2"/>
<feGaussianBlur stdDeviation="2"/>
<feComposite in2="hardAlpha" operator="out"/>
<feColorMatrix type="matrix" values="0 0 0 0 0 0 0 0 0 0 0 0 0 0 0 0 0 0 0.15 0"/>
<feBlend mode="normal" in2="BackgroundImageFix" result="effect1_dropShadow_1_5383"/>
<feBlend mode="normal" in="SourceGraphic" in2="effect1_dropShadow_1_5383" result="shape"/>
</filter>
</defs>
</svg>
