<svg preserveAspectRatio="none" width="100%" height="100%" overflow="visible" style="display: block;" viewBox="0 0 152.103 309.615" fill="none" xmlns="http://www.w3.org/2000/svg">
<g id="frame">
<path id="Vector" d="M0.285013 59.2789H1.12752V71.1079H0.285013C0.128412 71.1079 0 70.9795 0 70.8229V59.5638C0 59.4073 0.128412 59.2789 0.285013 59.2789Z" fill="var(--fill-0, #121212)"/>
<path id="Vector_2" d="M125.13 0.159103H26.9666C12.6961 0.159103 1.12752 11.724 1.12752 25.99V283.625C1.12752 297.891 12.6961 309.456 26.9666 309.456H125.13C139.401 309.456 150.969 297.891 150.969 283.625V25.99C150.969 11.724 139.401 0.159103 125.13 0.159103Z" fill="var(--fill-0, #222222)" stroke="var(--stroke-0, #343434)" stroke-width="0.318207" stroke-miterlimit="10"/>
<path id="Vector_3" d="M124.757 1.85611H27.3393C13.8835 1.85611 2.97541 12.7607 2.97541 26.2123V282.98C2.97541 296.432 13.8835 307.336 27.3393 307.336H124.757C138.213 307.336 149.121 296.432 149.121 282.98V26.2123C149.121 12.7607 138.213 1.85611 124.757 1.85611Z" fill="var(--fill-0, #222222)" stroke="var(--stroke-0, #E0E1E6)" stroke-width="0.318207" stroke-miterlimit="10"/>
<path id="Vector_4" d="M125.218 6.43052H26.882C16.289 6.43052 7.7016 15.0152 7.7016 25.6048V283.588C7.7016 294.177 16.289 302.762 26.882 302.762H125.218C135.811 302.762 144.398 294.177 144.398 283.588V25.6048C144.398 15.0152 135.811 6.43052 125.218 6.43052Z" fill="var(--fill-0, #6B6B6B)"/>
<path id="Vector_5" d="M1.13063 59.2789H0.284985V71.1079H1.13063V59.2789Z" fill="var(--fill-0, #222222)"/>
<path id="Vector_6" d="M0.285013 81.7439H1.12752V105.151H0.285013C0.128412 105.151 0 105.023 0 104.866V82.0257C0 81.8691 0.128412 81.7439 0.285013 81.7439Z" fill="var(--fill-0, #121212)"/>
<path id="Vector_7" d="M1.13063 81.7439H0.284985V105.151H1.13063V81.7439Z" fill="var(--fill-0, #222222)"/>
<path id="Vector_8" d="M0.285013 111.586H1.12752V134.993H0.285013C0.128412 134.996 0 134.868 0 134.711V111.871C0 111.714 0.128412 111.586 0.285013 111.586Z" fill="var(--fill-0, #121212)"/>
<path id="Vector_9" d="M1.13063 111.586H0.284985V134.993H1.13063V111.586Z" fill="var(--fill-0, #222222)"/>
<path id="Vector_10" opacity="0.48" d="M124.76 1.85611H27.3393C13.8842 1.85611 2.9754 12.7583 2.9754 26.2091V282.98C2.9754 296.431 13.8842 307.337 27.3393 307.337H124.76C138.216 307.337 149.124 296.431 149.124 282.98V26.2091C149.124 12.7583 138.216 1.85298 124.76 1.85298V1.85611ZM147.872 283.162C147.872 295.742 137.671 305.94 125.086 305.94H27.0104C14.426 305.94 4.22507 295.742 4.22507 283.162V26.0307C4.2282 13.4534 14.4292 3.25567 27.0104 3.25567H125.089C137.674 3.25567 147.875 13.4534 147.875 26.0338V283.159L147.872 283.162Z" fill="var(--fill-0, #2B2B2B)"/>
<path id="Vector_11" d="M151.818 134.981H150.972V97.9031H151.818C151.974 97.9031 152.103 98.0315 152.103 98.188V134.696C152.103 134.852 151.974 134.981 151.818 134.981Z" fill="var(--fill-0, #EAEAEC)"/>
<path id="Vector_12" d="M150.969 134.981H151.815V97.9031H150.969V134.981Z" fill="var(--fill-0, #E0E1E4)"/>
</g>
</svg>
