<svg preserveAspectRatio="xMidYMid meet" width="100%" height="100%" overflow="visible" style="display: block;" viewBox="0 0 244 28" fill="none" xmlns="http://www.w3.org/2000/svg">
<g id="ACI Worldwide 1" clip-path="url(#clip0_0_50)">
<path id="Vector" d="M122.45 8.32632C126.592 8.32632 129.329 10.2789 130.644 13.2447C131.238 14.6632 131.58 16.3579 131.58 18.1263C131.58 19.8947 131.238 21.5895 130.644 23.0079C129.329 25.9737 126.592 27.9263 122.45 27.9263C118.308 27.9263 115.571 25.9737 114.257 23.0079C113.627 21.5895 113.32 19.8947 113.32 18.1263C113.32 16.3579 113.627 14.7 114.257 13.2447C115.571 10.2974 118.308 8.32632 122.45 8.32632ZM223.382 0.331579V27.4658H220.41V24.6289C219.024 26.8211 216.683 27.8895 213.874 27.8895C210.308 27.8895 207.715 26.1579 206.437 23.2842C205.806 21.8289 205.464 20.0605 205.464 18.1263C205.464 16.1737 205.806 14.4421 206.437 12.9684C207.715 10.0395 210.308 8.3079 213.874 8.3079C216.647 8.3079 218.988 9.37632 220.374 11.5316V0.331579H223.382ZM234.762 8.32632C238.778 8.32632 241.605 10.1684 242.884 13.0974C243.604 14.7921 243.82 16.5237 243.82 18.8263H228.676C228.748 20.0974 228.946 21.2026 229.36 22.1789C230.26 24.2237 232.187 25.3658 234.96 25.3658C236.725 25.3658 238.274 24.9053 239.282 23.9842C240.11 23.2105 240.597 22.1053 240.705 20.9079H243.712C243.568 22.9158 242.812 24.4816 241.533 25.7158C239.948 27.1342 237.697 27.9079 234.996 27.9079C230.855 27.9079 227.901 26.1026 226.587 23.0263C225.957 21.6816 225.65 20.0605 225.65 18.1447C225.65 16.1368 225.957 14.6079 226.587 13.2263C227.883 10.1868 230.747 8.32632 234.762 8.32632ZM168.783 0.331579V27.4658H165.812V24.6289C164.425 26.8211 162.084 27.8895 159.275 27.8895C155.71 27.8895 153.117 26.1579 151.838 23.2842C151.208 21.8289 150.866 20.0605 150.866 18.1263C150.866 16.1737 151.208 14.4421 151.838 12.9684C153.117 10.0395 155.71 8.3079 159.275 8.3079C162.048 8.3079 164.389 9.37632 165.776 11.5316V0.331579H168.783ZM19.1959 0.184211C19.7181 0.184211 20.0602 0.718421 19.8621 1.19737L19.8441 1.23421L8.58952 26.3053C8.19336 27.2079 7.311 27.7974 6.35661 27.8158H6.30258H0.900369C0.378155 27.8158 0.0360147 27.2816 0.234096 26.8026L0.252103 26.7658L11.5067 1.69474C11.9209 0.792105 12.7852 0.202632 13.7576 0.184211H13.8117H19.1959ZM21.6449 5.82105C21.879 5.30526 22.5993 5.28684 22.8514 5.78421L22.8694 5.82105L32.2872 26.7658C32.5033 27.2447 32.1792 27.7789 31.675 27.8158H31.639H26.2548C25.2824 27.8158 24.4 27.2447 23.9858 26.3605L23.9678 26.3053L19.1599 15.6026C18.5836 14.3132 18.5656 12.8211 19.1238 11.5132L19.1599 11.4395L21.6449 5.82105ZM67.7978 0.184211C68.392 0.184211 68.8602 0.663158 68.8782 1.25263V1.28947V26.7105C68.8782 27.3184 68.41 27.7974 67.8338 27.8158H67.7978H62.8458C62.2515 27.8158 61.7833 27.3368 61.7653 26.7474V26.7105V1.28947C61.7653 0.681579 62.2335 0.202632 62.8097 0.184211H62.8458H67.7978ZM57.5696 0.184211C58.1098 0.184211 58.47 0.755263 58.2719 1.25263V1.28947L56.3631 5.54474C55.8409 6.70526 54.7244 7.44211 53.4819 7.47895H53.4099H45.6847C42.2093 7.47895 39.2741 10.2789 39.1841 13.8526C39.094 17.4816 41.9392 20.4658 45.4506 20.5395H45.5587H53.3919C54.6344 20.5395 55.7689 21.2763 56.3091 22.4184L56.3451 22.4737L58.2539 26.729C58.488 27.2263 58.1278 27.8158 57.5876 27.8342H57.5516H45.5407C38.0496 27.8342 31.9631 21.5711 32.0351 13.8895C32.1072 6.35526 38.1576 0.331579 45.4866 0.202632H45.7027H57.5696V0.184211ZM203.195 8.80526V27.4842H200.188V8.80526H203.195ZM148.597 0.331579V27.4658H145.59V0.331579H148.597ZM141.79 8.56579C142.474 8.56579 143.069 8.63947 143.627 8.80526V11.5684C143.105 11.4579 142.42 11.3842 141.79 11.3842C138.477 11.3842 136.874 13.5026 136.874 17.1132V27.4842H133.867V8.80526H136.838V11.2184C137.774 9.59737 139.395 8.56579 141.79 8.56579ZM173.735 8.80526L178.507 23.6895L182.937 8.80526H185.944L190.374 23.6526L195.182 8.80526H198.405L191.869 27.4842H188.789L184.432 12.95L180.11 27.4842H177.013L170.512 8.80526H173.735ZM83.6263 0.331579L89.9829 23.0816L96.0334 0.331579H99.5268L105.577 22.9342L111.916 0.331579H115.067L107.324 27.4658H103.867L97.7441 4.71579L91.6215 27.4658H88.2001L80.457 0.331579H83.6263ZM214.594 11.0342C212.145 11.0342 210.272 12.1026 209.372 14.2211C208.922 15.2158 208.652 16.5605 208.652 18.1447C208.652 19.7289 208.922 21.0368 209.372 22.0684C210.272 24.15 212.145 25.2553 214.594 25.2553C218.087 25.2553 220.374 22.8789 220.374 18.6053V17.6842C220.374 13.4105 218.087 11.0342 214.594 11.0342ZM159.978 11.0342C157.529 11.0342 155.656 12.1026 154.755 14.2211C154.305 15.2158 154.035 16.5605 154.035 18.1447C154.035 19.7289 154.305 21.0368 154.755 22.0684C155.656 24.15 157.529 25.2553 159.978 25.2553C163.471 25.2553 165.758 22.8789 165.758 18.6053V17.6842C165.776 13.4105 163.489 11.0342 159.978 11.0342ZM122.45 11.0342C119.785 11.0342 118.056 12.2316 117.21 14.1105L117.174 14.1842C116.688 15.2526 116.49 16.6526 116.49 18.1447C116.49 19.6368 116.67 20.9816 117.174 22.1053C118.038 24.0211 119.731 25.2553 122.432 25.2553C125.097 25.2553 126.826 24.0211 127.69 22.1053C128.177 20.9816 128.375 19.6368 128.375 18.1447C128.375 16.6526 128.195 15.2526 127.69 14.1842C126.844 12.25 125.115 11.0342 122.45 11.0342ZM234.798 10.9053C232.061 10.9053 230.242 12.0289 229.342 14.1289C229.036 14.8658 228.856 15.5842 228.748 16.4684H240.741C240.633 15.4737 240.435 14.7 240.146 13.9263C239.282 11.9921 237.463 10.9053 234.798 10.9053ZM201.737 1.60263C202.835 1.60263 203.699 2.41316 203.699 3.51842C203.699 4.67895 202.835 5.43421 201.737 5.43421C200.494 5.43421 199.702 4.66053 199.702 3.51842C199.702 2.41316 200.494 1.60263 201.737 1.60263Z" fill="#A6A6A6"/>
</g>
<defs>
<clipPath id="clip0_0_50">
<rect width="244" height="28" fill="white"/>
</clipPath>
</defs>
</svg>
