<svg preserveAspectRatio="xMidYMid meet" width="100%" height="100%" overflow="visible" style="display: block;" viewBox="0 0 242 45" fill="none" xmlns="http://www.w3.org/2000/svg">
<g id="Afterpay_logo 2" clip-path="url(#clip0_0_183)">
<path id="Vector" d="M19.9172 22.0207C19.9172 17.9762 16.8622 15.1336 13.1095 15.1336C9.35678 15.1336 6.30174 18.0241 6.30174 22.0207C6.30174 25.9694 9.35678 28.9079 13.1095 28.9079C16.8659 28.9041 19.9172 26.0652 19.9172 22.0207ZM19.9708 34.0585V30.9282C18.1194 33.0962 15.3634 34.4418 12.063 34.4418C5.20545 34.4418 0 29.1437 0 22.0207C0 14.9419 5.40478 9.55164 12.2163 9.55164C15.4209 9.55164 18.1233 10.901 19.9746 13.0173V9.983H26.1308V34.0585H19.9708Z" fill="#A6A6A6"/>
<path id="Vector_2" d="M56.0333 28.7125C53.8791 28.7125 53.2811 27.9418 53.2811 25.9215V15.2331H57.2369V9.983H53.2811V4.10979H46.9718V9.983H38.8454V8.51931C38.8454 6.49521 39.6466 5.72464 41.8507 5.72464H43.2345V1.05335H40.1985C34.9931 1.05335 32.5398 2.69033 32.5398 7.69713V9.97932H29.0364V15.2295H32.5398V34.0547H38.8493V15.2295H46.9756V27.0274C46.9756 31.9384 48.9267 34.0585 54.0325 34.0585H57.2868V28.7125H56.0333Z" fill="#A6A6A6"/>
<path id="Vector_3" d="M78.6606 19.8528C78.2121 16.7226 75.5557 14.8459 72.4547 14.8459C69.3498 14.8459 66.797 16.6747 66.1491 19.8528H78.6606ZM66.0954 23.6098C66.5478 27.1713 69.2003 29.1954 72.5544 29.1954C75.2069 29.1954 77.2616 27.9897 78.4612 26.0652H84.9201C83.4175 31.1679 78.6606 34.4418 72.4049 34.4418C64.8458 34.4418 59.5407 29.3391 59.5407 22.0686C59.5407 14.798 65.1487 9.54794 72.5582 9.54794C80.0176 9.54794 85.4224 14.8461 85.4224 22.0686C85.4224 22.5996 85.3725 23.1268 85.2728 23.6098H66.0954Z" fill="#A6A6A6"/>
<path id="Vector_4" d="M125.537 22.0207C125.537 18.1199 122.482 15.1336 118.729 15.1336C114.976 15.1336 111.921 18.0241 111.921 22.0207C111.921 25.9694 114.976 28.9079 118.729 28.9079C122.482 28.9041 125.537 25.9215 125.537 22.0207ZM105.711 9.983H111.867V13.1132C113.719 10.8973 116.471 9.55164 119.775 9.55164C126.533 9.55164 131.838 14.8976 131.838 21.9728C131.838 29.0516 126.433 34.4455 119.626 34.4455C116.471 34.4455 113.868 33.2399 112.067 31.2195V43.9651H105.711V9.983Z" fill="#A6A6A6"/>
<path id="Vector_5" d="M154.029 22.0207C154.029 17.9762 150.977 15.1336 147.221 15.1336C143.468 15.1336 140.413 18.0241 140.413 22.0207C140.413 25.9694 143.468 28.9079 147.221 28.9079C150.977 28.9041 154.029 26.0652 154.029 22.0207ZM154.083 34.0585V30.9282C152.231 33.0962 149.474 34.4418 146.174 34.4418C139.317 34.4418 134.111 29.1437 134.111 22.0207C134.111 14.9419 139.516 9.55164 146.324 9.55164C149.528 9.55164 152.231 10.901 154.083 13.0173V9.983H160.239V34.0585H154.083Z" fill="#A6A6A6"/>
<path id="Vector_6" d="M94.6143 12.3426C94.6143 12.3426 96.1822 9.55164 100.019 9.55164C101.66 9.55164 102.722 10.0936 102.722 10.0936V16.236C102.722 16.236 100.406 14.8607 98.2788 15.1373C96.1514 15.4138 94.806 17.2941 94.8137 19.8086V34.0621H88.4583V9.98669H94.6143V12.3426Z" fill="#A6A6A6"/>
<path id="Vector_7" d="M188.99 9.98299L173.447 43.8876H166.893L172.995 30.7807L162.676 9.98299H170.106L176.142 23.8789L182.337 9.98299H188.99Z" fill="#A6A6A6"/>
<path id="Vector_8" d="M238.608 9.43734L223.198 0.883755C218.675 -1.62701 213.021 1.51053 213.021 6.53576V7.41324C213.021 8.20592 213.461 8.93961 214.174 9.3341L217.084 10.949C217.938 11.4246 219.004 10.831 219.004 9.88347V7.70082C219.004 6.6095 220.232 5.92743 221.213 6.47309L234.559 13.8837C235.542 14.4294 235.542 15.7935 234.559 16.3356L221.213 23.7462C220.232 24.2919 219.004 23.6098 219.004 22.5184V21.357C219.004 16.3318 213.351 13.1906 208.824 15.705L193.415 24.2586C188.891 26.7695 188.891 33.0519 193.415 35.5626L208.824 44.1163C213.346 46.627 219.004 43.4895 219.004 38.4643V37.5868C219.004 36.794 218.564 36.064 217.851 35.6658L214.941 34.0473C214.087 33.5717 213.021 34.1653 213.021 35.1129V37.2956C213.021 38.3869 211.795 39.0689 210.813 38.5232L197.466 31.1126C196.485 30.5669 196.485 29.2028 197.466 28.6572L210.813 21.2464C211.795 20.7007 213.021 21.3828 213.021 22.4742V23.6356C213.021 28.6608 218.675 31.8021 223.198 29.2876L238.608 20.734C243.131 18.2305 243.131 11.9481 238.608 9.43734Z" fill="#A6A6A6"/>
</g>
<defs>
<clipPath id="clip0_0_183">
<rect width="242" height="45" fill="white"/>
</clipPath>
</defs>
</svg>
