<svg preserveAspectRatio="xMidYMid meet" width="100%" height="100%" overflow="visible" style="display: block;" viewBox="0 0 236 49" fill="none" xmlns="http://www.w3.org/2000/svg">
<g id="apple-pay 3" clip-path="url(#clip0_0_99)">
<path id="Vector" d="M20.7337 7.53837C19.404 9.13234 17.2767 10.386 15.1493 10.2069C14.8833 8.05775 15.9293 5.7653 17.1526 4.36833C18.4822 2.73854 20.8046 1.5744 22.7015 1.48485C22.9142 3.70567 22.0456 5.90857 20.7337 7.53837ZM22.666 10.6189C19.5813 10.4398 16.9398 12.3919 15.4861 12.3919C13.9969 12.3919 11.7632 10.7084 9.31667 10.7621C6.14331 10.8159 3.20042 12.6248 1.58715 15.5082C-1.74577 21.2931 0.718462 29.8361 3.945 34.5464C5.52282 36.8746 7.40202 39.4357 9.88397 39.3462C12.2418 39.2566 13.1637 37.806 16.0002 37.806C18.8545 37.806 19.6877 39.3462 22.1697 39.3104C24.7403 39.2566 26.3535 36.9821 27.9313 34.6538C29.7219 32.0032 30.4665 29.4421 30.5019 29.2988C30.4488 29.2451 25.538 27.3466 25.4848 21.6155C25.4317 16.8157 29.3673 14.5411 29.5446 14.3978C27.3286 11.0666 23.8716 10.7084 22.666 10.6189Z" fill="var(--fill-0, black)"/>
<g id="App Clip">
<path d="M36.0013 39.3485H42.7687L45.7765 30.0185H59.1611L62.1939 39.3485H68.9614L56.1282 3.25427H48.8344L36.0013 39.3485ZM52.2683 9.95784H52.6944L57.5569 25.0409H47.4057L52.2683 9.95784Z" fill="var(--fill-0, black)"/>
<path d="M74.5257 48.4283H80.7668V34.9962H81.1929C82.6216 37.9477 85.7547 39.7987 89.5144 39.7987C96.4573 39.7987 100.768 34.4209 100.768 25.7162V25.6662C100.768 17.0116 96.3821 11.5587 89.5144 11.5587C85.6795 11.5587 82.6968 13.3096 81.1929 16.2862H80.7668V12.0089H74.5257V48.4283ZM87.5594 34.5459C83.3234 34.5459 80.6916 31.1691 80.6916 25.6912V25.6412C80.6916 20.1633 83.3234 16.8115 87.5594 16.8115C91.8204 16.8115 94.402 20.1633 94.402 25.6662V25.7162C94.402 31.1941 91.8204 34.5459 87.5594 34.5459Z" fill="var(--fill-0, black)"/>
<path d="M107.06 48.4283H113.301V34.9962H113.727C115.156 37.9477 118.289 39.7987 122.048 39.7987C128.991 39.7987 133.302 34.4209 133.302 25.7162V25.6662C133.302 17.0116 128.916 11.5587 122.048 11.5587C118.214 11.5587 115.231 13.3096 113.727 16.2862H113.301V12.0089H107.06V48.4283ZM120.093 34.5459C115.857 34.5459 113.226 31.1691 113.226 25.6912V25.6412C113.226 20.1633 115.857 16.8115 120.093 16.8115C124.354 16.8115 126.936 20.1633 126.936 25.6662V25.7162C126.936 31.1941 124.354 34.5459 120.093 34.5459Z" fill="var(--fill-0, black)"/>
<path d="M159.516 40.249C167.863 40.249 173.853 35.4214 174.806 28.1925V28.0175H168.464L168.439 28.1425C167.512 32.1196 164.103 34.671 159.516 34.671C153.35 34.671 149.515 29.5433 149.515 21.3139V21.2639C149.515 13.0595 153.35 7.93176 159.491 7.93176C164.053 7.93176 167.512 10.7583 168.439 15.0355L168.464 15.1356H174.806V14.9355C173.954 7.55656 167.712 2.35379 159.491 2.35379C149.24 2.35379 142.898 9.58264 142.898 21.2889V21.3389C142.898 32.9951 149.265 40.249 159.516 40.249Z" fill="var(--fill-0, black)"/>
<path d="M181.623 39.3485H187.865V1.4283H181.623V39.3485Z" fill="var(--fill-0, black)"/>
<path d="M198.968 7.43149C200.998 7.43149 202.678 5.80563 202.678 3.75454C202.678 1.72846 200.998 0.0775775 198.968 0.0775775C196.913 0.0775775 195.234 1.72846 195.234 3.75454C195.234 5.80563 196.913 7.43149 198.968 7.43149ZM195.835 39.3485H202.076V12.0089H195.835V39.3485Z" fill="var(--fill-0, black)"/>
<path d="M209.746 48.4283H215.987V34.9962H216.413C217.842 37.9477 220.975 39.7987 224.735 39.7987C231.678 39.7987 235.989 34.4209 235.989 25.7162V25.6662C235.989 17.0116 231.602 11.5587 224.735 11.5587C220.9 11.5587 217.917 13.3096 216.413 16.2862H215.987V12.0089H209.746V48.4283ZM222.78 34.5459C218.544 34.5459 215.912 31.1691 215.912 25.6912V25.6412C215.912 20.1633 218.544 16.8115 222.78 16.8115C227.041 16.8115 229.622 20.1633 229.622 25.6662V25.7162C229.622 31.1941 227.041 34.5459 222.78 34.5459Z" fill="var(--fill-0, black)"/>
</g>
</g>
<defs>
<clipPath id="clip0_0_99">
<rect width="236" height="49" fill="white"/>
</clipPath>
</defs>
</svg>
