<svg preserveAspectRatio="xMidYMid meet" width="100%" height="100%" overflow="visible" style="display: block;" viewBox="0 0 49 20" fill="none" xmlns="http://www.w3.org/2000/svg">
<g id="apple-pay 1" clip-path="url(#clip0_0_28)">
<path id="Vector" d="M8.94022 2.56061C8.36689 3.23485 7.44958 3.76515 6.53226 3.68939C6.4176 2.7803 6.86861 1.81061 7.39607 1.2197C7.96939 0.530303 8.97079 0.0378788 9.78873 0C9.88047 0.939394 9.5059 1.87121 8.94022 2.56061ZM9.77345 3.86364C8.44334 3.78788 7.30434 4.61364 6.6775 4.61364C6.03538 4.61364 5.0722 3.90152 4.01728 3.92424C2.64895 3.94697 1.38 4.71212 0.684367 5.93182C-0.752763 8.37879 0.309796 11.9924 1.70106 13.9848C2.3814 14.9697 3.1917 16.053 4.2619 16.0152C5.27859 15.9773 5.6761 15.3636 6.89919 15.3636C8.12992 15.3636 8.4892 16.0152 9.55941 16C10.6678 15.9773 11.3635 15.0152 12.0438 14.0303C12.8159 12.9091 13.1369 11.8258 13.1522 11.7652C13.1293 11.7424 11.0118 10.9394 10.9889 8.51515C10.966 6.48485 12.663 5.52273 12.7394 5.46212C11.7839 4.05303 10.2933 3.90151 9.77345 3.86364ZM17.4483 1.12121V15.8864H19.7646V10.8409H22.9675C25.8953 10.8409 27.944 8.84848 27.944 5.9697C27.944 3.09091 25.9259 1.12121 23.044 1.12121H17.4483ZM19.7646 3.05303H22.4324C24.4429 3.05303 25.5895 4.11364 25.5895 5.97727C25.5895 7.84091 24.4429 8.91667 22.4248 8.91667H19.7646V3.05303ZM32.1636 16C33.616 16 34.9614 15.2727 35.573 14.1136H35.6188V15.8864H37.7592V8.53788C37.7592 6.40909 36.0393 5.0303 33.3943 5.0303C30.9405 5.0303 29.1212 6.42424 29.0524 8.33333H31.1393C31.3151 7.42424 32.1636 6.82576 33.3256 6.82576C34.7397 6.82576 35.5348 7.47727 35.5348 8.68182V9.5L32.6452 9.67424C29.9621 9.83333 28.5096 10.9242 28.5096 12.8182C28.5173 14.7273 30.0156 16 32.1636 16ZM32.7904 14.25C31.5597 14.25 30.7724 13.6591 30.7724 12.7652C30.7724 11.8333 31.5291 11.2955 32.9739 11.2121L35.5424 11.053V11.8864C35.5424 13.2652 34.3575 14.25 32.7904 14.25ZM40.6259 19.9015C42.8809 19.9015 43.9435 19.0455 44.8685 16.4621L48.9276 5.17424H46.5731L43.8518 13.8939H43.8059L41.0845 5.17424H38.6689L42.5828 15.9242L42.3688 16.5758C42.0171 17.6818 41.4438 18.1136 40.4195 18.1136C40.236 18.1136 39.8844 18.0909 39.7391 18.0758V19.8485C39.8767 19.8788 40.45 19.9015 40.6259 19.9015Z" fill="var(--fill-0, #A6A6A6)"/>
</g>
<defs>
<clipPath id="clip0_0_28">
<rect width="49" height="20" fill="white"/>
</clipPath>
</defs>
</svg>
