<svg preserveAspectRatio="xMidYMid meet" width="100%" height="100%" overflow="visible" style="display: block;" viewBox="0 0 32.9865 19.9722" fill="none" xmlns="http://www.w3.org/2000/svg">
<g id="Group">
<path id="Vector" d="M9.29436 7.22222C9.29436 7.63889 9.34918 7.97222 9.40399 8.22222C9.48622 8.47222 9.59585 8.72222 9.76031 9.02778C9.81512 9.11111 9.84253 9.19444 9.84253 9.27778C9.84253 9.38889 9.78772 9.5 9.62326 9.61111L8.93805 10.0833C8.82841 10.1389 8.74619 10.1944 8.66396 10.1944C8.55433 10.1944 8.44469 10.1389 8.33506 10.0278C8.17061 9.86111 8.06097 9.69444 7.95134 9.5C7.8417 9.30556 7.73207 9.11111 7.62243 8.83333C6.77277 9.86111 5.70383 10.3611 4.38821 10.3611C3.45632 10.3611 2.7437 10.0833 2.19552 9.55556C1.64735 9.02778 1.37326 8.30555 1.37326 7.41667C1.37326 6.47222 1.70217 5.69444 2.35998 5.13889C3.01778 4.58333 3.92227 4.27778 5.04602 4.27778C5.42974 4.27778 5.81346 4.30556 6.19718 4.36111C6.60831 4.41667 7.01944 4.5 7.45798 4.61111V3.80556C7.45798 2.97222 7.29353 2.36111 6.93722 2.02778C6.58091 1.69444 6.00532 1.52778 5.15566 1.52778C4.77194 1.52778 4.38821 1.58333 3.97708 1.66667C3.56596 1.77778 3.18223 1.88889 2.79851 2.05556C2.63406 2.11111 2.49702 2.16667 2.41479 2.19444C2.33257 2.19444 2.27775 2.22222 2.25034 2.22222C2.08589 2.22222 2.03107 2.11111 2.03107 1.88889V1.33333C2.03107 1.16667 2.05848 1.02778 2.1133 0.944444C2.16811 0.861111 2.27775 0.777778 2.41479 0.722222C2.79851 0.527778 3.26446 0.361111 3.78522 0.222222C4.3334 0.0833333 4.88157 2.06961e-10 5.48456 2.06961e-10C6.80017 2.06961e-10 7.73207 0.305556 8.36247 0.888889C8.96546 1.5 9.26695 2.38889 9.26695 3.63889L9.29436 7.22222ZM4.85416 8.91667C5.21047 8.91667 5.59419 8.86111 5.97792 8.72222C6.36164 8.58333 6.71795 8.33333 7.01944 8C7.1839 7.77778 7.32094 7.55555 7.40316 7.27778C7.45798 7 7.5128 6.69444 7.5128 6.30555V5.83333C7.1839 5.75 6.85499 5.69444 6.49868 5.63889C6.14237 5.58333 5.81346 5.58333 5.45715 5.58333C4.71712 5.58333 4.19635 5.72222 3.81263 6.02778C3.45632 6.33333 3.26446 6.75 3.26446 7.30555C3.26446 7.83333 3.4015 8.22222 3.67559 8.47222C3.94968 8.80556 4.3334 8.91667 4.85416 8.91667ZM13.6523 10.1389C13.4605 10.1389 13.3234 10.1111 13.2412 10.0278C13.159 9.97222 13.0768 9.80555 13.0219 9.58333L10.4455 0.972222C10.3907 0.75 10.3359 0.611111 10.3359 0.527778C10.3359 0.361111 10.4181 0.25 10.61 0.25H11.6789C11.8982 0.25 12.0352 0.277778 12.1174 0.361111C12.1997 0.416667 12.2819 0.583333 12.3367 0.805556L14.1731 8.16667L15.8724 0.805556C15.9273 0.583333 15.9821 0.444444 16.0917 0.361111C16.1739 0.305556 16.3384 0.25 16.5302 0.25H17.4073C17.6266 0.25 17.7636 0.277778 17.8459 0.361111C17.9281 0.416667 18.0103 0.583333 18.0651 0.805556L19.7919 8.25L21.6831 0.805556C21.7379 0.583333 21.8201 0.444444 21.9023 0.361111C21.9846 0.305556 22.1216 0.25 22.3409 0.25H23.355C23.5194 0.25 23.6291 0.333333 23.6291 0.527778C23.6291 0.583333 23.6291 0.638889 23.6017 0.694444C23.6017 0.75 23.5743 0.861111 23.5194 0.972222L20.8608 9.58333C20.806 9.80555 20.7238 9.94444 20.6415 10.0278C20.5593 10.0833 20.4223 10.1389 20.2304 10.1389H19.2985C19.0792 10.1389 18.9422 10.1111 18.86 10.0278C18.7777 9.94444 18.6955 9.80555 18.6407 9.58333L16.9414 2.41667L15.242 9.58333C15.1872 9.80555 15.1324 9.94444 15.0228 10.0278C14.9405 10.1111 14.7761 10.1389 14.5842 10.1389H13.6523ZM27.7678 10.4167C27.1922 10.4167 26.6166 10.3611 26.0684 10.2222C25.5203 10.0833 25.0817 9.94444 24.8076 9.77778C24.6432 9.66667 24.5062 9.55556 24.4787 9.47222C24.4513 9.38889 24.3965 9.25 24.3965 9.16667V8.61111C24.3965 8.38889 24.4787 8.27778 24.6432 8.27778C24.698 8.27778 24.7802 8.27778 24.8351 8.30555C24.8899 8.33333 24.9995 8.36111 25.1091 8.41667C25.4929 8.58333 25.8766 8.72222 26.3151 8.80555C26.7537 8.88889 27.1922 8.94444 27.6307 8.94444C28.316 8.94444 28.8641 8.83333 29.2204 8.58333C29.6042 8.33333 29.796 7.97222 29.796 7.52778C29.796 7.22222 29.6864 6.97222 29.4945 6.75C29.3027 6.52778 28.9189 6.36111 28.3982 6.16667L26.8085 5.66667C26.0136 5.41667 25.4106 5.02778 25.0543 4.52778C24.698 4.02778 24.5062 3.5 24.5062 2.91667C24.5062 2.44444 24.6158 2.02778 24.8076 1.69444C24.9995 1.36111 25.2736 1.02778 25.6025 0.777778C25.9314 0.527778 26.3151 0.333333 26.7537 0.194444C27.1922 0.0555555 27.6581 2.06961e-10 28.1241 2.06961e-10C28.3708 2.06961e-10 28.6174 4.34617e-09 28.8641 0.0555556C29.1108 0.0833333 29.3575 0.138889 29.5768 0.166667C29.796 0.222222 30.0153 0.277778 30.2071 0.333333C30.399 0.388889 30.5635 0.472222 30.6731 0.527778C30.8375 0.611111 30.9472 0.694444 31.002 0.805556C31.0568 0.888889 31.1116 1.02778 31.1116 1.16667V1.69444C31.1116 1.91667 31.0294 2.05556 30.865 2.05556C30.7827 2.05556 30.6457 2 30.4538 1.91667C29.8234 1.63889 29.1382 1.47222 28.3434 1.47222C27.713 1.47222 27.2196 1.58333 26.8907 1.77778C26.5618 1.97222 26.3699 2.30556 26.3699 2.77778C26.3699 3.08333 26.4796 3.36111 26.6988 3.55556C26.9181 3.77778 27.3292 3.97222 27.9048 4.16667L29.4671 4.66667C30.262 4.91667 30.8375 5.27778 31.1665 5.72222C31.4954 6.16667 31.6598 6.69444 31.6598 7.27778C31.6598 7.75 31.5502 8.19444 31.3857 8.55555C31.1939 8.94444 30.9198 9.27778 30.5909 9.52778C30.262 9.80556 29.8508 10 29.3849 10.1389C28.8367 10.3611 28.316 10.4167 27.7678 10.4167Z" fill="#A6A6A6"/>
<g id="Group_2">
<path id="Vector_2" d="M29.8508 15.8333C26.2329 18.5278 20.9704 19.9722 16.4754 19.9722C10.144 19.9722 4.44303 17.6111 0.139876 13.6667C-0.189028 13.3611 0.112467 12.9444 0.523597 13.1667C5.18306 15.9167 10.9115 17.5556 16.8591 17.5556C20.8608 17.5556 25.2736 16.7222 29.3301 14.9722C29.9057 14.7222 30.4264 15.3889 29.8508 15.8333Z" fill="#A6A6A6"/>
<path id="Vector_3" d="M31.3309 14.1111C30.865 13.5 28.2885 13.8333 27.11 13.9722C26.7537 14.0278 26.6988 13.6944 27.0277 13.4722C29.0834 12 32.4821 12.4167 32.8658 12.9167C33.2495 13.4167 32.7562 16.8611 30.8376 18.5C30.5361 18.75 30.262 18.6111 30.399 18.2778C30.8376 17.1667 31.7969 14.6944 31.3309 14.1111Z" fill="#A6A6A6"/>
</g>
</g>
</svg>
