<svg preserveAspectRatio="xMidYMid meet" width="100%" height="100%" overflow="visible" style="display: block;" viewBox="0 0 153.15 123.615" fill="none" xmlns="http://www.w3.org/2000/svg">
<g id="footer-logo">
<path id="Fill-1" fill-rule="evenodd" clip-rule="evenodd" d="M94.1392 46.5514C94.1392 20.8512 73.0773 0 47.0884 0C21.0995 0 0 20.8512 0 46.5514V93.1028H47.0508C73.0773 93.1028 94.1392 72.2517 94.1392 46.5514ZM67.2477 39.3524C70.4446 39.3524 73.0773 41.9261 73.0773 45.0967C73.0773 48.2673 70.4822 50.841 67.2477 50.841C64.0132 50.841 61.418 48.2673 61.418 45.0967C61.418 41.9261 64.0132 39.3524 67.2477 39.3524ZM67.2477 54.7576C70.4446 54.7576 73.0773 57.3313 73.0773 60.5019C73.0773 63.6725 70.4822 66.2462 67.2477 66.2462C64.0132 66.2462 61.418 63.6725 61.418 60.5019C61.418 57.3313 64.0132 54.7576 67.2477 54.7576ZM22.4535 52.7433V27.4161H32.6836V52.7433C32.6836 56.6599 35.8805 59.8305 39.8672 59.8305C43.8163 59.8305 47.0508 56.6599 47.0508 52.7433C47.0508 48.8268 43.8539 45.6562 39.8672 45.6562H36.7831V35.5104H39.8672C49.4955 35.5104 57.2809 43.2316 57.2809 52.7433C57.2809 62.2551 49.4955 69.9763 39.8672 69.9763C30.2765 69.9763 22.4535 62.2551 22.4535 52.7433Z" fill="#A6A6A6"/>
<path id="Fill-3" fill-rule="evenodd" clip-rule="evenodd" d="M94.1392 119.288L90.9423 110.149H87.2189L92.2211 123.242H96.095L101.097 110.149H97.3737L94.1392 119.288Z" fill="#A6A6A6"/>
<g id="Group-7">
<path id="Fill-5" fill-rule="evenodd" clip-rule="evenodd" d="M108.055 109.766C106.099 109.766 104.445 110.437 103.128 111.78C101.774 113.123 101.097 114.764 101.097 116.704C101.097 118.643 101.774 120.285 103.128 121.59C104.482 122.933 106.137 123.604 108.055 123.604C109.973 123.604 111.666 122.933 113.02 121.59C114.374 120.247 115.051 118.606 115.051 116.704C115.051 114.801 114.374 113.123 113.02 111.78C111.666 110.437 110.011 109.766 108.055 109.766ZM110.613 119.278C109.936 119.949 109.071 120.285 108.055 120.285C107.04 120.285 106.175 119.949 105.498 119.278C104.821 118.606 104.482 117.748 104.482 116.704C104.482 115.659 104.821 114.801 105.498 114.13C106.175 113.459 107.04 113.123 108.055 113.123C109.071 113.123 109.936 113.459 110.613 114.13C111.29 114.801 111.628 115.659 111.628 116.704C111.666 117.748 111.327 118.606 110.613 119.278Z" fill="#A6A6A6"/>
</g>
<path id="Fill-8" fill-rule="evenodd" clip-rule="evenodd" d="M116.856 123.242H120.279V110.149H116.856V123.242Z" fill="#A6A6A6"/>
<path id="Fill-10" fill-rule="evenodd" clip-rule="evenodd" d="M131.186 119.773C130.659 120.071 130.02 120.221 129.343 120.221C128.327 120.221 127.462 119.885 126.823 119.213C126.146 118.542 125.807 117.684 125.807 116.677C125.807 115.633 126.146 114.775 126.823 114.103C127.5 113.432 128.327 113.096 129.343 113.096C130.02 113.096 130.621 113.245 131.148 113.581C131.675 113.879 132.088 114.327 132.352 114.849L135.285 113.133C134.721 112.089 133.931 111.268 132.878 110.672C131.825 110.075 130.659 109.739 129.38 109.739C127.387 109.739 125.732 110.41 124.416 111.716C123.099 113.059 122.422 114.663 122.422 116.64C122.422 118.579 123.099 120.221 124.416 121.563C125.732 122.906 127.387 123.54 129.38 123.54C130.659 123.54 131.825 123.242 132.878 122.608C133.931 121.974 134.759 121.153 135.323 120.146L132.352 118.467C132.126 119.064 131.712 119.474 131.186 119.773Z" fill="#A6A6A6"/>
<path id="Fill-11" fill-rule="evenodd" clip-rule="evenodd" d="M143.484 109.776C141.453 109.776 139.761 110.448 138.482 111.753C137.166 113.059 136.526 114.7 136.526 116.677C136.526 118.654 137.203 120.332 138.52 121.638C139.836 122.943 141.604 123.615 143.785 123.615C146.305 123.615 148.223 122.682 149.54 120.817L146.794 119.251C146.117 120.109 145.139 120.556 143.823 120.556C141.792 120.556 140.551 119.736 140.099 118.094H150.029C150.104 117.609 150.179 117.162 150.179 116.714C150.179 114.775 149.54 113.133 148.298 111.791C147.02 110.448 145.44 109.776 143.484 109.776ZM140.024 115.446C140.212 114.625 140.626 113.954 141.228 113.506C141.829 113.059 142.582 112.798 143.484 112.798C144.274 112.798 144.951 113.021 145.553 113.469C146.155 113.917 146.568 114.551 146.756 115.446H140.024Z" fill="#A6A6A6"/>
<path id="Fill-12" fill-rule="evenodd" clip-rule="evenodd" d="M7.67256 109.739C5.82964 109.739 4.40044 110.373 3.38495 111.641V104.853H4.9226e-08V123.205H3.38495V121.675C4.40044 122.943 5.82964 123.578 7.67256 123.578C9.44025 123.578 10.9823 122.906 12.2234 121.563C13.4646 120.221 14.104 118.579 14.104 116.677C14.104 114.737 13.4646 113.096 12.2234 111.753C10.9823 110.41 9.44025 109.739 7.67256 109.739ZM9.66591 119.288C8.98892 119.959 8.08627 120.332 7.03317 120.332C5.98008 120.332 5.11504 119.997 4.43805 119.288C3.76106 118.617 3.42256 117.721 3.42256 116.64C3.42256 115.558 3.76106 114.663 4.43805 113.991C5.11504 113.32 5.98008 112.947 7.03317 112.947C8.08627 112.947 8.95131 113.283 9.66591 113.991C10.3429 114.663 10.719 115.558 10.719 116.64C10.719 117.721 10.3805 118.617 9.66591 119.288Z" fill="#A6A6A6"/>
<path id="Fill-13" fill-rule="evenodd" clip-rule="evenodd" d="M26.9668 111.641C25.9513 110.373 24.5221 109.739 22.6792 109.739C20.9115 109.739 19.4071 110.41 18.1659 111.753C16.9248 113.096 16.2854 114.737 16.2854 116.677C16.2854 118.617 16.9248 120.258 18.1659 121.563C19.4071 122.906 20.9491 123.578 22.6792 123.578C24.5221 123.578 25.9513 122.943 26.9668 121.675V123.205H30.3517V110.112H26.9668V111.641ZM25.9137 119.288C25.2367 119.959 24.334 120.332 23.2809 120.332C22.2278 120.332 21.3628 119.997 20.6858 119.288C20.0088 118.617 19.6703 117.721 19.6703 116.64C19.6703 115.558 20.0088 114.663 20.6858 113.991C21.3628 113.32 22.2278 112.947 23.2809 112.947C24.334 112.947 25.1991 113.283 25.9137 113.991C26.5907 114.663 26.9668 115.558 26.9668 116.64C26.9668 117.721 26.6283 118.617 25.9137 119.288Z" fill="#A6A6A6"/>
<path id="Fill-14" fill-rule="evenodd" clip-rule="evenodd" d="M42.9889 112.35V110.112H33.0973V113.283H38.4004L32.834 120.929V123.205H43.2521V120.034H37.3849L42.9889 112.35Z" fill="#A6A6A6"/>
<path id="Fill-15" fill-rule="evenodd" clip-rule="evenodd" d="M55.4756 111.641C54.4601 110.373 53.0309 109.739 51.188 109.739C49.4203 109.739 47.9159 110.41 46.6747 111.753C45.4336 113.096 44.7942 114.737 44.7942 116.677C44.7942 118.617 45.4336 120.258 46.6747 121.563C47.9159 122.906 49.4579 123.578 51.188 123.578C53.0309 123.578 54.4601 122.943 55.4756 121.675V123.205H58.8605V110.112H55.4756V111.641ZM54.4225 119.288C53.7455 119.959 52.8428 120.332 51.7897 120.332C50.7366 120.332 49.8716 119.997 49.1946 119.288C48.5176 118.617 48.1791 117.721 48.1791 116.64C48.1791 115.558 48.5176 114.663 49.1946 113.991C49.8716 113.32 50.7366 112.947 51.7897 112.947C52.8428 112.947 53.7079 113.283 54.4225 113.991C55.0995 114.663 55.4756 115.558 55.4756 116.64C55.4756 117.721 55.0995 118.617 54.4225 119.288Z" fill="#A6A6A6"/>
<path id="Fill-16" fill-rule="evenodd" clip-rule="evenodd" d="M71.7986 111.641C70.7831 110.373 69.3539 109.739 67.511 109.739C65.7433 109.739 64.2388 110.41 62.9977 111.753C61.7565 113.096 61.1172 114.737 61.1172 116.677C61.1172 118.617 61.7565 120.258 62.9977 121.563C64.2388 122.906 65.7809 123.578 67.511 123.578C69.3539 123.578 70.7831 122.943 71.7986 121.675V123.205H75.1835V110.112H71.7986V111.641ZM70.7455 119.288C70.0685 119.959 69.1658 120.332 68.1127 120.332C67.0596 120.332 66.1946 119.997 65.5176 119.288C64.8406 118.617 64.5021 117.721 64.5021 116.64C64.5021 115.558 64.8406 114.663 65.5176 113.991C66.1946 113.32 67.0596 112.947 68.1127 112.947C69.1658 112.947 70.0309 113.283 70.7455 113.991C71.4225 114.663 71.7986 115.558 71.7986 116.64C71.7986 117.721 71.4601 118.617 70.7455 119.288Z" fill="#A6A6A6"/>
<path id="Fill-17" fill-rule="evenodd" clip-rule="evenodd" d="M81.314 112.35V110.112H77.9291V123.205H81.314V116.938C81.314 115.67 81.7277 114.775 82.5552 114.252C83.3826 113.693 84.2853 113.506 85.3384 113.618V109.851C84.4357 109.851 83.6459 110.075 82.8937 110.485C82.1415 110.895 81.6149 111.529 81.314 112.35Z" fill="#A6A6A6"/>
<path id="Fill-18" fill-rule="evenodd" clip-rule="evenodd" d="M149.84 109.814C149.84 108.881 150.555 108.172 151.495 108.172C152.436 108.172 153.15 108.881 153.15 109.814C153.15 110.746 152.436 111.455 151.495 111.455C150.555 111.455 149.84 110.709 149.84 109.814ZM152.849 109.814C152.849 109.03 152.248 108.471 151.495 108.471C150.743 108.471 150.141 109.03 150.141 109.814C150.141 110.597 150.706 111.156 151.495 111.156C152.248 111.156 152.849 110.56 152.849 109.814ZM151.27 110.112V110.783H150.818V108.881H151.608C151.984 108.881 152.248 109.105 152.248 109.478C152.248 109.739 152.097 109.926 151.871 110.037L152.323 110.783H151.759L151.42 110.112H151.27ZM151.458 109.739C151.646 109.739 151.796 109.702 151.796 109.441C151.796 109.291 151.646 109.179 151.458 109.179H151.232V109.702H151.458V109.739Z" fill="#A6A6A6"/>
</g>
</svg>
