<svg preserveAspectRatio="xMidYMid meet" width="100%" height="100%" overflow="visible" style="display: block;" viewBox="0 0 240.006 47.0198" fill="none" xmlns="http://www.w3.org/2000/svg">
<g id="Layer 1">
<path id="Vector" d="M77.059 14.7701C78.3176 14.7726 79.5589 15.0672 80.6873 15.6314C81.8157 16.1956 82.8011 17.0142 83.5678 18.0242C83.5949 18.0608 83.6293 18.0914 83.6686 18.114C83.7079 18.1367 83.7514 18.151 83.7963 18.156C83.8413 18.161 83.8868 18.1566 83.9301 18.1432C83.9733 18.1297 84.0134 18.1074 84.0478 18.0776L86.7886 15.8677C86.8236 15.8394 86.8528 15.8044 86.8744 15.7646C86.8961 15.7248 86.9097 15.6811 86.9146 15.636C86.9195 15.5909 86.9156 15.5452 86.903 15.5016C86.8905 15.4581 86.8695 15.4174 86.8414 15.3821C85.6748 13.8502 84.1761 12.61 82.4609 11.757C80.7457 10.9039 78.8598 10.4609 76.9486 10.462C69.7918 10.462 63.9886 16.7031 63.9886 24.377C63.9886 32.0509 69.811 38.2919 76.9486 38.2919C78.8595 38.2984 80.7461 37.8582 82.4612 37.0057C84.1764 36.1531 85.6737 34.9112 86.8366 33.3768C86.8657 33.3417 86.8874 33.3009 86.9004 33.2569C86.9133 33.213 86.9172 33.1668 86.9118 33.1213C86.9064 33.0758 86.8918 33.0319 86.869 32.9923C86.8461 32.9527 86.8155 32.9182 86.779 32.8911L84.043 30.7055C84.008 30.677 83.9679 30.6558 83.9248 30.6431C83.8817 30.6304 83.8366 30.6264 83.792 30.6313C83.7474 30.6363 83.7042 30.6501 83.6649 30.672C83.6256 30.6939 83.591 30.7235 83.563 30.7589C82.7924 31.7624 81.8065 32.5755 80.6797 33.1367C79.553 33.6979 78.3148 33.9926 77.059 33.9985C72.1678 33.9985 68.3422 29.773 68.3422 24.3867C68.3422 19.0004 72.1678 14.7701 77.059 14.7701Z" fill="var(--fill-0, #3448C5)"/>
<path id="Vector_2" d="M90.3742 9.67036H93.811C93.9013 9.67036 93.988 9.7067 94.0519 9.77137C94.1159 9.83603 94.1518 9.92375 94.1518 10.0152V37.5925C94.1518 37.6827 94.1164 37.7692 94.0534 37.833C93.9903 37.8967 93.9049 37.9325 93.8158 37.9325H90.379C90.2886 37.9325 90.2019 37.8962 90.138 37.8315C90.0741 37.7669 90.0382 37.6791 90.0382 37.5877V10.0152C90.0375 9.97015 90.0458 9.92542 90.0624 9.88361C90.079 9.8418 90.1036 9.80374 90.1349 9.77165C90.1661 9.73957 90.2034 9.71409 90.2445 9.6967C90.2855 9.67931 90.3296 9.67036 90.3742 9.67036Z" fill="var(--fill-0, #3448C5)"/>
<path id="Vector_3" d="M105.864 19.2093C101.309 19.2093 96.7006 22.4731 96.7006 28.7142C96.7006 34.1976 100.641 38.3357 105.864 38.3357C111.086 38.3357 115.065 34.1976 115.065 28.7142C115.065 23.2308 111.11 19.2093 105.864 19.2093ZM110.918 28.7142C110.918 31.8809 108.744 34.2704 105.864 34.2704C102.984 34.2704 100.853 31.8809 100.853 28.7142C100.853 25.5475 103.008 23.2745 105.864 23.2745C108.72 23.2745 110.918 25.6106 110.918 28.7142Z" fill="var(--fill-0, #3448C5)"/>
<path id="Vector_4" d="M133.589 19.6075H130.152C130.107 19.6069 130.063 19.6152 130.022 19.632C129.98 19.6488 129.943 19.6737 129.911 19.7054C129.879 19.737 129.854 19.7747 129.837 19.8163C129.82 19.8578 129.811 19.9025 129.811 19.9475V29.1756C129.811 32.7794 127.353 34.0567 125.246 34.0567C123.384 34.0567 121.507 32.6337 121.507 29.4524V19.9475C121.507 19.9025 121.498 19.8578 121.481 19.8163C121.464 19.7747 121.439 19.737 121.407 19.7054C121.375 19.6737 121.338 19.6488 121.296 19.632C121.255 19.6152 121.211 19.6069 121.166 19.6075H117.729C117.64 19.6075 117.555 19.6434 117.492 19.7071C117.429 19.7709 117.393 19.8573 117.393 19.9475V29.9041C117.393 35.3681 119.837 38.3745 124.277 38.3745C125.889 38.3745 128.501 37.4371 129.48 35.3681L129.811 35.4361V37.5926C129.811 37.684 129.847 37.7717 129.911 37.8364C129.975 37.9011 130.061 37.9374 130.152 37.9374H133.589C133.679 37.9374 133.766 37.9011 133.83 37.8364C133.893 37.7717 133.929 37.684 133.929 37.5926V19.9475C133.929 19.9025 133.921 19.8578 133.903 19.8163C133.886 19.7747 133.861 19.737 133.829 19.7054C133.798 19.6737 133.76 19.6488 133.719 19.632C133.677 19.6152 133.633 19.6069 133.589 19.6075Z" fill="var(--fill-0, #3448C5)"/>
<path id="Vector_5" d="M154.694 9.67036H151.253C151.208 9.67036 151.164 9.67931 151.123 9.6967C151.082 9.71409 151.045 9.73957 151.013 9.77165C150.982 9.80374 150.957 9.8418 150.941 9.88361C150.924 9.92542 150.916 9.97015 150.917 10.0152V22.342L150.705 22.002C149.659 20.2972 147.408 19.1947 144.969 19.1947C140.765 19.1947 136.512 22.4731 136.512 28.7385C136.512 34.2025 140.165 38.3211 145.003 38.3211C146.846 38.3211 149.443 37.5731 150.705 35.475L150.917 35.1253V37.5926C150.916 37.6376 150.924 37.6823 150.941 37.7242C150.957 37.766 150.982 37.804 151.013 37.8361C151.045 37.8682 151.082 37.8937 151.123 37.9111C151.164 37.9284 151.208 37.9374 151.253 37.9374H154.694C154.739 37.9374 154.783 37.9284 154.824 37.9111C154.865 37.8937 154.902 37.8682 154.933 37.8361C154.965 37.804 154.989 37.766 155.006 37.7242C155.023 37.6823 155.031 37.6376 155.03 37.5926V10.0152C155.031 9.97015 155.023 9.92542 155.006 9.88361C154.989 9.8418 154.965 9.80374 154.933 9.77165C154.902 9.73957 154.865 9.71409 154.824 9.6967C154.783 9.67931 154.739 9.67036 154.694 9.67036ZM150.854 28.7142C150.877 29.4202 150.762 30.1239 150.514 30.7845C150.267 31.445 149.892 32.0494 149.412 32.5625C148.932 33.0756 148.357 33.4873 147.718 33.7738C147.08 34.0603 146.392 34.2159 145.694 34.2316C142.881 34.2316 140.678 31.8032 140.678 28.7142C140.678 25.6252 142.881 23.2745 145.694 23.2745C147.088 23.3101 148.411 23.9021 149.375 24.9212C150.339 25.9403 150.866 27.3038 150.84 28.7142H150.854Z" fill="var(--fill-0, #3448C5)"/>
<path id="Vector_6" d="M159.845 19.6075H163.281C163.37 19.6075 163.456 19.6434 163.519 19.7071C163.582 19.7709 163.617 19.8573 163.617 19.9475V37.5926C163.617 37.6827 163.582 37.7692 163.519 37.833C163.456 37.8967 163.37 37.9325 163.281 37.9325H159.845C159.754 37.9325 159.668 37.8962 159.604 37.8315C159.54 37.7669 159.504 37.6792 159.504 37.5877V19.9475C159.505 19.8569 159.542 19.7704 159.605 19.7068C159.669 19.6432 159.755 19.6075 159.845 19.6075Z" fill="var(--fill-0, #3448C5)"/>
<path id="Vector_7" d="M161.577 10.2289C161.221 10.2211 160.868 10.2854 160.537 10.4179C160.205 10.5503 159.904 10.7484 159.649 11.0004C159.395 11.2523 159.193 11.5532 159.055 11.8853C158.917 12.2174 158.846 12.574 158.846 12.9342C158.854 13.6599 159.146 14.3528 159.658 14.8609C160.17 15.369 160.86 15.6508 161.577 15.6443C161.931 15.6489 162.282 15.582 162.61 15.4475C162.938 15.3131 163.236 15.1139 163.486 14.8615C163.737 14.6092 163.936 14.3087 164.07 13.9778C164.205 13.6468 164.273 13.292 164.27 12.9342C164.276 12.5756 164.21 12.2196 164.077 11.8873C163.943 11.5551 163.745 11.2536 163.493 11.001C163.242 10.7483 162.943 10.5497 162.613 10.417C162.284 10.2843 161.932 10.2203 161.577 10.2289Z" fill="var(--fill-0, #3448C5)"/>
<path id="Vector_8" d="M177.773 19.2093C176.265 19.2093 173.587 20.0301 172.565 22.2157L172.233 22.1477V19.9475C172.233 19.9025 172.225 19.8578 172.207 19.8163C172.19 19.7747 172.165 19.737 172.133 19.7054C172.102 19.6737 172.064 19.6488 172.023 19.632C171.981 19.6152 171.937 19.6069 171.893 19.6075H168.456C168.367 19.6075 168.281 19.6434 168.218 19.7071C168.155 19.7709 168.12 19.8573 168.12 19.9475V37.5926C168.119 37.6376 168.127 37.6823 168.144 37.7241C168.161 37.766 168.185 37.804 168.216 37.8361C168.248 37.8682 168.285 37.8937 168.326 37.9111C168.367 37.9284 168.411 37.9374 168.456 37.9374H171.893C171.983 37.9374 172.07 37.9011 172.134 37.8364C172.197 37.7717 172.233 37.684 172.233 37.5926V28.3645C172.233 24.7898 174.691 23.5076 176.798 23.5076C178.661 23.5076 180.537 24.921 180.537 28.0731V37.5926C180.537 37.684 180.573 37.7717 180.637 37.8364C180.701 37.9011 180.788 37.9374 180.878 37.9374H184.325C184.415 37.9374 184.502 37.9011 184.566 37.8364C184.629 37.7717 184.665 37.684 184.665 37.5926V27.6408C184.656 22.206 182.208 19.2093 177.773 19.2093Z" fill="var(--fill-0, #3448C5)"/>
<path id="Vector_9" d="M205.195 19.6075H201.758C201.714 19.6069 201.669 19.6152 201.628 19.632C201.587 19.6488 201.549 19.6737 201.517 19.7054C201.486 19.737 201.461 19.7747 201.443 19.8163C201.426 19.8578 201.417 19.9025 201.417 19.9475V22.376L201.211 22.036C200.16 20.3312 197.909 19.2287 195.451 19.2287C191.251 19.2287 186.993 22.5071 186.993 28.7725C186.993 34.2365 190.646 38.3551 195.489 38.3551C197.328 38.3551 199.925 37.6071 201.192 35.509L201.398 35.1593V37.5926C201.398 37.684 201.434 37.7717 201.498 37.8364C201.562 37.9011 201.649 37.9374 201.739 37.9374H205.176C205.22 37.9374 205.264 37.9284 205.305 37.9111C205.347 37.8937 205.384 37.8682 205.415 37.8361C205.446 37.804 205.471 37.766 205.488 37.7242C205.504 37.6823 205.512 37.6376 205.512 37.5926V19.9475C205.512 19.8606 205.479 19.777 205.42 19.7137C205.361 19.6505 205.281 19.6125 205.195 19.6075ZM201.355 28.7142C201.378 29.4214 201.262 30.1263 201.014 30.7878C200.765 31.4493 200.389 32.0543 199.908 32.5676C199.426 33.0809 198.849 33.4923 198.209 33.778C197.569 34.0636 196.88 34.2178 196.181 34.2316C193.368 34.2316 191.169 31.8032 191.169 28.7142C191.169 25.6252 193.368 23.2745 196.181 23.2745C197.578 23.3051 198.906 23.8948 199.874 24.9145C200.842 25.9341 201.371 27.3005 201.345 28.7142H201.355Z" fill="var(--fill-0, #3448C5)"/>
<path id="Vector_10" d="M220.877 19.6707C220.093 19.3493 219.255 19.1844 218.409 19.185C216.125 19.185 214.464 20.5692 213.609 23.1919L213.302 23.1482V19.9475C213.302 19.9025 213.293 19.8578 213.276 19.8163C213.259 19.7747 213.234 19.737 213.202 19.7054C213.17 19.6737 213.133 19.6488 213.091 19.632C213.05 19.6152 213.006 19.6069 212.961 19.6075H209.525C209.48 19.6069 209.436 19.6152 209.395 19.632C209.353 19.6488 209.316 19.6737 209.284 19.7054C209.252 19.737 209.227 19.7747 209.21 19.8163C209.193 19.8578 209.184 19.9025 209.184 19.9475V37.5926C209.184 37.684 209.22 37.7717 209.284 37.8364C209.348 37.9011 209.434 37.9374 209.525 37.9374H213C213.044 37.9374 213.088 37.9284 213.129 37.9111C213.171 37.8937 213.208 37.8682 213.239 37.8361C213.27 37.804 213.295 37.766 213.312 37.7242C213.328 37.6823 213.336 37.6376 213.336 37.5926V31.57C213.336 24.3818 216.173 23.3133 217.867 23.3133C218.582 23.3152 219.289 23.4639 219.945 23.7505C219.991 23.7721 220.041 23.7834 220.092 23.7834C220.142 23.7834 220.192 23.7721 220.238 23.7505C220.282 23.727 220.321 23.6939 220.351 23.6536C220.38 23.6133 220.401 23.5667 220.411 23.5173L221.093 20.0641C221.109 19.9832 221.096 19.899 221.057 19.8268C221.017 19.7546 220.953 19.6992 220.877 19.6707Z" fill="var(--fill-0, #3448C5)"/>
<path id="Vector_11" d="M239.947 19.7581C239.916 19.7108 239.874 19.6723 239.825 19.6459C239.775 19.6196 239.72 19.6064 239.664 19.6075H235.963C235.895 19.6083 235.828 19.6294 235.772 19.6683C235.715 19.7072 235.672 19.7621 235.646 19.8261L231.168 31.57L226.646 19.8261C226.621 19.7621 226.577 19.7072 226.52 19.6683C226.464 19.6294 226.398 19.6083 226.329 19.6075H222.557C222.501 19.6072 222.447 19.6208 222.398 19.6471C222.35 19.6734 222.309 19.7115 222.278 19.7581C222.247 19.8045 222.227 19.8581 222.221 19.9141C222.216 19.97 222.224 20.0266 222.245 20.0787L228.965 36.7766L225.254 46.5341C225.231 46.587 225.221 46.6451 225.226 46.7029C225.23 46.7608 225.249 46.8165 225.281 46.8649C225.312 46.9133 225.356 46.9529 225.406 46.98C225.457 47.0071 225.514 47.0207 225.571 47.0197H229.171C229.239 47.0201 229.305 46.9993 229.361 46.9602C229.417 46.9211 229.459 46.8656 229.483 46.8012L239.976 20.0884C240 20.0355 240.01 19.9773 240.005 19.9194C239.999 19.8615 239.98 19.8059 239.947 19.7581Z" fill="var(--fill-0, #3448C5)"/>
<path id="Vector_12" d="M47.0012 13.653C45.7594 9.71277 43.3182 6.27064 40.0268 3.8186C36.7353 1.36655 32.762 0.0301201 28.6748 0.000316461C25.2192 -0.0197337 21.8235 0.913311 18.8526 2.6992C15.8816 4.48509 13.4478 7.05632 11.8124 10.1366C8.80689 10.6816 6.05168 12.183 3.94782 14.4222C1.84396 16.6613 0.501259 19.5215 0.115147 22.5863C-0.270965 25.6511 0.319664 28.7606 1.80107 31.4622C3.28247 34.1639 5.57733 36.3166 8.35163 37.6071L8.71163 37.7722H8.73563V33.6439C6.83246 32.4618 5.34254 30.7068 4.47469 28.6248C3.60684 26.5428 3.40458 24.2382 3.89624 22.034C4.3879 19.8299 5.54885 17.8366 7.21636 16.3337C8.88387 14.8307 10.9744 13.8934 13.1948 13.653L14.2028 13.5461L14.6444 12.6282C15.8983 9.93946 17.8847 7.6688 20.3701 6.08313C22.8555 4.49746 25.7367 3.6627 28.6748 3.67697C32.1758 3.70197 35.5681 4.91063 38.3121 7.11076C41.0562 9.31089 42.9945 12.3762 43.8188 15.8192L44.1644 17.2082H45.6044C47.9258 17.2564 50.1366 18.2212 51.7644 19.8964C53.3923 21.5717 54.3082 23.8247 54.3164 26.174C54.3164 29.5981 52.3628 32.4005 49.0364 33.8188V37.7334L49.2764 37.6557C54.6236 35.8829 57.9452 31.4826 57.9452 26.174C57.9232 23.1015 56.8029 20.1409 54.7911 17.8393C52.7794 15.5377 50.0123 14.0506 47.0012 13.653Z" fill="var(--fill-0, #3448C5)"/>
<path id="Vector_13" d="M21.6382 37.2963L22.435 38.1025C22.4565 38.1249 22.4711 38.1532 22.4769 38.1839C22.4828 38.2145 22.4797 38.2463 22.4679 38.2752C22.4562 38.3041 22.4364 38.3289 22.4109 38.3465C22.3854 38.3642 22.3554 38.3739 22.3246 38.3745H16.0366C15.2727 38.3745 14.5402 38.0675 14.0001 37.521C13.46 36.9745 13.1566 36.2333 13.1566 35.4604V23.1045C13.1566 23.062 13.1399 23.0212 13.1102 22.9912C13.0805 22.9611 13.0402 22.9442 12.9982 22.9442H11.6542C11.6229 22.9445 11.5922 22.9355 11.566 22.9182C11.5398 22.9009 11.5193 22.8762 11.507 22.8471C11.4946 22.818 11.4911 22.7859 11.4968 22.7547C11.5025 22.7236 11.5172 22.6949 11.539 22.6722L16.8766 17.2714C16.8913 17.2563 16.9089 17.2442 16.9282 17.236C16.9476 17.2278 16.9684 17.2236 16.9894 17.2236C17.0104 17.2236 17.0311 17.2278 17.0505 17.236C17.0699 17.2442 17.0874 17.2563 17.1022 17.2714L22.435 22.6722C22.4565 22.6946 22.4711 22.7229 22.4769 22.7536C22.4828 22.7842 22.4797 22.816 22.4679 22.8449C22.4562 22.8738 22.4364 22.8986 22.4109 22.9162C22.3854 22.9339 22.3554 22.9436 22.3246 22.9442H20.9614C20.9189 22.9442 20.8781 22.9609 20.8476 22.9908C20.8172 23.0208 20.7994 23.0615 20.7982 23.1045V35.2467C20.8001 36.0152 21.102 36.7519 21.6382 37.2963Z" fill="var(--fill-0, #3448C5)"/>
<path id="Vector_14" d="M33.4318 37.2963L34.2334 38.1025C34.2552 38.1252 34.2698 38.1539 34.2755 38.185C34.2812 38.2162 34.2777 38.2483 34.2654 38.2774C34.2531 38.3065 34.2325 38.3312 34.2063 38.3485C34.1801 38.3658 34.1494 38.3748 34.1182 38.3745H27.8446C27.0807 38.3745 26.3482 38.0675 25.8081 37.521C25.268 36.9745 24.9646 36.2333 24.9646 35.4604V26.2275C24.9646 26.1845 24.9481 26.1432 24.9185 26.1124C24.8889 26.0815 24.8486 26.0636 24.8062 26.0623H23.4478C23.4169 26.0617 23.3869 26.052 23.3614 26.0343C23.3359 26.0167 23.3161 25.9919 23.3044 25.963C23.2927 25.9341 23.2895 25.9023 23.2954 25.8717C23.3013 25.841 23.3158 25.8127 23.3374 25.7903L28.6702 20.3992C28.6849 20.3841 28.7025 20.3721 28.7218 20.3639C28.7412 20.3557 28.762 20.3515 28.783 20.3515C28.804 20.3515 28.8247 20.3557 28.8441 20.3639C28.8635 20.3721 28.881 20.3841 28.8958 20.3992L34.2334 25.7806C34.2552 25.8033 34.2698 25.832 34.2755 25.8631C34.2812 25.8943 34.2777 25.9264 34.2654 25.9555C34.2531 25.9846 34.2325 26.0093 34.2063 26.0266C34.1801 26.0439 34.1494 26.0529 34.1182 26.0526H32.755C32.7125 26.0539 32.6722 26.0718 32.6427 26.1027C32.6131 26.1335 32.5965 26.1748 32.5966 26.2177V35.2467C32.5972 36.0145 32.8974 36.7511 33.4318 37.2963Z" fill="var(--fill-0, #3448C5)"/>
<path id="Vector_15" d="M45.2302 37.2963L46.027 38.1025C46.0485 38.1249 46.0631 38.1532 46.0689 38.1839C46.0748 38.2145 46.0717 38.2463 46.0599 38.2752C46.0482 38.3041 46.0284 38.3289 46.0029 38.3465C45.9774 38.3642 45.9474 38.3739 45.9166 38.3745H39.6238C38.8599 38.3745 38.1274 38.0675 37.5873 37.521C37.0472 36.9745 36.7438 36.2333 36.7438 35.4604V29.3261C36.7438 29.2836 36.7271 29.2429 36.6974 29.2128C36.6677 29.1828 36.6274 29.1659 36.5854 29.1659H35.2414C35.2095 29.1662 35.1783 29.1568 35.1518 29.1389C35.1253 29.121 35.1047 29.0955 35.0928 29.0656C35.0809 29.0357 35.0781 29.0028 35.0849 28.9713C35.0918 28.9398 35.1078 28.9112 35.131 28.889L40.4686 23.493C40.4829 23.4781 40.5 23.4661 40.519 23.458C40.538 23.4499 40.5584 23.4457 40.579 23.4457C40.5996 23.4457 40.62 23.4499 40.6389 23.458C40.6579 23.4661 40.675 23.4781 40.6894 23.493L46.027 28.889C46.0501 28.9112 46.0662 28.9398 46.073 28.9713C46.0798 29.0028 46.0771 29.0357 46.0652 29.0656C46.0532 29.0955 46.0327 29.121 46.0062 29.1389C45.9797 29.1568 45.9484 29.1662 45.9166 29.1659H44.5486C44.5066 29.1659 44.4663 29.1828 44.4366 29.2128C44.4069 29.2429 44.3902 29.2836 44.3902 29.3261V35.2467C44.3921 36.0152 44.694 36.7519 45.2302 37.2963Z" fill="var(--fill-0, #3448C5)"/>
</g>
</svg>
