<svg preserveAspectRatio="xMidYMid meet" width="100%" height="100%" overflow="visible" style="display: block;" viewBox="0 0 263 54" fill="none" xmlns="http://www.w3.org/2000/svg">
<g id="Commercetools-1 2" clip-path="url(#clip0_0_143)">
<path id="Vector" d="M51.0492 28.1953C52.4307 28.1965 53.807 28.0241 55.1465 27.682L55.6002 30.7883C54.1106 31.1839 52.5759 31.3792 51.0358 31.3691C44.0157 31.3691 41.9871 26.9392 41.9871 21.7395C41.9871 16.5399 45.0701 12.4206 50.9958 12.4206C52.5375 12.4256 54.072 12.6345 55.5602 13.0419L54.9463 16.1347C53.6881 15.8249 52.3974 15.6708 51.1026 15.6755C47.379 15.743 45.5505 18.5252 45.4838 21.7801C45.4171 25.0349 46.7517 28.1953 51.0492 28.1953Z" fill="var(--fill-0, #003037)"/>
<path id="Vector_2" d="M65.4364 12.4341C71.2153 12.4341 73.7777 16.81 73.7777 21.8881C73.7777 26.9662 71.5623 31.3421 65.3963 31.3421C59.2304 31.3421 57.055 26.8582 57.055 21.8881C57.055 16.918 59.6441 12.5017 65.4364 12.4341ZM65.4364 28.2223C69.1199 28.2223 70.3077 25.17 70.3077 21.9016C70.3077 18.9169 68.9731 15.5404 65.3963 15.5404C61.8195 15.5404 60.4849 18.8898 60.4849 21.9016C60.4716 25.305 61.953 28.2223 65.4364 28.2223Z" fill="var(--fill-0, #003037)"/>
<path id="Vector_3" d="M97.6674 31.0179V19.3355C97.6674 16.3913 96.5864 15.581 94.7579 15.581C93.2633 15.7031 91.8529 16.3311 90.7541 17.3637C90.7541 17.7554 90.8475 18.5252 90.8475 18.7143V30.9774H87.3108V19.2005C87.3108 16.2562 86.4433 15.5404 84.6415 15.5404C83.1182 15.7343 81.6821 16.3672 80.5042 17.3637V31.0179H76.9141V12.8258H80.4775V14.3114C81.8076 13.1835 83.4573 12.5119 85.1887 12.3936C87.6978 12.3936 89.1926 13.2445 89.94 14.6085C91.4182 13.2764 93.3016 12.495 95.2784 12.3936C101.164 12.2991 101.244 17.0666 101.244 19.1465V31.0855L97.6674 31.0179Z" fill="var(--fill-0, #003037)"/>
<path id="Vector_4" d="M125.908 31.0179V19.3355C125.908 16.3913 124.827 15.581 122.985 15.581C121.49 15.7031 120.08 16.3311 118.981 17.3637C118.981 17.7554 119.075 18.5252 119.075 18.7143V30.9774H115.471V19.2005C115.471 16.2562 114.604 15.5404 112.802 15.5404C111.275 15.7362 109.835 16.3687 108.651 17.3637V31.0179H105.141V12.8258H108.705V14.3114C110.056 13.1751 111.729 12.5034 113.483 12.3936C115.978 12.3936 117.486 13.2445 118.234 14.6085C119.712 13.2764 121.595 12.495 123.572 12.3936C129.445 12.2991 129.538 17.0666 129.538 19.1465V31.0855L125.908 31.0179Z" fill="var(--fill-0, #003037)"/>
<path id="Vector_5" d="M146.087 27.682L146.635 30.6398C144.833 31.1827 142.962 31.4557 141.083 31.4501C133.956 31.4501 132.221 26.6151 132.221 21.7936C132.221 16.972 134.343 12.4882 140.308 12.4882C144.005 12.4882 147.075 14.7841 147.115 20.5916V22.4959H135.757C135.757 26.0614 137.719 28.2358 141.283 28.2358C142.9 28.2414 144.513 28.0556 146.087 27.682ZM135.891 19.7677H143.819C143.685 16.0807 141.857 15.3243 140.162 15.3243C137.506 15.2838 136.171 17.1341 135.891 19.7542V19.7677Z" fill="var(--fill-0, #003037)"/>
<path id="Vector_6" d="M160.194 16.0942C159.438 15.9138 158.663 15.8276 157.885 15.8376C157.085 15.8222 156.292 15.989 155.565 16.3256C154.837 16.6623 154.193 17.1601 153.681 17.7824V31.0179H150.131V12.8258H153.681V14.4465C154.222 13.8736 154.87 13.415 155.587 13.0974C156.304 12.7798 157.076 12.6094 157.859 12.5962C158.877 12.568 159.89 12.7329 160.848 13.0824L160.194 16.0942Z" fill="var(--fill-0, #003037)"/>
<path id="Vector_7" d="M170.631 28.1953C172.017 28.1967 173.398 28.0243 174.742 27.682L175.182 30.7883C173.697 31.184 172.167 31.3792 170.631 31.3691C163.598 31.3691 161.569 26.9392 161.569 21.7395C161.569 16.5399 164.652 12.3936 170.591 12.3936C172.133 12.3986 173.667 12.6075 175.155 13.0149L174.541 16.1077C173.279 15.7968 171.984 15.6426 170.684 15.6485C166.961 15.716 165.132 18.4982 165.079 21.753C165.026 25.0079 166.267 28.1953 170.631 28.1953Z" fill="var(--fill-0, #003037)"/>
<path id="Vector_8" d="M190.503 27.682L191.037 30.6398C189.236 31.1827 187.365 31.4557 185.485 31.4501C178.372 31.4501 176.637 26.6151 176.637 21.7936C176.637 16.972 178.759 12.4882 184.725 12.4882C188.408 12.4882 191.491 14.7841 191.531 20.5916V22.4959H180.174C180.24 26.0614 182.122 28.2358 185.686 28.2358C187.307 28.2423 188.924 28.0565 190.503 27.682ZM180.294 19.7677H188.221C188.101 16.0807 186.273 15.3243 184.564 15.3243C181.868 15.2838 180.614 17.1341 180.294 19.7542V19.7677Z" fill="var(--fill-0, #003037)"/>
<path id="Vector_9" d="M203.583 15.743H198.671V24.5892C198.671 26.4395 198.898 27.7361 200.767 27.9927C201.805 28.0669 202.847 28.0261 203.876 27.8711L204.103 30.9774C203.051 31.133 201.99 31.2097 200.927 31.207C196.723 31.045 195.148 28.8705 195.148 25.4671V15.743H192.545V13.2445L195.148 12.9473V8.77409H198.671V12.8258H203.583V15.8105V15.743Z" fill="var(--fill-0, #003037)"/>
<path id="Vector_10" d="M213.953 12.4341C219.732 12.4341 222.294 16.81 222.294 21.8881C222.294 26.9662 220.092 31.3421 213.926 31.3421C207.76 31.3421 205.585 26.8582 205.585 21.8881C205.585 16.918 208.241 12.5017 213.953 12.4341ZM213.953 28.2223C217.65 28.2223 218.837 25.17 218.837 21.9016C218.837 18.9169 217.503 15.5404 213.926 15.5404C210.349 15.5404 209.015 18.8898 209.015 21.9016C209.015 25.305 210.496 28.2223 213.953 28.2223Z" fill="var(--fill-0, #003037)"/>
<path id="Vector_11" d="M233.145 12.4341C238.923 12.4341 241.486 16.81 241.486 21.8881C241.486 26.9662 239.27 31.3421 233.105 31.3421C226.939 31.3421 224.763 26.8582 224.763 21.8881C224.763 16.918 227.366 12.5017 233.145 12.4341ZM233.145 28.2223C236.828 28.2223 238.016 25.17 238.016 21.9016C238.016 18.9169 236.681 15.5404 233.105 15.5404C229.528 15.5404 228.26 18.8898 228.26 21.9016C228.26 25.305 229.675 28.2223 233.145 28.2223Z" fill="var(--fill-0, #003037)"/>
<path id="Vector_12" d="M244.275 31.0179V6.23502H247.705V31.0179H244.275Z" fill="var(--fill-0, #003037)"/>
<path id="Vector_13" d="M251.362 27.4795C253.032 27.931 254.746 28.1937 256.474 28.2628C257.888 28.2628 259.33 27.9657 259.423 26.2504C259.517 24.5352 257.662 23.8734 255.54 22.9686C253.137 21.9691 250.535 20.6051 250.601 17.2286C250.601 15.5404 251.669 12.245 256.994 12.3936C258.723 12.446 260.441 12.686 262.119 13.1094L261.519 16.1077C259.986 15.7098 258.415 15.4789 256.834 15.4189C255.286 15.4189 254.165 15.9051 254.045 17.3637C254.045 18.6062 254.966 19.2545 257.341 20.2269C259.717 21.1993 263.16 22.5229 263 26.3585C262.893 28.7895 261.332 31.4501 256.474 31.3826C254.499 31.3677 252.535 31.0721 250.641 30.5047L251.362 27.4795Z" fill="var(--fill-0, #003037)"/>
<path id="Vector_14" d="M0.467178 30.8424C0.328812 30.9095 0.212023 31.0149 0.130277 31.1463C0.0485307 31.2778 0.00515697 31.4299 0.00515697 31.5852C0.00515697 31.7405 0.0485307 31.8926 0.130277 32.024C0.212023 32.1555 0.328812 32.2608 0.467178 32.328L16.0555 39.7291C16.2624 39.8352 16.4909 39.8907 16.7228 39.8912V23.3602C16.4884 23.3627 16.2568 23.4132 16.0422 23.5088L0.467178 30.8424Z" fill="var(--fill-0, #FF761C)"/>
<path id="Vector_15" d="M16.7762 23.3467V39.8371C17.0199 39.8414 17.2615 39.7906 17.4835 39.6886L33.0985 32.3145C33.2369 32.2468 33.3539 32.1414 33.4364 32.0102C33.5189 31.879 33.5636 31.7272 33.5657 31.5717C33.5652 31.4158 33.5211 31.2633 33.4384 31.1318C33.3557 31.0003 33.2379 30.8953 33.0985 30.8289L17.4568 23.5088C17.243 23.4089 17.0115 23.3538 16.7762 23.3467Z" fill="var(--fill-0, #FF8C1E)"/>
<path id="Vector_16" d="M0.0401601 9.21978C0.0406187 9.37563 0.0847512 9.52814 0.167434 9.65963C0.250117 9.79111 0.367959 9.89616 0.507277 9.96259L16.0556 17.3637C16.2655 17.4593 16.4927 17.5099 16.7229 17.5123C16.9493 17.5248 17.1759 17.4927 17.3902 17.4177L17.8306 17.2151L33.0853 9.9761C33.2244 9.9113 33.3422 9.80753 33.4247 9.67708C33.5073 9.54662 33.5512 9.39495 33.5512 9.24004C33.5512 9.08512 33.5073 8.93345 33.4247 8.803C33.3422 8.67254 33.2244 8.56877 33.0853 8.50398L17.4569 1.14338C17.2473 1.04713 17.0198 0.997335 16.7896 0.997335C16.5594 0.997335 16.3319 1.04713 16.1223 1.14338L0.467238 8.47697C0.336368 8.55018 0.227549 8.6579 0.152348 8.7887C0.0771482 8.91949 0.0383779 9.06847 0.0401601 9.21978Z" fill="var(--fill-0, #00C1AD)"/>
<path id="Vector_17" d="M16.7762 18.4442V23.3467C16.5417 23.3492 16.3101 23.3997 16.0955 23.4953L0.467115 30.8424C0.327797 30.9088 0.209956 31.0138 0.127273 31.1453C0.0445898 31.2768 0.000456595 31.4293 -2.00988e-06 31.5852V9.21978C0.000456595 9.37562 0.0445898 9.52814 0.127273 9.65963C0.209956 9.79111 0.327797 9.89616 0.467115 9.96259L16.0555 17.3637C16.2654 17.4593 16.4926 17.5099 16.7228 17.5123C16.9492 17.5248 17.1758 17.4927 17.3901 17.4177C16.8429 17.6473 16.7762 17.8769 16.7762 18.4442Z" fill="var(--fill-0, #D1D1D1)"/>
<path id="Vector_18" d="M103.433 48.0351V40.4314H104.768V50.3311H103.566L98.575 42.7409V50.3311H97.2403V40.4314H98.4415L103.433 48.0351Z" fill="var(--fill-0, #003037)"/>
<path id="Vector_19" d="M112.989 47.3058H107.65C107.709 47.8797 107.964 48.4148 108.371 48.8184C108.765 49.1898 109.288 49.3888 109.826 49.3722C110.174 49.3887 110.521 49.3096 110.829 49.1432C111.136 48.9768 111.394 48.7292 111.574 48.4268H112.815C112.58 49.015 112.181 49.5217 111.668 49.8854C111.131 50.2875 110.48 50.5009 109.812 50.4931C109.223 50.4855 108.647 50.3175 108.144 50.0069C107.616 49.6846 107.19 49.216 106.916 48.6563C106.611 48.0647 106.455 47.4059 106.463 46.7385C106.424 46.1022 106.544 45.4663 106.81 44.8883C107.097 44.3346 107.526 43.8684 108.051 43.5377C108.555 43.2182 109.138 43.0497 109.732 43.0515C110.318 43.0392 110.894 43.2038 111.387 43.5242C111.882 43.8358 112.287 44.2737 112.562 44.7937C112.867 45.3428 113.032 45.9602 113.042 46.59C113.046 46.8297 113.028 47.0693 112.989 47.3058ZM108.371 44.7667C107.953 45.1767 107.689 45.721 107.624 46.3064H111.868C111.812 45.736 111.573 45.1999 111.187 44.7802C111.016 44.5945 110.81 44.4459 110.58 44.3438C110.351 44.2416 110.103 44.1879 109.852 44.186C109.579 44.1737 109.307 44.219 109.052 44.319C108.797 44.419 108.565 44.5714 108.371 44.7667Z" fill="var(--fill-0, #003037)"/>
<path id="Vector_20" d="M117.393 46.698L119.835 50.3311H118.421L116.619 47.5624L114.817 50.3311H113.483L115.912 46.698L113.616 43.2136H114.951L116.632 45.9147L118.301 43.2136H119.635L117.393 46.698Z" fill="var(--fill-0, #003037)"/>
<path id="Vector_21" d="M122.251 49.8584C121.838 49.3772 121.628 48.7521 121.664 48.1161V44.3345H120.463V43.2676H120.997C121.111 43.2739 121.225 43.2568 121.333 43.2173C121.441 43.1779 121.54 43.1169 121.624 43.038C121.703 42.9564 121.764 42.859 121.803 42.7519C121.842 42.6448 121.858 42.5306 121.851 42.4167V41.3498H122.825V43.2136H124.427V44.3345H122.825V48.0756C122.805 48.4206 122.91 48.7612 123.119 49.0345C123.226 49.1399 123.354 49.2218 123.494 49.2752C123.634 49.3286 123.783 49.3524 123.933 49.3451C124.102 49.3505 124.271 49.3182 124.427 49.2506V50.3716C124.19 50.4502 123.942 50.4912 123.692 50.4931C123.422 50.4961 123.153 50.4411 122.905 50.3317C122.656 50.2223 122.434 50.061 122.251 49.8584Z" fill="var(--fill-0, #003037)"/>
<path id="Vector_22" d="M130.833 52.708C130.452 52.531 130.114 52.2709 129.844 51.9463C129.574 51.6218 129.379 51.2408 129.271 50.8308H130.486C130.593 51.1687 130.828 51.4501 131.14 51.6141C131.5 51.824 131.912 51.927 132.327 51.9112C132.821 51.9185 133.298 51.735 133.662 51.398C133.835 51.2204 133.97 51.0091 134.06 50.7769C134.149 50.5447 134.191 50.2965 134.183 50.0474V49.102C133.938 49.4151 133.628 49.6695 133.275 49.847C132.922 50.0245 132.535 50.1206 132.141 50.1285C131.579 50.1265 131.03 49.9676 130.552 49.6693C130.058 49.3609 129.657 48.9219 129.391 48.3997C129.099 47.8578 128.952 47.2479 128.964 46.6305C128.952 46.0046 129.099 45.386 129.391 44.8342C129.656 44.3157 130.052 43.8776 130.539 43.5647C131.014 43.2603 131.565 43.1009 132.127 43.1055C132.596 43.0927 133.059 43.2144 133.462 43.4567C133.77 43.6267 134.038 43.8616 134.249 44.1455L134.516 43.2541H135.424V50.0069C135.44 50.4137 135.372 50.8193 135.225 51.1982C135.078 51.5771 134.855 51.9211 134.57 52.2083C133.95 52.7752 133.135 53.0714 132.301 53.0322C131.793 53.038 131.291 52.9272 130.833 52.708ZM133.222 48.6563C133.541 48.4388 133.798 48.1409 133.969 47.792C134.16 47.4212 134.256 47.008 134.249 46.59C134.256 46.1633 134.16 45.7414 133.969 45.361C133.806 45.0072 133.546 44.7075 133.222 44.4966C132.921 44.2939 132.568 44.1858 132.207 44.1858C131.846 44.1858 131.493 44.2939 131.193 44.4966C130.871 44.7112 130.613 45.0099 130.446 45.361C130.255 45.7414 130.158 46.1633 130.165 46.59C130.158 47.008 130.255 47.4212 130.446 47.792C130.621 48.1379 130.877 48.4348 131.193 48.6563C131.493 48.859 131.846 48.9672 132.207 48.9672C132.568 48.9672 132.921 48.859 133.222 48.6563Z" fill="var(--fill-0, #003037)"/>
<path id="Vector_23" d="M143.538 47.3058H138.2C138.253 47.8813 138.508 48.4183 138.92 48.8184C139.115 49.0036 139.343 49.1479 139.593 49.2429C139.843 49.338 140.109 49.3819 140.375 49.3722C140.722 49.3907 141.068 49.3123 141.374 49.1456C141.68 48.9789 141.934 48.7302 142.11 48.4268H143.365C143.13 49.015 142.731 49.5217 142.217 49.8854C141.681 50.2875 141.029 50.5009 140.362 50.4931C139.754 50.4935 139.157 50.3249 138.637 50.0058C138.117 49.6867 137.693 49.2293 137.412 48.6834C137.102 48.0937 136.946 47.4335 136.959 46.7656C136.953 46.1097 137.114 45.4633 137.426 44.8883C137.714 44.3346 138.142 43.8684 138.667 43.5377C139.17 43.2169 139.754 43.0482 140.349 43.0515C140.934 43.0392 141.51 43.2038 142.003 43.5242C142.497 43.8326 142.899 44.2715 143.165 44.7937C143.462 45.3442 143.613 45.9629 143.605 46.59C143.613 46.8305 143.591 47.071 143.538 47.3058ZM138.934 44.7667C138.512 45.1753 138.243 45.7195 138.173 46.3064H142.417C142.373 45.733 142.132 45.1933 141.737 44.7802C141.567 44.5932 141.36 44.4438 141.131 44.3415C140.901 44.2392 140.653 44.1863 140.402 44.186C140.131 44.1756 139.861 44.2218 139.608 44.3217C139.356 44.4216 139.126 44.5731 138.934 44.7667Z" fill="var(--fill-0, #003037)"/>
<path id="Vector_24" d="M145.046 50.3311V43.2136H145.954L146.221 44.1049C146.451 43.7816 146.753 43.5186 147.104 43.3377C147.454 43.1568 147.843 43.0633 148.236 43.065C148.747 43.0596 149.25 43.1949 149.691 43.4567C150.122 43.7199 150.473 44.0985 150.705 44.5506C150.954 45.058 151.077 45.6187 151.066 46.1848V50.3311H149.838V46.2794C149.869 45.7423 149.692 45.2142 149.344 44.8072C149.177 44.619 148.97 44.4714 148.739 44.3755C148.508 44.2796 148.259 44.2379 148.009 44.2535C147.761 44.2444 147.513 44.2891 147.283 44.3846C147.053 44.4801 146.845 44.6242 146.675 44.8072C146.323 45.2128 146.142 45.7407 146.167 46.2794V50.3311H145.046Z" fill="var(--fill-0, #003037)"/>
<path id="Vector_25" d="M159.1 47.3058H153.761C153.82 47.8797 154.075 48.4148 154.482 48.8184C154.876 49.1898 155.399 49.3888 155.937 49.3722C156.284 49.3907 156.629 49.3123 156.935 49.1456C157.241 48.9789 157.496 48.7302 157.672 48.4268H158.926C158.691 49.015 158.293 49.5217 157.779 49.8854C157.242 50.2875 156.591 50.5009 155.924 50.4931C155.315 50.4935 154.719 50.3249 154.199 50.0058C153.678 49.6867 153.255 49.2293 152.974 48.6834C152.664 48.0937 152.507 47.4335 152.52 46.7656C152.515 46.1097 152.676 45.4633 152.987 44.8883C153.275 44.3346 153.704 43.8684 154.229 43.5377C154.733 43.2182 155.316 43.0497 155.91 43.0515C156.496 43.0392 157.072 43.2038 157.565 43.5242C158.06 43.8358 158.465 44.2737 158.74 44.7937C159.026 45.3477 159.173 45.9648 159.167 46.59C159.175 46.8305 159.152 47.071 159.1 47.3058ZM154.495 44.7667C154.077 45.1767 153.813 45.721 153.748 46.3064H157.992C157.936 45.736 157.697 45.1999 157.312 44.7802C157.14 44.5957 156.933 44.448 156.704 44.3459C156.475 44.2438 156.227 44.1894 155.977 44.186C155.704 44.1737 155.431 44.219 155.176 44.319C154.921 44.419 154.689 44.5714 154.495 44.7667Z" fill="var(--fill-0, #003037)"/>
<path id="Vector_26" d="M160.621 50.3311V43.2136H161.529L161.796 44.1049C161.995 43.822 162.25 43.5831 162.543 43.4026C162.855 43.1783 163.229 43.0601 163.611 43.065C163.792 43.0402 163.977 43.0402 164.158 43.065V44.294C163.979 44.2474 163.795 44.2247 163.611 44.2265C163.363 44.2191 163.115 44.2646 162.886 44.36C162.656 44.4554 162.448 44.5985 162.276 44.7802C161.922 45.1948 161.74 45.7321 161.769 46.2793V50.3311H160.621Z" fill="var(--fill-0, #003037)"/>
<path id="Vector_27" d="M169.216 43.4161C169.617 43.6432 169.945 43.9803 170.164 44.3886C170.405 44.8255 170.525 45.3201 170.511 45.8202V50.3311H169.603L169.35 49.4397H169.283C169.066 49.7389 168.789 49.9876 168.469 50.169C168.063 50.4011 167.6 50.5134 167.134 50.4931C166.709 50.499 166.288 50.4018 165.906 50.2095C165.566 50.0345 165.28 49.7682 165.079 49.4397C164.881 49.1152 164.779 48.7403 164.785 48.3592C164.781 47.9285 164.922 47.5092 165.186 47.1707C165.485 46.8109 165.871 46.5363 166.307 46.3739C166.832 46.1768 167.389 46.0806 167.948 46.0903H169.283V45.7661C169.295 45.5563 169.265 45.3463 169.194 45.1488C169.122 44.9514 169.012 44.7708 168.869 44.6182C168.73 44.4727 168.561 44.359 168.375 44.2845C168.188 44.21 167.988 44.1764 167.788 44.186C167.426 44.164 167.069 44.2796 166.787 44.5101C166.542 44.7271 166.377 45.0226 166.32 45.3475H165.106C165.157 44.9425 165.299 44.5546 165.519 44.213C165.751 43.8537 166.073 43.5644 166.454 43.3756C166.867 43.1641 167.325 43.0575 167.788 43.065C168.287 43.0501 168.78 43.1714 169.216 43.4161ZM168.763 48.8995C168.945 48.7288 169.088 48.519 169.181 48.2853C169.273 48.0517 169.313 47.8 169.296 47.5489V47.0087H168.055C167.531 46.9782 167.009 47.0951 166.547 47.3463C166.385 47.433 166.249 47.5633 166.155 47.7229C166.061 47.8826 166.012 48.0653 166.013 48.2512C166.007 48.4052 166.037 48.5585 166.1 48.6991C166.162 48.8397 166.256 48.9637 166.374 49.0615C166.656 49.2792 167.007 49.3848 167.361 49.3586C167.613 49.3791 167.867 49.3491 168.107 49.2703C168.348 49.1915 168.57 49.0655 168.763 48.8995Z" fill="var(--fill-0, #003037)"/>
<path id="Vector_28" d="M173.247 49.8584C172.844 49.3724 172.639 48.7495 172.673 48.1161V44.3345H171.472V43.2676H172.006C172.12 43.2739 172.235 43.2568 172.342 43.2173C172.45 43.1779 172.549 43.1169 172.633 43.038C172.712 42.9564 172.773 42.859 172.812 42.7519C172.851 42.6448 172.867 42.5306 172.86 42.4167V41.3498H173.874V43.2136H175.476V44.3345H173.874V48.0756C173.854 48.4206 173.959 48.7612 174.168 49.0345C174.275 49.1399 174.403 49.2218 174.543 49.2752C174.683 49.3286 174.832 49.3524 174.982 49.3451C175.151 49.3505 175.32 49.3182 175.476 49.2506V50.3716C175.239 50.4502 174.991 50.4912 174.742 50.4931C174.462 50.5003 174.185 50.4475 173.927 50.3381C173.669 50.2286 173.437 50.0651 173.247 49.8584Z" fill="var(--fill-0, #003037)"/>
<path id="Vector_29" d="M176.797 41.9305C176.726 41.8576 176.671 41.7709 176.634 41.6758C176.598 41.5806 176.58 41.4789 176.583 41.3768C176.579 41.2745 176.595 41.1723 176.632 41.0769C176.669 40.9815 176.725 40.895 176.797 40.8231C176.942 40.6881 177.134 40.6154 177.331 40.6205C177.536 40.6126 177.737 40.6852 177.891 40.8231C177.963 40.895 178.02 40.9815 178.056 41.0769C178.093 41.1723 178.11 41.2745 178.105 41.3768C178.109 41.4802 178.091 41.5833 178.052 41.6789C178.012 41.7744 177.953 41.8603 177.878 41.9305C177.808 42.0052 177.723 42.0641 177.628 42.1037C177.534 42.1432 177.433 42.1624 177.331 42.1601C177.231 42.1614 177.132 42.1416 177.04 42.1021C176.948 42.0625 176.865 42.0041 176.797 41.9305ZM177.945 50.3311H176.73V43.2136H177.945V50.3311Z" fill="var(--fill-0, #003037)"/>
<path id="Vector_30" d="M181.081 50.0069C180.555 49.6782 180.126 49.2116 179.84 48.6564C179.528 48.0764 179.367 47.4257 179.373 46.7656C179.367 46.1097 179.528 45.4633 179.84 44.8883C180.128 44.3346 180.556 43.8684 181.081 43.5377C181.591 43.2198 182.177 43.0515 182.776 43.0515C183.375 43.0515 183.961 43.2198 184.471 43.5377C185 43.8676 185.433 44.3337 185.726 44.8883C186.033 45.4644 186.189 46.1108 186.179 46.7656C186.189 47.4246 186.033 48.0754 185.726 48.6564C185.435 49.2125 185.002 49.6791 184.471 50.0069C183.961 50.3248 183.375 50.4932 182.776 50.4932C182.177 50.4932 181.591 50.3248 181.081 50.0069ZM183.87 49.021C184.213 48.7924 184.49 48.4754 184.671 48.1026C184.877 47.6835 184.977 47.2198 184.965 46.7521C184.98 46.2841 184.879 45.8199 184.671 45.4015C184.489 45.0326 184.213 44.72 183.87 44.4966C183.545 44.282 183.164 44.1693 182.776 44.1725C182.388 44.1732 182.009 44.2856 181.682 44.4966C181.339 44.72 181.063 45.0326 180.881 45.4015C180.673 45.8199 180.572 46.2841 180.587 46.7521C180.575 47.2198 180.675 47.6835 180.881 48.1026C181.062 48.4754 181.339 48.7924 181.682 49.021C182.008 49.2328 182.388 49.3454 182.776 49.3454C183.164 49.3454 183.544 49.2328 183.87 49.021Z" fill="var(--fill-0, #003037)"/>
<path id="Vector_31" d="M187.647 50.3311V43.2136H188.542L188.809 44.1049H188.875C189.083 43.8107 189.351 43.5663 189.663 43.3891C190.034 43.1672 190.459 43.0549 190.891 43.065C191.402 43.0582 191.905 43.1937 192.345 43.4567C192.783 43.7122 193.135 44.0928 193.36 44.5506C193.608 45.058 193.732 45.6187 193.72 46.1848V50.3311H192.505V46.2794C192.531 45.7407 192.35 45.2128 191.998 44.8072C191.833 44.6174 191.626 44.4687 191.395 44.3727C191.163 44.2766 190.913 44.2359 190.664 44.2535C190.415 44.2435 190.167 44.2878 189.937 44.3834C189.707 44.4789 189.499 44.6235 189.329 44.8072C189.15 45.0055 189.012 45.2377 188.923 45.4904C188.833 45.7432 188.795 46.0113 188.809 46.2794V50.3311H187.647Z" fill="var(--fill-0, #003037)"/>
<path id="Vector_32" d="M200.353 50.0069C199.826 49.6782 199.398 49.2116 199.112 48.6563C198.804 48.0754 198.648 47.4246 198.658 46.7656C198.648 46.1108 198.804 45.4644 199.112 44.8883C199.4 44.3346 199.828 43.8684 200.353 43.5377C200.861 43.2165 201.449 43.0479 202.048 43.0515C202.566 43.0418 203.078 43.1723 203.529 43.4297C203.967 43.6816 204.345 44.0273 204.637 44.4426C204.919 44.8477 205.114 45.3076 205.211 45.7931H203.996C203.884 45.3528 203.642 44.9573 203.302 44.6587C202.956 44.3537 202.507 44.1943 202.048 44.213C201.664 44.2117 201.288 44.3244 200.967 44.5371C200.617 44.756 200.335 45.0694 200.153 45.442C199.945 45.8604 199.844 46.3247 199.859 46.7926C199.847 47.2603 199.947 47.724 200.153 48.1431C200.334 48.5159 200.611 48.8329 200.954 49.0615C201.279 49.2761 201.66 49.3888 202.048 49.3857C202.507 49.4044 202.956 49.245 203.302 48.94C203.642 48.6413 203.884 48.2458 203.996 47.8055H205.211C205.114 48.291 204.919 48.7509 204.637 49.1561C204.345 49.5713 203.967 49.917 203.529 50.169C203.078 50.4263 202.566 50.5569 202.048 50.5471C201.444 50.5347 200.855 50.3472 200.353 50.0069Z" fill="var(--fill-0, #003037)"/>
<path id="Vector_33" d="M207.907 50.0069C207.38 49.6782 206.952 49.2116 206.666 48.6564C206.354 48.0764 206.193 47.4257 206.199 46.7656C206.193 46.1097 206.354 45.4633 206.666 44.8883C206.954 44.3346 207.382 43.8684 207.907 43.5377C208.416 43.2198 209.003 43.0515 209.602 43.0515C210.201 43.0515 210.787 43.2198 211.297 43.5377C211.829 43.864 212.263 44.3309 212.551 44.8883C212.859 45.4644 213.015 46.1108 213.005 46.7656C213.015 47.4246 212.859 48.0754 212.551 48.6564C212.265 49.2153 211.83 49.6829 211.297 50.0069C210.787 50.3248 210.201 50.4932 209.602 50.4932C209.003 50.4932 208.416 50.3248 207.907 50.0069ZM210.696 49.021C211.039 48.7924 211.316 48.4754 211.497 48.1026C211.703 47.6835 211.803 47.2198 211.791 46.7521C211.806 46.2841 211.705 45.8199 211.497 45.4015C211.315 45.0326 211.039 44.72 210.696 44.4966C210.372 44.2844 209.995 44.1715 209.609 44.1715C209.223 44.1715 208.845 44.2844 208.521 44.4966C208.171 44.7154 207.889 45.0289 207.707 45.4015C207.499 45.8199 207.398 46.2841 207.413 46.7521C207.401 47.2198 207.501 47.6835 207.707 48.1026C207.888 48.4754 208.165 48.7924 208.508 49.021C208.834 49.2328 209.214 49.3454 209.602 49.3454C209.99 49.3454 210.37 49.2328 210.696 49.021Z" fill="var(--fill-0, #003037)"/>
<path id="Vector_34" d="M222.748 43.4162C223.123 43.6693 223.419 44.0253 223.602 44.4426C223.82 44.9346 223.925 45.4703 223.909 46.0092V50.3311H222.708V46.0363C222.737 45.5522 222.595 45.0734 222.307 44.6857C222.182 44.5279 222.024 44.4006 221.844 44.3132C221.664 44.2257 221.466 44.1803 221.266 44.1803C221.067 44.1803 220.869 44.2257 220.689 44.3132C220.509 44.4006 220.351 44.5279 220.225 44.6857C219.917 45.0634 219.764 45.5472 219.798 46.0363V50.3311H218.584V46.0363C218.61 45.5546 218.474 45.0782 218.197 44.6857C218.069 44.5339 217.909 44.4128 217.729 44.3311C217.549 44.2493 217.353 44.209 217.156 44.213C216.955 44.2086 216.756 44.2501 216.574 44.3343C216.391 44.4184 216.23 44.5432 216.101 44.6992C215.802 45.082 215.65 45.562 215.674 46.0498V50.3446H214.473V43.2136H215.367L215.634 44.1049H215.701C215.876 43.8292 216.103 43.5907 216.368 43.4026C216.672 43.173 217.044 43.054 217.423 43.065C217.899 43.0348 218.371 43.1733 218.757 43.4567C219.06 43.6905 219.306 43.9906 219.478 44.3345C219.687 43.9888 219.964 43.69 220.292 43.4567C220.683 43.1829 221.152 43.0454 221.627 43.065C222.025 43.0799 222.411 43.2011 222.748 43.4162Z" fill="var(--fill-0, #003037)"/>
<path id="Vector_35" d="M234.025 43.4161C234.397 43.6731 234.693 44.028 234.88 44.4426C235.091 44.9366 235.196 45.4708 235.187 46.0092V50.3311H233.985V46.0362C234.015 45.5522 233.873 45.0734 233.585 44.6857C233.458 44.5357 233.301 44.4156 233.123 44.334C232.945 44.2523 232.752 44.211 232.557 44.213C232.353 44.2082 232.151 44.2508 231.966 44.3374C231.781 44.424 231.618 44.5524 231.49 44.7127C231.187 45.0937 231.035 45.5751 231.063 46.0633V50.3581H229.861V46.0362C229.891 45.5522 229.749 45.0734 229.461 44.6857C229.334 44.5357 229.177 44.4156 228.999 44.334C228.821 44.2523 228.628 44.211 228.433 44.213C228.233 44.2086 228.034 44.2501 227.851 44.3343C227.669 44.4184 227.507 44.5432 227.379 44.6992C227.074 45.0789 226.921 45.5612 226.952 46.0498V50.3446H225.751V43.2136H226.645L226.912 44.1049C227.087 43.8292 227.314 43.5907 227.579 43.4026C227.882 43.1711 228.254 43.0519 228.634 43.065C229.087 43.0492 229.534 43.1871 229.901 43.4567C230.211 43.6864 230.463 43.9873 230.636 44.3345C230.841 43.9856 231.118 43.686 231.45 43.4567C231.839 43.1801 232.309 43.0424 232.784 43.065C233.223 43.0605 233.653 43.1823 234.025 43.4161Z" fill="var(--fill-0, #003037)"/>
<path id="Vector_36" d="M243.168 47.3058H237.829C237.888 47.8797 238.142 48.4148 238.55 48.8184C238.746 49.004 238.977 49.1484 239.229 49.2434C239.481 49.3385 239.749 49.3822 240.018 49.3722C240.364 49.3877 240.709 49.308 241.014 49.1416C241.32 48.9752 241.575 48.7281 241.753 48.4268H242.941C242.71 49.0179 242.311 49.5258 241.793 49.8854C241.262 50.2874 240.614 50.501 239.951 50.4931C239.341 50.496 238.741 50.3286 238.219 50.0093C237.696 49.6901 237.27 49.2313 236.988 48.6834C236.688 48.0905 236.537 47.4317 236.548 46.7656C236.538 46.1108 236.694 45.4644 237.002 44.8883C237.29 44.3346 237.718 43.8684 238.243 43.5377C238.751 43.2165 239.339 43.0479 239.938 43.0515C240.519 43.0411 241.091 43.2056 241.579 43.5242C242.077 43.8323 242.483 44.271 242.754 44.7937C243.04 45.3477 243.187 45.9648 243.181 46.59C243.205 46.8283 243.2 47.0686 243.168 47.3058ZM238.55 44.7667C238.136 45.1799 237.873 45.7225 237.802 46.3064H242.046C241.991 45.736 241.752 45.1999 241.366 44.7802C241.196 44.5932 240.99 44.4438 240.76 44.3415C240.53 44.2392 240.282 44.1863 240.031 44.186C239.758 44.1745 239.486 44.2202 239.231 44.3201C238.976 44.4201 238.744 44.5721 238.55 44.7667Z" fill="var(--fill-0, #003037)"/>
<path id="Vector_37" d="M244.676 50.3311V43.2136H245.61L245.877 44.1049H245.944C246.146 43.8244 246.4 43.586 246.691 43.4026C247.007 43.1764 247.385 43.0581 247.772 43.065C247.954 43.041 248.138 43.041 248.319 43.065V44.294C248.14 44.2483 247.956 44.2256 247.772 44.2265C247.523 44.2165 247.275 44.2608 247.045 44.3564C246.815 44.4519 246.608 44.5965 246.437 44.7802C246.257 44.983 246.118 45.2198 246.029 45.4771C245.94 45.7344 245.902 46.0071 245.917 46.2794V50.3311H244.676Z" fill="var(--fill-0, #003037)"/>
<path id="Vector_38" d="M250.508 50.0069C249.981 49.6782 249.553 49.2116 249.267 48.6564C248.959 48.0754 248.803 47.4246 248.813 46.7656C248.803 46.1108 248.959 45.4644 249.267 44.8883C249.555 44.3346 249.983 43.8684 250.508 43.5377C251.021 43.2161 251.613 43.0475 252.216 43.0515C252.73 43.0435 253.237 43.174 253.684 43.4297C254.125 43.6779 254.504 44.0243 254.792 44.4426C255.074 44.8477 255.269 45.3076 255.366 45.7932H254.165C254.041 45.3575 253.801 44.9648 253.471 44.6587C253.122 44.3572 252.675 44.1983 252.216 44.213C251.828 44.2098 251.447 44.3226 251.122 44.5371C250.78 44.7605 250.503 45.0731 250.321 45.442C250.104 45.8575 249.999 46.323 250.014 46.7926C249.999 47.2621 250.104 47.7276 250.321 48.1431C250.502 48.5122 250.773 48.8283 251.109 49.0615C251.468 49.2558 251.878 49.3358 252.283 49.2911C252.741 49.3058 253.189 49.1469 253.538 48.8454C253.868 48.5393 254.108 48.1466 254.232 47.711H255.433C255.336 48.1965 255.14 48.6564 254.859 49.0615C254.57 49.4798 254.191 49.8262 253.751 50.0745C253.304 50.3301 252.797 50.4606 252.283 50.4526C251.661 50.4818 251.044 50.3269 250.508 50.0069Z" fill="var(--fill-0, #003037)"/>
<path id="Vector_39" d="M262.96 47.3058H257.621C257.679 47.8828 257.939 48.4196 258.356 48.8184C258.549 49.0048 258.777 49.1499 259.027 49.2451C259.277 49.3402 259.543 49.3834 259.81 49.3721C260.157 49.3877 260.501 49.308 260.807 49.1416C261.112 48.9752 261.367 48.7281 261.545 48.4268H262.786C262.556 49.0179 262.156 49.5258 261.639 49.8854C261.107 50.2874 260.46 50.501 259.797 50.4931C259.189 50.4989 258.592 50.3303 258.075 50.0069C257.543 49.6855 257.112 49.2169 256.834 48.6563C256.534 48.0634 256.382 47.4047 256.394 46.7385C256.383 46.0838 256.54 45.4373 256.847 44.8613C257.135 44.3076 257.564 43.8414 258.089 43.5107C258.597 43.1895 259.184 43.0208 259.784 43.0245C260.365 43.0141 260.936 43.1786 261.425 43.4972C261.926 43.8015 262.333 44.2411 262.6 44.7667C262.867 45.3348 262.991 45.9614 262.96 46.59C262.988 46.8277 262.988 47.068 262.96 47.3058ZM258.342 44.7667C257.929 45.1799 257.665 45.7225 257.595 46.3064H261.839C261.783 45.736 261.544 45.1999 261.158 44.7802C260.988 44.5932 260.782 44.4438 260.552 44.3415C260.323 44.2392 260.075 44.1863 259.824 44.186C259.548 44.1735 259.274 44.2186 259.016 44.3185C258.759 44.4185 258.525 44.571 258.329 44.7667H258.342Z" fill="var(--fill-0, #003037)"/>
</g>
<defs>
<clipPath id="clip0_0_143">
<rect width="263" height="54" fill="white"/>
</clipPath>
</defs>
</svg>
