<svg preserveAspectRatio="xMidYMid meet" width="100%" height="100%" overflow="visible" style="display: block;" viewBox="0 0 22.3298 26.4408" fill="none" xmlns="http://www.w3.org/2000/svg">
<g id="Group 19501">
<path id="Vector" d="M0.5 19.2686V7.50767C0.5 7.18176 0.849664 6.97903 1.12997 7.14101L11.2452 13.021C11.5053 13.1723 11.6652 13.4517 11.6652 13.7533V25.5143C11.6652 25.8402 11.3155 26.0429 11.0352 25.8809L0.919984 20.0019C0.659902 19.8506 0.5 19.5712 0.5 19.2696V19.2686Z" fill="var(--fill-0, white)" stroke="var(--stroke-0, #A6A6A6)"/>
<path id="Vector_2" d="M0.813081 6.40227L10.7703 0.613487C11.0304 0.462171 11.3502 0.462171 11.6103 0.613487L21.5675 6.40227C21.9172 6.60597 21.9172 7.11423 21.5675 7.31793L11.6103 13.1067C11.3502 13.258 11.0304 13.258 10.7703 13.1067L0.813081 7.31793C0.463414 7.11423 0.463414 6.60597 0.813081 6.40227Z" fill="var(--fill-0, white)" stroke="var(--stroke-0, #A6A6A6)"/>
<path id="Vector_3" d="M11.7139 25.5155V14.6092C11.7139 14.2832 12.0636 14.0805 12.3439 14.2425L21.5662 19.6045C21.9158 19.8082 21.9158 20.3165 21.5662 20.5201L12.3439 25.8821C12.0636 26.0451 11.7139 25.8414 11.7139 25.5155Z" fill="var(--fill-0, white)" stroke="var(--stroke-0, #A6A6A6)"/>
</g>
</svg>
