<svg preserveAspectRatio="xMidYMid meet" width="100%" height="100%" overflow="visible" style="display: block;" viewBox="0 0 256 69" fill="none" xmlns="http://www.w3.org/2000/svg">
<g id="FlyBuy-Logo 2" clip-path="url(#clip0_0_70)">
<path id="Vector" d="M75.3247 16.6895V21.4365H82.8702V29.2806H75.3247V55.4951H65.9775V29.2806H61.1309V21.4365H65.9775V15.8629C65.9775 7.12522 71.2385 3.06425 79.1995 3.06425C81.3462 3.06425 83.008 3.40892 84.3227 3.82044V11.596C83.2846 11.4589 82.4537 11.3903 81.5534 11.3903C77.3999 11.3921 75.3247 12.7674 75.3247 16.6895Z" fill="var(--fill-0, #02174F)"/>
<path id="Vector_2" d="M89.0988 3.89268H98.4439V55.4969H89.0988V3.89268Z" fill="var(--fill-0, #02174F)"/>
<path id="Vector_3" d="M139.566 21.4383L123.158 58.4552C120.043 65.4727 115.957 68.7072 109.52 68.7072C107.582 68.7072 105.297 68.3624 103.497 67.8823V60.1068C105.089 60.2439 106.404 60.3829 107.511 60.3829C110.488 60.3829 112.91 59.6266 114.641 55.7731L115.679 53.4339L102.527 21.44H112.425L120.803 43.8011L129.733 21.44H139.566V21.4383Z" fill="var(--fill-0, #02174F)"/>
<path id="Vector_4" d="M178.471 38.5019C178.471 48.7538 171.549 56.3218 161.857 56.3218C157.149 56.3218 153.204 54.4645 150.85 51.2987V55.4951H142.266V3.89268H151.611V24.7412C154.034 22.1259 157.564 20.682 161.857 20.682C171.549 20.6802 178.471 28.25 178.471 38.5019ZM168.986 38.4333C168.986 32.6539 164.971 29.0766 160.126 29.0766C155.764 29.0766 151.473 32.0349 151.473 38.5037C151.473 45.0393 155.835 47.8603 160.126 47.8603C165.041 47.8585 168.986 44.2126 168.986 38.4333Z" fill="var(--fill-0, #02174F)"/>
<path id="Vector_5" d="M182.694 40.4963V21.4365H192.039V41.2525C192.039 45.2432 194.877 47.7881 198.545 47.7881C202.076 47.7881 204.914 45.2414 204.914 41.2525V21.4382H214.259V40.4982C214.259 50.1309 207.475 56.3236 198.545 56.3236C189.478 56.3218 182.694 50.1291 182.694 40.4963Z" fill="var(--fill-0, #02174F)"/>
<path id="Vector_6" d="M255.034 21.4383L238.627 58.4552C235.511 65.4727 231.426 68.7072 224.988 68.7072C223.051 68.7072 220.766 68.3624 218.965 67.8823V60.1068C220.557 60.2439 221.872 60.3829 222.979 60.3829C225.956 60.3829 228.379 59.6266 230.109 55.7731L231.148 53.4339L217.995 21.44H227.894L236.271 43.8011L245.202 21.44H255.034V21.4383Z" fill="var(--fill-0, #02174F)"/>
<path id="Vector_7" d="M22.8023 8.15408C26.1165 8.15408 29.1765 9.24967 31.6408 11.0925C32.1692 11.4877 32.9065 11.4462 33.3733 10.9788L37.0688 7.26074C37.6081 6.71737 37.5682 5.82403 36.9707 5.34567C33.0935 2.23042 28.165 0.362357 22.8023 0.362357C17.2817 0.362357 12.2224 2.34589 8.29613 5.629C7.71146 6.11814 7.68412 7.00803 8.22898 7.54224L11.9608 11.2081C12.4348 11.6737 13.1793 11.7043 13.7024 11.2928C16.2102 9.32913 19.3701 8.15408 22.8023 8.15408Z" fill="var(--fill-0, #00E5C8)"/>
<path id="Vector_8" d="M37.5373 22.7992C37.5373 25.6112 36.7601 28.2771 35.2746 30.6054C35.2547 30.6379 35.2329 30.6686 35.2092 30.6993L34.0869 32.2118C34.0815 32.2208 34.0743 32.2281 34.067 32.2353C33.889 32.4464 33.9054 32.7587 34.1033 32.9518L38.3382 37.1122C38.8866 37.65 39.782 37.6031 40.2704 37.0111C40.3068 36.9659 40.3431 36.9227 40.3793 36.8775L40.3866 36.8667C43.6046 32.8959 45.3752 27.907 45.3752 22.7992C45.3752 17.9692 43.8298 13.4912 41.2074 9.82549C40.7408 9.17387 39.7874 9.11069 39.2226 9.6793L35.4743 13.4497C35.0458 13.8811 34.9786 14.5453 35.3019 15.0597C36.7183 17.3068 37.5373 19.9601 37.5373 22.7992Z" fill="var(--fill-0, #A162F7)"/>
<path id="Vector_9" d="M11.5141 32.21L10.39 30.692C10.3682 30.6613 10.3464 30.6306 10.3246 30.5982C8.84274 28.2734 8.06737 25.6094 8.06737 22.7991C8.06737 20.0737 8.82278 17.5197 10.1339 15.3322C10.4409 14.8196 10.3574 14.1644 9.92879 13.7438L6.13153 10.0149C5.55759 9.44998 4.59878 9.52761 4.14481 10.19C1.67506 13.7853 0.227688 18.1262 0.227688 22.7991C0.227688 27.9088 1.99832 32.8958 5.21622 36.8666L5.27251 36.937C5.29247 36.9622 5.31244 36.9857 5.3325 37.011L5.39607 37.0886C5.88995 37.6789 6.78888 37.7185 7.33364 37.1716L11.5159 32.9643C11.7084 32.7694 11.723 32.4626 11.5468 32.2515L11.5323 32.2352C11.5268 32.2261 11.5214 32.2189 11.5141 32.21Z" fill="var(--fill-0, #1DAEFC)"/>
<path id="Vector_10" d="M21.7962 44.5104L14.8628 36.2168C14.3689 35.6266 13.4699 35.587 12.9252 36.1338L9.23498 39.8447C8.7629 40.3212 8.73014 41.0757 9.15873 41.5901L19.6589 54.1468C21.2932 56.1015 24.3096 56.1015 25.944 54.1468L36.5058 41.5143C36.9398 40.9944 36.9018 40.2327 36.4187 39.758L32.6904 36.0959C32.1457 35.5598 31.254 35.6031 30.7655 36.1897L23.8102 44.5086C23.2854 45.1349 22.3193 45.1349 21.7962 44.5104Z" fill="var(--fill-0, #02174F)"/>
</g>
<defs>
<clipPath id="clip0_0_70">
<rect width="256" height="69" fill="white"/>
</clipPath>
</defs>
</svg>
