<svg preserveAspectRatio="xMidYMid meet" width="100%" height="100%" overflow="visible" style="display: block;" viewBox="0 0 44 18" fill="none" xmlns="http://www.w3.org/2000/svg">
<g id="google-pay 1" clip-path="url(#clip0_0_6)">
<path id="Vector" d="M7.26825 6.18423V9.01717H11.1939C11.1147 9.46878 10.9452 9.89981 10.6955 10.2845C10.4458 10.6692 10.121 10.9996 9.7405 11.256C9.08462 11.7059 8.24725 11.9621 7.2655 11.9621C5.368 11.9621 3.76406 10.6634 3.18863 8.92514C2.88751 8.01065 2.88751 7.02386 3.18863 6.10937C3.76406 4.36085 5.368 3.06216 7.2655 3.06216C7.77983 3.05259 8.29094 3.14529 8.76907 3.33488C9.2472 3.52447 9.68282 3.80716 10.0506 4.16649L12.1323 2.06359C10.8212 0.819203 9.07669 0.13347 7.26825 0.151613C5.9154 0.156799 4.59094 0.539665 3.44439 1.25699C2.29783 1.97431 1.37485 2.99753 0.779625 4.21113C0.266913 5.23675 1.12441e-05 6.36743 1.12441e-05 7.51382C1.12441e-05 8.66021 0.266913 9.7909 0.779625 10.8165V10.8268C1.37501 12.0397 2.29824 13.062 3.44492 13.7781C4.59159 14.4941 5.91596 14.8754 7.26825 14.8788C9.22556 14.8788 10.8811 14.2243 12.0808 13.0993C13.4558 11.8213 14.2402 9.92989 14.2402 7.68002C14.241 7.17898 14.2007 6.67871 14.1199 6.18423H7.26825ZM34.0402 5.90952C33.3438 5.26533 32.395 4.93842 31.1946 4.93842C29.6505 4.93842 28.49 5.51119 27.7228 6.64574L29.1562 7.5564C29.681 6.77806 30.3974 6.38889 31.3053 6.38889C31.8834 6.39029 32.4405 6.60532 32.8694 6.99256C33.0784 7.17384 33.246 7.39781 33.3609 7.64933C33.4758 7.90086 33.5354 8.17409 33.5356 8.45058V8.82899C32.9099 8.4808 32.1228 8.29674 31.1541 8.29674C30.0238 8.29674 29.1156 8.56321 28.4391 9.10508C27.7626 9.64694 27.4203 10.3626 27.4203 11.2725C27.4097 11.6792 27.4902 12.0831 27.6561 12.4547C27.8219 12.8263 28.0688 13.1561 28.3786 13.4201C29.0146 13.9928 29.8224 14.2792 30.7704 14.2792C31.8904 14.2792 32.7786 13.7779 33.4517 12.7759H33.5204V13.9928H35.0749V8.58794C35.0797 7.45133 34.7366 6.55097 34.0402 5.90952ZM32.7181 12.0424C32.4797 12.2847 32.1954 12.4773 31.8818 12.6089C31.5682 12.7404 31.2316 12.8084 30.8914 12.8088C30.4342 12.8165 29.9886 12.6647 29.6313 12.3796C29.4645 12.2548 29.3293 12.0927 29.2366 11.9063C29.1438 11.7199 29.096 11.5143 29.0971 11.3062C29.0971 10.8254 29.3184 10.4264 29.7529 10.1098C30.1874 9.79322 30.7519 9.62908 31.4078 9.62908C32.3125 9.6181 33.0206 9.82413 33.5253 10.2321C33.5253 10.9278 33.253 11.5308 32.7181 12.0424ZM26.2797 2.29023C25.9149 1.92589 25.4801 1.63893 25.0015 1.44656C24.5229 1.2542 24.0104 1.1604 23.4946 1.17078H19.1861V13.9956H20.8106V8.80084H23.4919C24.5919 8.80084 25.52 8.43272 26.2769 7.70681C26.3374 7.64568 26.3979 7.58387 26.4591 7.52275C27.1216 6.80053 27.4739 5.84747 27.4404 4.86848C27.4068 3.8895 26.9901 2.96274 26.2797 2.28748V2.29023ZM25.1398 6.56401C24.935 6.78239 24.686 6.95464 24.4093 7.06928C24.1326 7.18391 23.8346 7.2383 23.5352 7.22881H20.8106V2.75036H23.5352C24.1166 2.74826 24.6752 2.97616 25.0889 3.38425C25.5098 3.80296 25.7506 4.36915 25.7601 4.96244C25.7696 5.55573 25.5471 6.12933 25.1398 6.56127V6.56401ZM42.2338 5.22275L39.7217 11.5205H39.6908L37.1181 5.22275H35.3519L38.9125 13.4331L36.8947 17.8504H38.5687L44 5.22275H42.2338Z" fill="var(--fill-0, #A6A6A6)"/>
</g>
<defs>
<clipPath id="clip0_0_6">
<rect width="44" height="18" fill="white"/>
</clipPath>
</defs>
</svg>
