<svg preserveAspectRatio="xMidYMid meet" width="100%" height="100%" overflow="visible" style="display: block;" viewBox="0 0 25 26" fill="none" xmlns="http://www.w3.org/2000/svg">
<g id="Symbol Alternative.svg">
<path id="Vector" d="M19.7771 7.48583C19.8328 4.47146 17.4411 2.15746 14.1526 2.15746H7.35156C7.19303 2.15751 7.03972 2.21641 6.91922 2.32355C6.79873 2.4307 6.71896 2.57905 6.69427 2.74192L3.96875 20.4522C3.95656 20.5325 3.96123 20.6145 3.98245 20.6927C4.00367 20.7709 4.04094 20.8434 4.09167 20.9052C4.14241 20.9669 4.20542 21.0166 4.27636 21.0506C4.3473 21.0846 4.42449 21.1022 4.5026 21.1022H8.53229L7.90208 25.2037C7.88988 25.284 7.89457 25.3661 7.91582 25.4444C7.93707 25.5226 7.97438 25.5951 8.02518 25.6569C8.07597 25.7187 8.13904 25.7683 8.21005 25.8022C8.28105 25.8362 8.3583 25.8538 8.43646 25.8537H11.7187C11.8776 25.8537 12.0187 25.7942 12.1391 25.6875C12.2594 25.5802 12.2792 25.4323 12.3036 25.2693L13.2672 19.3733C13.2917 19.2108 13.3714 18.9995 13.4922 18.8922C13.6125 18.785 13.7177 18.7265 13.876 18.726H15.8854C19.1057 18.726 21.8385 16.3459 22.338 13.0347C22.6911 10.6838 21.7219 8.54588 19.7771 7.48583Z" fill="#A6A6A6"/>
<path id="Vector_2" d="M9.40417 14.5708L8.40052 21.19L7.77031 25.3413C7.75811 25.4216 7.7628 25.5037 7.78405 25.5819C7.8053 25.6602 7.84261 25.7327 7.8934 25.7945C7.9442 25.8562 8.00727 25.9058 8.07828 25.9398C8.14928 25.9738 8.22652 25.9914 8.30469 25.9913H11.7786C11.9371 25.9912 12.0903 25.9322 12.2107 25.8251C12.3311 25.7179 12.4107 25.5696 12.4354 25.4069L13.351 19.3727C13.3757 19.21 13.4554 19.0618 13.5758 18.9547C13.6962 18.8477 13.8494 18.7888 14.0078 18.7888H16.0531C19.2734 18.7888 22.0057 16.3459 22.5052 13.0347C22.8594 10.6844 21.7219 8.54642 19.7771 7.48583C19.7719 7.73608 19.751 7.98579 19.7141 8.23333C19.2146 11.544 16.4818 13.9875 13.2615 13.9875H10.0609C9.90262 13.9875 9.7495 14.0463 9.62911 14.1532C9.50872 14.2601 9.42896 14.4082 9.40417 14.5708Z" fill="#A6A6A6"/>
<path id="Vector_3" d="M8.4 21.19H4.35833C4.28019 21.1901 4.20296 21.1725 4.13197 21.1385C4.06099 21.1045 3.99794 21.0549 3.94719 20.9931C3.89643 20.9313 3.85918 20.8588 3.83799 20.7806C3.81681 20.7023 3.8122 20.6203 3.82448 20.54L6.54948 2.56642C6.57418 2.4036 6.65397 2.25531 6.77447 2.14826C6.89498 2.04121 7.04828 1.98242 7.20677 1.9825H14.1531C17.4411 1.9825 19.8328 4.47146 19.7771 7.48583C18.9589 7.0395 17.9974 6.78437 16.9438 6.78437H11.1526C10.9942 6.78454 10.8411 6.84342 10.7207 6.95044C10.6004 7.05746 10.5206 7.20562 10.4958 7.36829L9.40469 14.5708L8.4 21.19Z" fill="#A6A6A6"/>
</g>
</svg>
