<svg preserveAspectRatio="xMidYMid meet" width="100%" height="100%" overflow="visible" style="display: block;" viewBox="0 0 222 59" fill="none" xmlns="http://www.w3.org/2000/svg">
<g id="PayPal 1">
<path id="Vector" d="M82.7326 12.0664H70.4886C69.6507 12.0664 68.9382 12.6743 68.8075 13.5003L63.8554 44.8543C63.757 45.4729 64.2368 46.0307 64.8652 46.0307H70.7106C71.5485 46.0307 72.261 45.4228 72.3917 44.5951L73.7273 36.1384C73.8562 35.3106 74.5705 34.7027 75.4066 34.7027H79.2826C87.348 34.7027 92.0029 30.8052 93.2185 23.0815C93.7664 19.7024 93.2418 17.0474 91.6574 15.188C89.9172 13.1463 86.8306 12.0664 82.7326 12.0664ZM84.1452 23.5178C83.4756 27.9052 80.1187 27.9052 76.8729 27.9052H75.0253L76.3215 19.7114C76.3984 19.2161 76.8281 18.8514 77.3294 18.8514H78.1762C80.3873 18.8514 82.473 18.8514 83.5508 20.1101C84.1935 20.861 84.3904 21.9766 84.1452 23.5178Z" fill="var(--fill-0, #253B80)"/>
<path id="Vector_2" d="M119.332 23.3765H113.469C112.969 23.3765 112.538 23.7412 112.461 24.2365L112.201 25.8742L111.791 25.2806C110.522 23.4409 107.691 22.8258 104.866 22.8258C98.3872 22.8258 92.8533 27.7264 91.7755 34.6008C91.2151 38.03 92.0118 41.3089 93.9597 43.5956C95.7464 45.6982 98.303 46.5742 101.345 46.5742C106.565 46.5742 109.46 43.222 109.46 43.222L109.199 44.8489C109.1 45.4711 109.58 46.0289 110.205 46.0289H115.487C116.326 46.0289 117.035 45.4211 117.168 44.5933L120.337 24.5529C120.437 23.9361 119.959 23.3765 119.332 23.3765ZM111.159 34.7725C110.594 38.1176 107.935 40.3632 104.544 40.3632C102.841 40.3632 101.481 39.8179 100.607 38.7845C99.7407 37.7582 99.4112 36.2975 99.6869 34.6705C100.215 31.354 102.918 29.0352 106.257 29.0352C107.922 29.0352 109.276 29.5876 110.167 30.6299C111.061 31.683 111.415 33.1526 111.159 34.7725Z" fill="var(--fill-0, #253B80)"/>
<path id="Vector_3" d="M150.559 23.3765H144.667C144.105 23.3765 143.577 23.6554 143.258 24.1221L135.132 36.0758L131.687 24.5887C131.471 23.87 130.806 23.3765 130.054 23.3765H124.265C123.561 23.3765 123.072 24.0631 123.296 24.7246L129.786 43.744L123.684 52.3455C123.205 53.0231 123.688 53.9546 124.517 53.9546H130.402C130.96 53.9546 131.483 53.6829 131.8 53.2252L151.397 24.9767C151.866 24.3009 151.384 23.3765 150.559 23.3765Z" fill="var(--fill-0, #253B80)"/>
<path id="Vector_4" d="M170.066 12.0664H157.82C156.984 12.0664 156.272 12.6743 156.141 13.5003L151.189 44.8543C151.091 45.4729 151.57 46.0307 152.195 46.0307H158.479C159.063 46.0307 159.562 45.6052 159.654 45.0259L161.059 36.1384C161.188 35.3106 161.902 34.7027 162.739 34.7027H166.613C174.68 34.7027 179.333 30.8052 180.55 23.0815C181.1 19.7024 180.572 17.0474 178.987 15.188C177.249 13.1463 174.164 12.0664 170.066 12.0664ZM171.479 23.5178C170.811 27.9052 167.454 27.9052 164.207 27.9052H162.361L163.659 19.7114C163.736 19.2161 164.162 18.8514 164.665 18.8514H165.512C167.721 18.8514 169.808 18.8514 170.886 20.1101C171.529 20.861 171.724 21.9766 171.479 23.5178Z" fill="var(--fill-0, #179BD7)"/>
<path id="Vector_5" d="M206.664 23.3765H200.804C200.301 23.3765 199.873 23.7412 199.798 24.2365L199.539 25.8742L199.127 25.2806C197.858 23.4409 195.029 22.8258 192.204 22.8258C185.724 22.8258 180.192 27.7264 179.115 34.6008C178.556 38.03 179.349 41.3089 181.297 43.5956C183.087 45.6982 185.64 46.5742 188.682 46.5742C193.903 46.5742 196.798 43.222 196.798 43.222L196.536 44.8489C196.438 45.4711 196.918 46.0289 197.546 46.0289H202.826C203.662 46.0289 204.374 45.4211 204.505 44.5933L207.676 24.5529C207.772 23.9361 207.293 23.3765 206.664 23.3765ZM198.491 34.7725C197.929 38.1176 195.267 40.3632 191.876 40.3632C190.177 40.3632 188.813 39.8179 187.939 38.7845C187.073 37.7582 186.747 36.2975 187.019 34.6705C187.551 31.354 190.25 29.0352 193.589 29.0352C195.254 29.0352 196.608 29.5876 197.499 30.6299C198.396 31.683 198.751 33.1526 198.491 34.7725Z" fill="var(--fill-0, #179BD7)"/>
<path id="Vector_6" d="M213.577 12.9264L208.551 44.8543C208.453 45.4729 208.932 46.0307 209.557 46.0307H214.61C215.449 46.0307 216.162 45.4228 216.291 44.5951L221.246 13.2428C221.345 12.6242 220.865 12.0646 220.24 12.0646H214.583C214.083 12.0664 213.654 12.4311 213.577 12.9264Z" fill="var(--fill-0, #179BD7)"/>
<path id="Vector_7" d="M13.0085 52.1238L13.9448 46.1845L11.8591 46.1362H1.89953L8.82092 2.30994C8.8424 2.17764 8.91223 2.05427 9.01427 1.96667C9.11632 1.87906 9.24702 1.83079 9.38308 1.83079H26.1763C31.7514 1.83079 35.5988 2.98933 37.6075 5.27603C38.5492 6.34876 39.149 7.46976 39.439 8.70339C39.7434 9.99782 39.7487 11.5443 39.4515 13.4305L39.4301 13.5682V14.7768L40.3718 15.3096C41.1649 15.7298 41.7951 16.2107 42.2785 16.7614C43.0841 17.6785 43.6051 18.8442 43.8253 20.2263C44.0527 21.6476 43.9775 23.339 43.6051 25.2538C43.1754 27.4565 42.4808 29.3749 41.5426 30.9446C40.6797 32.391 39.5805 33.5907 38.2753 34.5204C37.0292 35.4036 35.5486 36.074 33.8747 36.5031C32.2527 36.9251 30.4033 37.1378 28.3748 37.1378H27.0679C26.1333 37.1378 25.2256 37.4739 24.5131 38.0765C23.7988 38.6915 23.3261 39.5318 23.1811 40.4508L23.0826 40.9853L21.4284 51.4534L21.3532 51.8378C21.3335 51.9593 21.2995 52.0201 21.2493 52.0612C21.2046 52.0988 21.1401 52.1238 21.0775 52.1238H13.0085Z" fill="var(--fill-0, #253B80)"/>
<path id="Vector_8" d="M41.2634 13.7077C41.2132 14.0277 41.1559 14.3549 41.0915 14.691C38.8769 26.0458 31.3002 29.9684 21.6235 29.9684H16.6965C15.5131 29.9684 14.5159 30.8266 14.3315 31.9923L11.809 47.9688L11.0946 52.4975C10.9747 53.2627 11.5655 53.9528 12.3389 53.9528H21.0775C22.1123 53.9528 22.9913 53.2019 23.1542 52.1828L23.2402 51.7394L24.8855 41.3125L24.9911 40.7404C25.1522 39.7177 26.0331 38.9668 27.0679 38.9668H28.3748C36.8413 38.9668 43.469 35.5341 45.4062 25.6006C46.2154 21.451 45.7965 17.9861 43.6552 15.5492C43.0071 14.8144 42.2033 14.2047 41.2634 13.7077Z" fill="var(--fill-0, #179BD7)"/>
<path id="Vector_9" d="M38.9467 12.7851C38.6083 12.6868 38.2592 12.5974 37.9011 12.5169C37.5413 12.4383 37.1725 12.3685 36.7929 12.3078C35.4645 12.0932 34.009 11.9913 32.4496 11.9913H19.2871C18.9631 11.9913 18.6552 12.0646 18.3795 12.1969C17.7725 12.4883 17.3214 13.0622 17.2122 13.7649L14.4121 31.4756L14.3315 31.9923C14.5159 30.8266 15.5131 29.9684 16.6965 29.9684H21.6235C31.3002 29.9684 38.8769 26.044 41.0915 14.691C41.1577 14.3549 41.2132 14.0277 41.2634 13.7077C40.703 13.4109 40.0961 13.157 39.4426 12.9407C39.2815 12.887 39.115 12.8352 38.9467 12.7851Z" fill="var(--fill-0, #222D65)"/>
<path id="Vector_10" d="M17.2121 13.7649C17.3214 13.0622 17.7725 12.4883 18.3794 12.1987C18.6569 12.0664 18.9631 11.9931 19.2871 11.9931H32.4496C34.0089 11.9931 35.4645 12.095 36.7929 12.3095C37.1724 12.3703 37.5413 12.4401 37.9011 12.5187C38.2592 12.5992 38.6083 12.6886 38.9467 12.7869C39.1149 12.837 39.2814 12.8888 39.4444 12.9407C40.0978 13.157 40.7048 13.4127 41.2651 13.7077C41.924 9.51152 41.2598 6.65449 38.9878 4.06742C36.4832 1.21933 31.9626 0 26.1781 0H9.38485C8.20324 0 7.19529 0.858182 7.01267 2.02567L0.0178832 46.3025C-0.119972 47.1786 0.55677 47.9688 1.44119 47.9688H11.8089L14.4121 31.4756L17.2121 13.7649Z" fill="var(--fill-0, #253B80)"/>
</g>
</svg>
