<svg preserveAspectRatio="xMidYMid meet" width="100%" height="100%" overflow="visible" style="display: block;" viewBox="0 0 34 27" fill="none" xmlns="http://www.w3.org/2000/svg">
<g id="salesforce 1">
<path id="Vector" d="M13.2223 12.9537H11.8224C11.8591 12.6816 11.9988 12.2091 12.5471 12.2091C12.9057 12.2091 13.183 12.4105 13.2223 12.9537ZM20.4823 12.2217C20.4574 12.2217 19.7328 12.1284 19.7328 13.2764C19.7328 14.4244 20.4568 14.3311 20.4823 14.3311C21.173 14.3311 21.2319 13.6171 21.2319 13.2764C21.2319 12.1289 20.5062 12.2217 20.4823 12.2217ZM7.56128 13.4747C7.50306 13.52 7.45675 13.5787 7.42632 13.6456C7.39588 13.7125 7.38222 13.7858 7.3865 13.8591C7.3865 14.1112 7.497 14.1782 7.56128 14.2309C7.81097 14.426 8.36187 14.3427 8.67319 14.281V13.3877C8.39056 13.3313 7.78441 13.2843 7.56128 13.4747ZM34 12.2344C34 16.8529 29.75 20.376 25.2153 19.4289C24.2393 21.1692 21.4577 23.1599 18.1921 21.6243C16.0055 26.6894 8.74172 26.4853 6.83347 21.3516C0.473344 22.6115 -2.66634 14.0548 2.83475 10.8427C0.988656 6.65402 4.0375 1.6875 8.90747 1.6875C9.92022 1.68812 10.9192 1.92008 11.8272 2.36542C12.7352 2.81076 13.5277 3.45753 14.1435 4.25566C15.2432 3.12715 16.7678 2.41998 18.4546 2.41998C20.7039 2.41998 22.6514 3.66029 23.7033 5.50863C28.6344 3.3634 34 6.99733 34 12.2344ZM6.39891 13.9113C6.39891 13.2912 5.77787 13.1114 5.44956 13.0059C5.16959 12.8946 4.73716 12.8208 4.73716 12.5344C4.73716 12.0356 5.64028 12.1832 6.07431 12.4226C6.07431 12.4226 6.13647 12.4601 6.16144 12.3979C6.17419 12.3609 6.28681 12.0509 6.29903 12.0134C6.30379 11.9987 6.30257 11.9826 6.29563 11.9688C6.28868 11.9549 6.27657 11.9442 6.26184 11.9391C5.60681 11.5367 4.09966 11.4903 4.09966 12.6088C4.09966 13.2659 4.71006 13.423 5.04953 13.5142C5.30028 13.5976 5.74919 13.6724 5.74919 13.973C5.74919 14.184 5.56166 14.3453 5.26203 14.3453C4.89799 14.3447 4.54391 14.2273 4.25266 14.0105C4.22769 13.9983 4.17722 13.973 4.165 14.0479L4.0375 14.4418C4.01253 14.4914 4.04972 14.5041 4.04972 14.5162C4.14269 14.59 4.59691 14.8637 5.26203 14.8637C5.96169 14.8637 6.39891 14.4914 6.39891 13.9087V13.9113ZM8.09891 11.6659C7.56075 11.6659 7.10759 11.8331 6.96203 11.9391C6.95621 11.9431 6.95125 11.9482 6.94745 11.9541C6.94365 11.96 6.94108 11.9667 6.93989 11.9736C6.9387 11.9805 6.93892 11.9876 6.94053 11.9944C6.94215 12.0013 6.94512 12.0077 6.94928 12.0134L7.08687 12.3857C7.09061 12.3987 7.09918 12.4097 7.11083 12.4165C7.12249 12.4234 7.13634 12.4256 7.14956 12.4226C7.18409 12.4226 7.51081 12.2117 8.04897 12.2117C8.26147 12.2117 8.42403 12.2491 8.53666 12.3362C8.72791 12.4838 8.69922 12.7733 8.69922 12.8941C8.44475 12.8783 7.684 12.7127 7.13681 13.0924C7.01208 13.1773 6.91094 13.2921 6.84278 13.4261C6.77462 13.5601 6.74163 13.7091 6.74687 13.8591C6.74687 14.1703 6.82709 14.4076 7.09697 14.6159C7.74722 15.0462 9.02434 14.7213 9.12103 14.6902C9.20497 14.6733 9.30856 14.6554 9.30856 14.5911V12.8044C9.31069 12.5613 9.32556 11.6633 8.09837 11.6633L8.09891 11.6659ZM10.5719 10.5595C10.5724 10.5512 10.5712 10.5429 10.5682 10.5351C10.5653 10.5273 10.5607 10.5202 10.5547 10.5143C10.5488 10.5084 10.5417 10.5039 10.5338 10.5009C10.526 10.498 10.5176 10.4968 10.5092 10.4973H9.9875C9.97917 10.4968 9.97083 10.4981 9.96304 10.5011C9.95525 10.5041 9.94819 10.5087 9.94231 10.5145C9.93644 10.5204 9.93189 10.5275 9.92896 10.5352C9.92604 10.543 9.9248 10.5513 9.92534 10.5595V14.7255C9.9248 14.7338 9.92604 14.7421 9.92896 14.7499C9.93189 14.7576 9.93644 14.7647 9.94231 14.7705C9.94819 14.7764 9.95525 14.781 9.96304 14.784C9.97083 14.7869 9.97917 14.7882 9.9875 14.7878H10.5124C10.5207 14.7883 10.5291 14.7871 10.537 14.7841C10.5449 14.7812 10.552 14.7766 10.5579 14.7708C10.5638 14.7649 10.5684 14.7578 10.5714 14.75C10.5744 14.7422 10.5756 14.7339 10.5751 14.7255L10.5719 10.5595ZM13.5336 12.0851C13.422 11.9633 13.1729 11.688 12.5959 11.688C12.4095 11.688 11.8437 11.7002 11.4962 12.1595C11.1589 12.5619 11.1467 13.1145 11.1467 13.2885C11.1467 13.4531 11.1547 14.0405 11.5217 14.4049C11.662 14.5584 12.0031 14.8389 12.7335 14.8389C13.3083 14.8389 13.6085 14.715 13.7206 14.6406C13.7456 14.628 13.7583 14.6032 13.7333 14.5415L13.6085 14.1813C13.6021 14.1677 13.5912 14.1565 13.5776 14.1498C13.564 14.1431 13.5484 14.1412 13.5336 14.1444C13.396 14.194 13.1962 14.2931 12.7213 14.2931C11.7959 14.2931 11.8262 13.5158 11.8214 13.4125H13.796C13.8105 13.4122 13.8244 13.4071 13.8356 13.3982C13.8469 13.3892 13.8548 13.3768 13.8582 13.3629C13.8428 13.3629 13.9682 12.5877 13.5347 12.0851H13.5336ZM15.4828 14.8637C16.1824 14.8637 16.6202 14.4914 16.6202 13.9087C16.6202 13.2885 15.9986 13.1087 15.6703 13.0032C15.4503 12.9157 14.9579 12.825 14.9579 12.5318C14.9579 12.3335 15.1327 12.1969 15.4078 12.1969C15.7168 12.2031 16.0203 12.2794 16.295 12.42C16.295 12.42 16.3577 12.4574 16.3827 12.3952C16.3949 12.3583 16.5075 12.0482 16.5197 12.0108C16.5245 11.996 16.5233 11.98 16.5163 11.9661C16.5094 11.9522 16.4973 11.9416 16.4826 11.9364C16.0623 11.678 15.5933 11.6759 15.4078 11.6759C14.7703 11.6759 14.3209 12.0604 14.3209 12.6062C14.3209 13.2632 14.9308 13.4204 15.2703 13.5116C15.5948 13.6171 15.9699 13.6835 15.9699 13.9704C15.9699 14.1813 15.7829 14.3427 15.4828 14.3427C15.1187 14.3419 14.7647 14.2245 14.4734 14.0078C14.4658 14.0014 14.4566 13.9972 14.4468 13.9957C14.437 13.9942 14.4269 13.9955 14.4178 13.9994C14.4087 14.0033 14.4008 14.0097 14.3951 14.0178C14.3895 14.0259 14.3862 14.0354 14.3857 14.0453L14.2609 14.4418C14.2359 14.4914 14.2731 14.5041 14.2731 14.5162C14.3645 14.59 14.8219 14.8637 15.4838 14.8637H15.4828ZM18.9704 11.8125C18.9704 11.7751 18.9577 11.7503 18.9077 11.7503H18.283C18.283 11.7429 18.3329 11.2788 18.5204 11.0927C18.7414 10.8738 19.1452 11.0062 19.1579 11.0062C19.2201 11.031 19.2328 11.0062 19.2451 10.9814L19.3954 10.5717C19.4326 10.5221 19.3954 10.51 19.3827 10.4973C19.1123 10.3918 18.4609 10.346 18.0832 10.7209C17.7921 11.0099 17.7113 11.455 17.6582 11.7503H17.2083C17.1921 11.7516 17.177 11.7586 17.1656 11.77C17.1542 11.7814 17.1473 11.7965 17.1461 11.8125L17.0707 12.2217C17.0707 12.2586 17.0834 12.2834 17.1333 12.2834H17.5706C17.1185 14.8094 17.1057 14.9312 17.0207 15.2112C16.9633 15.4021 16.8459 15.5751 16.7083 15.6205C16.7036 15.6205 16.5022 15.709 16.1962 15.6078C16.1962 15.6078 16.1463 15.583 16.1213 15.6452C16.1086 15.6827 15.9837 16.0049 15.971 16.0423C15.9582 16.0798 15.971 16.1167 15.9959 16.1167C16.2674 16.2222 16.6866 16.21 16.9458 16.1167C17.2794 15.9964 17.4622 15.7006 17.5583 15.4343C17.7044 15.0277 17.7076 14.918 18.1831 12.2839H18.8328C18.849 12.2826 18.8642 12.2756 18.8757 12.2643C18.8871 12.2529 18.8942 12.2378 18.8955 12.2217L18.9704 11.8125ZM21.8068 12.6563C21.777 12.5677 21.5358 11.7012 20.4696 11.7012C19.6594 11.7012 19.2477 12.2286 19.133 12.6563C19.0798 12.8145 18.964 13.3945 19.133 13.8966C19.1377 13.9124 19.3672 14.8521 20.4696 14.8521C21.2638 14.8521 21.6862 14.3453 21.8068 13.8966C21.9773 13.3898 21.8604 12.8145 21.8068 12.6563ZM24.2186 11.7756C23.953 11.6886 23.3357 11.6754 23.044 12.0609V11.8252C23.0445 11.8169 23.0432 11.8086 23.0402 11.8009C23.0372 11.7932 23.0326 11.7861 23.0267 11.7803C23.0207 11.7745 23.0136 11.77 23.0058 11.7671C22.998 11.7641 22.9897 11.7629 22.9813 11.7635H22.482C22.4736 11.7629 22.4653 11.7641 22.4575 11.7671C22.4497 11.77 22.4426 11.7745 22.4366 11.7803C22.4307 11.7861 22.4261 11.7932 22.4231 11.8009C22.4201 11.8086 22.4188 11.8169 22.4193 11.8252V14.7403C22.4188 14.7486 22.4201 14.7569 22.4231 14.7647C22.4261 14.7724 22.4307 14.7795 22.4366 14.7853C22.4425 14.7912 22.4496 14.7958 22.4574 14.7987C22.4653 14.8017 22.4736 14.803 22.482 14.8025H22.9941C23.0024 14.803 23.0108 14.8017 23.0186 14.7987C23.0264 14.7958 23.0335 14.7912 23.0394 14.7853C23.0454 14.7795 23.05 14.7724 23.0529 14.7647C23.0559 14.7569 23.0572 14.7486 23.0568 14.7403V13.2759C23.0568 13.1224 23.0594 12.6763 23.2937 12.4822C23.554 12.2238 23.9312 12.305 24.0061 12.3209C24.0221 12.3206 24.0376 12.3158 24.0509 12.307C24.0642 12.2982 24.0746 12.2858 24.081 12.2713C24.1434 12.1339 24.1977 11.993 24.2436 11.8494C24.2489 11.8361 24.2492 11.8213 24.2447 11.8077C24.2401 11.7942 24.2309 11.7826 24.2186 11.7751V11.7756ZM26.7054 14.6285L26.5928 14.2441C26.5678 14.1819 26.5179 14.2066 26.5179 14.2066C26.2932 14.3026 25.9787 14.3063 25.9181 14.3063C25.6716 14.3063 25.0059 14.2467 25.0059 13.2643C25.0059 12.9357 25.1042 12.2222 25.8809 12.2222C26.0884 12.217 26.2953 12.2464 26.4929 12.3093C26.4929 12.3093 26.5428 12.334 26.5556 12.2718C26.6055 12.1352 26.6427 12.0361 26.6932 11.8747C26.7054 11.8252 26.6682 11.813 26.6555 11.813C26.0397 11.6089 25.4687 11.6796 25.1807 11.813C25.0962 11.8521 24.3185 12.1553 24.3185 13.2643C24.3185 13.4172 24.2877 14.8521 25.8559 14.8521C26.1375 14.8516 26.4168 14.801 26.6804 14.7029C26.6919 14.6945 26.7004 14.6828 26.7049 14.6694C26.7093 14.656 26.7095 14.6415 26.7054 14.628V14.6285ZM29.5672 12.5445C29.5247 12.3863 29.282 11.6886 28.3799 11.6886C27.5299 11.6886 27.1304 12.2217 27.0178 12.6689C26.9565 12.8699 26.9269 13.0791 26.9301 13.2891C26.9301 14.6533 27.931 14.8395 28.5175 14.8395C29.0923 14.8395 29.3919 14.7155 29.5046 14.6412C29.5295 14.6285 29.5423 14.6037 29.5173 14.542L29.3919 14.1819C29.3855 14.1682 29.3746 14.1571 29.361 14.1504C29.3474 14.1437 29.3319 14.1417 29.317 14.1449C29.1794 14.1945 28.9797 14.2937 28.5047 14.2937C27.5793 14.2937 27.6096 13.5164 27.6053 13.413H29.5795C29.5939 13.4126 29.6079 13.4076 29.6192 13.3987C29.6305 13.3897 29.6386 13.3773 29.6422 13.3634C29.6294 13.3629 29.6921 12.9906 29.5672 12.5439V12.5445ZM28.33 12.2096C27.7812 12.2096 27.6393 12.6842 27.6053 12.9542H29.0062C28.9595 12.3256 28.6014 12.2091 28.33 12.2091V12.2096Z" fill="var(--fill-0, #A6A6A6)"/>
</g>
</svg>
