<svg preserveAspectRatio="xMidYMid meet" width="100%" height="100%" overflow="visible" style="display: block;" viewBox="0 0 199 98" fill="none" xmlns="http://www.w3.org/2000/svg">
<g id="SAP_2011_logo 2" clip-path="url(#clip0_0_81)">
<path id="Vector" fill-rule="evenodd" clip-rule="evenodd" d="M0 98H100.574L199 0H0L0 98Z" fill="#A6A6A6"/>
<path id="Vector_2" fill-rule="evenodd" clip-rule="evenodd" d="M118.097 19.6H98.4434L98.5091 65.6164L81.3952 19.5826H64.4258L49.8168 58.0269C48.2636 48.2443 38.1042 44.8688 30.1106 42.3404C24.8318 40.6526 19.2293 38.1699 19.2862 35.4259C19.3299 33.1741 22.2832 31.0856 28.1527 31.397C32.0904 31.6083 35.5687 31.924 42.4882 35.2517L49.2917 23.4481C42.9826 20.2512 34.2583 18.2324 27.1048 18.2258H27.061C18.7196 18.2258 11.7739 20.9154 7.46862 25.3472C4.46719 28.4396 2.84834 32.3727 2.78271 36.7217C2.67333 42.7062 4.87627 46.9485 9.5053 50.3393C13.4168 53.1922 18.4199 55.0433 22.828 56.4023C28.2642 58.0792 32.7051 59.5383 32.6504 62.6438C32.6067 63.7762 32.1779 64.8346 31.3597 65.6883C30.0034 67.0821 27.9251 67.6048 25.0484 67.6614C19.4984 67.779 15.3857 66.91 8.83151 63.0532L2.77833 75.0092C9.32591 78.7158 16.276 80.5756 24.1734 80.5756L25.9497 80.5625C32.8233 80.4384 38.4017 78.7985 42.8339 75.2488C43.0876 75.0462 43.3151 74.8415 43.5514 74.6346L42.8076 78.4501L59.3898 78.3978L62.365 70.8148C65.4933 71.8776 69.0504 72.4656 72.8263 72.4656C76.5059 72.4656 79.9667 71.9081 83.0359 70.9063L85.1098 78.3978L114.862 78.4261L114.934 61.1389H121.265C136.567 61.1389 145.613 53.3861 145.613 40.3847C145.608 25.9047 136.814 19.5978 118.097 19.5978L118.097 19.6ZM72.8262 58.935C70.5402 58.935 68.3963 58.5387 66.5521 57.8418L72.7562 38.3398H72.8765L78.98 57.8962C77.1424 58.5496 75.0488 58.935 72.824 58.935H72.8262ZM119.248 47.7304H114.929V32.0133H119.25C125.003 32.0133 129.597 33.9211 129.597 39.7706C129.592 45.8248 125.003 47.7304 119.25 47.7304" fill="#FFFFFF"/>
</g>
<defs>
<clipPath id="clip0_0_81">
<rect width="199" height="98" fill="white"/>
</clipPath>
</defs>
</svg>
