<svg preserveAspectRatio="xMidYMid meet" width="100%" height="100%" overflow="visible" style="display: block;" viewBox="0 0 44 20" fill="none" xmlns="http://www.w3.org/2000/svg">
<g id="SAP_2011_logo 1">
<path id="Subtract" d="M39.5039 0L19.9648 20H0V0H39.5039ZM5.37207 3.71973C3.71621 3.71973 2.33706 4.26841 1.48242 5.17285C0.886724 5.80393 0.565764 6.60668 0.552734 7.49414C0.531022 8.71541 0.967903 9.58145 1.88672 10.2734C2.66319 10.8557 3.65718 11.2334 4.53223 11.5107C5.61107 11.8529 6.49212 12.1506 6.48145 12.7842C6.47277 13.0152 6.38781 13.2311 6.22559 13.4053C5.95636 13.6897 5.54367 13.797 4.97266 13.8086C3.87092 13.8326 3.054 13.6553 1.75293 12.8682L0.551758 15.3076C1.85152 16.0641 3.23112 16.4443 4.79883 16.4443L5.15137 16.4414C6.51584 16.4161 7.6231 16.0809 8.50293 15.3564C8.55327 15.3151 8.59863 15.2736 8.64551 15.2314L8.49805 16.0098L11.79 15.999L12.3799 14.4521C13.0009 14.669 13.7075 14.7891 14.457 14.7891C15.1873 14.7891 15.8742 14.6751 16.4834 14.4707L16.8955 15.999L22.8018 16.0049L22.8154 12.4775H24.0723C27.1098 12.4775 28.906 10.8952 28.9062 8.24219C28.9053 5.28708 27.159 3.99902 23.4434 3.99902L19.542 4L19.5557 13.3906L16.1582 3.99609H12.7891L9.88965 11.8418C9.58117 9.84559 7.56427 9.1566 5.97754 8.64062C4.92965 8.29618 3.81781 7.78949 3.8291 7.22949C3.83797 6.77002 4.42391 6.34368 5.58887 6.40723C6.37052 6.45034 7.06102 6.51525 8.43457 7.19434L9.78516 4.78516C8.53276 4.13273 6.8009 3.72108 5.38086 3.71973H5.37207ZM15.6787 11.8154C15.3139 11.9488 14.8977 12.0264 14.4561 12.0264C14.0028 12.0263 13.5776 11.9467 13.2119 11.8047L14.4434 7.82422H14.4668L15.6787 11.8154ZM23.6729 6.5332C24.8148 6.53327 25.7265 6.92266 25.7266 8.11621C25.7256 9.35167 24.8148 9.74115 23.6729 9.74121H22.8145V6.5332H23.6729Z" fill="var(--fill-0, #A6A6A6)"/>
<path id="Union" d="M36.5044 0C38.9605 0.000178363 41.1449 2.04726 41.145 4.63965C41.145 7.36921 38.9605 9.55254 36.5044 9.55273C33.9118 9.55273 31.5923 7.36933 31.5923 4.63965C31.5924 2.0464 33.9119 0 36.5044 0ZM36.5044 0.683594C34.0496 0.683594 32.2749 2.45703 32.2749 4.64062C32.2749 7.09688 34.0496 8.87109 36.5044 8.87109C38.6886 8.87092 40.4614 7.09676 40.4614 4.64062C40.4608 3.59123 40.0433 2.58481 39.3013 1.84277C38.5593 1.10101 37.5535 0.684274 36.5044 0.683594ZM36.9136 2.18457C37.7331 2.18457 38.5532 2.59472 38.5532 3.5498C38.5531 4.36743 38.2793 4.64048 37.8696 4.91309C38.1437 5.04939 38.4154 5.18611 38.4155 5.86816V6.6875C38.4156 6.95978 38.5528 6.95998 38.689 7.09668V7.37012H37.8696C37.7333 6.96037 37.7339 6.14197 37.7339 6.00488C37.7339 5.59515 37.5967 5.18652 36.9136 5.18652H35.2769V7.37012H34.5952V2.18457H36.9136ZM35.2769 2.86719V4.50488H36.7778C37.3231 4.50484 37.8687 4.36786 37.8687 3.68555C37.8686 2.86699 37.3233 2.86719 36.9136 2.86719H35.2769Z" fill="var(--fill-0, #A6A6A6)"/>
</g>
</svg>
