<svg preserveAspectRatio="xMidYMid meet" width="100%" height="100%" overflow="visible" style="display: block;" viewBox="0 0 208 110" fill="none" xmlns="http://www.w3.org/2000/svg">
<g id="salesforce_commerce_cloud_logo_freelogovectors.net 2" clip-path="url(#clip0_0_192)">
<path id="Vector" d="M155.175 88.66C155.945 88.66 156.825 88.66 157.596 88.66C157.596 95.48 157.596 102.19 157.596 109.01C156.825 109.01 155.945 109.01 155.175 109.01V88.66ZM204.368 88.66C205.139 88.66 206.019 88.66 206.789 88.66V101.64C206.789 104.06 206.679 106.59 207.01 109.01C206.239 109.01 205.469 109.01 204.698 109.01C204.588 108.24 204.478 107.58 204.478 106.81C203.928 107.69 203.158 108.35 202.167 108.79C200.847 109.45 199.196 109.45 197.765 109.23C196.444 109.01 195.124 108.24 194.353 107.14C193.033 105.49 192.703 103.29 192.813 101.31C192.923 99 193.693 96.69 195.564 95.26C197.105 94.05 199.306 93.72 201.177 94.16C202.387 94.38 203.488 95.04 204.368 95.92C204.368 93.39 204.368 90.97 204.368 88.66ZM197.545 96.58C196.334 97.46 195.674 99 195.454 100.43C195.234 101.86 195.344 103.4 196.004 104.83C196.444 105.93 197.435 106.92 198.646 107.25C200.076 107.58 201.837 107.36 202.938 106.26C203.818 105.38 204.368 104.17 204.368 102.85C204.368 101.31 204.368 99.66 204.368 98.12C203.598 97.13 202.607 96.36 201.397 96.14C200.076 95.81 198.646 95.81 197.545 96.58ZM4.07197 94.38C6.71324 93.39 9.79472 93.72 11.9958 95.48C11.6656 96.03 11.3355 96.58 11.0053 97.24C9.46456 96.14 7.48361 95.7 5.72276 96.14C4.73229 96.36 3.85187 97.02 3.41165 97.79C2.53123 99.11 2.31112 100.76 2.53123 102.3C2.64128 103.73 3.19155 105.16 4.18202 106.15C5.06245 107.03 6.38308 107.25 7.59366 107.14C8.80425 107.03 10.0148 106.59 11.1154 105.93C11.4455 106.48 11.6656 107.14 11.9958 107.69C10.0148 109.23 7.26351 109.56 4.84234 109.01C3.08149 108.57 1.65081 107.25 0.880437 105.71C-0.110039 103.62 -0.220092 101.31 0.330172 99.11C0.660331 97.02 2.09102 95.15 4.07197 94.38ZM18.4889 94.05C20.5799 93.72 23.0011 93.94 24.7619 95.26C26.3027 96.36 27.1831 98.23 27.4032 99.99C27.7333 102.08 27.4032 104.39 26.1926 106.26C25.2021 107.8 23.5513 108.79 21.7905 109.12C19.6995 109.45 17.2783 109.23 15.6275 107.8C13.9767 106.59 13.0963 104.5 12.8762 102.52C12.6561 100.32 12.9863 98.01 14.4169 96.25C15.4074 95.04 16.8381 94.27 18.4889 94.05ZM18.709 96.03C17.6085 96.25 16.7281 96.91 16.1778 97.9C15.2974 99.44 15.1873 101.2 15.4074 102.96C15.6275 104.39 16.1778 105.82 17.3884 106.59C18.4889 107.36 19.9196 107.47 21.1302 107.25C22.2307 107.14 23.2212 106.48 23.8815 105.6C24.872 104.17 25.0921 102.3 24.982 100.54C24.872 99.11 24.3217 97.57 23.1111 96.69C21.7905 95.81 20.2498 95.7 18.709 96.03ZM32.5757 96.36C33.4561 95.04 34.9968 94.05 36.5376 93.94C37.8582 93.83 39.2889 93.94 40.4995 94.71C41.2699 95.26 41.8201 96.03 42.1503 96.8C42.8106 95.81 43.581 94.93 44.6815 94.38C46.0021 93.83 47.4328 93.72 48.7535 93.94C50.4042 94.27 51.8349 95.59 52.2752 97.24C52.7154 98.45 52.6053 99.88 52.6053 101.2V108.9C51.8349 108.9 50.9545 108.9 50.1841 108.9C50.1841 106.37 50.1841 103.84 50.1841 101.2C50.1841 99.99 50.2942 98.78 49.7439 97.68C49.4138 97.02 48.8635 96.36 48.2032 96.14C46.8826 95.7 45.3418 95.81 44.2413 96.8C43.1408 97.79 42.5905 99.33 42.5905 100.76V108.9C41.8201 108.9 40.9397 108.9 40.1693 108.9C40.1693 106.15 40.1693 103.51 40.1693 100.76C40.1693 99.99 40.1693 99.11 39.9492 98.34C39.7291 97.46 39.1789 96.58 38.2984 96.25C37.418 95.81 36.3175 95.81 35.327 96.14C34.1164 96.58 33.236 97.68 32.7958 98.89C32.4656 99.88 32.5757 100.98 32.5757 102.08C32.5757 104.39 32.5757 106.59 32.5757 108.9C31.8053 109.01 30.9249 108.9 30.1545 108.9C30.1545 106.26 30.1545 103.62 30.1545 100.98C30.1545 98.78 30.2646 96.58 29.9344 94.27C30.7048 94.27 31.4751 94.27 32.2455 94.27C32.4656 95.04 32.5757 95.7 32.5757 96.36ZM58.6582 96.36C59.5386 94.93 61.0794 94.05 62.7302 93.94C64.0508 93.83 65.4815 93.94 66.582 94.71C67.3524 95.26 67.9027 96.03 68.3429 96.91C69.0032 95.7 69.9937 94.82 71.3143 94.27C72.5249 93.83 73.8455 93.83 75.0561 94.05C76.7069 94.38 78.0275 95.7 78.5778 97.35C79.018 98.56 78.908 99.99 78.908 101.31V109.01C78.1376 109.01 77.2572 109.01 76.4868 109.01C76.4868 106.26 76.4868 103.51 76.4868 100.76C76.4868 99.77 76.4868 98.78 76.0466 97.9C75.7164 97.13 75.1662 96.47 74.3958 96.25C73.0752 95.81 71.5344 96.03 70.5439 96.91C69.4434 97.9 68.8931 99.44 68.8931 100.87C68.8931 103.62 68.8931 106.26 68.8931 109.01C68.1228 109.01 67.2423 109.01 66.472 109.01V101.09C66.472 100.21 66.582 99.22 66.2519 98.34C65.9217 97.46 65.3714 96.58 64.381 96.25C63.0603 95.81 61.4095 96.03 60.309 97.13C59.3185 98.01 58.8783 99.33 58.8783 100.65C58.8783 103.51 58.8783 106.26 58.8783 109.12C58.108 109.12 57.2275 109.12 56.4572 109.12C56.4572 105.38 56.4572 101.53 56.4572 97.79C56.4572 96.69 56.3471 95.59 56.2371 94.49C57.0074 94.49 57.7778 94.49 58.5482 94.49C58.5482 95.04 58.6582 95.7 58.6582 96.36ZM86.1715 94.16C87.4921 93.72 89.0328 93.72 90.3535 94.05C91.6741 94.38 92.7746 95.15 93.545 96.25C94.7556 98.01 95.0857 100.32 94.8656 102.41C91.2339 102.41 87.6021 102.41 83.9704 102.41C84.0804 103.84 84.5207 105.27 85.6212 106.26C86.6117 107.14 88.1524 107.36 89.473 107.25C90.7937 107.14 92.1143 106.59 93.2148 105.82C93.545 106.37 93.9852 106.92 94.3154 107.47C93.1048 108.35 91.564 109.01 90.0233 109.23C88.3725 109.45 86.7217 109.34 85.181 108.68C83.9704 108.13 82.9799 107.14 82.3196 105.93C81.5492 104.61 81.3291 103.07 81.3291 101.53C81.3291 99.88 81.6593 98.23 82.4297 96.91C83.4201 95.59 84.7408 94.6 86.1715 94.16ZM85.6212 96.69C84.5207 97.68 84.0804 99.11 83.9704 100.54C86.8318 100.54 89.6931 100.54 92.5545 100.54C92.4445 99.33 92.2244 98.23 91.564 97.24C91.0138 96.47 90.2434 96.03 89.2529 95.81C88.0423 95.7 86.6117 95.81 85.6212 96.69ZM101.799 94.6C102.899 93.94 104.22 93.83 105.431 94.05C105.431 94.71 105.321 95.48 105.321 96.14C104.11 96.03 102.789 96.14 101.799 96.91C100.588 97.9 100.148 99.33 100.148 100.87C100.148 103.62 100.148 106.26 100.148 109.01C99.3778 109.01 98.4974 109.01 97.727 109.01V100.98C97.727 98.78 97.8371 96.58 97.5069 94.38C98.2773 94.38 99.0476 94.38 99.818 94.38C99.9281 95.15 100.038 95.92 100.038 96.8C100.478 95.81 101.029 95.04 101.799 94.6ZM110.273 94.38C112.914 93.39 115.996 93.72 118.197 95.48C117.867 96.03 117.537 96.58 117.206 97.24C115.776 96.14 113.795 95.81 112.034 96.14C111.043 96.36 110.163 96.91 109.613 97.68C108.732 99 108.512 100.65 108.512 102.19C108.622 103.62 109.062 105.16 110.163 106.15C111.043 107.03 112.364 107.25 113.575 107.25C114.895 107.25 116.106 106.7 117.206 106.04C117.537 106.59 117.757 107.25 118.087 107.8C116.876 108.68 115.335 109.23 113.905 109.34C112.474 109.45 110.933 109.34 109.613 108.57C108.402 107.91 107.302 106.81 106.751 105.49C105.981 103.51 105.871 101.42 106.311 99.33C106.751 97.13 108.182 95.26 110.273 94.38ZM123.149 94.38C124.47 93.94 125.901 93.83 127.331 94.05C128.762 94.27 129.973 95.04 130.853 96.14C132.284 97.9 132.614 100.32 132.394 102.52C128.762 102.52 125.13 102.52 121.498 102.52C121.608 103.95 122.049 105.49 123.259 106.48C124.36 107.36 125.901 107.58 127.331 107.36C128.542 107.25 129.752 106.7 130.743 106.04C131.073 106.59 131.513 107.14 131.843 107.69C130.633 108.57 129.202 109.23 127.661 109.45C126.121 109.67 124.47 109.56 123.039 109.01C121.719 108.46 120.618 107.36 119.958 106.04C119.297 104.83 119.077 103.4 119.077 101.97C119.077 100.32 119.297 98.67 120.178 97.24C120.838 95.81 121.939 94.82 123.149 94.38ZM123.039 96.8C122.049 97.79 121.608 99.22 121.498 100.54C124.36 100.54 127.221 100.54 130.083 100.54C129.973 99.33 129.752 98.12 128.982 97.13C128.432 96.36 127.661 95.92 126.781 95.81C125.46 95.7 124.03 95.81 123.039 96.8ZM145.05 94.27C147.471 93.5 150.332 93.94 152.423 95.48C152.093 96.03 151.763 96.58 151.433 97.24C150.332 96.47 148.902 95.92 147.471 96.03C146.26 96.03 144.94 96.47 144.169 97.35C143.179 98.56 142.849 100.1 142.849 101.64C142.849 103.18 143.179 104.83 144.279 106.04C145.05 106.92 146.15 107.25 147.251 107.36C148.792 107.47 150.222 106.92 151.543 106.15C151.873 106.7 152.093 107.36 152.423 107.91C151.213 108.79 149.672 109.34 148.241 109.45C146.811 109.56 145.16 109.45 143.839 108.68C142.629 108.02 141.748 107.03 141.198 105.82C140.538 104.39 140.317 102.85 140.428 101.31C140.538 99.77 140.868 98.34 141.638 97.02C142.408 95.59 143.619 94.71 145.05 94.27ZM166.18 94.05C167.611 93.83 169.041 93.83 170.362 94.27C171.903 94.71 173.223 95.7 174.104 97.02C174.984 98.34 175.314 99.99 175.314 101.64C175.314 103.29 174.984 105.05 173.994 106.48C173.223 107.69 172.013 108.57 170.582 109.01C169.261 109.45 167.831 109.45 166.4 109.23C164.639 109.01 162.988 108.02 161.998 106.59C160.677 104.72 160.347 102.19 160.677 99.99C160.897 98.34 161.668 96.69 162.988 95.59C163.759 94.71 164.969 94.27 166.18 94.05ZM166.62 96.03C165.299 96.25 164.199 97.24 163.759 98.45C163.098 99.88 163.098 101.53 163.319 103.18C163.539 104.5 164.199 105.93 165.299 106.7C166.4 107.47 167.941 107.47 169.151 107.25C170.252 107.03 171.242 106.37 171.793 105.38C172.673 103.84 172.893 102.08 172.673 100.32C172.453 98.89 171.903 97.46 170.692 96.58C169.482 95.81 167.941 95.7 166.62 96.03ZM177.515 94.27H180.047V101.86C180.047 103.07 180.047 104.5 180.597 105.6C180.927 106.37 181.587 106.92 182.358 107.14C183.678 107.58 185.329 107.36 186.32 106.37C187.42 105.27 187.97 103.73 187.97 102.19C187.97 99.55 187.97 96.91 187.97 94.27C188.741 94.27 189.621 94.27 190.392 94.27C190.392 98.12 190.392 101.97 190.392 105.82C190.392 106.81 190.502 107.91 190.612 108.9C189.841 108.9 189.071 108.9 188.301 108.9C188.191 108.13 188.08 107.36 188.08 106.48C187.42 107.58 186.43 108.57 185.109 108.9C183.678 109.34 182.138 109.34 180.707 108.9C179.496 108.46 178.506 107.47 177.956 106.26C177.515 105.27 177.405 104.06 177.405 102.96C177.515 100.21 177.515 97.24 177.515 94.27Z" fill="var(--fill-0, #7C868D)"/>
<path id="Vector_2" d="M78.9079 0.659998H80.9989C85.6212 0.989998 90.2434 2.64 93.8751 5.61C95.3058 6.71 96.6265 8.03 97.727 9.57C100.698 6.49 104.77 4.29 109.062 3.52C113.465 2.75 118.197 3.52 122.159 5.61C125.68 7.48 128.542 10.34 130.523 13.86C136.135 11.33 142.629 11 148.461 12.98C153.634 14.74 158.256 18.15 161.338 22.77C164.199 26.95 165.74 32.12 165.74 37.18C165.74 42.46 163.979 47.85 160.787 52.14C157.926 55.99 153.964 59.07 149.452 60.83C145.05 62.48 140.317 62.81 135.695 61.93C133.384 66 129.642 69.08 125.13 70.51C120.728 71.94 115.776 71.5 111.594 69.52C109.723 74.03 106.091 77.88 101.689 80.08C99.0476 81.4 96.0762 82.17 93.1048 82.28H91.564C86.1714 82.06 80.7788 79.64 77.1471 75.68C75.1661 73.59 73.7354 71.17 72.745 68.53C68.7831 69.3 64.6011 68.97 60.8593 67.21C56.7873 65.34 53.2656 62.04 51.2847 57.97C50.0741 55.55 49.4138 52.8 49.3037 50.16V48.4C49.4138 46.42 49.7439 44.44 50.5143 42.57C52.055 38.28 55.1365 34.65 58.9884 32.34C57.0074 27.72 56.5672 22.44 57.8878 17.6C59.2085 12.76 62.0698 8.36 66.1418 5.39C69.8836 2.42 74.3958 0.879998 78.9079 0.659998ZM114.565 29.81C113.465 30.69 113.024 32.23 112.804 33.55C112.254 33.55 111.704 33.55 111.153 33.55C111.043 34.1 110.933 34.76 110.823 35.31C111.374 35.31 111.924 35.31 112.584 35.31C112.034 38.28 111.484 41.25 110.933 44.22C110.713 45.1 110.603 45.98 109.943 46.64C109.283 47.08 108.512 46.97 107.742 46.75C107.412 47.19 107.302 47.85 107.081 48.4C108.072 48.84 109.062 48.84 110.053 48.62C111.043 48.4 111.924 47.63 112.364 46.64C112.914 45.43 113.134 44 113.354 42.68C113.795 40.15 114.235 37.73 114.675 35.2C115.445 35.2 116.326 35.31 117.096 35.09C117.206 34.54 117.316 33.99 117.426 33.33C116.656 33.22 115.776 33.33 115.005 33.33C115.225 32.56 115.225 31.57 115.996 31.02C116.656 30.47 117.537 30.69 118.307 30.91C118.527 30.36 118.747 29.7 118.967 29.15C117.537 28.93 115.776 28.93 114.565 29.81ZM86.3915 29.26C86.3915 34.21 86.3915 39.16 86.3915 44C87.0519 44 87.8222 44.11 88.4825 44C88.5926 43.56 88.4825 43.23 88.4825 42.79C88.4825 38.28 88.4825 33.77 88.4825 29.26C87.9323 29.26 87.1619 29.26 86.3915 29.26ZM66.9122 35.09C66.3619 36.19 66.3619 37.73 67.3524 38.61C68.3429 39.49 69.6635 39.71 70.8741 40.15C71.3143 40.37 71.9746 40.48 72.1947 41.03C72.4148 41.69 71.9746 42.46 71.3143 42.57C70.4339 42.79 69.4434 42.68 68.563 42.35C67.9026 42.13 67.4624 41.69 66.9122 41.47C66.6921 42.02 66.472 42.57 66.2518 43.12C67.6825 44.22 69.6635 44.66 71.5344 44.33C72.6349 44.11 73.7355 43.45 74.1757 42.35C74.6159 41.25 74.5058 39.93 73.6254 39.16C72.5249 38.17 71.0942 37.95 69.7735 37.4C69.3333 37.18 68.673 36.85 68.7831 36.3C68.7831 35.64 69.4434 35.2 69.9936 35.2C71.2042 35.09 72.4148 35.53 73.5153 35.97C73.8455 35.53 73.9556 34.87 74.1757 34.43C72.9651 33.55 71.4243 33.33 69.9936 33.33C68.673 33.44 67.4624 33.99 66.9122 35.09ZM76.5968 34.1C76.3767 34.21 76.1566 34.32 76.0466 34.54C76.1566 35.09 76.3767 35.64 76.5968 36.08C77.2571 35.75 78.0275 35.42 78.7979 35.31C79.6783 35.2 80.6688 35.09 81.4392 35.64C81.9894 36.08 81.9894 36.85 81.9894 37.51C80.4487 37.29 78.9079 37.18 77.4773 37.84C76.4868 38.28 75.7164 39.16 75.4963 40.15C75.2762 41.14 75.3862 42.24 76.0466 43.01C76.5968 43.67 77.5873 44.11 78.4677 44.22C80.2286 44.44 81.9894 44.11 83.7503 43.78C83.9704 43.78 84.1905 43.67 84.1905 43.45C84.1905 41.47 84.1905 39.49 84.1905 37.62C84.1905 36.74 84.0804 35.97 83.7503 35.2C83.2 34.21 82.0995 33.66 80.9989 33.55C79.5683 33.33 78.0275 33.44 76.5968 34.1ZM92.1143 34.65C91.0138 35.75 90.5735 37.29 90.5735 38.83C90.5735 40.26 90.9037 41.8 91.8942 42.79C92.8847 43.89 94.3153 44.33 95.746 44.33C97.0667 44.33 98.3873 44.22 99.5979 43.56C99.3778 43.01 99.2677 42.46 99.0476 41.91C98.3873 42.13 97.727 42.35 97.0667 42.46C95.9661 42.57 94.8656 42.57 93.9852 41.8C93.3249 41.25 93.1048 40.26 93.1048 39.49C95.4159 39.49 97.727 39.49 100.038 39.49C100.148 38.5 100.148 37.4 99.818 36.41C99.3778 35.09 98.2772 33.99 96.9566 33.66C95.0857 33.22 93.3249 33.44 92.1143 34.65ZM102.899 33.99C101.359 34.87 100.919 37.18 102.129 38.5C103.23 39.6 104.88 39.71 106.201 40.26C106.641 40.48 107.081 40.81 107.081 41.25C107.081 41.91 106.421 42.46 105.871 42.57C104.88 42.68 103.89 42.46 103.01 42.02C102.569 41.8 102.239 41.47 101.799 41.36C101.579 41.91 101.469 42.46 101.249 43.01C102.129 43.67 103.12 44.11 104.11 44.22C105.431 44.44 106.861 44.44 108.072 43.67C109.503 42.68 109.943 40.37 108.622 39.16C107.522 38.17 105.981 37.95 104.66 37.4C104.22 37.18 103.78 36.85 103.78 36.3C103.78 35.64 104.33 35.2 104.99 35.2C106.201 35.09 107.412 35.53 108.512 35.97C108.842 35.53 108.952 34.98 109.172 34.43C108.952 34.1 108.512 33.99 108.072 33.77C106.311 33.22 104.44 33.11 102.899 33.99ZM121.278 33.55C119.848 33.77 118.637 34.87 118.087 36.19C117.537 37.51 117.426 39.16 117.757 40.59C117.977 41.8 118.637 42.9 119.628 43.56C120.728 44.33 122.269 44.55 123.589 44.33C124.8 44.11 126.011 43.34 126.561 42.24C127.331 40.92 127.441 39.38 127.221 37.95C127.111 36.63 126.451 35.2 125.35 34.43C124.25 33.44 122.709 33.22 121.278 33.55ZM137.896 34.1C136.686 34.87 135.915 36.3 135.695 37.62C135.475 39.05 135.585 40.59 136.356 41.91C136.906 42.9 137.896 43.67 138.997 44C140.538 44.44 142.298 44.33 143.839 43.67C143.729 43.12 143.509 42.57 143.289 41.91C141.968 42.24 140.428 42.57 139.217 41.8C138.116 41.03 137.786 39.6 137.896 38.39C138.006 37.18 138.447 35.97 139.547 35.42C140.648 34.98 141.968 35.2 143.069 35.53C143.289 34.98 143.509 34.43 143.619 33.88C143.509 33.55 143.069 33.66 142.739 33.55C141.308 33.22 139.437 33.22 137.896 34.1ZM146.04 34.65C144.94 35.75 144.499 37.29 144.499 38.83C144.499 40.26 144.83 41.8 145.71 42.79C146.701 43.89 148.131 44.33 149.562 44.33C150.883 44.33 152.203 44.22 153.414 43.56C153.304 43.01 153.084 42.46 152.863 41.91C152.203 42.13 151.543 42.35 150.772 42.46C149.672 42.57 148.571 42.57 147.691 41.8C147.031 41.25 146.811 40.26 146.811 39.49C149.122 39.49 151.433 39.49 153.744 39.49C153.964 38.39 153.854 37.29 153.524 36.19C153.084 34.98 151.983 33.88 150.662 33.55C149.122 33.22 147.251 33.44 146.04 34.65ZM131.293 34.54C131.183 34.21 131.403 33.77 131.183 33.55C130.523 33.55 129.862 33.55 129.202 33.55C129.202 37.07 129.202 40.48 129.202 44C129.972 44 130.633 44 131.403 44C131.403 42.13 131.403 40.26 131.403 38.39C131.403 37.4 131.623 36.41 132.504 35.75C133.164 35.31 134.044 35.31 134.815 35.42C135.255 34.98 135.255 34.21 135.585 33.66C134.044 33.22 132.284 33.44 131.293 34.54ZM94.0952 35.53C94.9757 34.98 96.4063 35.09 97.0667 35.97C97.5069 36.52 97.6169 37.18 97.727 37.73C96.0762 37.73 94.5355 37.73 92.8847 37.73C92.9947 36.96 93.3249 35.97 94.0952 35.53ZM121.719 35.31C122.599 35.09 123.699 35.31 124.25 36.08C125.02 37.07 125.02 38.39 124.91 39.6C124.8 40.59 124.47 41.69 123.589 42.24C122.599 42.79 121.058 42.57 120.398 41.58C119.738 40.37 119.738 38.94 119.958 37.62C120.178 36.63 120.728 35.53 121.719 35.31ZM148.021 35.53C148.902 34.98 150.332 35.09 150.993 35.97C151.433 36.41 151.543 37.18 151.653 37.73C150.002 37.73 148.461 37.73 146.811 37.73C147.031 36.96 147.251 36.08 148.021 35.53ZM78.4677 39.49C79.5683 38.94 80.8889 39.16 82.0995 39.27C82.0995 40.26 82.0995 41.36 82.0995 42.35C80.8889 42.57 79.6783 42.79 78.4677 42.35C77.3672 41.8 77.4773 40.04 78.4677 39.49Z" fill="var(--fill-0, #00A1E0)"/>
<path id="Vector_3" d="M114.565 29.81C115.776 28.93 117.537 28.82 118.857 29.37C118.637 29.92 118.417 30.58 118.197 31.13C117.426 30.91 116.546 30.8 115.886 31.24C115.115 31.79 115.115 32.78 114.895 33.55C115.666 33.55 116.546 33.55 117.316 33.55C117.206 34.1 117.206 34.65 116.986 35.31C116.216 35.53 115.335 35.31 114.565 35.42C114.125 37.95 113.685 40.37 113.244 42.9C113.024 44.22 112.804 45.65 112.254 46.86C111.814 47.74 110.933 48.62 109.943 48.84C108.952 49.06 107.852 49.06 106.971 48.62C107.192 48.07 107.302 47.41 107.632 46.97C108.292 47.19 109.172 47.3 109.833 46.86C110.493 46.2 110.603 45.32 110.823 44.44C111.374 41.47 111.924 38.5 112.364 35.53C111.814 35.53 111.263 35.53 110.603 35.53C110.713 34.98 110.823 34.32 110.933 33.77C111.484 33.77 112.034 33.77 112.584 33.77C113.024 32.23 113.465 30.69 114.565 29.81ZM86.3915 29.26C87.1619 29.26 87.8222 29.15 88.5926 29.26C88.5926 33.77 88.5926 38.28 88.5926 42.79C88.5926 43.23 88.5926 43.56 88.5926 44C87.9323 44.11 87.1619 44 86.5016 44C86.3915 39.16 86.3915 34.21 86.3915 29.26ZM66.9122 35.09C67.4624 33.99 68.673 33.44 69.8836 33.44C71.3143 33.33 72.855 33.66 74.0656 34.54C73.8455 35.09 73.7354 35.64 73.4053 36.08C72.3048 35.64 71.0942 35.2 69.8836 35.31C69.3333 35.31 68.673 35.75 68.673 36.41C68.673 36.96 69.2233 37.29 69.6635 37.51C70.9841 38.06 72.4148 38.28 73.5154 39.27C74.3958 40.04 74.3958 41.47 74.0656 42.46C73.6254 43.56 72.5249 44.22 71.4243 44.44C69.5534 44.66 67.6825 44.33 66.1418 43.23C66.3619 42.68 66.582 42.13 66.8021 41.58C67.3524 41.8 67.9026 42.24 68.4529 42.46C69.3333 42.79 70.3238 43.01 71.2042 42.68C71.8646 42.46 72.3048 41.8 72.0847 41.14C71.8646 40.7 71.3143 40.48 70.764 40.26C69.5534 39.82 68.2328 39.6 67.2423 38.72C66.3619 37.73 66.3619 36.19 66.9122 35.09ZM76.5968 34.1C78.0275 33.55 79.5683 33.33 81.109 33.44C82.2095 33.55 83.3101 34.1 83.8603 35.09C84.3005 35.86 84.3005 36.74 84.3005 37.51C84.3005 39.49 84.3005 41.47 84.3005 43.34C84.3005 43.56 84.0804 43.56 83.8603 43.67C82.0995 44.11 80.3386 44.44 78.5778 44.11C77.6974 44 76.8169 43.67 76.1566 42.9C75.4963 42.13 75.3862 41.03 75.6063 40.04C75.8265 38.94 76.5968 38.17 77.5873 37.73C79.018 37.07 80.5587 37.29 82.0995 37.4C82.0995 36.74 82.0995 35.97 81.5492 35.53C80.7788 34.98 79.7884 35.09 78.9079 35.2C78.1376 35.31 77.3672 35.53 76.7069 35.97C76.4868 35.42 76.2667 34.98 76.1566 34.43C76.1566 34.21 76.3767 34.21 76.5968 34.1ZM78.4677 39.49C77.4773 40.04 77.3672 41.8 78.4677 42.24C79.5683 42.79 80.8889 42.46 81.9894 42.24C81.9894 41.25 81.9894 40.26 81.9894 39.16C80.8889 39.16 79.5683 38.94 78.4677 39.49ZM92.1143 34.65C93.3249 33.44 95.1958 33.22 96.7365 33.55C98.0571 33.88 99.1577 34.98 99.5979 36.3C99.928 37.29 99.928 38.39 99.818 39.38C97.5069 39.49 95.1958 39.38 92.8847 39.38C92.9947 40.26 93.1048 41.14 93.7651 41.69C94.6455 42.46 95.8561 42.46 96.8466 42.35C97.5069 42.35 98.1672 42.02 98.8275 41.8C99.0476 42.35 99.2677 42.9 99.3778 43.45C98.1672 44.11 96.8466 44.22 95.5259 44.22C94.0952 44.22 92.6646 43.78 91.6741 42.68C90.6836 41.58 90.3534 40.15 90.3534 38.72C90.4635 37.29 90.9037 35.64 92.1143 34.65ZM94.0952 35.53C93.3249 35.97 92.9947 36.96 92.8847 37.73C94.5355 37.73 96.0762 37.73 97.727 37.73C97.6169 37.07 97.5069 36.41 97.0667 35.97C96.4064 35.09 94.9757 34.98 94.0952 35.53ZM102.899 33.99C104.44 33.11 106.311 33.33 107.962 33.88C108.292 34.1 108.842 34.1 109.062 34.54C108.842 35.09 108.732 35.64 108.402 36.08C107.302 35.53 106.091 35.2 104.88 35.31C104.33 35.42 103.67 35.75 103.67 36.41C103.67 36.96 104.11 37.29 104.55 37.51C105.871 38.06 107.412 38.28 108.512 39.27C109.833 40.48 109.393 42.9 107.962 43.78C106.861 44.55 105.321 44.55 104 44.33C103.01 44.11 101.909 43.78 101.139 43.12C101.359 42.57 101.579 42.02 101.689 41.47C102.129 41.58 102.569 41.91 102.899 42.13C103.78 42.57 104.77 42.79 105.761 42.68C106.421 42.57 107.081 42.13 106.971 41.36C106.971 40.81 106.531 40.48 106.091 40.37C104.77 39.71 103.12 39.71 102.019 38.61C100.919 37.18 101.359 34.87 102.899 33.99ZM121.278 33.55C122.709 33.33 124.25 33.44 125.35 34.32C126.451 35.09 127.111 36.52 127.221 37.84C127.331 39.27 127.221 40.81 126.561 42.13C125.901 43.23 124.8 44 123.589 44.22C122.269 44.44 120.838 44.33 119.628 43.45C118.637 42.79 117.977 41.58 117.757 40.48C117.426 39.05 117.537 37.51 118.087 36.08C118.637 34.76 119.848 33.77 121.278 33.55ZM121.719 35.31C120.728 35.53 120.178 36.52 119.958 37.51C119.738 38.83 119.738 40.26 120.398 41.47C121.058 42.57 122.599 42.68 123.589 42.13C124.47 41.58 124.8 40.48 124.91 39.49C125.02 38.28 124.91 36.96 124.25 35.97C123.699 35.31 122.599 35.09 121.719 35.31ZM137.896 34.1C139.327 33.11 141.198 33.22 142.849 33.55C143.179 33.66 143.509 33.66 143.729 33.88C143.619 34.43 143.399 34.98 143.179 35.53C141.968 35.31 140.758 34.98 139.657 35.42C138.557 35.97 138.006 37.18 138.006 38.39C137.896 39.6 138.116 41.14 139.327 41.8C140.538 42.57 142.078 42.35 143.399 41.91C143.619 42.46 143.839 43.01 143.949 43.67C142.408 44.22 140.648 44.44 139.107 44C138.006 43.67 137.016 43.01 136.466 41.91C135.695 40.59 135.585 39.05 135.805 37.62C135.915 36.3 136.686 34.87 137.896 34.1ZM146.04 34.65C147.251 33.44 149.122 33.22 150.662 33.55C151.983 33.88 153.084 34.87 153.524 36.19C153.854 37.29 153.964 38.39 153.744 39.49C151.433 39.49 149.122 39.49 146.811 39.49C146.921 40.37 147.031 41.25 147.691 41.8C148.571 42.57 149.672 42.57 150.772 42.46C151.433 42.46 152.203 42.13 152.863 41.91C153.084 42.46 153.304 43.01 153.414 43.56C152.203 44.22 150.883 44.33 149.562 44.33C148.131 44.33 146.701 43.89 145.71 42.79C144.72 41.69 144.389 40.26 144.499 38.83C144.499 37.29 144.94 35.64 146.04 34.65ZM148.021 35.53C147.251 35.97 147.031 36.96 146.811 37.73C148.461 37.73 150.002 37.73 151.653 37.73C151.543 37.07 151.433 36.41 150.993 35.97C150.332 35.09 148.902 34.98 148.021 35.53ZM131.293 34.54C132.284 33.44 134.044 33.22 135.475 33.77C135.255 34.32 135.145 35.09 134.705 35.53C133.934 35.42 133.054 35.42 132.394 35.86C131.513 36.41 131.293 37.51 131.293 38.5C131.293 40.37 131.293 42.24 131.293 44.11C130.523 44.11 129.862 44.11 129.092 44.11C129.092 40.59 129.092 37.18 129.092 33.66C129.752 33.55 130.413 33.55 131.073 33.66C131.403 33.88 131.183 34.32 131.293 34.54Z" fill="var(--fill-0, white)"/>
</g>
<defs>
<clipPath id="clip0_0_192">
<rect width="208" height="110" fill="white"/>
</clipPath>
</defs>
</svg>
