<svg preserveAspectRatio="xMidYMid meet" width="100%" height="100%" overflow="visible" style="display: block;" viewBox="0 0 59.6329 14.9492" fill="none" xmlns="http://www.w3.org/2000/svg">
<g id="Shopify">
<path id="Vector" d="M46.4744 5.65178C45.7148 5.65178 45.0916 5.97425 44.6486 6.59029L44.7344 6.04726C44.7615 5.87538 44.6654 5.73012 44.5244 5.73012C44.3834 5.73012 44.2412 5.87538 44.2144 6.04726L42.902 14.3528C42.8749 14.5246 42.971 14.6699 43.112 14.6699C43.253 14.6699 43.3952 14.5246 43.4223 14.3528L43.9096 11.268C44.089 11.6623 44.5051 12.2031 45.4394 12.2031C46.1703 12.2031 46.7832 11.9293 47.2618 11.3885C47.7556 10.8307 48.0925 10.0006 48.2631 8.92059C48.4337 7.84138 48.3586 7.01315 48.0404 6.4591C47.7328 5.92368 47.2056 5.65178 46.4744 5.65178ZM45.5314 11.622C44.4199 11.622 43.9801 10.6881 44.2593 8.92135C44.5413 7.13788 45.2447 6.2336 46.3506 6.2336C47.5591 6.2336 48.0073 7.11279 47.7216 8.92135C47.4302 10.7638 46.7343 11.622 45.5314 11.622Z" fill="var(--fill-0, #A6A6A6)"/>
<path id="Vector_2" d="M57.798 8.57008C57.1388 8.27195 56.5159 7.99055 56.6344 7.24142C56.694 6.86495 56.9445 6.23294 57.9542 6.23294C58.5217 6.23294 58.8798 6.42421 59.1902 6.89347C59.2485 6.98093 59.3146 6.98093 59.343 6.98093C59.4722 6.98093 59.6026 6.84784 59.6275 6.69002C59.6412 6.60446 59.6278 6.55389 59.5969 6.48658C59.5957 6.48392 59.5944 6.48125 59.5929 6.47859C59.2778 5.92948 58.7575 5.65112 58.0463 5.65112C57.0097 5.65112 56.2694 6.26032 56.1141 7.24104C55.9288 8.41531 56.7813 8.80813 57.5337 9.15494C58.1838 9.45459 58.7984 9.73752 58.6845 10.4558C58.5242 11.47 57.652 11.6214 57.146 11.6214C56.4485 11.6214 56.018 11.3902 55.7057 10.8479C55.7048 10.8464 55.7035 10.8445 55.7026 10.843C55.6639 10.7848 55.6125 10.7555 55.5501 10.7555C55.435 10.7555 55.293 10.8726 55.2656 11.0464C55.2518 11.1316 55.2653 11.1818 55.2961 11.2495C55.5039 11.7237 56.1284 12.2032 57.0543 12.2032C58.2281 12.2032 59.032 11.5499 59.2048 10.4558C59.3895 9.28918 58.5438 8.907 57.798 8.57008Z" fill="var(--fill-0, #A6A6A6)"/>
<path id="Vector_3" d="M56.2249 4.01095H55.6759L55.7817 3.34168C55.8088 3.1698 55.7127 3.02453 55.5717 3.02453C55.4307 3.02453 55.2885 3.1698 55.2613 3.34168L55.1556 4.01095H54.6066C54.4656 4.01095 54.3236 4.15622 54.2965 4.3281C54.2693 4.49999 54.3654 4.64525 54.5064 4.64525H55.0554L54.9497 5.31452C54.9226 5.48641 55.0186 5.63167 55.1596 5.63167C55.3006 5.63167 55.4429 5.48641 55.4697 5.31452L55.5755 4.64525H56.1245C56.2652 4.64525 56.4074 4.49999 56.4346 4.3281C56.4623 4.1566 56.3659 4.01095 56.2249 4.01095Z" fill="var(--fill-0, #A6A6A6)"/>
<path id="Vector_4" d="M12.6343 10.4569C12.901 10.6261 13.3811 10.86 13.8399 10.8471C14.2561 10.8471 14.48 10.5737 14.48 10.236C14.48 9.91086 14.32 9.68992 13.8718 9.37772C13.3171 8.98756 12.901 8.44112 12.901 7.72583C12.901 6.46409 13.7866 5.56665 15.0774 5.56665C15.643 5.56665 16.0803 5.6967 16.3149 5.86592L15.9736 7.14059C15.7709 7.02347 15.4402 6.89341 15.0562 6.89341C14.6401 6.89341 14.3734 7.12766 14.3734 7.49158C14.3734 7.77754 14.5655 7.98593 14.9389 8.23311C15.5151 8.63619 15.9952 9.18264 15.9952 9.95003C15.9952 11.3806 15.0456 12.1872 13.7226 12.1742C13.1143 12.1613 12.5488 11.9658 12.2718 11.732L12.6343 10.4569Z" fill="var(--fill-0, #A6A6A6)"/>
<path id="Vector_5" d="M16.2947 12.1389L17.7243 3.03179H19.1967L18.6311 6.56223L18.6523 6.53904C19.0469 5.96673 19.5592 5.57162 20.2099 5.57162C20.9782 5.57162 21.4156 6.17397 21.4156 7.18854C21.4156 7.50074 21.3728 8.00536 21.3089 8.3959L20.7327 12.1393H19.2603L19.815 8.50808C19.8574 8.2609 19.8792 7.94109 19.8792 7.6943C19.8792 7.30414 19.7513 7.02084 19.4204 7.02084C18.9509 7.02084 18.4493 7.78518 18.2574 8.96896L17.7664 12.1393H16.2947V12.1389Z" fill="var(--fill-0, #A6A6A6)"/>
<path id="Vector_6" d="M26.7401 8.064C26.7401 10.2882 25.5662 12.1873 23.8271 12.1873C22.5042 12.1873 21.8001 11.0685 21.8001 9.67672C21.8001 7.50462 22.9739 5.55345 24.7449 5.55345C26.1215 5.55383 26.7401 6.7764 26.7401 8.064ZM23.3046 9.63794C23.3046 10.2882 23.518 10.8084 24.0196 10.8084C24.7982 10.8084 25.2359 9.11735 25.2359 8.0119C25.2359 7.47876 25.0649 6.93269 24.5424 6.93269C23.742 6.93231 23.3046 8.61007 23.3046 9.63794Z" fill="var(--fill-0, #A6A6A6)"/>
<path id="Vector_7" d="M26.3884 14.6688L27.4125 8.10532C27.5301 7.36379 27.6471 6.40475 27.7113 5.72977H29.0131L28.9276 6.74167H28.9488C29.3434 6.06707 29.9199 5.61416 30.5064 5.61416C31.5838 5.61416 32.0215 6.66333 32.0215 7.87297C32.0215 10.0584 30.8907 12.2107 29.1622 12.2107C28.7994 12.2107 28.4687 12.1389 28.2978 11.9704H28.2657L27.8601 14.6688H26.3884ZM28.4906 10.5744C28.6506 10.7303 28.8318 10.8345 29.0989 10.8345C29.9205 10.8345 30.4861 9.18263 30.4861 8.02508C30.4861 7.54404 30.3473 7.03676 29.8993 7.03676C29.3871 7.03676 28.907 7.77829 28.7364 8.89666L28.4906 10.5744Z" fill="var(--fill-0, #A6A6A6)"/>
<path id="Vector_8" d="M32.0646 12.1391L33.0569 5.73035H34.5399L33.5369 12.1391H32.0646ZM33.9746 5.05575C33.5585 5.05575 33.2812 4.62186 33.2812 4.08872C33.2812 3.50349 33.6546 3.01332 34.124 3.01332C34.572 3.01332 34.8602 3.44302 34.8602 3.96323C34.8496 4.62642 34.4547 5.05613 33.9961 5.05613L33.9746 5.05575Z" fill="var(--fill-0, #A6A6A6)"/>
<path id="Vector_9" d="M34.8174 12.1389L35.5963 7.07937H34.9134L35.1268 5.73017H35.8097L35.8524 5.4077C35.97 4.65324 36.2043 3.887 36.7059 3.36679C37.1005 2.95077 37.6233 2.76254 38.1465 2.76254C38.5092 2.76254 38.776 2.8249 38.9466 2.91579L38.6587 4.31899C38.5308 4.26727 38.3813 4.22734 38.1892 4.22734C37.6982 4.22734 37.3993 4.7966 37.3142 5.40808L37.2608 5.73017H38.285L38.0822 7.07937H37.0687L36.2897 12.1389H34.8174Z" fill="var(--fill-0, #A6A6A6)"/>
<path id="Vector_10" d="M40.1098 5.73031L40.3444 8.59908C40.4087 9.23641 40.4511 9.77791 40.4723 10.1152H40.4935C40.6111 9.77791 40.7178 9.2752 40.9312 8.58615L41.8274 5.73069H43.3637L41.5607 10.4225C40.9206 12.0352 40.3017 13.2106 39.6294 13.978C39.1066 14.5762 38.4877 14.8713 38.1889 14.9492L37.7833 13.4251C38.0288 13.3209 38.338 13.1638 38.6156 12.9171C38.9569 12.6311 39.2451 12.2402 39.4157 11.8371C39.4582 11.7462 39.4691 11.6846 39.4479 11.5545L38.5623 5.73108L40.1098 5.73031Z" fill="var(--fill-0, #A6A6A6)"/>
<path id="Vector_11" d="M55.0209 6.33342C54.8799 6.33342 54.7377 6.47869 54.7106 6.65057L54.2133 9.79883C53.9435 11.4024 53.1355 11.6215 52.3781 11.6215C51.014 11.6215 50.9797 10.6742 51.126 9.7475L51.7106 6.04746C51.7377 5.87558 51.6416 5.73031 51.5006 5.73031C51.3596 5.73031 51.2174 5.87558 51.1902 6.04746L50.6057 9.7475C50.4881 10.4932 50.5298 11.0499 50.7345 11.4488C50.9909 11.9493 51.5131 12.2029 52.2861 12.2029C53.0591 12.2029 53.6612 11.9489 54.0761 11.4488C54.4067 11.0499 54.6248 10.4932 54.7424 9.7475L55.2315 6.65057C55.258 6.47869 55.1619 6.33342 55.0209 6.33342Z" fill="var(--fill-0, #A6A6A6)"/>
<path id="Vector_12" d="M50.3201 3.04235C50.1791 3.04235 50.0369 3.18762 50.0097 3.3595L48.6752 11.8072C48.6481 11.9791 48.7442 12.1244 48.8852 12.1244C49.0262 12.1244 49.1684 11.9791 49.1956 11.8072L50.5301 3.3595C50.5572 3.18762 50.4611 3.04235 50.3201 3.04235Z" fill="var(--fill-0, #A6A6A6)"/>
<g id="Group">
<path id="Vector_13" d="M7.2338 1.7069C7.23286 1.70728 7.09966 1.75748 6.87443 1.84266C6.837 1.69398 6.78147 1.51106 6.70255 1.32739C6.448 0.735312 6.07492 0.42159 5.62447 0.42083C5.62384 0.42083 5.62353 0.42083 5.62291 0.42083C5.59171 0.42083 5.56052 0.424249 5.52932 0.427672C5.51622 0.408278 5.50281 0.388884 5.48846 0.370631C5.29224 0.114709 5.04019 -0.0100192 4.73885 0.000628346C4.15676 0.021163 3.57716 0.53339 3.10737 1.44338C2.7764 2.08375 2.52528 2.88841 2.45385 3.51091C1.78566 3.76303 1.31805 3.93986 1.30807 3.94366C0.970855 4.07257 0.960249 4.0855 0.915952 4.47299C0.882574 4.76618 7.94679e-05 13.0861 7.94679e-05 13.0861L7.3227 14.63V1.68865C7.28651 1.69169 7.25407 1.69968 7.2338 1.7069ZM5.54305 2.34538C5.15561 2.49178 4.73261 2.6515 4.30805 2.81159C4.42753 2.2545 4.65369 1.69968 4.93163 1.33614C5.03489 1.20114 5.17963 1.05018 5.35089 0.963857C5.51216 1.37303 5.54679 1.95332 5.54305 2.34538ZM4.75008 0.472926C4.88671 0.469504 5.00182 0.506008 5.10008 0.584724C4.94286 0.684355 4.79063 0.827338 4.64807 1.01367C4.27842 1.49699 3.99517 2.24765 3.88225 2.97169C3.52975 3.10478 3.18505 3.23484 2.86811 3.35462C3.06807 2.21495 3.85168 0.504489 4.75008 0.472926ZM3.61772 6.96567C3.65702 7.72507 5.29599 7.89087 5.38801 9.66978C5.46038 11.0692 4.77909 12.0263 3.7974 12.102C2.61918 12.1925 1.97064 11.3453 1.97064 11.3453L2.2202 10.0504C2.2202 10.0504 2.8731 10.6509 3.39561 10.6106C3.73688 10.5843 3.85885 10.2459 3.84669 10.0063C3.79553 9.01571 2.46102 9.07389 2.37648 7.44633C2.30567 6.0766 3.04342 4.68861 4.67178 4.56312C5.29911 4.51482 5.62041 4.7099 5.62041 4.7099L5.24795 6.40781C5.24795 6.40781 4.83275 6.17737 4.34018 6.21502C3.61803 6.2713 3.61023 6.82649 3.61772 6.96567ZM5.92986 2.19898C5.92549 1.83962 5.89024 1.33994 5.75299 0.907954C6.1947 1.00987 6.41213 1.61906 6.50384 1.98222C6.33383 2.04687 6.14011 2.11988 5.92986 2.19898Z" fill="var(--fill-0, #A6A6A6)"/>
<path id="Vector_14" d="M7.56512 14.5947L10.6029 13.6741C10.6029 13.6741 9.29487 2.89413 9.28675 2.81998C9.27833 2.74621 9.2253 2.70514 9.18163 2.70057C9.13796 2.69601 8.2826 2.68042 8.2826 2.68042C8.2826 2.68042 7.76103 2.06324 7.56512 1.82937V14.5947Z" fill="var(--fill-0, #A6A6A6)"/>
</g>
</g>
</svg>
