<svg preserveAspectRatio="xMidYMid meet" width="100%" height="100%" overflow="visible" style="display: block;" viewBox="0 0 257.952 52.8825" fill="none" xmlns="http://www.w3.org/2000/svg">
<g id="Group">
<path id="Vector" d="M201.032 19.9916C197.746 19.9916 195.05 21.1323 193.134 23.3115L193.505 21.3905C193.623 20.7825 193.207 20.2687 192.597 20.2687C191.987 20.2687 191.372 20.7825 191.256 21.3905L185.579 50.7706C185.462 51.3786 185.877 51.8924 186.487 51.8924C187.097 51.8924 187.713 51.3786 187.83 50.7706L189.938 39.8585C190.714 41.2534 192.514 43.1663 196.555 43.1663C199.717 43.1663 202.368 42.1977 204.438 40.2849C206.574 38.3115 208.031 35.375 208.769 31.5547C209.508 27.7371 209.182 24.8073 207.806 22.8474C206.476 20.9534 204.195 19.9916 201.032 19.9916ZM196.953 41.1108C192.145 41.1108 190.243 37.8071 191.45 31.5574C192.67 25.2485 195.713 22.0497 200.496 22.0497C205.724 22.0497 207.663 25.1597 206.427 31.5574C205.167 38.0748 202.156 41.1108 196.953 41.1108Z" fill="#A6A6A6"/>
<path id="Vector_2" d="M250.014 30.3158C247.163 29.2612 244.468 28.2658 244.981 25.6158C245.239 24.284 246.323 22.0483 250.69 22.0483C253.145 22.0483 254.694 22.725 256.037 24.3849C256.289 24.6943 256.575 24.6943 256.698 24.6943C257.257 24.6943 257.821 24.2235 257.928 23.6652C257.988 23.3626 257.93 23.1837 257.796 22.9456C257.791 22.9362 257.785 22.9267 257.779 22.9173C256.416 20.9749 254.165 19.9902 251.089 19.9902C246.605 19.9902 243.402 22.1452 242.731 25.6144C241.929 29.7683 245.617 31.1579 248.872 32.3847C251.684 33.4447 254.342 34.4455 253.849 36.9865C253.156 40.5741 249.383 41.1095 247.194 41.1095C244.177 41.1095 242.315 40.2916 240.964 38.3734C240.96 38.368 240.955 38.3613 240.951 38.3559C240.783 38.1501 240.561 38.0465 240.291 38.0465C239.793 38.0465 239.179 38.4608 239.06 39.0756C239.001 39.3769 239.059 39.5545 239.192 39.7939C240.091 41.4714 242.793 43.1676 246.798 43.1676C251.875 43.1676 255.353 40.8566 256.1 36.9865C256.899 32.8595 253.241 31.5076 250.014 30.3158Z" fill="#A6A6A6"/>
<path id="Vector_3" d="M243.211 14.1898H240.836L241.293 11.8223C241.411 11.2143 240.995 10.7004 240.385 10.7004C239.775 10.7004 239.16 11.2143 239.043 11.8223L238.585 14.1898H236.21C235.6 14.1898 234.986 14.7037 234.869 15.3117C234.752 15.9197 235.167 16.4336 235.777 16.4336H238.152L237.695 18.8011C237.577 19.4091 237.993 19.9229 238.603 19.9229C239.213 19.9229 239.828 19.4091 239.944 18.8011L240.401 16.4336H242.776C243.385 16.4336 244 15.9197 244.118 15.3117C244.238 14.705 243.821 14.1898 243.211 14.1898Z" fill="#A6A6A6"/>
<path id="Vector_4" d="M54.6536 36.9919C55.8073 37.5905 57.884 38.4178 59.869 38.3721C61.669 38.3721 62.6379 37.4049 62.6379 36.2104C62.6379 35.0602 61.9456 34.2787 60.0066 33.1743C57.6074 31.7941 55.8073 29.8611 55.8073 27.3309C55.8073 22.8676 59.6382 19.6929 65.2219 19.6929C67.6683 19.6929 69.5601 20.153 70.5749 20.7516L69.0987 25.2606C68.2216 24.8463 66.7912 24.3863 65.1302 24.3863C63.3301 24.3863 62.1764 25.2149 62.1764 26.5022C62.1764 27.5138 63.0076 28.2509 64.6228 29.1253C67.1151 30.5512 69.1918 32.4842 69.1918 35.1988C69.1918 40.2594 65.0843 43.1125 59.3616 43.0667C56.7303 43.021 54.2839 42.3296 53.0857 41.5023L54.6536 36.9919Z" fill="#A6A6A6"/>
<path id="Vector_5" d="M70.4845 42.9416L76.6686 10.726H83.0377L80.5913 23.2146L80.683 23.1326C82.39 21.1081 84.6056 19.7104 87.4204 19.7104C90.7439 19.7104 92.6358 21.8412 92.6358 25.4301C92.6358 26.5345 92.4509 28.3196 92.1743 29.7011L89.682 42.943H83.313L85.7121 30.0979C85.8956 29.2235 85.9901 28.0922 85.9901 27.2192C85.9901 25.8391 85.4369 24.8369 84.0052 24.8369C81.9744 24.8369 79.8046 27.5407 78.9747 31.7282L76.8508 42.943H70.4845V42.9416Z" fill="#A6A6A6"/>
<path id="Vector_6" d="M115.668 28.5267C115.668 36.3947 110.591 43.1125 103.068 43.1125C97.3451 43.1125 94.2995 39.155 94.2995 34.2316C94.2995 26.5479 99.3772 19.6459 107.038 19.6459C112.992 19.6472 115.668 23.9719 115.668 28.5267ZM100.808 34.0944C100.808 36.3947 101.731 38.2349 103.9 38.2349C107.268 38.2349 109.162 32.2529 109.162 28.3424C109.162 26.4565 108.422 24.5248 106.162 24.5248C102.699 24.5235 100.808 30.4584 100.808 34.0944Z" fill="#A6A6A6"/>
<path id="Vector_7" d="M114.146 51.8898L118.576 28.672C119.085 26.0489 119.591 22.6564 119.869 20.2687H125.5L125.13 23.8482H125.222C126.929 21.4618 129.422 19.8597 131.959 19.8597C136.62 19.8597 138.513 23.5711 138.513 27.8501C138.513 35.5808 133.622 43.1945 126.145 43.1945C124.575 43.1945 123.145 42.9403 122.406 42.3444H122.267L120.512 51.8898H114.146ZM123.24 37.4062C123.932 37.9578 124.716 38.3263 125.871 38.3263C129.425 38.3263 131.871 32.4829 131.871 28.3882C131.871 26.6865 131.271 24.892 129.333 24.892C127.118 24.892 125.041 27.5151 124.303 31.4713L123.24 37.4062Z" fill="#A6A6A6"/>
<path id="Vector_8" d="M138.701 42.9416L142.993 20.2714H149.408L145.07 42.9416H138.701ZM146.963 17.885C145.163 17.885 143.963 16.3502 143.963 14.4642C143.963 12.394 145.578 10.6601 147.609 10.6601C149.547 10.6601 150.794 12.1801 150.794 14.0203C150.748 16.3663 149.04 17.8864 147.056 17.8864L146.963 17.885Z" fill="#A6A6A6"/>
<path id="Vector_9" d="M150.608 42.9416L153.977 25.044H151.023L151.946 20.2714H154.9L155.085 19.1307C155.593 16.4618 156.607 13.7513 158.777 11.9111C160.484 10.4395 162.745 9.77359 165.008 9.77359C166.577 9.77359 167.731 9.9942 168.469 10.3157L167.224 15.2794C166.67 15.0965 166.024 14.9552 165.193 14.9552C163.069 14.9552 161.776 16.9689 161.408 19.132L161.177 20.2714H165.607L164.73 25.044H160.346L156.977 42.9416H150.608Z" fill="#A6A6A6"/>
<path id="Vector_10" d="M173.501 20.2714L174.516 30.4194C174.794 32.6739 174.977 34.5894 175.069 35.7826H175.161C175.669 34.5894 176.131 32.8111 177.054 30.3736L180.931 20.2727H187.576L179.777 36.8695C177.008 42.5744 174.331 46.7324 171.423 49.4469C169.161 51.5629 166.484 52.6067 165.192 52.8825L163.437 47.491C164.499 47.1225 165.837 46.5669 167.037 45.6939C168.514 44.6823 169.76 43.2995 170.499 41.8736C170.682 41.5521 170.729 41.3341 170.638 40.8741L166.807 20.2741L173.501 20.2714Z" fill="#A6A6A6"/>
<path id="Vector_11" d="M238.001 22.4035C237.391 22.4035 236.776 22.9173 236.658 23.5253L234.507 34.6621C233.34 40.3347 229.845 41.1095 226.569 41.1095C220.668 41.1095 220.52 37.7587 221.153 34.4805L223.681 21.3919C223.799 20.7839 223.383 20.27 222.773 20.27C222.163 20.27 221.548 20.7839 221.431 21.3919L218.902 34.4805C218.393 37.1184 218.574 39.0877 219.459 40.4988C220.568 42.2691 222.827 43.1663 226.171 43.1663C229.515 43.1663 232.119 42.2677 233.914 40.4988C235.344 39.0877 236.287 37.1184 236.796 34.4805L238.912 23.5253C239.026 22.9173 238.611 22.4035 238.001 22.4035Z" fill="#A6A6A6"/>
<path id="Vector_12" d="M217.669 10.7623C217.059 10.7623 216.443 11.2762 216.326 11.8842L210.553 41.7673C210.436 42.3753 210.852 42.8892 211.462 42.8892C212.071 42.8892 212.687 42.3753 212.804 41.7673L218.577 11.8842C218.694 11.2762 218.279 10.7623 217.669 10.7623Z" fill="#A6A6A6"/>
<g id="Group_2">
<path id="Vector_13" d="M31.2906 6.03803C31.2865 6.03938 30.7104 6.21695 29.7361 6.51827C29.5742 5.99231 29.334 5.34527 28.9926 4.69555C27.8915 2.60111 26.2777 1.49134 24.3292 1.48865C24.3265 1.48865 24.3251 1.48865 24.3224 1.48865C24.1875 1.48865 24.0526 1.50075 23.9176 1.51285C23.8609 1.44425 23.8029 1.37565 23.7409 1.31108C22.8921 0.405773 21.8018 -0.0354422 20.4983 0.00222272C17.9804 0.0748623 15.4732 1.88683 13.4411 5.10584C12.0094 7.37111 10.9232 10.2175 10.6142 12.4196C7.7238 13.3114 5.7011 13.9369 5.65792 13.9504C4.19925 14.4064 4.15337 14.4521 3.96176 15.8229C3.81737 16.86 0 46.2911 0 46.2911L31.6752 51.7525V5.97347C31.5186 5.98423 31.3783 6.01248 31.2906 6.03803ZM23.977 8.29659C22.3011 8.81449 20.4713 9.37946 18.6348 9.94578C19.1516 7.9751 20.1299 6.01248 21.3322 4.72649C21.7789 4.24895 22.405 3.71492 23.1458 3.40957C23.8434 4.85698 23.9932 6.90971 23.977 8.29659ZM20.5469 1.67294C21.1379 1.66083 21.6358 1.78996 22.0609 2.06841C21.3808 2.42085 20.7223 2.92664 20.1056 3.58578C18.5066 5.2955 17.2814 7.95088 16.7929 10.5121C15.2681 10.9829 13.7771 11.443 12.4061 11.8667C13.2711 7.8352 16.6607 1.78459 20.5469 1.67294ZM15.6487 24.6405C15.8187 27.3268 22.9083 27.9133 23.3064 34.2061C23.6194 39.1563 20.6724 42.5421 16.4259 42.8098C11.3293 43.13 8.52398 40.1329 8.52398 40.1329L9.60348 35.5526C9.60348 35.5526 12.4277 37.6766 14.6879 37.534C16.1641 37.4412 16.6917 36.244 16.6391 35.3965C16.4178 31.8923 10.6452 32.0982 10.2795 26.3408C9.97321 21.4955 13.1645 16.5856 20.2082 16.1417C22.9218 15.9708 24.3116 16.6609 24.3116 16.6609L22.7005 22.6671C22.7005 22.6671 20.9045 21.8519 18.7738 21.9851C15.65 22.1842 15.6163 24.1482 15.6487 24.6405ZM25.6502 7.7787C25.6313 6.50751 25.4788 4.73994 24.8851 3.21181C26.7958 3.57232 27.7363 5.7273 28.1331 7.01194C27.3977 7.24062 26.5597 7.49891 25.6502 7.7787Z" fill="#A6A6A6"/>
<path id="Vector_14" d="M32.7223 51.6274L45.8625 48.3708C45.8625 48.3708 40.2046 10.2377 40.1695 9.97537C40.133 9.7144 39.9036 9.56912 39.7147 9.55298C39.5258 9.53684 35.8258 9.48168 35.8258 9.48168C35.8258 9.48168 33.5697 7.29846 32.7223 6.47117V51.6274Z" fill="#A6A6A6"/>
</g>
</g>
</svg>
