<svg preserveAspectRatio="xMidYMid meet" width="100%" height="100%" overflow="visible" style="display: block;" viewBox="0 0 229 63" fill="none" xmlns="http://www.w3.org/2000/svg">
<g id="syte-logo-colored-1 2" clip-path="url(#clip0_0_31)">
<path id="Vector" d="M53.1909 42.4566C53.2868 42.5364 51.9245 43.826 51.9245 43.826C51.9245 43.826 38.6949 52.2522 33.3036 55.4761C28.0542 58.6249 22.0954 62.3736 15.8528 61.9988C15.0016 61.9237 14.0794 61.8488 13.1572 61.6239C12.5188 61.4739 11.9513 61.324 11.3128 61.0991C8.97185 60.1994 6.98559 58.7 5.42494 56.7506C1.59429 51.9524 0.672096 45.5047 0.246469 39.5068C-0.321036 32.1595 0.175531 24.6621 0.884912 17.3899C1.2396 14.016 1.59429 10.7172 2.94211 7.56833C7.05652 -1.95325 17.8391 -0.828651 25.6422 2.02033C33.942 5.01925 44.9725 10.4369 51.9245 16.4348C49.2998 18.6839 52.9989 22.178 50.658 24.6522C48.4589 27.0513 48.6113 28.0512 49.3916 31.5C50.4557 36.5982 49.5022 39.3827 53.1909 42.4566Z" fill="#A6A6A6"/>
<path id="Vector_2" d="M103.601 39.5068C103.176 45.5796 102.253 51.9524 98.4227 56.7506C96.8621 58.7749 94.8048 60.2743 92.5348 61.0991C91.9673 61.324 91.3289 61.549 90.6904 61.6239C89.8391 61.8488 88.917 61.9237 87.9947 61.9988C81.6812 62.3736 74.5794 59.5673 69.2331 56.1521C63.8418 52.9283 56.8198 47.7996 51.9252 43.826L50.6587 42.4566C54.3475 39.3827 54.5895 36.5982 55.7245 31.5C56.5048 28.0512 57.9236 28.3459 55.7245 26.0217C53.3835 23.5477 54.5498 18.759 51.9252 16.4348C58.8771 10.4369 69.9765 5.01924 78.2763 2.02032C86.1503 -0.828653 96.8621 -1.95326 100.976 7.56833C102.324 10.7172 102.679 14.016 103.034 17.3899C103.672 24.6621 104.169 32.1595 103.601 39.5068Z" fill="#A6A6A6"/>
<path id="Vector_3" d="M63.1847 31.3806C61.9915 36.4789 56.7711 40.0024 52.8932 43.0765C52.5949 43.3013 52.2966 43.6013 51.9238 43.8262C51.6254 43.6013 51.3272 43.3764 50.9542 43.0765C47.0763 40.0024 41.8559 36.4789 40.6628 31.3806C39.8424 27.9318 41.7068 24.783 44.0187 22.4588C46.4797 19.9848 49.1646 18.759 51.924 16.4349C54.6832 18.6841 57.2186 19.9848 59.6796 22.4588C62.1406 24.783 64.005 27.9318 63.1847 31.3806Z" fill="#A6A6A6"/>
<path id="Vector_4" d="M207.337 32.7728C207.659 35.2899 208.275 37.5884 210.081 39.3965C210.191 39.5087 210.309 39.6091 210.432 39.7096C211.535 40.6313 212.826 41.1395 214.232 41.24C217.377 41.4644 220.432 41.1099 223.317 39.7213C224.191 39.3018 224.936 39.4555 225.611 40.1468C225.763 40.3004 225.909 40.46 226.05 40.6195C227.305 42.0671 226.871 44.2238 225.141 45.0332C223.54 45.7836 221.845 46.2563 220.103 46.534C218.167 46.8413 216.227 47.0186 214.268 46.8236C208.597 46.2682 204.714 43.3729 202.802 37.9192C201.993 35.6149 201.7 33.216 201.64 30.7874C201.576 28.0576 201.8 25.3633 202.573 22.728C202.979 21.3631 203.535 20.0692 204.299 18.8637C205.723 16.6185 207.652 14.9818 210.134 14.0482C213.547 12.7661 217.019 12.6065 220.444 13.9419C225.112 15.7617 227.821 19.2596 228.742 24.1876C229.124 26.2378 229.048 28.2999 228.73 30.3561C228.513 31.7741 227.411 32.7314 225.969 32.7551C225.246 32.7668 224.52 32.7551 223.797 32.7551C218.561 32.7551 213.323 32.7551 208.086 32.7551C207.864 32.7728 207.652 32.7728 207.337 32.7728ZM207.33 27.1123C208.063 27.2422 223.024 27.2068 223.487 27.065C223.394 26.3383 223.353 25.5879 223.2 24.8612C222.602 21.9896 220.924 20.0396 218.167 19.0647C216.907 18.6156 215.599 18.5743 214.285 18.7042C211.845 18.9524 209.974 20.1164 208.762 22.2908C208.21 23.2776 207.852 24.3352 207.617 25.4343C207.499 25.9955 207.423 26.5569 207.33 27.1123Z" fill="#A6A6A6"/>
<path id="Vector_5" d="M163.475 38.7407C163.581 38.4688 163.663 38.2739 163.739 38.0789C166.548 30.2972 169.369 22.5213 172.161 14.7337C172.466 13.877 173.129 13.1738 174.277 13.2447C174.805 13.2743 175.334 13.2802 175.862 13.2447C177.117 13.1679 178.201 14.4442 177.69 15.8386C176.847 18.1253 176.031 20.4178 175.205 22.7105C172.208 31.0062 169.211 39.302 166.208 47.5977C165.059 50.7826 163.516 53.7547 161.323 56.3486C158.654 59.4979 155.382 61.7196 151.394 62.8302C150.819 62.9898 150.256 63.0845 149.67 62.8953C148.726 62.5822 148.063 61.749 148.01 60.7504C147.986 60.26 147.963 59.7637 147.992 59.2733C148.045 58.4165 148.561 57.7785 149.388 57.5776C153.288 56.638 156.15 54.2687 158.361 51.0012C159.176 49.7957 159.833 48.4959 160.42 47.1664C160.572 46.8179 160.584 46.5224 160.437 46.162C157.804 39.556 155.177 32.9442 152.555 26.3325C151.183 22.8818 149.816 19.4311 148.438 15.9805C148.227 15.4428 148.157 14.911 148.397 14.3792C148.702 13.6879 149.236 13.292 149.986 13.2566C150.708 13.227 151.435 13.227 152.156 13.2566C152.983 13.292 153.534 13.7411 153.839 14.5092C154.526 16.2464 155.218 17.9776 155.904 19.7147C158.338 25.8479 160.777 31.987 163.211 38.1203C163.282 38.3035 163.364 38.4807 163.475 38.7407Z" fill="#A6A6A6"/>
<path id="Vector_6" d="M134.729 47.9164C133.445 47.9519 132.201 47.692 130.975 47.361C129.369 46.9297 127.814 46.3566 126.295 45.677C124.43 44.8439 123.492 42.8764 124.008 40.9028C124.296 39.798 125.398 39.2602 126.442 39.7271C126.636 39.8157 126.817 39.9338 127.005 40.0402C128.753 41.0329 130.583 41.7951 132.565 42.1496C134.084 42.4215 135.603 42.4629 137.081 41.9606C137.573 41.7951 138.06 41.5587 138.494 41.2693C140.113 40.2115 140.394 38.0431 139.972 36.761C139.755 36.1051 139.344 35.5911 138.817 35.1596C138.095 34.5747 137.28 34.1434 136.418 33.8124C135.216 33.3517 133.996 32.9321 132.776 32.5186C131.181 31.9749 129.621 31.3663 128.184 30.4624C126.665 29.5111 125.398 28.3175 124.542 26.7043C122.853 23.5256 123.117 18.1191 127.023 14.9994C128.782 13.5931 130.8 12.8073 133.016 12.5414C136.013 12.1809 138.881 12.8132 141.702 13.7645C141.907 13.8354 142.107 13.9004 142.306 13.989C143.321 14.4321 143.749 15.5252 143.285 16.5415C143.033 17.097 142.758 17.6346 142.476 18.1782C141.989 19.1178 141.104 19.484 140.107 19.1355C138.852 18.6923 137.573 18.3318 136.254 18.1486C134.846 17.9596 133.445 17.9833 132.09 18.4736C130.8 18.9404 129.756 19.6967 129.339 21.0793C128.747 23.0233 129.298 24.4649 130.764 25.4872C131.802 26.208 132.969 26.6572 134.148 27.0767C135.603 27.5908 137.075 28.0634 138.506 28.6306C140.207 29.3042 141.766 30.2318 143.086 31.5436C145.186 33.6294 145.93 36.1879 145.62 39.0889C145.121 43.7627 141.872 46.4984 137.96 47.5148C136.911 47.7865 135.831 47.9284 134.729 47.9164Z" fill="#A6A6A6"/>
<path id="Vector_7" d="M188.528 13.0497C188.769 13.0497 188.979 13.0497 189.191 13.0497C191.79 13.0497 194.387 13.0497 196.991 13.0497C197.203 13.0497 197.425 13.0497 197.63 13.091C198.545 13.2506 199.155 13.9655 199.172 14.8932C199.184 15.5254 199.184 16.1517 199.172 16.7839C199.155 17.7825 198.475 18.5329 197.485 18.6451C197.308 18.663 197.132 18.657 196.955 18.657C194.375 18.657 191.795 18.657 189.215 18.657C189.003 18.657 188.786 18.657 188.54 18.657C188.523 18.8402 188.504 18.9938 188.504 19.1414C188.504 24.2998 188.499 29.4581 188.504 34.6163C188.504 35.7625 188.616 36.903 188.986 37.9902C189.174 38.5456 189.42 39.0951 189.736 39.5797C190.44 40.6549 191.508 41.1867 192.757 41.2517C194.124 41.3227 195.49 41.2991 196.857 41.3168C197.091 41.3227 197.325 41.3108 197.561 41.3404C198.492 41.4586 199.155 42.1913 199.179 43.1366C199.191 43.5325 199.184 43.9224 199.179 44.3183C199.16 45.6891 198.205 46.8354 196.85 46.8827C195.079 46.9418 193.296 47.0304 191.525 46.7291C187.9 46.1027 185.456 44.0171 184.06 40.6313C183.414 39.0714 183.115 37.4288 183.003 35.7508C182.963 35.1423 182.957 34.5335 182.957 33.919C182.957 24.1108 182.957 14.3082 182.957 4.49983C182.957 4.24576 182.951 3.98577 182.981 3.73169C183.068 2.87495 183.731 2.17772 184.588 2.12455C185.344 2.07728 186.113 2.07728 186.869 2.12455C187.736 2.17772 188.406 2.89858 188.492 3.7908C188.511 3.98577 188.504 4.18667 188.504 4.38165C188.504 7.08192 188.504 9.77627 188.504 12.4765C188.499 12.6538 188.516 12.831 188.528 13.0497Z" fill="#A6A6A6"/>
</g>
<defs>
<clipPath id="clip0_0_31">
<rect width="229" height="63" fill="white"/>
</clipPath>
</defs>
</svg>
