<svg width="1600" height="900" viewBox="0 0 1600 900" xmlns="http://www.w3.org/2000/svg" role="img" aria-label="">
  <defs>
    <radialGradient id="g1" cx="25%" cy="20%" r="80%">
      <stop offset="0%" stop-color="#FF4FA3" stop-opacity="0.28" />
      <stop offset="55%" stop-color="#7B4DFF" stop-opacity="0.14" />
      <stop offset="100%" stop-color="#FFFFFF" stop-opacity="0" />
    </radialGradient>
    <radialGradient id="g2" cx="85%" cy="85%" r="85%">
      <stop offset="0%" stop-color="#3B1EED" stop-opacity="0.22" />
      <stop offset="65%" stop-color="#ED1E79" stop-opacity="0.08" />
      <stop offset="100%" stop-color="#FFFFFF" stop-opacity="0" />
    </radialGradient>
    <linearGradient id="stroke" x1="0" y1="0" x2="1" y2="1">
      <stop offset="0%" stop-color="#ED1E79" stop-opacity="0.45" />
      <stop offset="55%" stop-color="#3B1EED" stop-opacity="0.35" />
      <stop offset="100%" stop-color="#ED1E79" stop-opacity="0.25" />
    </linearGradient>
    <filter id="blur" x="-20%" y="-20%" width="140%" height="140%">
      <feGaussianBlur stdDeviation="20" />
    </filter>
  </defs>

  <rect width="1600" height="900" fill="#FAFAFA" />
  <rect width="1600" height="900" fill="url(#g1)" />
  <rect width="1600" height="900" fill="url(#g2)" />

  <g fill="none" stroke="url(#stroke)" stroke-width="2.5" opacity="0.8">
    <path d="M-120,640 C240,460 430,820 760,650 C1050,500 1220,270 1750,360" />
    <path d="M-120,720 C250,520 460,860 800,720 C1120,590 1260,340 1750,430" opacity="0.65" />
    <path d="M-120,560 C220,400 420,740 740,590 C1040,450 1200,240 1750,320" opacity="0.55" />
    <path d="M-120,400 C260,260 470,560 740,450 C1030,330 1240,170 1750,240" opacity="0.45" />
  </g>

  <g filter="url(#blur)" opacity="0.5">
    <circle cx="220" cy="160" r="140" fill="#ED1E79" fill-opacity="0.18" />
    <circle cx="1320" cy="740" r="180" fill="#3B1EED" fill-opacity="0.16" />
  </g>
</svg>
