<svg width="35" height="34" viewBox="0 0 35 34" fill="none" xmlns="http://www.w3.org/2000/svg">
<path d="M17.5 18.4168L21.75 21.2502M17.5 18.4168C11.1541 22.3067 7.41577 20.9396 4.75 19.6221C4.75 22.5672 5.71506 25.0315 7.15279 26.9168M17.5 18.4168L21.75 11.9199M21.75 21.2502C21.4397 24.1363 19.5212 30.0124 14.8871 31.1668C12.3159 31.1668 9.23746 29.6504 7.15279 26.9168M21.75 21.2502L25.4302 14.1668M7.15279 26.9168C8.62382 27.153 12.2301 27.2002 14.8871 25.5002M21.75 11.9199L27.1441 3.67412C27.5792 2.9071 28.5411 2.61442 29.3319 3.00844C30.152 3.41706 30.4845 4.41081 30.0743 5.22806L25.4302 14.1668M21.75 11.9199L25.4302 14.1668" stroke="#737373" stroke-width="1.5" stroke-linecap="round" stroke-linejoin="round"/>
<path d="M9 5.6665L9.3132 6.51289C9.72387 7.62274 9.92922 8.17767 10.334 8.58249C10.7388 8.98728 11.2938 9.19263 12.4036 9.60331L13.25 9.9165L12.4036 10.2297C11.2938 10.6404 10.7388 10.8457 10.334 11.2505C9.92922 11.6553 9.72387 12.2103 9.3132 13.3201L9 14.1665L8.6868 13.3201C8.27613 12.2103 8.07078 11.6553 7.66597 11.2505C7.26117 10.8457 6.70623 10.6404 5.59639 10.2297L4.75 9.9165L5.59639 9.60331C6.70623 9.19263 7.26117 8.98728 7.66597 8.58247C8.07078 8.17767 8.27613 7.62274 8.6868 6.51289L9 5.6665Z" stroke="#737373" stroke-width="1.5" stroke-linejoin="round"/>
</svg>
