<svg width="35" height="34" viewBox="0 0 35 34" fill="none" xmlns="http://www.w3.org/2000/svg">
<path d="M12.8682 30.4567C14.6987 27.3075 18.8911 26.9361 21.2787 29.3426C21.8125 29.8807 22.0794 30.1499 22.3161 30.182C22.5529 30.2142 24.0382 29.3623 24.5655 29.06C25.103 28.7519 26.5932 27.8971 26.6868 27.6735C26.7805 27.4498 26.6825 27.0686 26.4864 26.3062C25.7732 23.5336 27.5026 20.6157 30.2656 19.8632C31.005 19.6617 31.3746 19.561 31.5207 19.3685C31.6667 19.1759 31.6667 17.4827 31.6667 16.8632C31.6667 16.2439 31.6667 14.5505 31.5207 14.358C31.3746 14.1655 31.005 14.0647 30.2656 13.8634C27.5021 13.1108 25.7714 10.1929 26.4843 7.42026C26.6802 6.65767 26.7782 6.27637 26.6846 6.05279C26.5909 5.82923 25.1007 4.97454 24.5634 4.66637C24.036 4.36397 22.5506 3.51216 22.314 3.54434C22.0773 3.57656 21.8104 3.84557 21.2764 4.38362C19.2091 6.46672 15.7887 6.4668 13.7215 4.38375C13.1875 3.84571 12.9205 3.57669 12.6839 3.5445C12.4472 3.5123 10.9619 4.36413 10.4346 4.66654C9.89717 4.97472 8.40683 5.82939 8.31318 6.05299C8.21956 6.2766 8.31762 6.65784 8.51373 7.42036C9.22682 10.193 7.49752 13.1107 4.73449 13.8634C3.99511 14.0647 3.62542 14.1655 3.4794 14.3581C3.33337 14.5505 3.33337 16.2439 3.33337 16.8632C3.33337 17.4827 3.33337 19.1759 3.4794 19.3686C3.62545 19.5611 3.99496 19.6617 4.73398 19.863C4.74265 19.8654 4.7513 19.8678 4.75996 19.8701" stroke="#737373" stroke-width="1.5" stroke-linecap="round"/>
<path d="M4.026 25.7592C5.556 24.2299 10.758 19.081 11.268 18.4862C11.8071 17.8574 11.37 17.0079 11.6301 14.3739C11.756 13.0995 12.0302 12.1447 12.815 11.4341C13.75 10.5505 14.515 10.5505 17.15 10.491C19.445 10.5505 19.717 10.2956 19.955 10.8904C20.125 11.3152 19.615 11.5701 19.003 12.2498C17.643 13.6092 16.844 14.289 16.7675 14.7139C16.215 16.583 18.391 17.6876 19.581 16.498C20.0311 16.0482 22.114 13.9491 22.318 13.7792C22.471 13.6432 22.8372 13.6498 23.015 13.8641C23.168 14.0144 23.185 14.0341 23.168 14.7137C23.1523 15.343 23.1593 16.2463 23.1612 17.1777C23.1637 18.3847 23.1 19.7267 22.59 20.4065C21.57 21.9357 19.87 22.0207 18.34 22.0887C16.895 22.1737 15.705 22.0207 15.331 22.2926C15.025 22.4456 13.41 24.1449 11.455 26.099L7.97 29.5826C5.08 31.8768 1.901 28.3082 4.026 25.7592Z" stroke="#737373" stroke-width="1.5" stroke-linecap="round"/>
</svg>
