<svg width="297" height="86" viewBox="0 0 297 86" fill="none" xmlns="http://www.w3.org/2000/svg">
<path d="M34.9912 0.181325C38.0992 0.0336743 41.0592 1.95314 41.2072 4.31555C41.3552 5.79206 39.8752 7.26857 38.0992 7.85918C37.2112 8.15448 35.5832 8.15448 34.3993 8.00683C30.5512 7.41622 28.0352 5.34911 28.0352 5.49676C26.7032 7.41622 27.5912 9.48334 27.7392 9.48334C27.7392 9.48334 31.8832 9.33569 31.5872 11.4028C31.5872 11.5505 31.1432 11.9934 30.4032 11.9934C28.3312 11.9934 27.2952 10.3692 26.9992 10.3692C20.7832 11.4028 12.6432 18.49 11.6072 25.282C11.4592 26.0203 11.4592 26.4632 11.6072 27.0538C12.0512 30.7451 15.8992 32.5169 19.4512 32.5169C23.7432 32.5169 32.7712 29.5639 33.8072 21.5907C34.2512 18.4901 30.8472 16.2753 29.0712 16.1276C20.1912 15.0941 15.7512 24.6914 15.6032 24.839C15.0112 24.9867 19.1552 16.5706 26.8512 15.6847C27.8872 15.537 28.4792 15.6847 29.6632 15.6847C32.9193 15.98 35.5832 18.933 35.4352 22.329C35.1392 27.9397 28.4792 32.9599 22.2632 33.2552C20.6352 33.4028 19.5992 33.2552 17.9712 33.2552C13.5312 32.9599 8.64725 28.678 8.49925 23.3625C8.35125 13.3223 23.4472 9.63099 26.5553 9.63099C25.9632 7.85918 25.9632 8.00683 25.9632 6.82562C25.9632 6.08737 26.5553 4.75851 26.5553 4.75851C24.0392 3.282 21.2272 1.80549 18.1192 1.65784C15.4552 1.51018 13.8272 2.83904 13.6792 4.31555C13.5312 5.34911 14.1232 6.82562 17.0832 6.67797C17.6752 6.67797 19.1552 6.38267 19.1552 6.53032C19.1552 6.67797 16.4912 6.97327 16.3432 6.82562C14.7152 6.82562 13.3832 5.79206 13.5312 4.31555C13.6792 2.69139 15.1592 1.06723 18.1192 1.21488C21.3752 1.21488 23.7432 2.54374 26.9992 4.1679C26.8512 4.1679 29.2192 0.328976 34.9912 0.181325ZM28.0352 10.2216C28.4792 10.9598 29.5152 11.5505 30.1072 11.6981C30.4032 11.8458 30.9952 11.6981 31.2912 11.5505C31.4392 11.4028 31.2912 10.8122 30.8472 10.5169C29.5152 9.77864 28.1832 10.3692 28.0352 10.2216ZM28.3312 4.90616C28.3312 5.05381 31.2912 6.82562 33.8072 7.12092C34.6952 7.12092 35.2873 7.12092 36.1753 6.97327C38.2472 6.67797 40.0232 5.49676 40.1712 4.31555C40.1712 2.54374 37.9512 0.771929 35.5832 0.771929C32.1793 0.771929 29.9592 2.39609 28.3312 4.90616ZM35.5832 29.7115C35.5832 30.0068 35.2873 32.9599 38.5433 32.9599C41.7993 32.9599 47.8672 24.3961 47.5712 24.2484C47.2752 24.1008 42.3912 31.188 39.5792 31.7786C38.9872 31.9263 38.2472 31.3357 39.1353 29.8592C39.1353 29.7115 49.4952 9.48334 49.4952 9.48334C49.4952 9.48334 50.0872 8.59743 49.7912 8.59743C47.2752 9.48334 45.9432 8.44978 45.9432 8.59743C46.0913 8.74508 35.2873 27.7921 35.5832 29.7115ZM75.5433 23.8055C77.4672 23.8055 79.3913 25.5773 79.0952 25.725C78.9473 25.8726 77.9112 24.1008 75.2472 24.1008C73.6192 24.1008 71.8432 24.9867 70.9552 25.8726C70.9552 25.8726 77.0233 29.2686 78.0592 35.9129C78.3553 37.8323 78.3553 39.0135 78.0592 40.933C76.7272 48.1679 70.5113 52.7451 63.2593 52.7451C61.4832 52.7451 59.5592 51.8592 59.5592 51.8592C59.5592 51.5639 60.0033 52.3021 62.9632 52.4498C69.6233 52.5974 74.2113 46.2484 75.3952 39.3088C75.6912 37.3894 75.8392 36.2082 75.3952 34.1411C74.9512 31.4833 72.5832 28.235 70.2152 26.9062C70.0672 26.7585 66.8112 29.5639 60.7433 44.1813C59.5592 46.839 56.7472 54.6646 53.6393 61.7518C46.6833 77.5505 34.8433 83.6041 23.1512 84.7854C21.0792 84.933 19.8952 84.933 17.8232 84.7854C7.16725 83.8995 0.359248 75.188 0.507248 65.7384C0.655248 50.5303 15.1592 39.6041 27.1472 39.6041C32.7712 39.6041 36.9152 43.1478 36.9152 43.0001C38.5433 36.9464 48.4593 24.9867 59.5592 23.8055C61.7793 23.6578 62.9632 23.6578 65.1833 23.8055C67.8473 24.1008 70.3633 25.4296 70.3633 25.4296C71.9912 24.5437 72.8792 23.8055 75.5433 23.8055ZM37.3592 43.4431C37.2112 43.886 40.6152 46.3961 41.3553 52.3021C41.6512 54.0739 41.6512 55.2552 41.3553 57.027C38.8392 72.3827 25.5192 77.2552 25.5192 77.2552C25.5192 77.2552 23.0032 78.2887 23.7432 77.5505C23.7432 77.5505 28.3312 76.2216 32.1792 72.235C36.4712 67.8055 38.9873 61.8995 39.8752 56.8793C40.1712 54.9599 40.0233 53.9263 39.8752 52.0068C39.5793 48.4632 37.8032 45.6578 37.8032 45.6578L37.2112 44.6243C37.0632 45.5102 36.7673 46.9867 36.7673 48.3156C36.6192 50.0874 36.7672 51.1209 37.2112 52.8927C37.3592 53.631 38.0993 54.8122 37.8032 54.8122C37.6553 54.8122 36.6193 53.4833 36.3232 49.9397C36.0272 47.282 36.7673 43.886 36.7673 43.886C36.7673 43.5907 33.5112 40.6377 28.4792 40.1948C25.9632 40.0471 20.7832 40.6377 16.0472 44.0337C8.64725 49.0538 3.46725 60.5706 3.17125 64.5572C2.87525 68.2485 2.87525 69.4297 3.02325 70.6109C4.35525 78.4364 9.53525 83.4565 19.8952 83.7518C26.1112 83.8995 32.3272 79.9129 35.4352 76.6646C46.3872 65.2954 49.0513 52.1545 58.2272 38.2753C61.7793 32.8122 67.8473 27.2015 69.1793 26.4632C67.6992 25.5773 65.1833 25.1343 62.8152 24.9867C49.0512 24.2484 38.2472 38.7182 37.3592 43.4431ZM73.9152 73.2686C79.3913 63.5236 88.2712 45.8055 88.2712 45.8055C88.2712 45.8055 89.4552 46.1008 90.1952 46.1008C91.2312 46.1008 92.8593 45.6578 92.8593 45.6578C92.8593 45.6578 77.4672 75.3357 77.1712 76.074C76.7272 76.9599 77.1712 77.6981 78.0592 77.9934C79.0953 78.1411 83.6833 74.7451 84.1273 72.5303C85.0153 67.6578 93.0072 58.5035 99.9632 58.7988C102.183 58.7988 102.923 59.98 103.515 61.3088C103.663 61.1612 104.847 59.3894 104.995 59.0941C104.995 59.0941 107.215 59.98 109.435 59.2417C109.435 59.2417 99.6672 76.6646 99.6672 76.8122C99.5192 77.5505 99.8152 77.9934 100.703 78.1411C102.331 78.2887 106.919 74.5974 107.363 72.5303C108.399 68.1008 115.059 59.2417 121.571 59.2417C123.643 59.2417 123.939 60.4229 123.939 61.7518C123.939 63.9666 121.571 66.1813 120.831 66.4766C120.683 66.4766 120.387 66.4766 119.943 66.1813C119.647 65.886 119.647 65.4431 119.647 65.0001C119.647 63.0807 121.867 60.4229 123.347 60.4229C123.199 59.98 122.903 59.6847 122.015 59.6847C118.463 59.6847 110.767 71.4968 110.915 75.7786C110.915 77.1075 111.507 78.584 112.987 78.4364C116.391 78.2887 120.683 74.7451 121.571 72.5303C122.607 70.1679 128.971 59.2417 128.971 59.0941C128.971 59.0941 129.563 59.8323 133.263 59.2417C133.263 59.2417 124.235 76.5169 124.087 76.8122C123.791 77.4028 123.939 78.1411 124.827 78.2887C126.307 78.584 130.747 74.4498 131.191 72.5303C131.931 69.725 138.443 59.0941 145.103 59.0941C146.435 59.0941 147.471 59.537 147.915 60.8659C148.211 61.7518 148.063 62.933 147.915 64.1142C147.471 66.329 146.583 68.2484 145.251 71.0538C145.251 71.0538 145.843 70.9062 146.435 70.7585C148.803 70.1679 150.727 67.9531 151.023 68.1008C151.319 68.3961 147.915 71.6444 144.659 71.7921C144.659 71.7921 139.627 79.027 134.891 79.027C132.079 79.027 130.747 75.9263 130.895 74.1545C130.303 74.8927 126.899 79.1746 123.791 78.8793C120.387 78.584 120.535 75.631 120.535 74.8927C119.203 76.2216 115.651 79.027 112.099 78.8793C110.323 78.7317 107.215 77.5505 107.215 73.8592C106.179 75.0404 102.775 78.8793 98.9272 78.7317C96.7072 78.584 95.8192 76.9599 95.5232 75.4833C94.6352 76.3693 91.6753 79.1746 87.6793 78.8793C84.4232 78.7317 83.2393 76.2216 83.3873 74.5974C82.2032 75.4833 79.6872 78.8793 76.5793 78.584C74.5072 78.4364 73.3232 77.1075 73.0273 75.3357C71.1032 76.9599 69.3272 78.584 66.3672 78.584C64.1472 78.584 62.8152 76.6646 62.8152 75.0404C61.1872 76.6646 58.3753 78.7317 55.1193 78.7317C51.7153 78.7317 50.9753 76.2216 50.8272 74.4498C50.6792 68.6914 59.4113 58.3558 66.6633 58.5035C69.6233 58.5035 69.9193 59.537 70.6592 60.8659C71.1032 60.4229 72.1393 58.5035 72.1393 58.6511C72.1393 58.6511 74.3593 59.2417 76.5793 58.7988C76.5793 58.7988 66.8112 76.2216 66.6633 76.2216C66.0713 77.4028 67.4033 77.8458 67.5512 77.8458C69.4753 77.8458 71.3993 76.074 71.8433 75.631C73.3232 74.5974 73.9152 73.2686 73.9152 73.2686ZM134.447 76.8122C134.447 77.4028 134.891 78.4364 135.779 78.4364C138.739 78.2887 143.179 73.1209 143.771 72.0874C142.883 71.4968 142.587 71.2015 142.291 70.4632C142.143 70.0203 142.143 68.9867 142.291 68.2485C142.735 66.1813 143.771 64.1142 145.843 64.2619C146.287 64.2619 146.583 64.4095 147.027 64.8525C147.323 64.4095 147.471 63.2283 147.471 62.4901C147.471 61.6041 147.175 60.1276 145.991 60.1276C141.403 60.1276 134.595 73.5639 134.447 76.8122ZM54.8232 76.2216C54.8232 76.8122 55.1193 78.1411 56.3032 78.1411C61.6312 78.1411 68.7353 67.8055 69.6233 61.8995C69.9193 60.1276 68.8832 59.3894 67.1072 59.6847C61.9272 60.5706 54.5272 73.4162 54.8232 76.2216ZM87.5312 76.5169C87.5312 77.4028 87.9753 78.4364 89.1592 78.4364C95.2272 78.2887 100.407 68.6914 102.331 61.8995C102.923 60.1276 101.739 59.3894 99.9632 59.6847C94.9312 60.2753 87.2352 73.7115 87.5312 76.5169ZM130.747 56.1411C130.451 57.4699 131.487 57.9129 132.375 57.9129C133.707 57.9129 134.743 57.027 135.187 55.6981C135.335 55.2552 135.335 54.9599 135.187 54.6646C134.891 53.9263 133.707 53.9263 133.707 53.9263C133.263 53.7786 131.191 54.074 130.747 56.1411ZM181.659 45.6578C181.659 45.6578 182.991 45.8055 183.879 45.8055C184.915 45.8055 186.395 45.5102 186.395 45.5102C186.395 45.5102 172.187 72.678 170.115 76.9599C169.523 78.1411 170.115 78.4364 170.559 78.584C172.187 78.7317 175.739 75.631 175.739 74.3021C175.739 74.1545 175.295 71.3491 177.959 67.5102C181.955 61.8995 186.395 59.6847 188.763 59.2417C189.651 59.0941 190.391 59.2417 191.131 59.2417C192.759 59.3894 193.647 61.0135 193.499 62.0471C192.907 65.5907 188.023 69.4297 181.807 67.9531C181.807 67.9531 179.587 71.3491 179.587 75.0404C179.587 76.9599 180.327 78.4364 182.103 78.4364C188.171 78.7317 192.907 69.5773 193.203 69.8726C193.499 70.1679 188.615 78.2887 183.287 79.027C181.955 79.1746 181.067 79.4699 179.587 79.027C177.663 78.4364 175.887 76.6646 175.443 75.7786C174.851 76.3693 172.187 79.3223 169.671 79.3223C167.895 79.3223 165.675 77.6981 165.823 75.4833C164.935 76.3693 162.271 78.8793 159.903 79.1746C158.719 79.3223 157.979 79.3223 156.795 79.1746C154.871 78.8793 153.243 77.4028 153.243 74.5974C153.243 68.9867 162.567 58.2082 169.671 58.2082C172.335 58.2082 172.779 60.7182 172.779 61.6042L181.659 45.6578ZM157.831 76.2216C157.831 77.4028 158.423 78.4364 159.607 78.4364C163.603 78.584 169.671 71.6444 172.187 62.7854C172.779 60.8659 172.335 59.2417 170.263 59.0941C165.971 58.9464 157.831 72.235 157.831 76.2216ZM182.547 66.9196C182.547 66.7719 182.695 67.3625 184.915 66.9196C188.467 66.4766 191.871 62.933 192.019 60.8659C192.167 59.6847 190.983 59.3894 190.539 59.3894C185.951 59.6847 182.547 66.7719 182.547 66.9196ZM197.939 38.4229C197.939 38.4229 197.643 39.4565 197.643 40.4901C197.939 44.9196 202.083 46.2484 205.931 46.2484C213.479 46.3961 218.215 38.5706 217.623 38.7182C217.179 38.8659 213.479 45.2149 206.967 45.9531C205.931 46.1008 204.895 45.9531 203.859 45.8055C198.235 44.7719 197.643 41.5236 198.087 38.7182C198.087 38.5706 199.863 32.8122 207.411 31.631C208.595 31.4833 209.927 31.3357 211.407 31.631C214.367 32.0739 216.143 32.9599 219.251 33.2552C220.583 33.4028 221.323 33.4028 222.507 33.4028C223.691 33.4028 224.283 33.2552 225.319 33.1075C227.095 32.8122 228.723 32.3692 229.759 32.2216C227.243 33.9934 221.767 37.98 216.587 45.2149C210.075 54.2216 208.447 58.0605 208.151 58.0605H202.379V59.2417H207.411C205.191 62.6377 195.127 84.7854 182.695 84.933C177.071 84.933 174.259 82.7182 174.259 82.7182C173.519 82.2753 172.631 81.3894 172.483 81.6847C172.483 81.98 176.183 85.5236 182.251 85.6713C183.583 85.6713 184.323 85.8189 185.803 85.6713C193.943 85.0807 200.159 80.2082 204.451 76.2216C211.259 70.0203 215.847 59.2417 215.847 59.2417H221.471C219.251 62.933 215.847 68.3961 215.403 73.1209C215.255 74.5974 215.255 75.0404 215.403 76.8122C216.291 83.3089 220.287 85.0807 223.247 85.2283C226.799 85.376 229.759 82.2753 229.759 82.1276C229.759 81.537 227.687 83.8995 224.579 84.3424C223.543 84.4901 221.915 83.4565 221.619 81.98C221.323 80.2082 221.323 79.4699 221.619 78.1411C222.951 71.2015 229.019 59.0941 228.871 59.0941C228.871 59.0941 230.351 59.0941 231.979 59.0941V57.9129H229.463C232.423 50.678 244.855 32.6645 250.035 28.5303C250.035 28.5303 249.147 28.8256 248.703 28.9733C242.783 31.4833 233.903 42.5572 233.607 42.8525C228.723 48.3156 222.359 58.0605 222.211 58.0605H216.291C224.283 37.8323 236.715 28.678 236.715 28.678C234.051 30.1545 230.647 31.3357 226.503 31.7786C224.135 32.0739 222.655 31.9263 220.287 31.7786C217.475 31.631 215.847 30.8927 213.183 30.5974C210.963 30.3021 209.779 30.1545 207.559 30.5974C203.415 31.3357 199.419 34.1411 197.939 38.4229ZM237.307 55.6981C237.011 57.027 238.047 57.4699 238.935 57.4699C240.267 57.4699 241.303 56.584 241.747 55.2552C241.895 54.8122 241.747 54.5169 241.747 54.2216C241.451 53.4833 240.267 53.4833 240.267 53.4833C239.823 53.3357 237.603 53.631 237.307 55.6981ZM258.027 55.8458C258.471 55.1075 259.655 54.8122 260.099 55.8458C260.987 58.0605 259.507 58.7988 259.507 59.3894C259.803 60.4229 263.651 57.3223 265.279 60.4229C265.575 60.8659 265.427 62.0471 265.279 62.3424C263.059 67.0672 258.767 73.5639 258.175 76.074C257.731 77.8458 258.027 78.1411 258.915 78.1411C259.951 78.2887 262.023 76.8122 265.279 71.4968C265.279 71.4968 269.571 65.1478 270.607 60.2753C270.311 59.6847 269.423 58.9464 269.423 57.7652C269.423 56.584 270.311 55.6981 270.311 55.6981C270.459 55.4028 272.087 54.2216 272.531 55.8458C273.123 58.3558 271.643 58.7988 271.939 59.3894C272.383 60.1276 274.159 58.3558 276.379 59.0941C277.415 59.3894 277.711 60.5706 277.711 61.4565C277.563 65.0001 269.867 74.7451 269.719 76.8122C269.719 78.1411 270.459 78.1411 270.607 78.1411C272.531 78.1411 275.491 74.7451 275.491 74.5974C275.491 68.3961 283.335 57.6176 289.551 57.6176C291.475 57.6176 292.659 58.7988 292.659 61.1612C292.511 64.4095 291.327 68.2485 290.291 70.1679C290.291 70.1679 290.883 70.1679 291.179 70.0203C294.139 69.282 296.211 66.6243 296.507 66.9196C296.803 67.2149 292.955 70.7585 289.847 71.0538C289.847 71.0538 285.407 78.8793 280.227 79.027C277.415 79.027 276.083 76.2216 275.787 75.4833C274.011 77.1075 272.531 78.8793 270.015 79.027C268.239 79.1746 266.907 77.8458 266.759 75.3357C266.611 71.2015 271.199 65.5907 274.455 61.1612C274.751 60.7182 274.603 59.8323 273.715 60.1276C272.235 60.5706 271.199 60.2753 271.199 60.2753C271.347 61.8995 262.615 80.5035 257.731 79.1746C257.731 79.1746 256.843 79.3223 255.659 78.4364C254.771 77.6981 254.623 75.7786 254.771 75.3357C254.919 70.3156 259.507 65.0001 262.171 61.1612C262.615 60.5706 262.171 59.8323 261.431 60.1276C259.655 60.7182 259.063 60.1276 259.063 60.4229C258.767 62.933 249.887 79.4699 243.227 79.1746C241.155 79.027 238.343 77.5505 237.603 74.5974C236.863 75.3357 234.199 79.1746 230.943 79.1746C229.315 79.1746 227.391 77.9934 227.391 75.631C227.391 73.7115 232.571 64.5572 232.719 64.2619C233.459 62.7854 235.383 58.7988 235.531 58.7988C237.011 59.2417 238.047 59.3894 239.971 58.9464L230.943 76.6646C230.203 77.8458 230.943 78.1411 231.535 78.2887C233.015 78.7317 237.159 74.7451 237.455 73.2686C238.639 65.7384 246.039 59.3894 251.367 58.2082C252.107 58.0605 252.403 58.2082 253.143 58.2082C254.623 58.3558 255.659 59.6847 255.511 61.0135C255.067 67.9531 244.855 68.2485 243.819 67.5102C243.819 67.5102 241.747 70.6109 241.747 74.5974C241.747 77.5505 242.783 78.1411 244.411 78.1411C249.147 78.2887 257.435 65.1478 258.619 60.4229C258.471 60.2753 256.251 58.3558 258.027 55.8458ZM279.487 76.3693C279.487 78.1411 280.523 78.2887 281.263 78.1411C284.371 77.5505 287.775 73.1209 288.959 71.2015C288.071 70.7585 287.331 70.3156 287.035 69.4297C286.739 68.5437 286.887 67.8055 287.035 66.9196C287.479 64.8525 288.811 62.7854 290.587 62.933C291.179 62.933 291.475 63.376 291.771 63.5236C291.919 62.7854 292.067 61.8995 292.067 61.1612C292.067 60.1276 291.623 58.7988 290.143 58.7988C285.555 58.6511 279.635 72.3827 279.487 76.3693ZM243.967 66.4766C243.967 66.4766 244.263 66.6243 245.595 66.6243C249.443 66.6243 253.735 62.4901 253.883 60.1276C254.031 59.0941 252.995 58.3558 252.255 58.5035C248.259 59.2417 244.707 64.4095 243.967 66.4766Z" fill="#BBC1CF"/>
</svg>
