<svg width="163" height="70" viewBox="0 0 163 70" fill="none" xmlns="http://www.w3.org/2000/svg">
<rect width="163" height="70" fill="#1E1E1E"/>
<g id="BILDIT CMS" clip-path="url(#clip0_0_1)">
<rect width="1920" height="10899" transform="translate(-649 -1243)" fill="#FAFAFA"/>
<g id="Group 19356">
<rect id="Rectangle 2683" x="-649" y="-153" width="1920" height="291" fill="#F5F7FA"/>
<g id="Frame 2133">
<g id="Frame 1906">
<g id="Belk_logo 1" clip-path="url(#clip1_0_1)">
<g id="Clip path group">
<mask id="mask0_0_1" style="mask-type:luminance" maskUnits="userSpaceOnUse" x="0" y="0" width="163" height="70">
<g id="clip0_691_19">
<path id="Vector" d="M162.507 0.5H0.506836V69.5H162.507V0.5Z" fill="white"/>
</g>
</mask>
<g mask="url(#mask0_0_1)">
<g id="Group">
<path id="Vector_2" d="M109.16 68.9102H106.955V0.712434H114.067V68.9102H109.16ZM146.859 68.9102L124.652 50.9819V68.9077H117.541V0.72574H124.652V36.0356L146.859 18.1086H158.26L126.793 43.5094L158.264 68.9104L146.859 68.9102ZM7.79805 43.0439V43.0578C7.81692 53.6429 16.2776 62.2046 26.7388 62.2237C37.2038 62.2046 45.6615 53.6429 45.6801 43.0654C45.6612 32.4763 37.2005 23.9153 26.7439 23.8951C16.283 23.9153 7.82644 32.4703 7.79805 43.0439ZM0.68457 43.0611V0.712402H7.79805V24.966C12.5462 19.8794 19.2765 16.7013 26.7388 16.6986H26.7408C41.1309 16.7017 52.7941 28.4993 52.7941 43.0608C52.7941 57.6214 41.1341 69.421 26.7391 69.4221C12.3478 69.4212 0.687555 57.6214 0.68457 43.0611ZM76.7156 24.2834C75.4873 24.5378 74.2999 24.9155 73.1629 25.402C72.0322 25.8843 70.9558 26.4751 69.9507 27.1655C68.9407 27.8554 68.0024 28.6406 67.1444 29.5084C66.2843 30.3779 65.5063 31.3292 64.826 32.3448C64.1486 33.3662 63.5629 34.4533 63.0831 35.6042C62.6033 36.7526 62.2335 37.948 61.9806 39.1965C61.7278 40.435 61.5954 41.731 61.5954 43.0608C61.5954 44.3931 61.7278 45.685 61.9785 46.9237C62.1496 47.767 62.3763 48.5871 62.6504 49.384L93.8849 29.4648C93.0417 28.6139 92.1191 27.8443 91.1215 27.1655C90.1133 26.4751 89.0403 25.8843 87.9127 25.4005C86.7752 24.9155 85.5881 24.5378 84.3649 24.2834C83.1266 24.031 81.8478 23.8951 80.5376 23.8951C79.2273 23.8951 77.9474 24.031 76.7156 24.2834ZM75.294 68.8845C73.5931 68.536 71.9518 68.0153 70.3917 67.3482C68.8312 66.6801 67.352 65.8611 65.9651 64.9155C64.5831 63.9702 63.2917 62.8949 62.1092 61.699C60.9334 60.5069 59.8708 59.2033 58.9312 57.8001C58.001 56.3988 57.1904 54.9007 56.5308 53.3222C55.8694 51.7425 55.3569 50.0833 55.0146 48.3705C54.6639 46.6515 54.4855 44.872 54.4855 43.0608C54.4855 41.2458 54.6639 39.4684 55.0127 37.7565C55.3569 36.0367 55.8694 34.3777 56.5308 32.8003C57.1904 31.2184 58.001 29.7198 58.9363 28.3161C59.8708 26.9199 60.9334 25.6151 62.1092 24.4214C63.2917 23.2291 64.581 22.1497 65.9705 21.1993C67.3552 20.2574 68.8347 19.4406 70.3919 18.7746C71.9502 18.1032 73.5934 17.5834 75.2943 17.232C76.99 16.8848 78.7442 16.6986 80.5378 16.6986C82.3312 16.6986 84.0857 16.8845 85.7836 17.2332C87.4815 17.5834 89.1192 18.1031 90.6797 18.7734C92.2404 19.4406 93.7199 20.2574 95.1041 21.2002C96.4942 22.1497 97.7837 23.23 98.9627 24.4214C100.14 25.6123 101.205 26.9184 102.139 28.3144L104.198 31.3922L66.222 55.6106C66.5163 55.9556 66.8234 56.2905 67.1447 56.6132C68.0024 57.4812 68.9412 58.264 69.9458 58.9537C70.9561 59.6432 72.0357 60.2369 73.161 60.7193C74.2985 61.2029 75.4846 61.5798 76.7226 61.8351C77.9461 62.0909 79.2238 62.2234 80.5381 62.2234C81.8516 62.2234 83.1309 62.0909 84.359 61.8351C85.5906 61.5798 86.7785 61.2029 87.9071 60.7226C89.0389 60.238 90.1182 59.6432 91.1242 58.957C92.1342 58.264 93.0738 57.4812 93.9315 56.6132C94.7917 55.7399 95.5683 54.7924 96.2435 53.7787C96.9268 52.7516 97.512 51.664 97.9929 50.5174L98.8525 48.4608L105.405 51.2644L104.545 53.3211C103.884 54.8974 103.08 56.3988 102.141 57.8012C101.205 59.2043 100.14 60.5069 98.9627 61.7009C97.7815 62.8941 96.4923 63.9702 95.1011 64.9199C93.7224 65.8611 92.2428 66.6812 90.6794 67.3493C89.119 68.0153 87.479 68.536 85.7865 68.8845C84.0854 69.2383 82.329 69.4221 80.5376 69.4221C78.7464 69.4221 76.9897 69.2383 75.294 68.8845Z" fill="#BBC1CF"/>
<path id="Vector_3" d="M160.563 66.1388H160.046V66.808H160.563C160.823 66.808 160.976 66.6815 160.976 66.4745C160.976 66.2566 160.823 66.1388 160.563 66.1388ZM160.899 67.0936L161.461 67.8905H160.987L160.48 67.1593H160.046V67.8905H159.649V65.7763H160.58C161.065 65.7763 161.384 66.028 161.384 66.4521C161.384 66.7982 161.186 67.0088 160.899 67.0936ZM160.458 65.0754C159.439 65.0754 158.666 65.893 158.666 66.898C158.666 67.9022 159.434 68.7106 160.447 68.7106C161.468 68.7106 162.24 67.8905 162.24 66.8874C162.24 65.8816 161.473 65.0754 160.458 65.0754ZM160.447 68.9102C159.328 68.9102 158.458 68.002 158.458 66.898C158.458 65.7924 159.34 64.873 160.457 64.873C161.576 64.873 162.448 65.7826 162.448 66.8874C162.448 67.9914 161.566 68.9102 160.447 68.9102Z" fill="#BBC1CF"/>
</g>
</g>
</g>
</g>
</g>
</g>
</g>
</g>
<defs>
<clipPath id="clip0_0_1">
<rect width="1920" height="10899" fill="white" transform="translate(-649 -1243)"/>
</clipPath>
<clipPath id="clip1_0_1">
<rect width="162" height="69" fill="white" transform="translate(0.506836 0.5)"/>
</clipPath>
</defs>
</svg>
